<?xml version="1.0" standalone="no"?>
<!DOCTYPE svg PUBLIC "-//W3C//DTD SVG 1.1//EN" "http://www.w3.org/Graphics/SVG/1.1/DTD/svg11.dtd" >
<svg xmlns="http://www.w3.org/2000/svg" xmlns:xlink="http://www.w3.org/1999/xlink" version="1.1">
<metadata>
Created by FontForge 20170731 at Tue Jul  2 14:53:20 2013
 By Aleksey,,,
Copyright (c) 2013 by Etihad Airways. All rights reserved.
</metadata>
<defs>
<font id="EtihadAltis-Text" horiz-adv-x="1148" >
  <font-face 
    font-family="Etihad Altis Text"
    font-weight="400"
    font-stretch="normal"
    units-per-em="2048"
    panose-1="2 11 6 3 3 0 0 0 0 3"
    ascent="1602"
    descent="-446"
    x-height="1114"
    cap-height="1393"
    bbox="-164 -500 2071 1915"
    underline-thickness="151"
    underline-position="-365"
    unicode-range="U+000D-FB04"
  />
<missing-glyph horiz-adv-x="748" 
d="M68 0v1365h544v-1365h-544zM136 68h408v1229h-408v-1229z" />
    <glyph glyph-name="uniFB01" unicode="fi" horiz-adv-x="1173" 
d="M51 958v54l139 90v137q0 154 85 233.5t231 79.5q130 0 194 -59v-180q-33 38 -69 58t-94 20q-77 0 -110.5 -40t-33.5 -118v-119h635v-1114h-205v958h-430v-958h-205v958h-137zM809 1378q0 109 115 109q57 0 87.5 -28t30.5 -81q0 -51 -30.5 -77.5t-87.5 -26.5
q-115 0 -115 104z" />
    <glyph glyph-name="uniFB02" unicode="fl" horiz-adv-x="1169" 
d="M51 952v60l139 90v137q0 154 85 233.5t231 79.5q130 0 194 -59v-180q-33 38 -69 58t-94 20q-77 0 -110.5 -40t-33.5 -118v-119h242l-57 -162h-185v-952h-205v952h-137zM819 0v1522h203v-1522h-203z" />
    <glyph glyph-name="uniFB03" unicode="ffi" horiz-adv-x="1808" 
d="M51 958v54l139 90v137q0 153 89.5 233t236.5 80q137 0 215 -59v-180q-82 78 -184 78q-154 0 -154 -158v-119h430v125q0 153 90 233t238 80q135 0 213 -59v-180q-78 78 -184 78q-152 0 -152 -158v-119h633v-1114h-203v958h-430v-958h-205v958h-430v-958h-205v958h-137z
M1444 1378q0 109 112 109q58 0 88.5 -28t30.5 -81q0 -104 -119 -104q-112 0 -112 104z" />
    <glyph glyph-name="uniFB04" unicode="ffl" horiz-adv-x="1802" 
d="M51 958v54l139 90v137q0 153 89.5 233t236.5 80q137 0 215 -59v-180q-82 78 -184 78q-154 0 -154 -158v-119h430v125q0 153 90 233t238 80q135 0 213 -59v-180q-82 78 -184 78q-152 0 -152 -158v-119h256l-57 -156h-199v-958h-205v958h-430v-958h-205v958h-137zM1452 0
v1522h205v-1522h-205z" />
    <glyph glyph-name=".notdef" horiz-adv-x="748" 
d="M68 0v1365h544v-1365h-544zM136 68h408v1229h-408v-1229z" />
    <glyph glyph-name="glyph1" horiz-adv-x="2048" 
 />
    <glyph glyph-name="glyph1" horiz-adv-x="2048" 
 />
    <glyph glyph-name="uni000D" unicode="&#xd;" horiz-adv-x="2048" 
 />
    <glyph glyph-name="space" unicode=" " horiz-adv-x="491" 
 />
    <glyph glyph-name="exclam" unicode="!" horiz-adv-x="520" 
d="M131 102q0 58 36.5 96t94.5 38q57 0 93 -38t36 -96q0 -59 -36 -96t-93 -37q-58 0 -94.5 37t-36.5 96zM145 1393h230l-25 -994h-180z" />
    <glyph glyph-name="quotedbl" unicode="&#x22;" horiz-adv-x="714" 
d="M102 1407v37q0 46 30 77t77 31q46 0 76 -31t30 -77v-37l-63 -336h-84zM399 1407v37q0 46 30 77t77 31q46 0 76 -31t30 -77v-37l-63 -336h-86z" />
    <glyph glyph-name="numbersign" unicode="#" horiz-adv-x="1382" 
d="M72 426l16 100h305l64 377h-301l14 101h305l72 417h117l-72 -417h299l72 417h116l-71 -417h301l-17 -101h-303l-65 -377h305l-19 -100h-303l-73 -426h-115l72 426h-299l-74 -426h-115l72 426h-303zM508 526h301l63 377h-299z" />
    <glyph glyph-name="dollar" unicode="$" horiz-adv-x="1069" 
d="M96 182v199q42 -56 146 -96.5t231 -40.5q150 0 224.5 40.5t74.5 131.5q0 41 -14.5 69.5t-45.5 47t-59 28t-75 21.5l-189 43q-137 30 -212 103.5t-75 213.5q0 125 76.5 205t218.5 110v179h97v-164q54 4 86 4h32v160h93v-170q90 -12 153 -40t96 -57v-198q-43 57 -144 97
t-230 40q-140 0 -209.5 -33.5t-69.5 -116.5q0 -39 13 -67.5t40.5 -46.5t56 -28.5t72.5 -20.5l187 -39q75 -17 127.5 -39.5t96 -59t65.5 -92.5t22 -131q0 -121 -71 -206.5t-205 -123.5v-198h-93v178q-74 -8 -118 -8v-170h-97v172q-112 10 -190.5 40t-110.5 64z" />
    <glyph glyph-name="percent" unicode="%" horiz-adv-x="1476" 
d="M72 1085q0 104 24 179.5t67 118t96 62t118 19.5q91 0 170 -45q66 -38 124 -52.5t148 -14.5q186 0 281 114l98 -57l-799 -1409h-133l723 1280q-67 -39 -170 -39q-95 0 -168 27q29 -76 29 -183q0 -374 -303 -374q-52 0 -95.5 11t-83 38t-67 69t-43.5 107t-16 149zM223 1085
q0 -129 38.5 -187t115.5 -58t114 58t37 187q0 130 -37.5 190t-113.5 60q-154 0 -154 -250zM797 344q0 200 84 289.5t221 89.5t221 -89.5t84 -289.5q0 -104 -24 -179.5t-67 -117.5t-96 -61t-118 -19t-118 19t-96 61t-67 117.5t-24 179.5zM948 344q0 -129 38.5 -188.5
t115.5 -59.5q76 0 113.5 59t37.5 189t-37.5 189t-113.5 59q-77 0 -115.5 -59.5t-38.5 -188.5z" />
    <glyph glyph-name="ampersand" unicode="&#x26;" horiz-adv-x="1536" 
d="M74 424q0 97 43.5 178.5t105.5 130.5t137 76q-151 109 -151 272q0 160 122.5 252t319.5 92q114 0 194.5 -34t108.5 -72v-221q-38 56 -119 101.5t-178 45.5q-115 0 -176 -44.5t-61 -121.5q0 -63 30.5 -109.5t102.5 -103.5l125 -108v-49h-201q-80 -35 -136 -100t-56 -160
q0 -142 99.5 -222t299.5 -80q222 0 349.5 101t127.5 307q0 83 -24 156h-162v178h549l-58 -178h-127q23 -63 23 -146q0 -145 -52.5 -259.5t-146 -188t-218.5 -112t-273 -38.5q-290 0 -444 118t-154 339z" />
    <glyph glyph-name="quotesingle" unicode="'" horiz-adv-x="417" 
d="M102 1407v37q0 46 30 77t77 31q46 0 76 -31t30 -77v-37l-63 -336h-84z" />
    <glyph glyph-name="parenleft" unicode="(" horiz-adv-x="688" 
d="M80 616q0 165 50 326.5t145.5 292.5t218.5 197h186q-191 -102 -304.5 -322t-113.5 -494q0 -284 117 -517.5t301 -340.5h-186q-123 68 -218 204t-145.5 306.5t-50.5 347.5z" />
    <glyph glyph-name="parenright" unicode=")" horiz-adv-x="686" 
d="M8 -242q191 103 304.5 323t113.5 494q0 285 -117 518.5t-301 338.5h185q124 -67 219 -203.5t144.5 -306.5t49.5 -347q0 -255 -113.5 -485.5t-299.5 -331.5h-185z" />
    <glyph glyph-name="asterisk" unicode="*" horiz-adv-x="878" 
d="M100 1044l236 140l-236 131l80 115l201 -140l-12 242h143l-10 -240l200 138l78 -109l-233 -139l231 -138l-76 -112l-200 137l10 -238h-143l10 240l-199 -141z" />
    <glyph glyph-name="plus" unicode="+" horiz-adv-x="1103" 
d="M78 631v180h383v387h180v-387h383v-180h-383v-387h-180v387h-383z" />
    <glyph glyph-name="comma" unicode="," horiz-adv-x="452" 
d="M74 -301q83 152 96 283q-36 15 -56 46.5t-20 73.5q0 60 36.5 97t96.5 37q59 0 93 -38.5t34 -107.5q0 -114 -58.5 -227t-123.5 -180z" />
    <glyph glyph-name="hyphen" unicode="-" horiz-adv-x="774" 
d="M125 535v174h524v-174h-524z" />
    <glyph glyph-name="period" unicode="." horiz-adv-x="448" 
d="M94 102q0 58 36.5 96t94.5 38q57 0 93 -38t36 -96q0 -59 -36 -96t-93 -37q-58 0 -94.5 37t-36.5 96z" />
    <glyph glyph-name="slash" unicode="/" horiz-adv-x="1234" 
d="M47 -162l989 1737h156l-991 -1737h-154z" />
    <glyph glyph-name="zero" unicode="0" horiz-adv-x="1173" 
d="M90 698q0 362 128 544.5t370 182.5q139 0 234 -44t152.5 -137t82 -225t24.5 -321q0 -363 -125 -547t-368 -184q-271 0 -384.5 177t-113.5 554zM303 698q0 -299 61 -427t224 -128q157 0 218.5 129.5t61.5 425.5q0 120 -7.5 206t-26 154.5t-50.5 109.5t-80.5 62t-115.5 21
q-157 0 -221 -129.5t-64 -423.5z" />
    <glyph glyph-name="one" unicode="1" horiz-adv-x="737" 
d="M84 999v185l393 217h98v-1401h-200v1149z" />
    <glyph glyph-name="two" unicode="2" horiz-adv-x="1024" 
d="M76 1059v198q51 70 154.5 119t238.5 49q219 0 326.5 -112t107.5 -314q0 -80 -23.5 -160t-71 -160.5t-85.5 -133.5t-100 -131l-183 -228h492v-186h-830v23l412 542q89 115 140 212.5t51 201.5q0 129 -67 197.5t-202 68.5q-106 0 -204 -54t-156 -132z" />
    <glyph glyph-name="three" unicode="3" horiz-adv-x="1044" 
d="M82 1393h846v-23l-350 -567q184 -23 280 -114.5t96 -274.5q0 -87 -33 -165.5t-97.5 -142t-172 -101.5t-243.5 -38q-183 0 -308 76v203q103 -107 289 -107q350 0 350 269q0 122 -81 184.5t-271 62.5h-72v21l332 538h-508z" />
    <glyph glyph-name="four" unicode="4" horiz-adv-x="1130" 
d="M31 307v23l395 1063h195l-322 -895h426v534h195v-534h182l-49 -191h-133v-307h-195v307h-694z" />
    <glyph glyph-name="five" unicode="5" horiz-adv-x="1040" 
d="M98 43v203q126 -107 308 -107q165 0 249 71t84 193q0 118 -76 179t-245 61q-83 0 -155.5 -18t-117.5 -47l29 815h756l-60 -179h-520l-12 -430q19 12 68 21.5t94 9.5q221 0 336.5 -98t115.5 -295q0 -204 -145 -329.5t-383 -125.5q-209 0 -326 76z" />
    <glyph glyph-name="six" unicode="6" horiz-adv-x="1126" 
d="M90 508q0 122 24 234t66 200t95.5 162.5t116.5 130.5t124 95t123 63h289v-11q-450 -173 -572 -546q103 96 262 96q213 0 328 -125t115 -342q0 -216 -135.5 -357t-358.5 -141q-226 0 -351.5 149t-125.5 392zM295 487q0 -157 72.5 -249.5t207.5 -92.5q131 0 206 86t75 226
q0 142 -71.5 225.5t-206.5 83.5q-182 0 -275 -131q-8 -63 -8 -148z" />
    <glyph glyph-name="seven" unicode="7" horiz-adv-x="913" 
d="M18 1393h885v-21l-471 -1372h-205l422 1214h-573z" />
    <glyph glyph-name="eight" unicode="8" horiz-adv-x="1159" 
d="M98 369q0 129 69 216.5t189 125.5q-102 37 -163.5 120.5t-61.5 208.5q0 180 124.5 282.5t336.5 102.5q209 0 322.5 -101t113.5 -284q0 -123 -60.5 -203.5t-162.5 -119.5q117 -30 186.5 -122t69.5 -226q0 -178 -131.5 -290t-364.5 -112q-230 0 -348.5 110t-118.5 292z
M301 387q0 -112 69 -177t205 -65q143 0 214 65t71 177q0 110 -69.5 173t-210.5 63q-137 0 -208 -63.5t-71 -172.5zM328 1022q0 -108 64.5 -167.5t182.5 -59.5q123 0 189.5 59.5t66.5 167.5t-66 167.5t-187 59.5q-118 0 -184 -60t-66 -167z" />
    <glyph glyph-name="nine" unicode="9" horiz-adv-x="1128" 
d="M68 928q0 217 134 357t357 140q227 0 353 -149t126 -391q0 -145 -34.5 -277t-90 -229t-127 -176.5t-142.5 -128t-140 -74.5h-303v12q449 170 571 543q-105 -94 -264 -94q-212 0 -326 125t-114 342zM272 936q0 -143 72 -226t207 -83q179 0 272 131q11 82 11 147
q0 157 -73 249.5t-208 92.5q-131 0 -206 -85.5t-75 -225.5z" />
    <glyph glyph-name="colon" unicode=":" horiz-adv-x="522" 
d="M131 102q0 58 36.5 96t94.5 38q57 0 93 -38t36 -96q0 -59 -36 -96t-93 -37q-58 0 -94.5 37t-36.5 96zM131 891q0 58 36.5 95.5t94.5 37.5q57 0 93 -38t36 -95q0 -59 -36 -96t-93 -37q-58 0 -94.5 37t-36.5 96z" />
    <glyph glyph-name="semicolon" unicode=";" horiz-adv-x="546" 
d="M117 -301q83 152 96 283q-36 15 -56 46.5t-20 73.5q0 60 36.5 97t96.5 37q59 0 93 -38.5t34 -107.5q0 -114 -58.5 -227t-123.5 -180zM145 891q0 58 36.5 95.5t94.5 37.5q57 0 93.5 -38t36.5 -95q0 -58 -36.5 -95.5t-93.5 -37.5q-58 0 -94.5 37t-36.5 96z" />
    <glyph glyph-name="less" unicode="&#x3c;" horiz-adv-x="1091" 
d="M61 688v10l889 559v-206l-583 -367l583 -365v-190z" />
    <glyph glyph-name="equal" unicode="=" horiz-adv-x="1146" 
d="M137 406v169h873v-169h-873zM137 846v172h873v-172h-873z" />
    <glyph glyph-name="greater" unicode="&#x3e;" horiz-adv-x="1091" 
d="M139 129v190l586 365l-586 367v206l891 -559v-10z" />
    <glyph glyph-name="question" unicode="?" horiz-adv-x="925" 
d="M76 1063v219q52 63 153.5 103t225.5 40q189 0 292 -91t103 -251q0 -59 -14.5 -110t-48 -99.5t-59.5 -78.5t-77 -82q-62 -68 -90.5 -134.5t-28.5 -154.5v-33h-204v31q0 138 45 226.5t139 182.5q62 64 91.5 114.5t29.5 115.5q0 81 -51.5 132.5t-163.5 51.5
q-104 0 -201.5 -52t-140.5 -130zM301 102q0 58 36.5 96t94.5 38q57 0 93 -38t36 -96q0 -59 -36 -96t-93 -37q-58 0 -94.5 37t-36.5 96z" />
    <glyph glyph-name="at" unicode="@" horiz-adv-x="1851" 
d="M78 567q0 160 44.5 298t124.5 239.5t188.5 174t238 108.5t270.5 36q144 0 270 -32t229 -97t177.5 -158.5t115 -223t40.5 -283.5q0 -166 -39 -292t-123.5 -202t-204.5 -76q-114 0 -186 48.5t-90 123.5q-25 -55 -89.5 -91t-160.5 -36q-161 0 -260 114t-99 343
q0 231 107 355t280 124q72 0 130 -25.5t89 -68.5l54 68h92v-674q0 -83 34.5 -122.5t106.5 -39.5q101 0 161 113.5t60 337.5q0 168 -50.5 298t-143 213t-218 125t-280.5 42q-153 0 -285.5 -49t-231.5 -140.5t-155.5 -232.5t-56.5 -316t53.5 -315.5t149 -232.5t224.5 -140.5
t282 -48.5q234 0 372 76v-133q-139 -66 -374 -66q-177 0 -331 57.5t-268.5 164.5t-180.5 271t-66 365zM696 561q0 -325 224 -325q67 0 117.5 29.5t72.5 80.5v483q-23 39 -70.5 60.5t-107.5 21.5q-112 0 -174 -95.5t-62 -254.5z" />
    <glyph glyph-name="A" unicode="A" horiz-adv-x="1255" 
d="M14 0l545 1393h141l537 -1393h-219l-119 317h-430l-63 156h434l-189 508l-33 102l-34 -102l-369 -981h-201z" />
    <glyph glyph-name="B" unicode="B" horiz-adv-x="1216" 
d="M164 0v1393h420q258 0 379.5 -82.5t121.5 -251.5q0 -137 -73 -217.5t-209 -102.5v-6q153 -18 234 -99t81 -239q0 -182 -125 -288.5t-389 -106.5h-440zM373 172h235q167 0 235 61.5t68 182.5q0 117 -69 175t-236 58h-233v-477zM373 809h225q150 0 216.5 53t66.5 164
q0 105 -66 150t-219 45h-223v-412z" />
    <glyph glyph-name="C" unicode="C" horiz-adv-x="1198" 
d="M92 696q0 143 32 262.5t88.5 205t135 145t170.5 88t195 28.5q262 0 389 -110v-230q-60 74 -151 117t-208 43q-206 0 -323 -137t-117 -401q0 -272 115.5 -416t324.5 -144q115 0 207.5 38.5t151.5 109.5v-201q-61 -59 -161 -93t-220 -34q-295 0 -462 183t-167 546z" />
    <glyph glyph-name="D" unicode="D" horiz-adv-x="1355" 
d="M164 0v1393h379q175 -1 305 -38.5t224.5 -119t142 -216t47.5 -323.5q0 -149 -37 -267.5t-101 -198t-156 -132t-197 -75.5t-228 -23h-379zM373 180h170q270 0 389 119t119 389q0 275 -116.5 400.5t-391.5 125.5h-170v-1034z" />
    <glyph glyph-name="E" unicode="E" horiz-adv-x="1120" 
d="M164 0v1393h883l-58 -179h-616v-411h432v-166h-432v-457h616l58 -180h-883z" />
    <glyph glyph-name="F" unicode="F" horiz-adv-x="1058" 
d="M164 0v1393h860l-61 -179h-590v-430h418v-159h-418v-625h-209z" />
    <glyph glyph-name="G" unicode="G" horiz-adv-x="1296" 
d="M92 696q0 143 33.5 262.5t93.5 205t142 145t178.5 88t203.5 28.5q270 0 428 -122v-232q-154 174 -405 174q-216 0 -339.5 -137.5t-123.5 -400.5q0 -270 118.5 -421t319.5 -151q130 0 222 45v402h208v-500q-179 -115 -438 -115q-143 0 -259 44.5t-202 132.5t-133 228.5
t-47 323.5z" />
    <glyph glyph-name="H" unicode="H" horiz-adv-x="1402" 
d="M164 0v1393h209v-1393h-209zM385 803h645v590h209v-1393h-209v625h-530z" />
    <glyph glyph-name="I" unicode="I" horiz-adv-x="536" 
d="M164 0v1393h209v-1393h-209z" />
    <glyph glyph-name="J" unicode="J" horiz-adv-x="868" 
d="M49 49v215q117 -117 240 -117q115 0 166 62.5t51 208.5v975h209v-992q0 -116 -33 -202t-91.5 -135.5t-130 -73t-157.5 -23.5q-159 0 -254 82z" />
    <glyph glyph-name="K" unicode="K" horiz-adv-x="1249" 
d="M164 0v1393h209v-693l614 693h219l-493 -547l520 -846h-236l-415 700l-209 -233v-467h-209z" />
    <glyph glyph-name="L" unicode="L" horiz-adv-x="978" 
d="M164 0v1393h209v-1213h516l59 -180h-784z" />
    <glyph glyph-name="M" unicode="M" horiz-adv-x="1615" 
d="M164 0v1393h178l477 -729l455 729h180v-1393h-209v1036l-432 -682h-4l-436 682v-1036h-209z" />
    <glyph glyph-name="N" unicode="N" horiz-adv-x="1390" 
d="M164 0v1393h174l698 -1016h4v1016h187v-1393h-152l-721 1042h-4v-1042h-186z" />
    <glyph glyph-name="O" unicode="O" horiz-adv-x="1488" 
d="M90 696q0 142 36.5 262.5t98.5 205t146 144.5t178.5 88.5t195.5 28.5q146 0 265.5 -46t206.5 -135.5t134.5 -229t47.5 -318.5q0 -176 -55.5 -318t-148.5 -230t-208.5 -134.5t-241.5 -46.5q-148 0 -267.5 45.5t-206.5 134t-134 228.5t-47 321zM303 707
q0 -277 116.5 -419.5t325.5 -142.5q197 0 319 142.5t122 400.5q0 273 -117.5 416t-323.5 143q-198 0 -320 -141t-122 -399z" />
    <glyph glyph-name="P" unicode="P" horiz-adv-x="1159" 
d="M164 0v1393h405q147 0 251 -29.5t166.5 -88t91 -139.5t28.5 -192q0 -112 -28.5 -202t-88.5 -160.5t-162.5 -109t-242.5 -38.5h-211v-434h-209zM373 596h196q174 0 250 84t76 240q0 157 -74 232t-254 75h-194v-631z" />
    <glyph glyph-name="Q" unicode="Q" horiz-adv-x="1486" 
d="M90 696q0 142 36 262.5t98.5 205t146 144.5t178 88.5t194.5 28.5q147 0 266.5 -46t206 -135.5t134 -229t47.5 -318.5q0 -119 -26 -223.5t-71.5 -183.5t-108 -140.5t-135 -101t-153.5 -59.5l252 -287h-250l-221 268q-277 18 -435.5 202t-158.5 525zM301 707
q0 -277 116.5 -419.5t325.5 -142.5q198 0 320.5 142.5t122.5 400.5q0 273 -118 416t-325 143q-198 0 -320 -141t-122 -399z" />
    <glyph glyph-name="R" unicode="R" horiz-adv-x="1175" 
d="M164 0v1393h409q492 0 492 -430q0 -174 -83 -293.5t-241 -161.5l414 -508h-237l-373 487h-172v-487h-209zM373 635h200q281 0 281 307q0 142 -65 213.5t-216 71.5h-200v-592z" />
    <glyph glyph-name="S" unicode="S" horiz-adv-x="1058" 
d="M102 1016q0 193 124 301t349 108q134 0 225 -31.5t136 -70.5v-223q-47 55 -147 100t-222 45q-264 0 -264 -207q0 -96 51.5 -144.5t175.5 -78.5l82 -20q88 -22 150.5 -51t110 -74t71 -109t23.5 -149q0 -205 -127.5 -325t-372.5 -120q-132 0 -223.5 32.5t-137.5 72.5v221
q55 -57 151.5 -101.5t215.5 -44.5q291 0 291 236q0 96 -57.5 144t-186.5 79l-84 23q-162 39 -248 132t-86 255z" />
    <glyph glyph-name="T" unicode="T" horiz-adv-x="1144" 
d="M47 1214v179h1075l-59 -179h-385v-1214h-209v1214h-422z" />
    <glyph glyph-name="U" unicode="U" horiz-adv-x="1427" 
d="M150 582v811h208v-815q0 -226 90.5 -329.5t268.5 -103.5q175 0 265.5 105t90.5 328v815h205v-811q0 -158 -43 -277.5t-121.5 -192.5t-181.5 -109t-230 -36q-130 0 -229.5 33t-173 104.5t-111.5 191.5t-38 286z" />
    <glyph glyph-name="V" unicode="V" horiz-adv-x="1210" 
d="M23 1393h215l370 -1057h6l377 1057h203l-520 -1393h-142z" />
    <glyph glyph-name="W" unicode="W" horiz-adv-x="1828" 
d="M31 1393h217l282 -1084h11l276 891l-61 193h205l342 -1084h6l286 1084h207l-413 -1393h-177l-303 958l-303 -958h-172z" />
    <glyph glyph-name="X" unicode="X" horiz-adv-x="1150" 
d="M27 0l438 723l-402 670h226l303 -506l282 506h213l-403 -654l440 -739h-223l-342 573l-321 -573h-211z" />
    <glyph glyph-name="Y" unicode="Y" 
d="M10 1393h232l342 -617l348 617h207l-461 -799v-594h-209v594z" />
    <glyph glyph-name="Z" unicode="Z" horiz-adv-x="1034" 
d="M61 1393h893v-50l-614 -1165h621v-178h-891v51l620 1166h-569z" />
    <glyph glyph-name="bracketleft" unicode="[" horiz-adv-x="681" 
d="M147 -242v1682h478v-148h-312v-1386h312v-148h-478z" />
    <glyph glyph-name="backslash" unicode="\" horiz-adv-x="1234" 
d="M41 1575h158l989 -1737h-156z" />
    <glyph glyph-name="bracketright" unicode="]" horiz-adv-x="681" 
d="M57 -94h312v1386h-312v148h478v-1682h-478v148z" />
    <glyph glyph-name="asciicircum" unicode="^" horiz-adv-x="1009" 
d="M80 958l420 631h10l420 -631h-197l-237 359l-236 -359h-180z" />
    <glyph glyph-name="underscore" unicode="_" horiz-adv-x="1644" 
d="M256 -154h1133v-161h-1133v161z" />
    <glyph glyph-name="grave" unicode="`" horiz-adv-x="1128" 
d="M385 1522h199l237 -265h-188z" />
    <glyph glyph-name="a" unicode="a" horiz-adv-x="1239" 
d="M88 541q0 294 134.5 450t352.5 156q91 0 163.5 -31t109.5 -84l31 82h153v-870q0 -99 68 -99q47 0 88 37v-153q-15 -18 -53 -33.5t-91 -15.5q-152 0 -194 147q-30 -70 -110.5 -115t-202.5 -45q-97 0 -177 33.5t-141.5 101.5t-96 180t-34.5 259zM297 541q0 -406 289 -406
q86 0 151.5 36t91.5 99v613q-27 50 -88.5 76t-140.5 26q-145 0 -224 -120.5t-79 -323.5z" />
    <glyph glyph-name="b" unicode="b" horiz-adv-x="1198" 
d="M145 0v1522h205v-521q28 61 111 103.5t198 42.5q451 0 451 -563q0 -148 -39 -267t-106.5 -194.5t-157 -115.5t-193.5 -40q-95 0 -169 31.5t-113 85.5l-31 -84h-156zM350 231q63 -102 242 -102q151 0 230 120.5t79 323.5q0 202 -69.5 305t-221.5 103q-93 0 -162.5 -35
t-97.5 -94v-621z" />
    <glyph glyph-name="c" unicode="c" horiz-adv-x="1026" 
d="M86 557q0 147 41.5 261.5t114.5 185t166.5 107t201.5 36.5q109 0 194 -27.5t128 -68.5v-207q-106 127 -305 127q-155 0 -242.5 -107.5t-87.5 -306.5t86.5 -306.5t241.5 -107.5q102 0 183 38t132 98v-193q-41 -46 -132 -82.5t-204 -36.5q-240 0 -379 148t-139 442z" />
    <glyph glyph-name="d" unicode="d" horiz-adv-x="1196" 
d="M88 541q0 296 134 451t358 155q199 0 266 -90v465h205v-1522h-191l-14 111q-31 -60 -110 -102t-195 -42q-207 0 -330 142t-123 432zM297 541q0 -201 70 -303.5t221 -102.5q96 0 165 34.5t93 92.5v623q-32 53 -100.5 76.5t-143.5 23.5q-151 0 -228 -119.5t-77 -324.5z" />
    <glyph glyph-name="e" unicode="e" 
d="M84 557q0 149 43.5 265t116.5 185.5t161.5 104.5t186.5 35q78 0 144 -14.5t128.5 -51t105.5 -93.5t69 -148t26 -209v-142h-770q8 -164 97 -257t261 -93q134 0 225.5 39.5t139.5 97.5v-188q-126 -121 -383 -121q-260 0 -405.5 147t-145.5 443zM297 635h567v29
q0 159 -70.5 237t-203.5 78q-126 0 -206.5 -95t-86.5 -249z" />
    <glyph glyph-name="f" unicode="f" horiz-adv-x="655" 
d="M51 952v60l139 90v137q0 153 89.5 233t236.5 80q143 0 221 -59v-180q-82 78 -190 78q-154 0 -154 -158v-119h258l-59 -162h-199v-952h-205v952h-137z" />
    <glyph glyph-name="g" unicode="g" horiz-adv-x="1196" 
d="M90 582q0 268 134.5 416.5t355.5 148.5q83 0 165 -27.5t121 -79.5l27 74h160v-1016q0 -254 -143 -388t-404 -134q-122 0 -217 28t-137 64v209q55 -53 148.5 -91t213.5 -38q166 0 250 81t84 249v92q-38 -53 -119.5 -86t-185.5 -33q-204 0 -328.5 135t-124.5 396zM299 582
q0 -172 71.5 -268.5t221.5 -96.5q92 0 161 35.5t95 95.5v535q-66 102 -244 102q-147 0 -226 -113.5t-79 -289.5z" />
    <glyph glyph-name="h" unicode="h" horiz-adv-x="1196" 
d="M145 0v1522h205v-510q37 56 118.5 95.5t188.5 39.5q212 0 308 -107t96 -333v-707h-205v670q0 170 -57 244.5t-189 74.5q-97 0 -166 -38.5t-94 -86.5v-864h-205z" />
    <glyph glyph-name="i" unicode="i" horiz-adv-x="495" 
d="M135 1378q0 109 113 109q57 0 88 -28.5t31 -80.5q0 -51 -31 -77.5t-88 -26.5q-113 0 -113 104zM145 0v1114h205v-1114h-205z" />
    <glyph glyph-name="j" unicode="j" horiz-adv-x="495" 
d="M-164 -193q29 -26 70.5 -43.5t81.5 -17.5q157 0 157 158v1210h205v-1188q0 -160 -90 -250t-250 -90q-56 0 -103 14t-71 33v174zM135 1378q0 109 113 109q57 0 88 -28.5t31 -80.5q0 -51 -31 -77.5t-88 -26.5q-113 0 -113 104z" />
    <glyph glyph-name="k" unicode="k" horiz-adv-x="1122" 
d="M145 0v1522h205v-879q12 9 33 24.5t82 65.5t118.5 102.5t130 129t128.5 149.5h209q-133 -198 -398 -432l455 -682h-240l-370 551l-148 -113v-438h-205z" />
    <glyph glyph-name="l" unicode="l" horiz-adv-x="495" 
d="M145 0v1522h205v-1522h-205z" />
    <glyph glyph-name="m" unicode="m" horiz-adv-x="1824" 
d="M145 0v1114h195l10 -104q34 57 110 97t177 40q250 0 334 -172q41 70 125.5 121t212.5 51q200 0 290.5 -106.5t90.5 -333.5v-707h-205v670q0 171 -52 245t-173 74q-92 0 -158 -40t-94 -95q12 -67 12 -147v-707h-205v670q0 171 -52 245t-173 74q-88 0 -151 -37.5t-89 -89.5
v-862h-205z" />
    <glyph glyph-name="n" unicode="n" horiz-adv-x="1198" 
d="M145 0v1114h191l14 -104q34 57 115.5 97t193.5 40q212 0 307 -106.5t95 -333.5v-707h-203v670q0 171 -57.5 245t-190.5 74q-97 0 -165 -38.5t-95 -88.5v-862h-205z" />
    <glyph glyph-name="o" unicode="o" horiz-adv-x="1212" 
d="M86 557q0 147 42 261.5t116 185t168.5 107t205.5 36.5q234 0 371 -148.5t137 -441.5q0 -148 -42 -263t-115.5 -185t-168 -106t-204.5 -36q-235 0 -372.5 148t-137.5 442zM295 557q0 -199 79.5 -309.5t229.5 -110.5q152 0 234 111t82 309q0 199 -80 310.5t-232 111.5
q-151 0 -232 -111.5t-81 -310.5z" />
    <glyph glyph-name="p" unicode="p" horiz-adv-x="1198" 
d="M145 -391v1505h191l14 -110q30 61 110.5 102t198.5 41q451 0 451 -563q0 -148 -39 -267t-106.5 -194.5t-157 -115.5t-193.5 -40q-78 0 -152.5 20.5t-111.5 69.5v-448h-205zM350 231q34 -55 100.5 -78.5t141.5 -23.5q151 0 230 120.5t79 323.5q0 202 -69.5 305t-221.5 103
q-95 0 -165 -35.5t-95 -93.5v-621z" />
    <glyph glyph-name="q" unicode="q" horiz-adv-x="1196" 
d="M88 541q0 295 133.5 450.5t356.5 155.5q97 0 172 -31t114 -86l33 84h154v-1505h-205v504q-27 -60 -109 -102t-196 -42q-206 0 -329.5 141.5t-123.5 430.5zM297 541q0 -200 70.5 -303t222.5 -103q93 0 161 35t95 94v619q-66 102 -244 102q-150 0 -227.5 -120t-77.5 -324z
" />
    <glyph glyph-name="r" unicode="r" horiz-adv-x="716" 
d="M145 0v1114h179l16 -166q11 92 80.5 145.5t157.5 53.5q74 0 112 -25v-188q-48 31 -135 31q-69 0 -124 -38.5t-81 -109.5v-817h-205z" />
    <glyph glyph-name="s" unicode="s" horiz-adv-x="952" 
d="M92 809q0 148 108.5 243t305.5 95q112 0 199 -25.5t131 -64.5v-203q-111 127 -326 127q-115 0 -173 -40.5t-58 -113.5q0 -72 41 -107.5t147 -55.5l76 -15q84 -16 142 -39t101 -60.5t63.5 -92.5t20.5 -131q0 -71 -27.5 -134.5t-79.5 -114.5t-137 -80.5t-192 -29.5
q-115 0 -200 25.5t-130 62.5v205q125 -125 326 -125q126 0 188 46.5t62 121.5q0 74 -42 107t-159 55l-76 14q-154 29 -232.5 107.5t-78.5 222.5z" />
    <glyph glyph-name="t" unicode="t" horiz-adv-x="747" 
d="M49 952v60l121 102l152 262h73v-262h314l-58 -162h-256v-671q0 -146 117 -146q104 0 170 90v-180q-29 -31 -84 -54.5t-131 -23.5q-274 0 -274 301v684h-144z" />
    <glyph glyph-name="u" unicode="u" horiz-adv-x="1181" 
d="M137 422v692h203v-653q0 -92 10 -151.5t37 -102.5t74 -61.5t121 -18.5q96 0 158.5 38t90.5 89v860h203v-1114h-190l-13 106q-34 -57 -113.5 -98t-187.5 -41q-112 0 -188.5 28t-121.5 86.5t-64 140.5t-19 200z" />
    <glyph glyph-name="v" unicode="v" horiz-adv-x="1034" 
d="M16 1114h220l256 -711l32 -104q21 64 31 104l262 711h201l-434 -1114h-138z" />
    <glyph glyph-name="w" unicode="w" horiz-adv-x="1486" 
d="M41 1114h203l196 -754l269 754h86l270 -754l190 754h189l-297 -1114h-127l-275 756l-276 -756h-127z" />
    <glyph glyph-name="x" unicode="x" horiz-adv-x="1064" 
d="M23 0l399 584l-361 530h222l264 -383l248 383h209l-367 -520l405 -594h-223l-299 438l-289 -438h-208z" />
    <glyph glyph-name="y" unicode="y" horiz-adv-x="1038" 
d="M14 1114h224l323 -864l246 864h203l-322 -1046q-22 -72 -44.5 -129.5t-52.5 -116.5t-66 -101.5t-80 -77t-99.5 -52t-120.5 -17.5q-61 0 -112 18t-76 43v181q73 -80 180 -80q81 0 142.5 58.5t107.5 189.5z" />
    <glyph glyph-name="z" unicode="z" horiz-adv-x="950" 
d="M53 1114h821v-55l-530 -895h533v-164h-803v57l542 895h-503z" />
    <glyph glyph-name="braceleft" unicode="{" horiz-adv-x="753" 
d="M18 537v129l78 10q73 8 115.5 51t42.5 121v321q0 301 281 301q99 0 155 -40v-150q-58 43 -133 43q-67 0 -102 -39t-35 -113v-317q0 -67 -16.5 -115t-48 -75.5t-68 -41.5t-84.5 -20v-4q102 -10 159.5 -65t57.5 -185v-323q0 -150 137 -150q76 0 133 41v-147
q-57 -41 -155 -41q-144 0 -212.5 74t-68.5 227v327q0 75 -43 119t-115 53z" />
    <glyph glyph-name="bar" unicode="|" horiz-adv-x="454" 
d="M143 -307v1839h168v-1839h-168z" />
    <glyph glyph-name="braceright" unicode="}" horiz-adv-x="753" 
d="M61 -84q61 -41 136 -41q137 0 137 150v323q0 130 57 185t160 65v4q-103 12 -160 67.5t-57 184.5v317q0 73 -35.5 112.5t-101.5 39.5q-78 0 -136 -43v150q60 40 158 40q281 0 281 -301v-321q0 -79 42 -121.5t115 -50.5l76 -10v-129l-76 -9q-72 -9 -114.5 -53t-42.5 -119
v-327q0 -153 -68.5 -227t-212.5 -74q-97 0 -158 41v147z" />
    <glyph glyph-name="asciitilde" unicode="~" horiz-adv-x="1318" 
d="M113 518q0 191 75 291t226 100q88 0 157 -34t156 -103q116 -94 184 -94t100.5 46t32.5 167h170q0 -190 -75.5 -290.5t-220.5 -100.5q-50 0 -92 9.5t-83.5 33t-66.5 41.5t-72 55q-119 92 -186 92q-68 0 -100.5 -45.5t-32.5 -167.5h-172z" />
    <glyph glyph-name="uni00A0" unicode="&#xa0;" horiz-adv-x="491" 
 />
    <glyph glyph-name="exclamdown" unicode="&#xa1;" horiz-adv-x="497" 
d="M119 1028q0 59 36 96t93 37q58 0 94.5 -37t36.5 -96q0 -58 -36.5 -95.5t-94.5 -37.5q-57 0 -93 38t-36 95zM135 -262l25 993h180l25 -993h-230z" />
    <glyph glyph-name="cent" unicode="&#xa2;" horiz-adv-x="1058" 
d="M96 655q0 148 40 262t111.5 185t167.5 107t212 36q28 0 78 -4l40 174h91l-48 -190q105 -31 154 -92v-220q-73 109 -192 142l-193 -805q35 -6 76 -6q206 0 317 153v-202q-44 -54 -131 -91.5t-198 -37.5q-57 0 -107 6l-43 -181h-86l47 201q-161 49 -248.5 189.5
t-87.5 373.5zM307 655q0 -297 168 -379l189 791q-5 0 -15 1t-14 1q-163 0 -245.5 -105.5t-82.5 -308.5z" />
    <glyph glyph-name="sterling" unicode="&#xa3;" horiz-adv-x="1210" 
d="M76 4v186q24 -30 59 -30q73 0 82 90l39 346h-166v106h176l23 191q28 249 141.5 363t339.5 114q106 0 180.5 -34.5t112.5 -82.5v-241q-96 170 -291 170q-139 0 -199.5 -71t-74.5 -218l-23 -191h371v-106h-381l-35 -315l98 -45q161 -84 312 -84q93 0 165.5 54t104.5 130
v-242q-92 -127 -305 -127q-86 0 -166 29t-178 86l-64 39q-58 -150 -219 -150q-69 0 -102 33z" />
    <glyph glyph-name="currency" unicode="&#xa4;" horiz-adv-x="1214" 
d="M102 164l156 184q-68 119 -68 334q0 214 68 336l-156 188l82 70l144 -174q105 88 286 88q174 0 273 -80l141 166l80 -70l-150 -180q70 -123 70 -344q0 -223 -70 -340l150 -178l-80 -72l-139 166q-95 -80 -275 -80q-183 0 -286 86l-144 -172zM356 684q0 -179 59 -267.5
t197 -88.5q136 0 194 88.5t58 267.5t-58 267.5t-194 88.5q-138 0 -197 -88.5t-59 -267.5z" />
    <glyph glyph-name="yen" unicode="&#xa5;" horiz-adv-x="1243" 
d="M72 1337h227l328 -522l336 522h206l-389 -604h314v-106h-361v-127h361v-105h-361v-395h-221v395h-360v105h360v127h-360v106h311z" />
    <glyph glyph-name="brokenbar" unicode="&#xa6;" horiz-adv-x="462" 
d="M147 -307v821h168v-821h-168zM147 709v823h168v-823h-168z" />
    <glyph glyph-name="section" unicode="&#xa7;" horiz-adv-x="1030" 
d="M63 668q0 103 60 179.5t164 119.5q-88 76 -88 198q0 112 91.5 186t260.5 74q95 0 175.5 -23t121.5 -61v-202q-45 55 -127 86.5t-178 31.5q-158 0 -158 -81q0 -40 22.5 -69.5t86.5 -76.5l245 -188q88 -66 134.5 -116.5t70 -114t23.5 -152.5q0 -102 -60 -178t-164 -119
q49 -43 68.5 -89.5t19.5 -109.5q0 -113 -91 -188.5t-261 -75.5q-95 0 -175.5 23t-121.5 61v203q45 -55 128 -87t177 -32q158 0 158 82q0 40 -24.5 71t-83.5 76l-246 189q-130 98 -179 176.5t-49 206.5zM250 700q0 -73 24 -120.5t91 -100.5l233 -186q8 -7 27.5 -22t25.5 -21
q62 20 95.5 68t33.5 110q0 73 -23.5 119.5t-90.5 99.5l-236 189q-50 40 -53 41q-59 -20 -93 -68t-34 -109z" />
    <glyph glyph-name="dieresis" unicode="&#xa8;" horiz-adv-x="1128" 
d="M252 1380q0 47 29 73t81 26t80.5 -26t28.5 -73q0 -96 -109 -96q-53 0 -81.5 24.5t-28.5 71.5zM659 1380q0 47 28 73t79 26q53 0 82 -26t29 -73t-29 -71.5t-82 -24.5q-51 0 -79 24.5t-28 71.5z" />
    <glyph glyph-name="copyright" unicode="&#xa9;" horiz-adv-x="1841" 
d="M78 711q0 201 66 363t181.5 266.5t268.5 160t330 55.5q142 0 270 -34.5t234 -105t183 -170.5t120 -237t43 -298q0 -163 -43 -301.5t-120 -240t-183 -172.5t-234 -106.5t-270 -35.5q-177 0 -330 56.5t-268.5 162.5t-181.5 270t-66 367zM221 709q0 -177 53.5 -317.5
t148.5 -231t223 -138t280 -47.5q153 0 281.5 47.5t223 138t147 231t52.5 317.5t-52.5 316t-147.5 228.5t-223 136t-281 46.5q-152 0 -280 -46.5t-223 -136t-148.5 -229t-53.5 -315.5zM481 709q0 106 28.5 194.5t75 148t108.5 101t127.5 60t133.5 18.5q187 0 283 -86v-178
q-80 129 -283 129q-145 0 -230 -97.5t-85 -283.5q0 -190 83 -291.5t234 -101.5q203 0 281 118v-164q-92 -92 -281 -92q-102 0 -185.5 29.5t-149.5 90t-103 164t-37 241.5z" />
    <glyph glyph-name="ordfeminine" unicode="&#xaa;" horiz-adv-x="983" 
d="M111 903q0 123 97 183.5t306 93.5l152 20q0 124 -55 174.5t-177 50.5q-104 0 -183 -44.5t-114 -104.5v168q41 43 122 75.5t202 32.5q188 0 279 -85.5t91 -266.5v-514h-151l-14 84q-23 -43 -86.5 -74.5t-159.5 -31.5q-142 0 -225.5 59t-83.5 180zM168 379v141h676v-141
h-676zM276 909q0 -131 170 -131q77 0 136.5 26.5t83.5 63.5v230l-138 -27q-139 -26 -195.5 -62t-56.5 -100z" />
    <glyph glyph-name="guillemotleft" unicode="&#xab;" horiz-adv-x="1132" 
d="M66 510q123 134 207 249.5t147 241.5h186q-127 -245 -338 -491q183 -211 338 -510h-186q-141 278 -354 510zM496 510q123 134 207 249.5t147 241.5h188q-131 -247 -340 -491q179 -206 340 -510h-188q-141 278 -354 510z" />
    <glyph glyph-name="logicalnot" unicode="&#xac;" horiz-adv-x="1200" 
d="M135 621v182h920v-553h-183v371h-737z" />
    <glyph glyph-name="uni00AD" unicode="&#xad;" horiz-adv-x="774" 
d="M125 535v174h524v-174h-524z" />
    <glyph glyph-name="registered" unicode="&#xae;" horiz-adv-x="1144" 
d="M96 1085q0 148 64 257.5t170.5 164t240.5 54.5q135 0 242 -54.5t171.5 -164t64.5 -257.5t-64.5 -257.5t-171.5 -163.5t-242 -54q-99 0 -185.5 32t-151 91t-101.5 149.5t-37 202.5zM203 1085q0 -178 103 -277t267 -99q163 0 265 99t102 277q0 181 -101.5 280t-265.5 99
t-267 -99.5t-103 -279.5zM383 829v531h172q236 0 236 -172q0 -139 -136 -170l174 -189h-124l-144 162h-74v-162h-104zM487 1079h84q111 0 111 103q0 49 -26 70.5t-85 21.5h-84v-195z" />
    <glyph glyph-name="macron" unicode="&#xaf;" horiz-adv-x="1128" 
d="M264 1329v119h598v-119h-598z" />
    <glyph glyph-name="degree" unicode="&#xb0;" horiz-adv-x="864" 
d="M94 1120q0 140 92.5 232t249.5 92t246.5 -90t89.5 -234q0 -141 -93 -233t-251 -92q-157 0 -245.5 89.5t-88.5 235.5zM248 1120q0 -88 49.5 -140t134.5 -52q87 0 138 53t51 139q0 87 -50 140t-137 53q-85 0 -135.5 -54t-50.5 -139z" />
    <glyph glyph-name="plusminus" unicode="&#xb1;" horiz-adv-x="1202" 
d="M129 0v180h946v-180h-946zM129 819v180h381v385h180v-385h385v-180h-385v-387h-180v387h-381z" />
    <glyph glyph-name="uni00B2" unicode="&#xb2;" horiz-adv-x="755" 
d="M55 1303v145q36 38 110 65t173 27q164 0 244 -66t80 -188q0 -51 -17.5 -100t-51 -93.5t-64 -76.5t-72.5 -70l-127 -115h372v-139h-624v43l293 289q135 131 135 236q0 143 -193 143q-79 0 -149 -29t-109 -71z" />
    <glyph glyph-name="uni00B3" unicode="&#xb3;" horiz-adv-x="759" 
d="M53 1522h627v-35l-256 -305q133 -13 204.5 -67.5t71.5 -164.5q0 -119 -101.5 -198.5t-297.5 -79.5q-150 0 -229 49v149q77 -65 213 -65q247 0 247 137q0 63 -56 95t-187 32h-60v33l240 282h-375z" />
    <glyph glyph-name="acute" unicode="&#xb4;" horiz-adv-x="1128" 
d="M309 1257l240 265h196l-253 -265h-183z" />
    <glyph glyph-name="paragraph" unicode="&#xb6;" horiz-adv-x="1036" 
d="M74 1180q0 97 68.5 164t179.5 67h538v-1411l-131 -53v1331h-217v-1421l-133 -56v1157q-18 -10 -57 -10q-111 0 -179.5 67.5t-68.5 164.5z" />
    <glyph glyph-name="periodcentered" unicode="&#xb7;" horiz-adv-x="1017" 
d="M391 702q0 109 113 109q57 0 88 -28.5t31 -80.5q0 -51 -31 -77.5t-88 -26.5q-113 0 -113 104z" />
    <glyph glyph-name="cedilla" unicode="&#xb8;" horiz-adv-x="1128" 
d="M334 -328q64 -61 192 -61q138 0 138 94q0 41 -24.5 60.5t-80.5 19.5q-40 0 -86.5 -11t-73.5 -24l74 250h107l-43 -135q28 12 77 12q88 0 134.5 -42t46.5 -122q0 -103 -73.5 -158t-201.5 -55q-116 0 -186 45v127z" />
    <glyph glyph-name="uni00B9" unicode="&#xb9;" horiz-adv-x="679" 
d="M80 1227v137l317 162h80v-834h-155v658z" />
    <glyph glyph-name="ordmasculine" unicode="&#xba;" horiz-adv-x="1073" 
d="M106 1104q0 109 34.5 195.5t95 141t138.5 83t169 28.5q193 0 307.5 -115t114.5 -333q0 -109 -34.5 -195.5t-95 -140.5t-138.5 -82.5t-169 -28.5q-192 0 -307 114.5t-115 332.5zM203 373v143h676v-143h-676zM279 1104q0 -150 64 -230.5t192 -80.5q130 0 195 80.5t65 230.5
q0 151 -65 232t-195 81q-128 0 -192 -81t-64 -232z" />
    <glyph glyph-name="guillemotright" unicode="&#xbb;" horiz-adv-x="1130" 
d="M92 0q161 304 340 510q-209 244 -340 491h191q61 -125 144 -240.5t206 -250.5q-215 -237 -350 -510h-191zM522 0q161 304 340 510q-209 244 -340 491h191q61 -126 144.5 -241.5t207.5 -249.5q-216 -235 -352 -510h-191z" />
    <glyph glyph-name="onequarter" unicode="&#xbc;" horiz-adv-x="1763" 
d="M104 1100v135l318 162h80v-834h-156v660zM403 0l803 1393h105l-805 -1393h-103zM965 174v33l260 622h151l-211 -520h287v305h150v-305h127l-41 -135h-86v-174h-152v174h-485z" />
    <glyph glyph-name="onehalf" unicode="&#xbd;" horiz-adv-x="1792" 
d="M104 1100v135l318 162h80v-834h-156v660zM403 0l803 1393h105l-805 -1393h-103zM1071 610v148q37 37 111 64.5t172 27.5q164 0 243.5 -67t79.5 -189q0 -95 -57 -177t-147 -163l-127 -113h372v-141h-624v43l295 289q133 133 133 235q0 146 -193 146q-79 0 -148.5 -30
t-109.5 -73z" />
    <glyph glyph-name="threequarters" unicode="&#xbe;" horiz-adv-x="1822" 
d="M84 1393h627v-33l-254 -305q133 -14 203.5 -68.5t70.5 -165.5q0 -119 -101.5 -198.5t-297.5 -79.5q-137 0 -228 49v149q79 -63 211 -63q250 0 250 137q0 63 -56.5 95t-189.5 32h-59v31l240 284h-373zM463 0l803 1393h104l-805 -1393h-102zM1024 174v33l260 622h152
l-211 -520h286v305h150v-305h127l-41 -135h-86v-174h-152v174h-485z" />
    <glyph glyph-name="questiondown" unicode="&#xbf;" horiz-adv-x="915" 
d="M70 47q0 48 11.5 93t27 78t46 72.5t52 63.5t61.5 64q62 68 90.5 134.5t28.5 154.5v32h205v-30q0 -138 -45 -227t-139 -183q-62 -64 -91.5 -114t-29.5 -115q0 -81 51.5 -133t163.5 -52q104 0 201.5 52.5t140.5 130.5v-220q-52 -63 -153.5 -103t-225.5 -40q-189 0 -292 91
t-103 251zM358 1028q0 59 36 96t93 37q58 0 94.5 -37t36.5 -96q0 -58 -36.5 -95.5t-94.5 -37.5q-57 0 -93 38t-36 95z" />
    <glyph glyph-name="Agrave" unicode="&#xc0;" horiz-adv-x="1255" 
d="M-23 0l545 1393h142l536 -1393h-219l-119 317h-430l-63 156h434l-189 508l-32 102l-35 -102l-369 -981h-201zM299 1784h199l237 -264h-188z" />
    <glyph glyph-name="Aacute" unicode="&#xc1;" horiz-adv-x="1255" 
d="M-23 0l545 1393h142l536 -1393h-219l-119 317h-430l-63 156h434l-189 508l-32 102l-35 -102l-369 -981h-201zM502 1520l239 264h197l-254 -264h-182z" />
    <glyph glyph-name="Acircumflex" unicode="&#xc2;" horiz-adv-x="1255" 
d="M-23 0l545 1393h142l536 -1393h-219l-119 317h-430l-63 156h434l-189 508l-32 102l-35 -102l-369 -981h-201zM317 1520l240 264h129l238 -264h-164l-139 143l-140 -143h-164z" />
    <glyph glyph-name="Atilde" unicode="&#xc3;" horiz-adv-x="1255" 
d="M-23 0l545 1393h142l536 -1393h-219l-119 317h-430l-63 156h434l-189 508l-32 102l-35 -102l-369 -981h-201zM289 1550q1 106 58 162.5t147 56.5q35 0 69 -12t48 -21t46 -32q22 -16 33 -23t27.5 -13.5t32.5 -6.5q37 0 53.5 25t17.5 83h127q-1 -106 -56 -162.5t-142 -56.5
q-81 0 -164 62q-55 45 -92 45t-56 -25.5t-20 -81.5h-129z" />
    <glyph glyph-name="Adieresis" unicode="&#xc4;" horiz-adv-x="1255" 
d="M-23 0l545 1393h142l536 -1393h-219l-119 317h-430l-63 156h434l-189 508l-32 102l-35 -102l-369 -981h-201zM307 1642q0 47 29 73t82 26q52 0 80 -26t28 -73q0 -96 -108 -96q-53 0 -82 24.5t-29 71.5zM715 1642q0 47 27.5 73t78.5 26q53 0 82 -26t29 -73t-29 -71.5
t-82 -24.5q-106 0 -106 96z" />
    <glyph glyph-name="Aring" unicode="&#xc5;" horiz-adv-x="1255" 
d="M-23 0l545 1393h142l536 -1393h-219l-119 317h-430l-63 156h434l-189 508l-32 102l-35 -102l-369 -981h-201zM385 1714q0 90 62.5 145.5t170.5 55.5t171 -56t63 -145t-63 -145t-171 -56t-170.5 55.5t-62.5 145.5zM504 1714q0 -43 27 -69.5t87 -26.5t88.5 27t28.5 69
t-28.5 69t-88.5 27t-87 -26.5t-27 -69.5z" />
    <glyph glyph-name="AE" unicode="&#xc6;" horiz-adv-x="1701" 
d="M4 0l688 1393h940l-59 -179h-701l111 -411h408v-166h-359l125 -457h416l59 -180h-631l-86 317h-407l-64 156h428l-129 502l-30 106l-39 -104l-467 -977h-203z" />
    <glyph glyph-name="Ccedilla" unicode="&#xc7;" horiz-adv-x="1204" 
d="M96 696q0 143 32 262.5t88.5 205t135 145t170.5 88t195 28.5q262 0 389 -110v-230q-129 160 -358 160q-206 0 -323.5 -137t-117.5 -401q0 -272 116 -416t325 -144q115 0 207 38.5t151 109.5v-201q-61 -59 -161 -93t-220 -34h-12l-33 -102q28 12 78 12q88 0 134 -42
t46 -122q0 -103 -73 -158t-201 -55q-117 0 -187 45v127q64 -61 193 -61q137 0 137 94q0 41 -24.5 60.5t-80.5 19.5q-40 0 -86 -11t-73 -24l65 225q-242 33 -377 214t-135 507z" />
    <glyph glyph-name="Egrave" unicode="&#xc8;" horiz-adv-x="1120" 
d="M164 0v1393h883l-58 -179h-616v-411h432v-166h-432v-457h616l58 -180h-883zM297 1784h199l237 -264h-188z" />
    <glyph glyph-name="Eacute" unicode="&#xc9;" horiz-adv-x="1120" 
d="M164 0v1393h883l-58 -179h-616v-411h432v-166h-432v-457h616l58 -180h-883zM502 1520l239 264h197l-254 -264h-182z" />
    <glyph glyph-name="Ecircumflex" unicode="&#xca;" horiz-adv-x="1120" 
d="M164 0v1393h883l-58 -179h-616v-411h432v-166h-432v-457h616l58 -180h-883zM315 1520l240 264h129l238 -264h-164l-140 143l-139 -143h-164z" />
    <glyph glyph-name="Edieresis" unicode="&#xcb;" horiz-adv-x="1120" 
d="M164 0v1393h883l-58 -179h-616v-411h432v-166h-432v-457h616l58 -180h-883zM305 1642q0 47 29 73t82 26q52 0 80 -26t28 -73q0 -96 -108 -96q-53 0 -82 24.5t-29 71.5zM713 1642q0 47 27.5 73t78.5 26q53 0 82 -26t29 -73t-29 -71.5t-82 -24.5q-106 0 -106 96z" />
    <glyph glyph-name="Igrave" unicode="&#xcc;" horiz-adv-x="536" 
d="M-55 1784h198l238 -264h-188zM164 0v1393h209v-1393h-209z" />
    <glyph glyph-name="Iacute" unicode="&#xcd;" horiz-adv-x="536" 
d="M150 1520l239 264h197l-254 -264h-182zM164 0v1393h209v-1393h-209z" />
    <glyph glyph-name="Icircumflex" unicode="&#xce;" horiz-adv-x="536" 
d="M-37 1520l240 264h129l237 -264h-163l-140 143l-139 -143h-164zM164 0v1393h209v-1393h-209z" />
    <glyph glyph-name="Idieresis" unicode="&#xcf;" horiz-adv-x="536" 
d="M-47 1642q0 47 28.5 73t81.5 26q52 0 80.5 -26t28.5 -73q0 -96 -109 -96q-53 0 -81.5 24.5t-28.5 71.5zM164 0v1393h209v-1393h-209zM360 1642q0 47 28 73t79 26q53 0 82 -26t29 -73t-29 -71.5t-82 -24.5q-51 0 -79 24.5t-28 71.5z" />
    <glyph glyph-name="Eth" unicode="&#xd0;" horiz-adv-x="1361" 
d="M23 645v109h145v639h379q175 -1 305 -38.5t224.5 -119t142 -216t47.5 -323.5q0 -149 -37 -267.5t-101 -198t-156 -132t-197 -75.5t-228 -23h-379v645h-145zM377 180h170q270 0 389 119t119 389q0 275 -116.5 400.5t-391.5 125.5h-170v-460h276v-109h-276v-465z" />
    <glyph glyph-name="Ntilde" unicode="&#xd1;" horiz-adv-x="1390" 
d="M164 0v1393h174l698 -1016h4v1016h187v-1393h-152l-721 1042h-4v-1042h-186zM365 1550q1 106 57.5 162.5t146.5 56.5q35 0 69 -12t49 -21.5t46 -31.5q23 -17 33 -23.5t26.5 -13t32.5 -6.5q37 0 54 25t18 83h127q-1 -106 -56.5 -162.5t-142.5 -56.5q-80 0 -163 62
q-55 45 -93 45q-37 0 -55.5 -25.5t-19.5 -81.5h-129z" />
    <glyph glyph-name="Ograve" unicode="&#xd2;" horiz-adv-x="1488" 
d="M90 696q0 142 36.5 262.5t98.5 205t146 144.5t178.5 88.5t195.5 28.5q146 0 265.5 -46t206.5 -135.5t134.5 -229t47.5 -318.5q0 -176 -55.5 -318t-148.5 -230t-208.5 -134.5t-241.5 -46.5q-148 0 -267.5 45.5t-206.5 134t-134 228.5t-47 321zM303 707
q0 -277 116.5 -419.5t325.5 -142.5q197 0 319 142.5t122 400.5q0 273 -117.5 416t-323.5 143q-198 0 -320 -141t-122 -399zM424 1784h199l237 -264h-188z" />
    <glyph glyph-name="Oacute" unicode="&#xd3;" horiz-adv-x="1488" 
d="M90 696q0 142 36.5 262.5t98.5 205t146 144.5t178.5 88.5t195.5 28.5q146 0 265.5 -46t206.5 -135.5t134.5 -229t47.5 -318.5q0 -176 -55.5 -318t-148.5 -230t-208.5 -134.5t-241.5 -46.5q-148 0 -267.5 45.5t-206.5 134t-134 228.5t-47 321zM303 707
q0 -277 116.5 -419.5t325.5 -142.5q197 0 319 142.5t122 400.5q0 273 -117.5 416t-323.5 143q-198 0 -320 -141t-122 -399zM629 1520l239 264h197l-254 -264h-182z" />
    <glyph glyph-name="Ocircumflex" unicode="&#xd4;" horiz-adv-x="1488" 
d="M90 696q0 142 36.5 262.5t98.5 205t146 144.5t178.5 88.5t195.5 28.5q146 0 265.5 -46t206.5 -135.5t134.5 -229t47.5 -318.5q0 -176 -55.5 -318t-148.5 -230t-208.5 -134.5t-241.5 -46.5q-148 0 -267.5 45.5t-206.5 134t-134 228.5t-47 321zM303 707
q0 -277 116.5 -419.5t325.5 -142.5q197 0 319 142.5t122 400.5q0 273 -117.5 416t-323.5 143q-198 0 -320 -141t-122 -399zM442 1520l240 264h129l238 -264h-164l-140 143l-139 -143h-164z" />
    <glyph glyph-name="Otilde" unicode="&#xd5;" horiz-adv-x="1488" 
d="M90 696q0 142 36.5 262.5t98.5 205t146 144.5t178.5 88.5t195.5 28.5q146 0 265.5 -46t206.5 -135.5t134.5 -229t47.5 -318.5q0 -176 -55.5 -318t-148.5 -230t-208.5 -134.5t-241.5 -46.5q-148 0 -267.5 45.5t-206.5 134t-134 228.5t-47 321zM303 707
q0 -277 116.5 -419.5t325.5 -142.5q197 0 319 142.5t122 400.5q0 273 -117.5 416t-323.5 143q-198 0 -320 -141t-122 -399zM416 1550q1 106 58 162.5t147 56.5q35 0 69 -12t48 -21t46 -32q22 -16 33 -23t27.5 -13.5t32.5 -6.5q37 0 53.5 25t17.5 83h127q-1 -106 -56 -162.5
t-142 -56.5q-81 0 -164 62q-55 45 -92 45t-56 -25.5t-20 -81.5h-129z" />
    <glyph glyph-name="Odieresis" unicode="&#xd6;" horiz-adv-x="1488" 
d="M90 696q0 142 36.5 262.5t98.5 205t146 144.5t178.5 88.5t195.5 28.5q146 0 265.5 -46t206.5 -135.5t134.5 -229t47.5 -318.5q0 -176 -55.5 -318t-148.5 -230t-208.5 -134.5t-241.5 -46.5q-148 0 -267.5 45.5t-206.5 134t-134 228.5t-47 321zM303 707
q0 -277 116.5 -419.5t325.5 -142.5q197 0 319 142.5t122 400.5q0 273 -117.5 416t-323.5 143q-198 0 -320 -141t-122 -399zM432 1642q0 47 29 73t82 26q52 0 80 -26t28 -73q0 -96 -108 -96q-53 0 -82 24.5t-29 71.5zM840 1642q0 47 27.5 73t78.5 26q53 0 82 -26t29 -73
t-29 -71.5t-82 -24.5q-106 0 -106 96z" />
    <glyph glyph-name="multiply" unicode="&#xd7;" horiz-adv-x="1026" 
d="M113 993l127 127l272 -274l272 272l127 -127l-272 -272l274 -273l-127 -127l-274 275l-268 -270l-127 125l268 270z" />
    <glyph glyph-name="Oslash" unicode="&#xd8;" horiz-adv-x="1490" 
d="M63 0l170 193q-141 190 -141 503q0 176 55.5 318t148.5 230t209 134.5t243 46.5q266 0 438 -149l104 119h137l-172 -195q146 -192 146 -504q0 -142 -36 -262.5t-98.5 -205t-146 -144.5t-178 -88.5t-194.5 -28.5q-274 0 -441 148l-100 -115h-144zM305 707q0 -215 72 -353
l676 770q-114 123 -305 123q-198 0 -320.5 -141t-122.5 -399zM440 266q115 -121 308 -121q197 0 318.5 142.5t121.5 400.5q0 209 -74 348z" />
    <glyph glyph-name="Ugrave" unicode="&#xd9;" horiz-adv-x="1429" 
d="M152 582v811h208v-815q0 -226 90.5 -329.5t268.5 -103.5q175 0 265.5 105t90.5 328v815h205v-811q0 -158 -43 -277.5t-121 -192.5t-181.5 -109t-229.5 -36q-130 0 -229.5 33t-173 104.5t-112 191.5t-38.5 286zM397 1784h199l238 -264h-189z" />
    <glyph glyph-name="Uacute" unicode="&#xda;" horiz-adv-x="1429" 
d="M152 582v811h208v-815q0 -226 90.5 -329.5t268.5 -103.5q175 0 265.5 105t90.5 328v815h205v-811q0 -158 -43 -277.5t-121 -192.5t-181.5 -109t-229.5 -36q-130 0 -229.5 33t-173 104.5t-112 191.5t-38.5 286zM600 1520l240 264h196l-254 -264h-182z" />
    <glyph glyph-name="Ucircumflex" unicode="&#xdb;" horiz-adv-x="1429" 
d="M152 582v811h208v-815q0 -226 90.5 -329.5t268.5 -103.5q175 0 265.5 105t90.5 328v815h205v-811q0 -158 -43 -277.5t-121 -192.5t-181.5 -109t-229.5 -36q-130 0 -229.5 33t-173 104.5t-112 191.5t-38.5 286zM414 1520l239 264h129l238 -264h-164l-139 143l-139 -143
h-164z" />
    <glyph glyph-name="Udieresis" unicode="&#xdc;" horiz-adv-x="1429" 
d="M152 582v811h208v-815q0 -226 90.5 -329.5t268.5 -103.5q175 0 265.5 105t90.5 328v815h205v-811q0 -158 -43 -277.5t-121 -192.5t-181.5 -109t-229.5 -36q-130 0 -229.5 33t-173 104.5t-112 191.5t-38.5 286zM406 1642q0 47 29 73t81 26t80.5 -26t28.5 -73
q0 -96 -109 -96q-53 0 -81.5 24.5t-28.5 71.5zM813 1642q0 47 28 73t79 26q52 0 81 -26t29 -73t-28.5 -71.5t-81.5 -24.5q-51 0 -79 24.5t-28 71.5z" />
    <glyph glyph-name="Yacute" unicode="&#xdd;" 
d="M10 1393h232l342 -617l348 617h207l-461 -799v-594h-209v594zM461 1520l239 264h197l-254 -264h-182z" />
    <glyph glyph-name="Thorn" unicode="&#xde;" horiz-adv-x="1159" 
d="M164 0v1393h209v-203h196q147 0 251 -29.5t166.5 -88.5t91 -140t28.5 -191q0 -113 -28.5 -203t-88.5 -160.5t-162.5 -108.5t-242.5 -38h-211v-231h-209zM373 393h196q175 0 250.5 83.5t75.5 240.5q0 156 -74 230.5t-254 74.5h-194v-629z" />
    <glyph glyph-name="germandbls" unicode="&#xdf;" horiz-adv-x="1208" 
d="M145 0v1124q0 136 62 234.5t165.5 146t235.5 47.5q216 0 335.5 -99.5t119.5 -272.5q0 -154 -81 -250.5t-216 -128.5v-4q156 -18 257 -118t101 -267q0 -204 -118 -324.5t-324 -120.5q-67 0 -127.5 18.5t-85.5 43.5v182q69 -76 188 -76t188.5 72.5t69.5 200.5
q0 138 -94.5 209t-271.5 73v172q143 6 223 81t80 202q0 118 -67.5 182t-176.5 64q-119 0 -188.5 -67t-69.5 -200v-1124h-205z" />
    <glyph glyph-name="agrave" unicode="&#xe0;" horiz-adv-x="1239" 
d="M88 541q0 294 134.5 450t352.5 156q91 0 163.5 -31t109.5 -84l31 82h153v-870q0 -99 68 -99q47 0 88 37v-153q-15 -18 -53 -33.5t-91 -15.5q-152 0 -194 147q-30 -70 -110.5 -115t-202.5 -45q-97 0 -177 33.5t-141.5 101.5t-96 180t-34.5 259zM295 1522h199l237 -265
h-188zM297 541q0 -406 289 -406q86 0 151.5 36t91.5 99v613q-27 50 -88.5 76t-140.5 26q-145 0 -224 -120.5t-79 -323.5z" />
    <glyph glyph-name="aacute" unicode="&#xe1;" horiz-adv-x="1239" 
d="M88 541q0 294 134.5 450t352.5 156q91 0 163.5 -31t109.5 -84l31 82h153v-870q0 -99 68 -99q47 0 88 37v-153q-15 -18 -53 -33.5t-91 -15.5q-152 0 -194 147q-30 -70 -110.5 -115t-202.5 -45q-97 0 -177 33.5t-141.5 101.5t-96 180t-34.5 259zM297 541q0 -406 289 -406
q86 0 151.5 36t91.5 99v613q-27 50 -88.5 76t-140.5 26q-145 0 -224 -120.5t-79 -323.5zM500 1257l239 265h197l-254 -265h-182z" />
    <glyph glyph-name="acircumflex" unicode="&#xe2;" horiz-adv-x="1239" 
d="M88 541q0 294 134.5 450t352.5 156q91 0 163.5 -31t109.5 -84l31 82h153v-870q0 -99 68 -99q47 0 88 37v-153q-15 -18 -53 -33.5t-91 -15.5q-152 0 -194 147q-30 -70 -110.5 -115t-202.5 -45q-97 0 -177 33.5t-141.5 101.5t-96 180t-34.5 259zM297 541q0 -406 289 -406
q86 0 151.5 36t91.5 99v613q-27 50 -88.5 76t-140.5 26q-145 0 -224 -120.5t-79 -323.5zM313 1257l240 265h129l238 -265h-164l-140 144l-139 -144h-164z" />
    <glyph glyph-name="atilde" unicode="&#xe3;" horiz-adv-x="1239" 
d="M88 541q0 294 134.5 450t352.5 156q91 0 163.5 -31t109.5 -84l31 82h153v-870q0 -99 68 -99q47 0 88 37v-153q-15 -18 -53 -33.5t-91 -15.5q-152 0 -194 147q-30 -70 -110.5 -115t-202.5 -45q-97 0 -177 33.5t-141.5 101.5t-96 180t-34.5 259zM287 1288q1 106 58 162.5
t147 56.5q35 0 69 -12t48 -21t46 -32q22 -16 33 -23t27.5 -13.5t32.5 -6.5q37 0 53.5 25t17.5 83h127q-1 -106 -56 -162.5t-142 -56.5q-81 0 -164 62q-55 45 -92 45t-56 -25.5t-20 -81.5h-129zM297 541q0 -406 289 -406q86 0 151.5 36t91.5 99v613q-27 50 -88.5 76
t-140.5 26q-145 0 -224 -120.5t-79 -323.5z" />
    <glyph glyph-name="adieresis" unicode="&#xe4;" horiz-adv-x="1239" 
d="M88 541q0 294 134.5 450t352.5 156q91 0 163.5 -31t109.5 -84l31 82h153v-870q0 -99 68 -99q47 0 88 37v-153q-15 -18 -53 -33.5t-91 -15.5q-152 0 -194 147q-30 -70 -110.5 -115t-202.5 -45q-97 0 -177 33.5t-141.5 101.5t-96 180t-34.5 259zM297 541q0 -406 289 -406
q86 0 151.5 36t91.5 99v613q-27 50 -88.5 76t-140.5 26q-145 0 -224 -120.5t-79 -323.5zM303 1380q0 47 29 73t82 26q52 0 80 -26t28 -73q0 -96 -108 -96q-53 0 -82 24.5t-29 71.5zM711 1380q0 47 27.5 73t78.5 26q53 0 82 -26t29 -73t-29 -71.5t-82 -24.5q-106 0 -106 96z
" />
    <glyph glyph-name="aring" unicode="&#xe5;" horiz-adv-x="1239" 
d="M88 541q0 294 134.5 450t352.5 156q91 0 163.5 -31t109.5 -84l31 82h153v-870q0 -99 68 -99q47 0 88 37v-153q-15 -18 -53 -33.5t-91 -15.5q-152 0 -194 147q-30 -70 -110.5 -115t-202.5 -45q-97 0 -177 33.5t-141.5 101.5t-96 180t-34.5 259zM297 541q0 -406 289 -406
q86 0 151.5 36t91.5 99v613q-27 50 -88.5 76t-140.5 26q-145 0 -224 -120.5t-79 -323.5zM383 1452q0 90 62.5 145.5t170.5 55.5t171 -56t63 -145t-63 -145t-171 -56t-170.5 55.5t-62.5 145.5zM502 1452q0 -43 27 -69.5t87 -26.5t88.5 27t28.5 69t-28.5 69t-88.5 27
t-87 -26.5t-27 -69.5z" />
    <glyph glyph-name="ae" unicode="&#xe6;" horiz-adv-x="1800" 
d="M84 287q0 83 31 143.5t96 102.5t151 68.5t211 47.5l181 31q0 164 -65.5 231.5t-213.5 67.5q-121 0 -215.5 -54.5t-136.5 -131.5v219q129 135 387 135q281 0 373 -201q59 102 158 151.5t221 49.5q73 0 136 -14.5t122.5 -51t101.5 -93.5t67 -148t25 -209v-142h-749
q17 -350 344 -350q133 0 225 40t141 97v-190q-52 -48 -147.5 -83.5t-237.5 -35.5q-300 0 -434 195q-48 -85 -145 -140t-254 -55q-108 0 -190 33t-132.5 106.5t-50.5 180.5zM285 291q0 -85 56.5 -127.5t162.5 -42.5q101 0 181.5 46.5t109.5 113.5q-33 96 -41 262l-164 -35
q-169 -36 -237 -82.5t-68 -134.5zM965 635h548v29q0 315 -262 315q-127 0 -202.5 -94t-83.5 -250z" />
    <glyph glyph-name="ccedilla" unicode="&#xe7;" horiz-adv-x="1030" 
d="M88 557q0 147 41.5 261.5t114.5 185t166.5 107t201.5 36.5q109 0 194 -27.5t128 -68.5v-207q-106 127 -305 127q-155 0 -242.5 -107.5t-87.5 -306.5t86.5 -306.5t241.5 -107.5q102 0 183 38t132 98v-193q-40 -45 -131 -81.5t-203 -37.5l-33 -102q28 12 78 12
q88 0 134.5 -42t46.5 -122q0 -103 -73.5 -158t-201.5 -55q-116 0 -186 45v127q64 -61 192 -61q137 0 137 94q0 41 -24 60.5t-80 19.5q-40 0 -86.5 -11t-73.5 -24l66 225q-195 29 -305.5 174.5t-110.5 407.5z" />
    <glyph glyph-name="egrave" unicode="&#xe8;" 
d="M84 557q0 149 43.5 265t116.5 185.5t161.5 104.5t186.5 35q78 0 144 -14.5t128.5 -51t105.5 -93.5t69 -148t26 -209v-142h-770q8 -164 97 -257t261 -93q134 0 225.5 39.5t139.5 97.5v-188q-126 -121 -383 -121q-260 0 -405.5 147t-145.5 443zM272 1522h199l238 -265h-189
zM297 635h567v29q0 159 -70.5 237t-203.5 78q-126 0 -206.5 -95t-86.5 -249z" />
    <glyph glyph-name="eacute" unicode="&#xe9;" 
d="M84 557q0 149 43.5 265t116.5 185.5t161.5 104.5t186.5 35q78 0 144 -14.5t128.5 -51t105.5 -93.5t69 -148t26 -209v-142h-770q8 -164 97 -257t261 -93q134 0 225.5 39.5t139.5 97.5v-188q-126 -121 -383 -121q-260 0 -405.5 147t-145.5 443zM297 635h567v29
q0 159 -70.5 237t-203.5 78q-126 0 -206.5 -95t-86.5 -249zM477 1257l240 265h196l-254 -265h-182z" />
    <glyph glyph-name="ecircumflex" unicode="&#xea;" 
d="M84 557q0 149 43.5 265t116.5 185.5t161.5 104.5t186.5 35q78 0 144 -14.5t128.5 -51t105.5 -93.5t69 -148t26 -209v-142h-770q8 -164 97 -257t261 -93q134 0 225.5 39.5t139.5 97.5v-188q-126 -121 -383 -121q-260 0 -405.5 147t-145.5 443zM291 1257l239 265h129
l238 -265h-164l-139 144l-139 -144h-164zM297 635h567v29q0 159 -70.5 237t-203.5 78q-126 0 -206.5 -95t-86.5 -249z" />
    <glyph glyph-name="edieresis" unicode="&#xeb;" 
d="M84 557q0 149 43.5 265t116.5 185.5t161.5 104.5t186.5 35q78 0 144 -14.5t128.5 -51t105.5 -93.5t69 -148t26 -209v-142h-770q8 -164 97 -257t261 -93q134 0 225.5 39.5t139.5 97.5v-188q-126 -121 -383 -121q-260 0 -405.5 147t-145.5 443zM281 1380q0 47 29 73t81 26
t80.5 -26t28.5 -73q0 -96 -109 -96q-53 0 -81.5 24.5t-28.5 71.5zM297 635h567v29q0 159 -70.5 237t-203.5 78q-126 0 -206.5 -95t-86.5 -249zM688 1380q0 47 28 73t79 26q53 0 81.5 -26t28.5 -73t-28.5 -71.5t-81.5 -24.5q-51 0 -79 24.5t-28 71.5z" />
    <glyph glyph-name="igrave" unicode="&#xec;" horiz-adv-x="495" 
d="M-74 1522h199l237 -265h-188zM145 0v1114h205v-1114h-205z" />
    <glyph glyph-name="iacute" unicode="&#xed;" horiz-adv-x="495" 
d="M131 1257l240 265h196l-254 -265h-182zM145 0v1114h205v-1114h-205z" />
    <glyph glyph-name="icircumflex" unicode="&#xee;" horiz-adv-x="495" 
d="M-55 1257l239 265h129l238 -265h-164l-139 144l-139 -144h-164zM145 0v1114h205v-1114h-205z" />
    <glyph glyph-name="idieresis" unicode="&#xef;" horiz-adv-x="495" 
d="M-66 1380q0 47 29 73t82 26q52 0 80.5 -26t28.5 -73q0 -96 -109 -96q-53 0 -82 24.5t-29 71.5zM145 0v1114h205v-1114h-205zM342 1380q0 47 28 73t79 26q53 0 81.5 -26t28.5 -73t-28.5 -71.5t-81.5 -24.5q-51 0 -79 24.5t-28 71.5z" />
    <glyph glyph-name="eth" unicode="&#xf0;" horiz-adv-x="1214" 
d="M88 516q0 128 41.5 232.5t110.5 169t153.5 99t173.5 34.5q97 0 170.5 -37.5t108.5 -93.5l4 2q-80 200 -283 366l-135 -110h-131l201 163q-137 100 -318 172v9h252q91 -37 176 -90l111 90h131l-170 -140q195 -145 319.5 -362t124.5 -465q0 -116 -27.5 -212.5t-76.5 -165.5
t-116 -116.5t-145.5 -70.5t-166.5 -23q-230 0 -369 144t-139 405zM297 516q0 -171 80.5 -275t228.5 -104q150 0 232 104t82 275q0 172 -80.5 276.5t-229.5 104.5q-148 0 -230.5 -105t-82.5 -276z" />
    <glyph glyph-name="ntilde" unicode="&#xf1;" horiz-adv-x="1198" 
d="M145 0v1114h191l14 -104q34 57 115.5 97t193.5 40q212 0 307 -106.5t95 -333.5v-707h-203v670q0 171 -57.5 245t-190.5 74q-97 0 -165 -38.5t-95 -88.5v-862h-205zM274 1288q1 106 58 162.5t147 56.5q35 0 69 -12t49 -21.5t46 -31.5q23 -17 33 -23.5t26.5 -13t32.5 -6.5
q37 0 54 25t18 83h127q-1 -106 -56.5 -162.5t-142.5 -56.5q-81 0 -164 62q-55 45 -92 45t-56 -25.5t-20 -81.5h-129z" />
    <glyph glyph-name="ograve" unicode="&#xf2;" horiz-adv-x="1212" 
d="M86 557q0 147 42 261.5t116 185t168.5 107t205.5 36.5q234 0 371 -148.5t137 -441.5q0 -148 -42 -263t-115.5 -185t-168 -106t-204.5 -36q-235 0 -372.5 148t-137.5 442zM287 1522h198l238 -265h-188zM295 557q0 -199 79.5 -309.5t229.5 -110.5q152 0 234 111t82 309
q0 199 -80 310.5t-232 111.5q-151 0 -232 -111.5t-81 -310.5z" />
    <glyph glyph-name="oacute" unicode="&#xf3;" horiz-adv-x="1212" 
d="M86 557q0 147 42 261.5t116 185t168.5 107t205.5 36.5q234 0 371 -148.5t137 -441.5q0 -148 -42 -263t-115.5 -185t-168 -106t-204.5 -36q-235 0 -372.5 148t-137.5 442zM295 557q0 -199 79.5 -309.5t229.5 -110.5q152 0 234 111t82 309q0 199 -80 310.5t-232 111.5
q-151 0 -232 -111.5t-81 -310.5zM489 1257l240 265h197l-254 -265h-183z" />
    <glyph glyph-name="ocircumflex" unicode="&#xf4;" horiz-adv-x="1212" 
d="M86 557q0 147 42 261.5t116 185t168.5 107t205.5 36.5q234 0 371 -148.5t137 -441.5q0 -148 -42 -263t-115.5 -185t-168 -106t-204.5 -36q-235 0 -372.5 148t-137.5 442zM295 557q0 -199 79.5 -309.5t229.5 -110.5q152 0 234 111t82 309q0 199 -80 310.5t-232 111.5
q-151 0 -232 -111.5t-81 -310.5zM303 1257l240 265h129l237 -265h-164l-139 144l-139 -144h-164z" />
    <glyph glyph-name="otilde" unicode="&#xf5;" horiz-adv-x="1212" 
d="M86 557q0 147 42 261.5t116 185t168.5 107t205.5 36.5q234 0 371 -148.5t137 -441.5q0 -148 -42 -263t-115.5 -185t-168 -106t-204.5 -36q-235 0 -372.5 148t-137.5 442zM276 1288q1 106 58 162.5t147 56.5q35 0 69 -12t49 -21.5t46 -31.5q23 -17 33 -23.5t26.5 -13
t32.5 -6.5q37 0 54 25t18 83h127q-1 -106 -56.5 -162.5t-142.5 -56.5q-81 0 -164 62q-55 45 -92 45t-55.5 -25.5t-19.5 -81.5h-130zM295 557q0 -199 79.5 -309.5t229.5 -110.5q152 0 234 111t82 309q0 199 -80 310.5t-232 111.5q-151 0 -232 -111.5t-81 -310.5z" />
    <glyph glyph-name="odieresis" unicode="&#xf6;" horiz-adv-x="1212" 
d="M86 557q0 147 42 261.5t116 185t168.5 107t205.5 36.5q234 0 371 -148.5t137 -441.5q0 -148 -42 -263t-115.5 -185t-168 -106t-204.5 -36q-235 0 -372.5 148t-137.5 442zM295 557q0 -199 79.5 -309.5t229.5 -110.5q152 0 234 111t82 309q0 199 -80 310.5t-232 111.5
q-151 0 -232 -111.5t-81 -310.5zM295 1380q0 47 29 73t82 26q52 0 80 -26t28 -73q0 -96 -108 -96q-53 0 -82 24.5t-29 71.5zM702 1380q0 47 28 73t79 26q53 0 82 -26t29 -73t-29 -71.5t-82 -24.5q-51 0 -79 24.5t-28 71.5z" />
    <glyph glyph-name="divide" unicode="&#xf7;" horiz-adv-x="1124" 
d="M98 621v180h928v-180h-928zM434 348q0 59 35.5 97t93.5 38t94.5 -38t36.5 -97t-36.5 -96t-94.5 -37t-93.5 37t-35.5 96zM434 1071q0 59 35.5 97t93.5 38t94.5 -38t36.5 -97t-36.5 -96t-94.5 -37t-93.5 37t-35.5 96z" />
    <glyph glyph-name="oslash" unicode="&#xf8;" horiz-adv-x="1218" 
d="M45 0l143 164q-100 149 -100 393q0 147 42.5 261.5t116 185t168.5 107t206 36.5q202 0 329 -109l68 76h139l-135 -156q106 -147 106 -401q0 -148 -42 -263t-115.5 -185t-168 -106t-204.5 -36q-213 0 -340 115l-72 -82h-141zM297 557q0 -134 35 -227l491 561
q-79 88 -213 88q-151 0 -232 -111.5t-81 -310.5zM389 231q79 -94 217 -94q152 0 234 111t82 309q0 140 -41 240z" />
    <glyph glyph-name="ugrave" unicode="&#xf9;" horiz-adv-x="1181" 
d="M137 422v692h203v-653q0 -92 10 -151.5t37 -102.5t74 -61.5t121 -18.5q96 0 158.5 38t90.5 89v860h203v-1114h-190l-13 106q-34 -57 -113.5 -98t-187.5 -41q-112 0 -188.5 28t-121.5 86.5t-64 140.5t-19 200zM266 1522h199l237 -265h-188z" />
    <glyph glyph-name="uacute" unicode="&#xfa;" horiz-adv-x="1181" 
d="M137 422v692h203v-653q0 -92 10 -151.5t37 -102.5t74 -61.5t121 -18.5q96 0 158.5 38t90.5 89v860h203v-1114h-190l-13 106q-34 -57 -113.5 -98t-187.5 -41q-112 0 -188.5 28t-121.5 86.5t-64 140.5t-19 200zM471 1257l240 265h196l-254 -265h-182z" />
    <glyph glyph-name="ucircumflex" unicode="&#xfb;" horiz-adv-x="1181" 
d="M137 422v692h203v-653q0 -92 10 -151.5t37 -102.5t74 -61.5t121 -18.5q96 0 158.5 38t90.5 89v860h203v-1114h-190l-13 106q-34 -57 -113.5 -98t-187.5 -41q-112 0 -188.5 28t-121.5 86.5t-64 140.5t-19 200zM285 1257l239 265h129l238 -265h-164l-139 144l-139 -144
h-164z" />
    <glyph glyph-name="udieresis" unicode="&#xfc;" horiz-adv-x="1181" 
d="M137 422v692h203v-653q0 -92 10 -151.5t37 -102.5t74 -61.5t121 -18.5q96 0 158.5 38t90.5 89v860h203v-1114h-190l-13 106q-34 -57 -113.5 -98t-187.5 -41q-112 0 -188.5 28t-121.5 86.5t-64 140.5t-19 200zM274 1380q0 47 29 73t82 26q52 0 80.5 -26t28.5 -73
q0 -96 -109 -96q-53 0 -82 24.5t-29 71.5zM682 1380q0 47 27.5 73t78.5 26q53 0 82 -26t29 -73t-29 -71.5t-82 -24.5q-106 0 -106 96z" />
    <glyph glyph-name="yacute" unicode="&#xfd;" horiz-adv-x="1038" 
d="M14 1114h224l323 -864l246 864h203l-322 -1046q-22 -72 -44.5 -129.5t-52.5 -116.5t-66 -101.5t-80 -77t-99.5 -52t-120.5 -17.5q-61 0 -112 18t-76 43v181q73 -80 180 -80q81 0 142.5 58.5t107.5 189.5zM418 1257l239 265h197l-254 -265h-182z" />
    <glyph glyph-name="thorn" unicode="&#xfe;" horiz-adv-x="1198" 
d="M145 -391v1913h205v-518q30 61 110.5 102t198.5 41q451 0 451 -563q0 -148 -39 -267t-106.5 -194.5t-157 -115.5t-193.5 -40q-78 0 -152.5 20.5t-111.5 69.5v-448h-205zM350 231q34 -55 100.5 -78.5t141.5 -23.5q151 0 230 120.5t79 323.5q0 202 -69.5 305t-221.5 103
q-95 0 -165 -35.5t-95 -93.5v-621z" />
    <glyph glyph-name="ydieresis" unicode="&#xff;" horiz-adv-x="1038" 
d="M14 1114h224l323 -864l246 864h203l-322 -1046q-22 -72 -44.5 -129.5t-52.5 -116.5t-66 -101.5t-80 -77t-99.5 -52t-120.5 -17.5q-61 0 -112 18t-76 43v181q73 -80 180 -80q81 0 142.5 58.5t107.5 189.5zM223 1380q0 47 29 73t82 26q52 0 80 -26t28 -73q0 -96 -108 -96
q-53 0 -82 24.5t-29 71.5zM631 1380q0 47 27.5 73t78.5 26q53 0 82 -26t29 -73t-29 -71.5t-82 -24.5q-106 0 -106 96z" />
    <glyph glyph-name="OE" unicode="&#x152;" horiz-adv-x="2156" 
d="M90 696q0 142 36 262.5t98 205t144 144.5t173.5 88.5t187.5 28.5q330 0 457 -239v207h885l-58 -179h-616v-411h432v-166h-432v-457h616l58 -180h-885v231q-66 -128 -186.5 -196t-270.5 -68q-142 0 -258 45.5t-201.5 134t-132.5 228.5t-47 321zM303 707
q0 -277 116.5 -419.5t325.5 -142.5q197 0 319 142.5t122 400.5q0 273 -117.5 416t-323.5 143q-198 0 -320 -141t-122 -399z" />
    <glyph glyph-name="oe" unicode="&#x153;" horiz-adv-x="1986" 
d="M86 557q0 147 42 261.5t115 185t166 107t201 36.5q305 0 416 -248q116 248 410 248q76 0 140.5 -14.5t125.5 -51t104 -93.5t69 -148t26 -209v-142h-771q8 -163 98.5 -256.5t260.5 -93.5q134 0 225 39.5t141 97.5v-188q-130 -121 -385 -121q-173 0 -284.5 58t-171.5 188
q-119 -246 -426 -246q-112 0 -202.5 35.5t-158 106.5t-104.5 185t-37 263zM295 557q0 -199 79.5 -309.5t229.5 -110.5q152 0 234 111t82 309q0 199 -80 310.5t-232 111.5q-151 0 -232 -111.5t-81 -310.5zM1133 635h567v29q0 158 -71 236.5t-204 78.5q-126 0 -206 -95
t-86 -249z" />
    <glyph glyph-name="Ydieresis" unicode="&#x178;" 
d="M10 1393h232l342 -617l348 617h207l-461 -799v-594h-209v594zM266 1642q0 47 29 73t82 26q52 0 80 -26t28 -73q0 -96 -108 -96q-53 0 -82 24.5t-29 71.5zM674 1642q0 47 27.5 73t78.5 26q53 0 82 -26t29 -73t-29 -71.5t-82 -24.5q-106 0 -106 96z" />
    <glyph glyph-name="circumflex" unicode="&#x2c6;" horiz-adv-x="1128" 
d="M260 1257l240 265h129l237 -265h-164l-139 144l-139 -144h-164z" />
    <glyph glyph-name="tilde" unicode="&#x2dc;" horiz-adv-x="1128" 
d="M236 1288q1 106 57.5 162.5t146.5 56.5q35 0 69 -12t49 -21.5t46 -31.5q23 -17 33 -23.5t26.5 -13t32.5 -6.5q37 0 54 25t18 83h127q-1 -106 -56.5 -162.5t-142.5 -56.5q-81 0 -164 62q-55 45 -92 45t-55.5 -25.5t-19.5 -81.5h-129z" />
    <glyph glyph-name="uni2000" unicode="&#x2000;" horiz-adv-x="957" 
 />
    <glyph glyph-name="uni2001" unicode="&#x2001;" horiz-adv-x="1915" 
 />
    <glyph glyph-name="uni2002" unicode="&#x2002;" horiz-adv-x="957" 
 />
    <glyph glyph-name="uni2003" unicode="&#x2003;" horiz-adv-x="1915" 
 />
    <glyph glyph-name="uni2004" unicode="&#x2004;" horiz-adv-x="638" 
 />
    <glyph glyph-name="uni2005" unicode="&#x2005;" horiz-adv-x="478" 
 />
    <glyph glyph-name="uni2006" unicode="&#x2006;" horiz-adv-x="319" 
 />
    <glyph glyph-name="uni2007" unicode="&#x2007;" horiz-adv-x="319" 
 />
    <glyph glyph-name="uni2008" unicode="&#x2008;" horiz-adv-x="239" 
 />
    <glyph glyph-name="uni2009" unicode="&#x2009;" horiz-adv-x="383" 
 />
    <glyph glyph-name="uni200A" unicode="&#x200a;" horiz-adv-x="106" 
 />
    <glyph glyph-name="uni2010" unicode="&#x2010;" horiz-adv-x="774" 
d="M125 535v174h524v-174h-524z" />
    <glyph glyph-name="uni2011" unicode="&#x2011;" horiz-adv-x="774" 
d="M125 535v174h524v-174h-524z" />
    <glyph glyph-name="figuredash" unicode="&#x2012;" horiz-adv-x="774" 
d="M125 535v174h524v-174h-524z" />
    <glyph glyph-name="endash" unicode="&#x2013;" horiz-adv-x="1411" 
d="M123 541v161h1165v-161h-1165z" />
    <glyph glyph-name="emdash" unicode="&#x2014;" horiz-adv-x="1859" 
d="M123 541v161h1612v-161h-1612z" />
    <glyph glyph-name="quoteleft" unicode="&#x2018;" horiz-adv-x="456" 
d="M111 1194q0 102 52 202.5t109 157.5l90 -16q-26 -47 -48.5 -116.5t-28.5 -129.5q67 -27 67 -108q0 -54 -34 -87.5t-89 -33.5q-54 0 -86 35t-32 96z" />
    <glyph glyph-name="quoteright" unicode="&#x2019;" horiz-adv-x="446" 
d="M111 1077q26 47 48.5 116.5t28.5 129.5q-33 13 -50 42.5t-17 66.5q0 54 34 87t89 33q54 0 86 -35t32 -96q0 -102 -52 -202.5t-109 -157.5z" />
    <glyph glyph-name="quotesinglbase" unicode="&#x201a;" horiz-adv-x="458" 
d="M98 -272q26 48 49 116.5t29 128.5q-33 13 -50 42.5t-17 66.5q0 54 33.5 87.5t88.5 33.5q54 0 86.5 -35t32.5 -96q0 -102 -52.5 -203t-109.5 -158z" />
    <glyph glyph-name="quotedblleft" unicode="&#x201c;" horiz-adv-x="772" 
d="M111 1194q0 102 52 202.5t109 157.5l90 -16q-26 -47 -48.5 -116.5t-28.5 -129.5q67 -27 67 -108q0 -54 -34 -87.5t-89 -33.5q-54 0 -86 35t-32 96zM424 1194q0 102 52 202t110 158l90 -16q-66 -122 -78 -246q33 -13 50.5 -42.5t17.5 -65.5q0 -54 -34 -87.5t-89 -33.5
q-54 0 -86.5 35t-32.5 96z" />
    <glyph glyph-name="quotedblright" unicode="&#x201d;" horiz-adv-x="759" 
d="M111 1077q26 47 48.5 116.5t28.5 129.5q-33 13 -50 42.5t-17 66.5q0 54 34 87t89 33q54 0 86 -35t32 -96q0 -102 -52 -202.5t-109 -157.5zM424 1077q66 122 78 246q-33 13 -50.5 42.5t-17.5 66.5q0 54 34 87t89 33q54 0 86.5 -35t32.5 -96q0 -102 -52 -202t-110 -158z
" />
    <glyph glyph-name="quotedblbase" unicode="&#x201e;" horiz-adv-x="774" 
d="M98 -272q26 48 49 116.5t29 128.5q-33 13 -50 42.5t-17 66.5q0 54 33.5 87.5t88.5 33.5q54 0 86.5 -35t32.5 -96q0 -102 -52.5 -203t-109.5 -158zM412 -272q26 48 48.5 116.5t28.5 128.5q-33 13 -50 42.5t-17 66.5q0 54 34 87.5t89 33.5q54 0 86.5 -35t32.5 -96
q0 -102 -52.5 -203t-109.5 -158z" />
    <glyph glyph-name="bullet" unicode="&#x2022;" horiz-adv-x="612" 
d="M106 717q0 90 55.5 148.5t145.5 58.5q87 0 144 -58.5t57 -148.5q0 -92 -56.5 -150.5t-144.5 -58.5q-90 0 -145.5 58t-55.5 151z" />
    <glyph glyph-name="ellipsis" unicode="&#x2026;" horiz-adv-x="1236" 
d="M92 98q0 58 34.5 95.5t92.5 37.5q55 0 91 -38t36 -95q0 -56 -36 -93.5t-91 -37.5q-57 0 -92 37t-35 94zM492 98q0 58 35 95.5t91 37.5q55 0 91 -38t36 -95q0 -56 -36 -93.5t-91 -37.5q-56 0 -91 37.5t-35 93.5zM889 98q0 57 36 95t93 38q55 0 90 -38t35 -95
q0 -56 -35 -93.5t-90 -37.5q-56 0 -92.5 37.5t-36.5 93.5z" />
    <glyph glyph-name="uni202F" unicode="&#x202f;" horiz-adv-x="383" 
 />
    <glyph glyph-name="guilsinglleft" unicode="&#x2039;" horiz-adv-x="700" 
d="M66 510q123 134 207 249.5t147 241.5h186q-127 -245 -338 -491q183 -211 338 -510h-186q-141 278 -354 510z" />
    <glyph glyph-name="guilsinglright" unicode="&#x203a;" horiz-adv-x="700" 
d="M92 0q161 304 340 510q-209 244 -340 491h191q61 -125 144 -240.5t206 -250.5q-215 -237 -350 -510h-191z" />
    <glyph glyph-name="uni205F" unicode="&#x205f;" horiz-adv-x="478" 
 />
    <glyph glyph-name="Euro" unicode="&#x20ac;" horiz-adv-x="1236" 
d="M74 508v106h119v54q0 48 2 73h-121v105h133q23 132 80.5 235t136.5 164.5t167.5 93t182.5 31.5q226 0 340 -117v-241q-51 90 -135 130t-205 40q-299 0 -354 -336h465v-105h-475q-2 -23 -2 -65v-62h477v-106h-467q55 -356 356 -356q241 0 340 161v-225
q-117 -123 -340 -123q-112 0 -205.5 30.5t-170.5 93.5t-128 169.5t-69 249.5h-127z" />
    <glyph glyph-name="trademark" unicode="&#x2122;" horiz-adv-x="1923" 
d="M111 1262v131h698v-131h-266v-644h-166v644h-266zM926 618v775h141l285 -365l270 365h143v-775h-161v533l-236 -311h-45l-238 311v-533h-159z" />
    <glyph glyph-name="uniE000" unicode="&#xe000;" horiz-adv-x="1116" 
d="M0 0v1116h1116v-1116h-1116z" />
  </font>
</defs>
</svg>
