<?xml version="1.0" standalone="no"?>
<!DOCTYPE svg PUBLIC "-//W3C//DTD SVG 1.1//EN" "http://www.w3.org/Graphics/SVG/1.1/DTD/svg11.dtd" >
<svg xmlns="http://www.w3.org/2000/svg" xmlns:xlink="http://www.w3.org/1999/xlink" version="1.1">
<metadata>
Created by FontForge 20170731 at Tue Nov  3 16:03:32 2015
 By Aleksey,,,
Copyright (c) 2013 by Etihad Airways. All rights reserved.
</metadata>
<defs>
<font id="EtihadAltis-Medium" horiz-adv-x="1228" >
  <font-face 
    font-family="Etihad Altis Medium"
    font-weight="500"
    font-stretch="normal"
    units-per-em="2048"
    panose-1="2 11 7 3 3 0 0 0 0 3"
    ascent="1602"
    descent="-446"
    x-height="1130"
    cap-height="1393"
    bbox="-158 -537 2083 1948"
    underline-thickness="151"
    underline-position="-365"
    unicode-range="U+000D-FB04"
  />
<missing-glyph horiz-adv-x="748" 
d="M68 0v1365h544v-1365h-544zM136 68h408v1229h-408v-1229z" />
    <glyph glyph-name="uniFB01" unicode="fi" horiz-adv-x="1255" 
d="M53 930v61l135 121v121q0 170 94.5 256t254.5 86q133 0 196 -57v-226q-66 74 -158 74q-70 0 -96 -36t-26 -107v-93h663v-1130h-264v930h-399v-930h-265v930h-135zM838 1395q0 135 143 135q150 0 149 -135q1 -131 -149 -131q-143 0 -143 131z" />
    <glyph glyph-name="uniFB02" unicode="fl" horiz-adv-x="1249" 
d="M53 920v71l135 121v121q0 170 94.5 256t254.5 86q133 0 196 -57v-226q-66 74 -158 74q-70 0 -96 -36t-26 -107v-93h235l-72 -210h-163v-920h-265v920h-135zM846 0v1542h264v-1542h-264z" />
    <glyph glyph-name="uniFB03" unicode="ffi" horiz-adv-x="1918" 
d="M53 930v61l135 121v121q0 170 100.5 256t262.5 86q143 0 223 -57v-226q-82 74 -184 74q-137 0 -137 -143v-93h399v103q0 170 100.5 256t261.5 86q143 0 224 -57v-226q-82 74 -185 74q-137 0 -137 -143v-93h664v-1130h-264v930h-400v-930h-264v930h-399v-930h-265v930
h-135zM1501 1395q0 135 144 135q150 0 149 -135q1 -131 -149 -131q-143 0 -144 131z" />
    <glyph glyph-name="uniFB04" unicode="ffl" horiz-adv-x="1912" 
d="M53 930v61l135 121v121q0 170 100.5 256t262.5 86q143 0 223 -57v-226q-82 74 -184 74q-137 0 -137 -143v-93h399v103q0 170 100.5 256t261.5 86q143 0 224 -57v-226q-82 74 -185 74q-137 0 -137 -143v-93h256l-72 -200h-184v-930h-264v930h-399v-930h-265v930h-135z
M1509 0v1542h265v-1542h-265z" />
    <glyph glyph-name=".notdef" horiz-adv-x="748" 
d="M68 0v1365h544v-1365h-544zM136 68h408v1229h-408v-1229z" />
    <glyph glyph-name="glyph1" horiz-adv-x="0" 
 />
    <glyph glyph-name="uni000D" unicode="&#xd;" horiz-adv-x="681" 
 />
    <glyph glyph-name="space" unicode=" " horiz-adv-x="491" 
 />
    <glyph glyph-name="exclam" unicode="!" horiz-adv-x="557" 
d="M117 135q0 74 45 122t119 48q72 0 117.5 -48t45.5 -122t-45.5 -121t-117.5 -47q-74 0 -119 47t-45 121zM129 1393h299l-33 -973h-233z" />
    <glyph glyph-name="quotedbl" unicode="&#x22;" horiz-adv-x="796" 
d="M88 1386v48q0 61 38 101t99 40q59 0 99.5 -41t40.5 -100v-48l-84 -366h-107zM432 1386v48q0 61 39 101t100 40q59 0 98.5 -41t39.5 -100v-48l-84 -366h-107z" />
    <glyph glyph-name="numbersign" unicode="#" horiz-adv-x="1402" 
d="M68 406l20 126h297l64 365h-295l20 127h297l70 397h147l-70 -397h277l70 397h147l-70 -397h293l-22 -127h-293l-64 -365h293l-22 -126h-293l-72 -406h-147l71 406h-276l-72 -406h-147l71 406h-294zM532 532h277l63 365h-276z" />
    <glyph glyph-name="dollar" unicode="$" horiz-adv-x="1089" 
d="M92 172v250q47 -53 148.5 -92t226.5 -39q141 0 208.5 28.5t67.5 104.5q0 59 -40.5 85t-122.5 44l-195 45q-143 33 -218 109.5t-75 218.5q0 260 297 327v183h121v-164q53 4 88 4h16v160h119v-170q162 -23 244 -86v-250q-47 55 -149.5 92t-231.5 37t-187.5 -22.5
t-58.5 -90.5q0 -57 38 -82.5t122 -44.5l188 -41q160 -37 238 -110.5t78 -218.5q0 -123 -72 -210t-209 -128v-205h-119v178q-35 -4 -104 -8v-170h-121v172q-203 14 -297 94z" />
    <glyph glyph-name="percent" unicode="%" horiz-adv-x="1523" 
d="M70 1069q0 205 87 295t230 90q96 0 176 -45q127 -70 277 -70q186 0 286 115l127 -72l-835 -1382h-170l739 1225q-63 -27 -145 -27q-84 0 -156 25q18 -63 19 -154q0 -383 -317.5 -383t-317.5 383zM264 1069q0 -115 29 -166t94.5 -51t94 51t28.5 166t-28.5 167t-94 52
t-94.5 -52t-29 -167zM819 350q0 205 87 295t230.5 90t230.5 -90t87 -295q0 -383 -317.5 -383t-317.5 383zM1014 350.5q0 -114.5 28.5 -166t94 -51.5t94.5 51.5t29 166t-29 166.5t-94.5 52t-94 -52t-28.5 -166.5z" />
    <glyph glyph-name="ampersand" unicode="&#x26;" horiz-adv-x="1579" 
d="M68 434q0 135 77.5 237.5t190.5 147.5q-133 104 -133 254q0 168 130 260t335 92q119 0 203.5 -35.5t109.5 -72.5v-281q-39 57 -124 106.5t-181 49.5q-201 0 -201 -121q0 -53 24.5 -88t90.5 -94l151 -135v-64h-256q-143 -80 -143 -225q0 -264 358 -264q440 0 441 370
q0 63 -11 119h-157v232h606l-72 -232h-114q6 -37 6 -104q0 -295 -197.5 -457t-519.5 -162q-303 0 -458.5 121t-155.5 346z" />
    <glyph glyph-name="quotesingle" unicode="'" horiz-adv-x="452" 
d="M88 1386v48q0 61 38 101t99 40q59 0 99.5 -41t40.5 -100v-48l-84 -366h-107z" />
    <glyph glyph-name="parenleft" unicode="(" horiz-adv-x="737" 
d="M74 625q0 260 117.5 493.5t308.5 333.5h237q-199 -106 -313.5 -324.5t-114.5 -502.5q0 -293 120 -525.5t306 -343.5h-235q-190 100 -308 346t-118 523z" />
    <glyph glyph-name="parenright" unicode=")" horiz-adv-x="733" 
d="M0 -246q199 106 313.5 326.5t114.5 503.5q0 293 -120 525t-306 341h234q193 -98 309.5 -344t116.5 -522q0 -260 -117 -494.5t-309 -335.5h-236z" />
    <glyph glyph-name="asterisk" unicode="*" horiz-adv-x="884" 
d="M90 1313l103 147l176 -131l-17 213h183l-13 -211l174 129l101 -139l-217 -131l215 -129l-99 -146l-174 132l15 -209h-185l13 211l-172 -136l-101 148l217 133z" />
    <glyph glyph-name="plus" unicode="+" horiz-adv-x="1095" 
d="M72 621v231h358v365h234v-365h360v-231h-360v-365h-234v365h-358z" />
    <glyph glyph-name="comma" unicode="," horiz-adv-x="520" 
d="M84 -303q82 154 98 289q-88 43 -88 149q0 76 46 123t122 47q74 0 117 -49t43 -133q0 -123 -69.5 -251t-143.5 -198z" />
    <glyph glyph-name="hyphen" unicode="-" horiz-adv-x="780" 
d="M123 518v223h534v-223h-534z" />
    <glyph glyph-name="period" unicode="." horiz-adv-x="516" 
d="M94 135q0 74 45 122t119 48q72 0 118 -48t46 -122t-46 -121t-118 -47q-74 0 -119 47t-45 121z" />
    <glyph glyph-name="slash" unicode="/" horiz-adv-x="1282" 
d="M45 -164l997 1751h201l-999 -1751h-199z" />
    <glyph glyph-name="zero" unicode="0" horiz-adv-x="1198" 
d="M84 698q0 360 134 543.5t382 183.5q279 0 395.5 -175t116.5 -552q0 -360 -132 -545.5t-380 -185.5q-276 0 -396 178.5t-120 552.5zM360 698.5q0 -272.5 52.5 -388t187.5 -115.5q137 0 186.5 114.5t49.5 388.5q0 276 -49.5 389t-186.5 113t-188.5 -114.5t-51.5 -387z" />
    <glyph glyph-name="one" unicode="1" horiz-adv-x="761" 
d="M88 926v237l397 230h123v-1393h-258v1067z" />
    <glyph glyph-name="two" unicode="2" horiz-adv-x="1040" 
d="M74 1018v252q53 63 158.5 109t238.5 46q231 0 343 -115.5t112 -324.5q0 -102 -46 -217t-93.5 -184.5t-127.5 -173.5l-129 -168h418v-242h-856v27l428 579q150 203 150 352q0 236 -240 236q-96 0 -195.5 -52t-160.5 -124z" />
    <glyph glyph-name="three" unicode="3" horiz-adv-x="1056" 
d="M72 1393h876v-27l-307 -547q156 -29 242 -119t86 -272q0 -184 -146.5 -322.5t-427.5 -138.5q-178 0 -297 64v260q98 -102 273 -103q319 0 319 232q0 104 -65.5 156.5t-227.5 52.5h-92v26l281 506h-443z" />
    <glyph glyph-name="four" unicode="4" horiz-adv-x="1155" 
d="M23 287v26l397 1080h250l-301 -863h336v502h249v-502h179l-62 -243h-117v-287h-249v287h-682z" />
    <glyph glyph-name="five" unicode="5" horiz-adv-x="1046" 
d="M94 31v260q125 -102 293 -103q147 0 224 58.5t77 161.5q0 100 -66.5 152t-226.5 52q-154 0 -260 -53l31 834h778l-72 -232h-479l-8 -340q33 12 117 13q463 0 463 -404q0 -209 -155.5 -336t-397.5 -127q-199 0 -318 64z" />
    <glyph glyph-name="six" unicode="6" horiz-adv-x="1155" 
d="M84 510q0 176 49 329.5t131 260t170 179.5t180 114h367v-13q-203 -88 -342 -204.5t-213 -284.5q88 57 219 57q215 0 333 -127t118 -344t-141.5 -363.5t-375 -146.5t-364.5 150.5t-131 392.5zM350 483q0 -131 62.5 -208.5t177.5 -77.5q113 0 176 74.5t63 195.5t-62 193.5
t-177 72.5q-156 0 -232 -98q-8 -66 -8 -152z" />
    <glyph glyph-name="seven" unicode="7" horiz-adv-x="946" 
d="M14 1393h932v-27l-477 -1366h-264l411 1161h-530z" />
    <glyph glyph-name="eight" unicode="8" horiz-adv-x="1167" 
d="M88 373q0 238 231 334q-86 43 -141 125.5t-55 197.5q0 184 129 289.5t346 105.5q213 0 329.5 -104t116.5 -291q0 -217 -196 -315q100 -35 164.5 -124t64.5 -218q0 -180 -136 -293t-374 -113q-233 0 -356 111.5t-123 294.5zM352 397q0 -92 58.5 -146t171.5 -54
q117 0 176 54t59 146t-58.5 144.5t-176.5 52.5q-115 0 -172.5 -52.5t-57.5 -144.5zM377 1005.5q0 -90.5 53.5 -140.5t149.5 -50q100 0 155.5 50t55.5 140.5t-56.5 141.5t-154.5 51q-96 0 -149.5 -51t-53.5 -141.5z" />
    <glyph glyph-name="nine" unicode="9" horiz-adv-x="1155" 
d="M59 915.5q0 217.5 141.5 363.5t375 146t364.5 -150.5t131 -391.5q0 -176 -49 -332t-129 -263.5t-164 -179t-168 -108.5h-387v12q205 90 343 205t212 283q-90 -55 -219 -56q-215 0 -333 127t-118 344.5zM326 926q0 -121 62 -194t177 -73q154 0 230 99q10 78 10 151
q0 131 -62.5 209t-177.5 78q-113 0 -176 -74.5t-63 -195.5z" />
    <glyph glyph-name="colon" unicode=":" horiz-adv-x="573" 
d="M123 135q0 74 45 122t119 48q72 0 118 -48t46 -122t-46 -121t-118 -47q-74 0 -119 47t-45 121zM123 905q0 74 45 122t119 48q72 0 118 -48t46 -122t-46 -121t-118 -47q-74 0 -119 47t-45 121z" />
    <glyph glyph-name="semicolon" unicode=";" horiz-adv-x="589" 
d="M106 -303q82 154 99 289q-88 43 -88 149q0 76 46 123t122 47q74 0 116.5 -49t42.5 -133q0 -123 -69.5 -251t-143.5 -198zM143 905q0 74 45 122t119 48q72 0 118 -48t46 -122t-46 -121t-118 -47q-74 0 -119 47t-45 121z" />
    <glyph glyph-name="less" unicode="&#x3c;" horiz-adv-x="1126" 
d="M59 707v12l924 586v-267l-530 -336l530 -335v-246z" />
    <glyph glyph-name="equal" unicode="=" horiz-adv-x="1136" 
d="M129 393v219h879v-219h-879zM129 846v221h879v-221h-879z" />
    <glyph glyph-name="greater" unicode="&#x3e;" horiz-adv-x="1126" 
d="M143 121v246l531 335l-531 336v267l924 -586v-12z" />
    <glyph glyph-name="question" unicode="?" horiz-adv-x="948" 
d="M74 1016v278q55 55 158.5 93t228.5 38q201 0 309.5 -92t108.5 -258q0 -82 -35 -156.5t-71 -115.5t-111 -115q-94 -94 -95 -248v-20h-266v18q0 139 43 227.5t135 176.5q63 59 91 102t28 100q0 147 -186 148q-98 0 -196.5 -51t-141.5 -125zM272 135q0 74 45 122t119 48
q72 0 118 -48t46 -122t-46 -121t-118 -47q-74 0 -119 47t-45 121z" />
    <glyph glyph-name="at" unicode="@" horiz-adv-x="1869" 
d="M74 571q0 397 254 630t628 233q377 0 610.5 -208t233.5 -593q0 -252 -104.5 -412t-290.5 -160q-117 0 -192.5 44.5t-96.5 113.5q-57 -115 -237 -115q-156 0 -257.5 116t-101.5 343q0 231 108.5 356t280.5 125q137 0 203 -86l74 60h114v-658q0 -84 27 -116.5t88 -32.5
q88 0 149.5 104.5t61.5 319.5q0 322 -179 485.5t-488.5 163.5t-508 -187.5t-198.5 -523.5q0 -338 189.5 -523t496.5 -185q238 0 377 78v-170q-141 -66 -379 -66q-244 0 -437.5 99.5t-309 298t-115.5 466.5zM745 563q1 -291 183 -291q111 0 157 86v455q-49 68 -149 68
q-92 0 -141.5 -89.5t-49.5 -228.5z" />
    <glyph glyph-name="A" unicode="A" horiz-adv-x="1294" 
d="M6 0l553 1393h178l547 -1393h-283l-110 289h-363l-77 198h366l-145 383l-39 121l-39 -121l-328 -870h-260z" />
    <glyph glyph-name="B" unicode="B" horiz-adv-x="1236" 
d="M154 0v1393h444q516 0 516 -340q0 -133 -72.5 -212t-197.5 -106v-4q145 -20 224 -96t79 -236q0 -182 -130 -290.5t-403 -108.5h-460zM424 221h197q145 0 202.5 51.5t57.5 153.5q0 98 -57.5 146.5t-205.5 48.5h-194v-400zM424 827h192q123 0 177.5 43t54.5 140
q0 90 -54.5 125.5t-179.5 35.5h-190v-344z" />
    <glyph glyph-name="C" unicode="C" horiz-adv-x="1210" 
d="M82 696q0 346 182 537.5t459 191.5q262 0 395 -102v-295q-133 166 -356 166q-195 0 -300.5 -125t-105.5 -360q0 -240 105.5 -375t300.5 -135q233 0 356 147v-256q-57 -55 -160.5 -89t-224.5 -34q-305 0 -478 185.5t-173 543.5z" />
    <glyph glyph-name="D" unicode="D" horiz-adv-x="1374" 
d="M154 0v1393h395q362 -2 550.5 -165t188.5 -532q0 -184 -57 -322t-160.5 -218t-233.5 -118t-288 -38h-395zM424 231h125q262 0 363.5 105.5t101.5 349.5q0 246 -103.5 360.5t-361.5 114.5h-125v-930z" />
    <glyph glyph-name="E" unicode="E" horiz-adv-x="1130" 
d="M154 0v1393h909l-72 -232h-567v-334h412v-213h-412v-383h567l72 -231h-909z" />
    <glyph glyph-name="F" unicode="F" horiz-adv-x="1069" 
d="M154 0v1393h890l-69 -232h-551v-348h393v-207h-393v-606h-270z" />
    <glyph glyph-name="G" unicode="G" horiz-adv-x="1316" 
d="M82 696q0 346 193.5 537.5t486.5 191.5q258 0 436 -112v-295q-168 176 -405 176q-209 0 -323 -125t-114 -360q0 -240 106.5 -382.5t291.5 -142.5q115 0 174 25v391h270v-518q-176 -115 -455 -115q-303 0 -482 186.5t-179 542.5z" />
    <glyph glyph-name="H" unicode="H" horiz-adv-x="1427" 
d="M154 0v1393h270v-1393h-270zM426 829h578v564h270v-1393h-270v598h-433z" />
    <glyph glyph-name="I" unicode="I" horiz-adv-x="577" 
d="M154 0v1393h270v-1393h-270z" />
    <glyph glyph-name="J" unicode="J" horiz-adv-x="907" 
d="M47 39v272q124 -110 240 -110h2q111 0 158 59t47 203v930h270v-951q0 -246 -129 -360.5t-326 -114.5q-160 0 -262 72z" />
    <glyph glyph-name="K" unicode="K" horiz-adv-x="1292" 
d="M154 0v1393h270v-621l553 621h280l-501 -555l530 -838h-305l-395 649l-162 -180v-469h-270z" />
    <glyph glyph-name="L" unicode="L" horiz-adv-x="987" 
d="M154 0v1393h270v-1160h467l72 -233h-809z" />
    <glyph glyph-name="M" unicode="M" horiz-adv-x="1648" 
d="M154 0v1393h227l455 -668l432 668h227v-1393h-270v930l-400 -602h-2l-399 602v-930h-270z" />
    <glyph glyph-name="N" unicode="N" horiz-adv-x="1419" 
d="M154 0v1393h227l639 -906h4v906h242v-1393h-197l-670 944h-4v-944h-241z" />
    <glyph glyph-name="O" unicode="O" horiz-adv-x="1527" 
d="M80 696q0 174 58.5 315.5t155.5 230.5t218 136t252 47q313 0 498.5 -189t185.5 -540q0 -174 -58.5 -315t-155.5 -230.5t-218 -136.5t-252 -47q-313 0 -498.5 189.5t-185.5 539.5zM354 709q0 -244 110 -378t300 -134q188 0 299 130t111 359q0 244 -110 377t-300 133
q-188 0 -299 -129t-111 -358z" />
    <glyph glyph-name="P" unicode="P" horiz-adv-x="1177" 
d="M154 0v1393h434q293 0 420 -119t127 -342q0 -233 -127 -377.5t-400 -144.5h-184v-410h-270zM424 616h164q272 0 272 285q0 137 -61.5 207t-212.5 70h-162v-562z" />
    <glyph glyph-name="Q" unicode="Q" horiz-adv-x="1533" 
d="M84 696q0 174 58.5 315.5t155.5 230.5t218 136t252 47q313 0 498.5 -189t185.5 -540q0 -281 -140.5 -463t-359.5 -241l234 -291h-322l-196 272q-270 29 -427 215.5t-157 507.5zM358 709q0 -244 110 -378t300 -134q188 0 299 130t111 359q0 244 -110 377t-300 133
q-188 0 -299 -129t-111 -358z" />
    <glyph glyph-name="R" unicode="R" horiz-adv-x="1208" 
d="M154 0v1393h446q246 0 375 -112t129 -333q0 -162 -74 -281.5t-209 -172.5l379 -494h-303l-319 457h-154v-457h-270zM424 647h176q229 0 229 275q0 125 -53 190.5t-178 65.5h-174v-531z" />
    <glyph glyph-name="S" unicode="S" horiz-adv-x="1067" 
d="M92 993q0 205 128 318.5t368 113.5q227 0 356 -90v-282q-57 53 -155.5 96t-210.5 43q-119 0 -172.5 -41t-53.5 -127q0 -78 44 -118t171 -70l51 -13q188 -45 276.5 -136t88.5 -257q0 -213 -131 -338t-391 -125q-221 0 -355 92v283q160 -143 363 -143q252 0 252 194
q0 76 -50 118t-175 71l-52 12q-352 86 -352 399z" />
    <glyph glyph-name="T" unicode="T" horiz-adv-x="1157" 
d="M45 1161v232h1098l-72 -232h-356v-1161h-271v1161h-399z" />
    <glyph glyph-name="U" unicode="U" horiz-adv-x="1452" 
d="M139 612v781h271v-785q0 -213 77.5 -312t241.5 -99t242 99t78 312v785h264v-781q0 -324 -164 -484.5t-436 -160.5q-281 0 -427.5 153.5t-146.5 491.5z" />
    <glyph glyph-name="V" unicode="V" horiz-adv-x="1241" 
d="M14 1393h281l330 -955h8l336 955h262l-522 -1393h-181z" />
    <glyph glyph-name="W" unicode="W" horiz-adv-x="1884" 
d="M23 1393h280l256 -992h10l248 770l-72 222h267l321 -992h8l258 992h267l-422 -1393h-227l-281 862l-283 -862h-219z" />
    <glyph glyph-name="X" unicode="X" horiz-adv-x="1191" 
d="M18 0l435 723l-398 670h291l270 -459l246 459h275l-400 -650l437 -743h-289l-310 530l-282 -530h-275z" />
    <glyph glyph-name="Y" unicode="Y" horiz-adv-x="1185" 
d="M2 1393h299l303 -586l311 586h269l-457 -822v-571h-270v571z" />
    <glyph glyph-name="Z" unicode="Z" horiz-adv-x="1052" 
d="M59 1393h920v-64l-561 -1100h561v-229h-911v63l567 1100h-504z" />
    <glyph glyph-name="bracketleft" unicode="[" horiz-adv-x="716" 
d="M139 -244v1694h518v-190h-305v-1313h305v-191h-518z" />
    <glyph glyph-name="backslash" unicode="\" horiz-adv-x="1282" 
d="M39 1587h201l997 -1751h-199z" />
    <glyph glyph-name="bracketright" unicode="]" horiz-adv-x="716" 
d="M59 -53h306v1313h-306v190h519v-1694h-519v191z" />
    <glyph glyph-name="asciicircum" unicode="^" horiz-adv-x="1015" 
d="M82 965l420 637h12l420 -637h-254l-182 284l-183 -284h-233z" />
    <glyph glyph-name="underscore" unicode="_" horiz-adv-x="1595" 
d="M225 -133h1145v-209h-1145v209z" />
    <glyph glyph-name="grave" unicode="`" 
d="M391 1542h256l252 -272h-242z" />
    <glyph glyph-name="a" unicode="a" horiz-adv-x="1273" 
d="M80 549q0 297 139 455.5t359 158.5q170 0 258 -108l41 75h198v-862q0 -73 54 -73h1q51 0 89 30v-192q-43 -53 -162 -53q-164 0 -217 133q-31 -61 -106.5 -103.5t-196.5 -42.5q-199 0 -328 146.5t-129 435.5zM350 549q0 -367 250 -367q154 0 213 109v577q-63 86 -203 86
q-125 0 -192.5 -113.5t-67.5 -291.5z" />
    <glyph glyph-name="b" unicode="b" horiz-adv-x="1230" 
d="M139 0v1542h264v-512q25 51 102 92t187 41q459 0 459 -567q0 -295 -144.5 -462t-359.5 -167q-176 0 -268 109l-41 -76h-199zM403 262q68 -86 215 -86q131 0 197 112.5t66 293.5q0 366 -251 366h-1q-158 0 -226 -104v-582z" />
    <glyph glyph-name="c" unicode="c" horiz-adv-x="1038" 
d="M78 565q0 291 157.5 444.5t391.5 153.5q109 0 194.5 -24.5t126.5 -59.5v-260q-106 117 -301 117q-139 0 -218 -98.5t-79 -272.5t79 -272t218 -98q182 0 309 127v-242q-45 -43 -135.5 -78t-199.5 -35q-250 0 -396.5 150.5t-146.5 447.5z" />
    <glyph glyph-name="d" unicode="d" 
d="M80 547q0 299 137 457.5t365 158.5q176 0 243 -73v452h265v-1542h-246l-19 100q-73 -133 -286 -133q-205 0 -332 144.5t-127 435.5zM350 549q0 -367 250 -367q166 1 225 105v583q-63 84 -215 84q-131 0 -195.5 -112.5t-64.5 -292.5z" />
    <glyph glyph-name="e" unicode="e" horiz-adv-x="1175" 
d="M76 565q0 287 156.5 442.5t369.5 155.5q217 0 358.5 -122.5t141.5 -411.5v-150h-754q10 -129 91 -210t233 -81q254 0 377 136v-242q-128 -115 -402 -115q-266 0 -418.5 149.5t-152.5 448.5zM350 664h492v10q0 131 -61.5 201.5t-180.5 70.5q-109 0 -175.5 -83.5
t-74.5 -198.5z" />
    <glyph glyph-name="f" unicode="f" horiz-adv-x="708" 
d="M53 920v71l135 121v121q0 170 100.5 256t262.5 86q143 0 223 -57v-226q-82 74 -184 74q-137 0 -137 -143v-93h256l-72 -210h-184v-920h-265v920h-135z" />
    <glyph glyph-name="g" unicode="g" 
d="M82 590q0 270 138 421.5t362 151.5q80 0 155.5 -26.5t114.5 -69.5l35 63h205v-1005q0 -268 -155 -411.5t-429 -143.5q-125 0 -225.5 25.5t-141.5 60.5v264q57 -55 156.5 -92t220.5 -37q309 0 309 305v56q-98 -102 -286 -103q-203 0 -331 138.5t-128 402.5zM352 590
q0 -147 60.5 -236.5t191.5 -89.5q153 0 223 109v495q-70 86 -213 86q-129 0 -195.5 -106.5t-66.5 -257.5z" />
    <glyph glyph-name="h" unicode="h" 
d="M139 0v1542h264v-508q39 55 115 92t174 37q217 0 312.5 -112.5t95.5 -345.5v-705h-264v653q0 166 -46.5 235.5t-160.5 69.5q-84 0 -141.5 -33.5t-84.5 -76.5v-848h-264z" />
    <glyph glyph-name="i" unicode="i" horiz-adv-x="542" 
d="M127 1395q0 135 143 135q150 0 150 -135q0 -131 -150 -131q-143 0 -143 131zM139 0v1130h264v-1130h-264z" />
    <glyph glyph-name="j" unicode="j" horiz-adv-x="542" 
d="M-158 -156q76 -57 152 -57q145 0 145 145v1198h264v-1169q0 -176 -102 -278.5t-278 -102.5q-113 0 -181 43v221zM127 1395q0 135 143 135q150 0 150 -135q0 -131 -150 -131q-143 0 -143 131z" />
    <glyph glyph-name="k" unicode="k" horiz-adv-x="1179" 
d="M139 0v1542h264v-866q29 23 76 63.5t163 159.5t196 231h270q-125 -201 -377 -438l438 -692h-311l-323 518l-132 -104v-414h-264z" />
    <glyph glyph-name="l" unicode="l" horiz-adv-x="542" 
d="M139 0v1542h264v-1542h-264z" />
    <glyph glyph-name="m" unicode="m" horiz-adv-x="1849" 
d="M139 0v1130h252l12 -100q35 57 107 95t164 38q240 0 330 -166q111 166 329 166q203 0 295 -112.5t92 -345.5v-705h-264v653q0 164 -43 234.5t-143 70.5q-74 0 -133.5 -33.5t-85.5 -80.5q10 -55 10 -139v-705h-264v653q0 164 -43 234.5t-144 70.5q-74 0 -128 -32.5
t-79 -81.5v-844h-264z" />
    <glyph glyph-name="n" unicode="n" horiz-adv-x="1230" 
d="M139 0v1130h246l18 -100q35 57 111 95t180 38q217 0 312.5 -112.5t95.5 -345.5v-705h-264v653q0 166 -46.5 235.5t-160.5 69.5q-158 0 -228 -114v-844h-264z" />
    <glyph glyph-name="o" unicode="o" horiz-adv-x="1239" 
d="M78 565q0 291 158.5 444.5t396.5 153.5q244 0 386 -151.5t142 -446.5q0 -291 -158.5 -444.5t-394.5 -153.5q-244 0 -387 150.5t-143 447.5zM350 565q0 -176 69 -278.5t202 -102.5q135 0 203.5 102.5t68.5 278.5q0 174 -68.5 277.5t-203.5 103.5q-133 0 -202 -103.5
t-69 -277.5z" />
    <glyph glyph-name="p" unicode="p" horiz-adv-x="1230" 
d="M139 -397v1527h246l18 -100q74 133 289 133q459 0 459 -567q0 -295 -144.5 -462t-359.5 -167q-176 0 -244 74v-438h-264zM403 260q68 -84 215 -84q131 0 197 112.5t66 293.5q0 366 -251 366h-1q-162 0 -226 -104v-584z" />
    <glyph glyph-name="q" unicode="q" 
d="M80 549q0 299 137 456.5t363 157.5q178 0 270 -108l41 75h199v-1527h-265v497q-25 -51 -100.5 -92t-185.5 -41q-205 0 -332 145.5t-127 436.5zM350 549q0 -367 252 -367q156 0 223 105v581q-70 86 -213 86q-131 0 -196.5 -112.5t-65.5 -292.5z" />
    <glyph glyph-name="r" unicode="r" horiz-adv-x="757" 
d="M139 0v1130h230l20 -159q8 88 77 140t155 52q78 0 114 -24v-240q-45 29 -143 29q-133 0 -189 -117v-811h-264z" />
    <glyph glyph-name="s" unicode="s" horiz-adv-x="968" 
d="M84 803q0 156 113.5 258t322.5 102q227 0 330 -84v-254q-117 123 -324 123q-200 0 -200 -122q0 -58 34 -86t136 -48l55 -10q180 -33 263 -108.5t83 -227.5q0 -158 -119 -268.5t-344 -110.5q-219 0 -332 80v254q139 -119 326 -119q223 0 223 133q0 57 -35.5 83t-148.5 46
l-55 11q-328 59 -328 348z" />
    <glyph glyph-name="t" unicode="t" horiz-adv-x="798" 
d="M51 920v71l107 139l204 271h89v-271h315l-72 -210h-243v-603q0 -135 102 -135q109 0 176 97v-230q-81 -82 -235 -82q-307 0 -308 334v619h-135z" />
    <glyph glyph-name="u" unicode="u" horiz-adv-x="1212" 
d="M129 426v704h264v-653q0 -168 42 -236.5t157 -68.5q147 0 217 115v843h264v-1130h-248l-16 100q-33 -55 -109 -94t-176 -39q-213 0 -304 111.5t-91 347.5z" />
    <glyph glyph-name="v" unicode="v" horiz-adv-x="1075" 
d="M8 1130h283l217 -614l39 -127q25 72 39 127l223 614h258l-444 -1130h-174z" />
    <glyph glyph-name="w" unicode="w" horiz-adv-x="1529" 
d="M37 1130h262l170 -665l250 665h110l254 -665l164 665h244l-301 -1130h-162l-262 678l-264 -678h-160z" />
    <glyph glyph-name="x" unicode="x" horiz-adv-x="1114" 
d="M14 0l402 592l-361 538h285l235 -348l213 348h271l-367 -526l408 -604h-289l-270 403l-254 -403h-273z" />
    <glyph glyph-name="y" unicode="y" horiz-adv-x="1081" 
d="M8 1130h287l283 -815l221 815h262l-322 -1060q-35 -113 -72.5 -196t-95 -155.5t-139.5 -110.5t-186 -38q-131 0 -197 61v228q76 -80 187 -80q70 0 124 40t97 152z" />
    <glyph glyph-name="z" unicode="z" horiz-adv-x="987" 
d="M51 1130h862v-71l-493 -848h493v-211h-841v72l510 848h-459z" />
    <glyph glyph-name="braceleft" unicode="{" horiz-adv-x="774" 
d="M16 522v166l88 10q63 6 106.5 51.5t43.5 122.5v308q0 301 295 301q102 0 162 -41v-191q-59 41 -131 41q-113 0 -113 -106v-303q0 -143 -61.5 -203t-161.5 -70v-6q102 -10 162.5 -68.5t60.5 -203.5v-307q0 -106 113 -107q72 0 131 41v-190q-60 -41 -162 -41
q-295 0 -295 301v313q0 74 -43 120t-107 52z" />
    <glyph glyph-name="bar" unicode="|" horiz-adv-x="485" 
d="M135 -309v1851h215v-1851h-215z" />
    <glyph glyph-name="braceright" unicode="}" horiz-adv-x="774" 
d="M63 -43q59 -41 132 -41q113 0 112 107v307q0 145 60.5 203.5t162.5 68.5v6q-100 10 -161.5 69.5t-61.5 203.5v303q0 106 -112 106q-72 0 -132 -41v191q59 41 162 41q295 0 295 -301v-308q0 -78 43 -122.5t107 -51.5l88 -10v-166l-88 -10q-63 -6 -106.5 -52t-43.5 -120
v-313q0 -301 -295 -301q-102 0 -162 41v190z" />
    <glyph glyph-name="asciitilde" unicode="~" horiz-adv-x="1372" 
d="M100 514q0 461 332 461q90 0 164 -38t172 -118q125 -100 176 -100q59 0 88 46t29 183h221q0 -223 -84 -341t-248 -118q-68 0 -131 24t-98 49.5t-109 82.5q-123 98 -176 98q-59 0 -86.5 -46t-27.5 -183h-222z" />
    <glyph glyph-name="uni00A0" unicode="&#xa0;" horiz-adv-x="491" 
 />
    <glyph glyph-name="exclamdown" unicode="&#xa1;" horiz-adv-x="536" 
d="M102 995.5q0 73.5 46 120.5t118 47q74 0 119 -47t45 -120.5t-45 -122t-119 -48.5q-72 0 -118 48.5t-46 122zM119 -262l33 973h233l33 -973h-299z" />
    <glyph glyph-name="cent" unicode="&#xa2;" horiz-adv-x="1071" 
d="M86 662q0 295 153.5 446.5t403.5 151.5q27 0 72 -5l43 181h112l-49 -199q86 -25 135 -74v-278q-76 104 -188 133l-174 -721q18 -4 61 -4q193 0 310 139v-256q-45 -47 -133.5 -80t-194.5 -33q-51 0 -98 7l-45 -185h-111l49 207q-164 51 -255 194.5t-91 375.5zM358 662
q0 -248 134 -328l167 698h-4q-297 1 -297 -370z" />
    <glyph glyph-name="sterling" unicode="&#xa3;" horiz-adv-x="1232" 
d="M78 0v240q23 -29 55 -29q68 0 78 90l31 281h-164v137h180l21 176q29 250 147.5 362.5t355.5 112.5q197 0 299 -110v-312q-106 178 -297 178q-125 0 -173 -55t-62 -176l-21 -176h334v-137h-348l-31 -273l103 -45q131 -57 291 -57q88 0 162.5 59.5t105.5 139.5v-310
q-92 -129 -314 -129q-141 0 -331 99l-70 43q-70 -141 -242 -142q-74 0 -110 33z" />
    <glyph glyph-name="currency" unicode="&#xa4;" horiz-adv-x="1239" 
d="M90 180l164 193q-57 115 -57 319q0 201 59 322l-166 194l103 90l149 -176q102 84 285 84q176 0 272 -78l145 170l103 -90l-160 -188q61 -121 61.5 -328t-59.5 -327l158 -185l-103 -90l-143 168q-100 -78 -274 -78q-186 0 -287 82l-147 -172zM408 694q0 -162 50 -241.5
t167 -79.5q115 0 164 79.5t49 241.5t-49.5 242t-163.5 80q-117 0 -167 -80t-50 -242z" />
    <glyph glyph-name="yen" unicode="&#xa5;" horiz-adv-x="1290" 
d="M66 1337h292l293 -491l305 491h269l-379 -598h295v-135h-353v-102h353v-133h-353v-369h-284v369h-352v133h352v102h-352v135h292z" />
    <glyph glyph-name="brokenbar" unicode="&#xa6;" horiz-adv-x="493" 
d="M139 -309v827h215v-827h-215zM139 715v827h215v-827h-215z" />
    <glyph glyph-name="section" unicode="&#xa7;" horiz-adv-x="1009" 
d="M49 641q0 205 215 301q-84 74 -84 199q0 123 97.5 203.5t277.5 80.5q186 0 276 -73v-254q-106 113 -288 112q-121 0 -121 -55q0 -27 13.5 -46t60.5 -54l241 -183q133 -98 178.5 -177t45.5 -208q0 -203 -216 -301q84 -74 84 -196.5t-97 -206.5t-277 -84q-186 0 -277 74
v254q106 -113 289 -113q121 0 121 57q0 47 -74 103l-242 180q-133 100 -178 179t-45 208zM287 684q0 -59 15 -97t67 -79l225 -180l35 -29q45 16 69.5 56t24.5 89q0 59 -15.5 97.5t-66.5 79.5l-227 182l-35 26q-92 -35 -92 -145z" />
    <glyph glyph-name="dieresis" unicode="&#xa8;" 
d="M258 1397q0 123 137 123t137 -123q0 -119 -137 -119t-137 119zM698 1397q0 123 133 123q139 0 140 -123q-1 -119 -140 -119q-133 0 -133 119z" />
    <glyph glyph-name="copyright" unicode="&#xa9;" horiz-adv-x="1867" 
d="M72 715q0 399 246.5 628.5t621.5 229.5q244 0 439.5 -98.5t313 -296t117.5 -463.5q0 -403 -247.5 -636t-622.5 -233t-621.5 233.5t-246.5 635.5zM256 713q0 -338 190.5 -525.5t495.5 -187.5q307 0 495.5 187.5t188.5 525.5t-188.5 522t-495.5 184t-496.5 -184
t-189.5 -522zM477 715q0 254 153.5 390t342.5 136q184 0 287 -84v-225q-76 135 -287 135q-137 0 -215 -89t-78 -255q0 -168 79 -265.5t214 -97.5q213 0 287 123v-209q-92 -88 -287 -88q-215 0 -355.5 129t-140.5 400z" />
    <glyph glyph-name="ordfeminine" unicode="&#xaa;" horiz-adv-x="999" 
d="M102 915q0 125 98.5 188.5t301.5 94.5l139 19q0 106 -52 150t-159 44q-96 0 -175 -45t-118 -106v210q119 104 330 105q389 0 389 -363v-516h-197l-18 76q-20 -41 -78.5 -70.5t-148.5 -29.5q-137 0 -224.5 60.5t-87.5 182.5zM160 367v182h710v-182h-710zM315 922
q0 -102 136 -103q63 0 115 21.5t75 54.5v190l-123 -26q-113 -23 -158 -53.5t-45 -83.5z" />
    <glyph glyph-name="guillemotleft" unicode="&#xab;" horiz-adv-x="1198" 
d="M59 514q240 264 355 494h243q-133 -250 -338 -494q176 -209 338 -514h-243q-137 274 -355 514zM512 514q240 264 354 494h244q-133 -250 -338 -494q176 -209 338 -514h-244q-137 274 -354 514z" />
    <glyph glyph-name="logicalnot" unicode="&#xac;" horiz-adv-x="1206" 
d="M115 608v236h952v-582h-236v346h-716z" />
    <glyph glyph-name="uni00AD" unicode="&#xad;" horiz-adv-x="780" 
d="M123 518v223h534v-223h-534z" />
    <glyph glyph-name="registered" unicode="&#xae;" horiz-adv-x="1132" 
d="M86 1093.5q0 223.5 136 351.5t343 128q209 0 345.5 -128t136.5 -351.5t-136.5 -351.5t-345.5 -128q-207 0 -343 128t-136 351.5zM221 1094q0 -168 96 -261.5t250 -93.5q158 0 250 97h-143l-119 149h-59v-149h-131v534h180q246 0 246 -176q0 -129 -121 -174l153 -176
q84 94 84 250q0 170 -93 263t-246.5 93t-250 -93t-96.5 -263zM496 1098h69q86 0 86 86q0 80 -86 80h-69v-166z" />
    <glyph glyph-name="macron" unicode="&#xaf;" 
d="M291 1335v152h645v-152h-645z" />
    <glyph glyph-name="degree" unicode="&#xb0;" horiz-adv-x="909" 
d="M86 1100q0 154 100.5 253t272.5 99t269 -97.5t97 -254.5q0 -154 -101 -254.5t-273 -100.5q-170 0 -267.5 98.5t-97.5 256.5zM285 1100q0 -86 47 -135.5t125 -49.5q80 0 127 51.5t47 133.5q0 84 -47 134t-127 50q-78 0 -125 -52t-47 -132z" />
    <glyph glyph-name="plusminus" unicode="&#xb1;" horiz-adv-x="1185" 
d="M117 0v231h952v-231h-952zM117 825v232h358v364h234v-364h360v-232h-360v-364h-234v364h-358z" />
    <glyph glyph-name="uni00B2" unicode="&#xb2;" horiz-adv-x="782" 
d="M57 1292v187q96 84 287 84q340 0 340 -269q0 -162 -195 -333l-90 -80h328v-181h-651v56l303 303q104 104 104 203q0 125 -172 124q-152 0 -254 -94z" />
    <glyph glyph-name="uni00B3" unicode="&#xb3;" horiz-adv-x="778" 
d="M49 1542h651v-43l-227 -289q115 -16 179.5 -70.5t64.5 -164.5q0 -125 -105.5 -210t-312.5 -85q-141 0 -223 43v190q78 -61 203 -61q223 0 223 113q0 51 -44 76.5t-157 25.5h-74v41l207 260h-334z" />
    <glyph glyph-name="acute" unicode="&#xb4;" 
d="M330 1270l256 272h252l-273 -272h-235z" />
    <glyph glyph-name="paragraph" unicode="&#xb6;" horiz-adv-x="1153" 
d="M59 1140.5q0 116.5 83 198.5t216 82h625v-1421l-168 -70v1319h-217v-1409l-168 -69v1103q-25 -12 -72 -12q-133 0 -216 81t-83 197.5z" />
    <glyph glyph-name="periodcentered" unicode="&#xb7;" 
d="M467 713q0 135 143 135q150 0 150 -135q0 -131 -150 -131q-143 0 -143 131z" />
    <glyph glyph-name="cedilla" unicode="&#xb8;" 
d="M362 -326q72 -72 211 -71q123 0 123 88q0 76 -102 76t-176 -39l78 272h135l-41 -129q33 12 78 12q94 0 145 -47t51 -135q0 -115 -81 -176.5t-216 -61.5q-131 0 -205 50v161z" />
    <glyph glyph-name="uni00B9" unicode="&#xb9;" horiz-adv-x="712" 
d="M92 1196v174l326 172h100v-842h-201v617z" />
    <glyph glyph-name="ordmasculine" unicode="&#xba;" horiz-adv-x="1083" 
d="M96 1122q0 215 131 334t324 119q199 0 316.5 -117t117.5 -336q0 -215 -130 -332.5t-323 -117.5q-199 0 -317.5 115.5t-118.5 334.5zM193 367v182h710v-182h-710zM319 1122q1 -276 222 -276q225 0 225 276q0 279 -225 279q-221 0 -222 -279z" />
    <glyph glyph-name="guillemotright" unicode="&#xbb;" horiz-adv-x="1196" 
d="M86 0q162 305 338 514q-205 244 -338 494h244q115 -229 354 -494q-217 -240 -354 -514h-244zM539 0q162 305 338 514q-205 244 -338 494h243q115 -229 355 -494q-217 -240 -355 -514h-243z" />
    <glyph glyph-name="onequarter" unicode="&#xbc;" horiz-adv-x="1808" 
d="M111 1047v174l325 172h101v-842h-201v616zM403 0l842 1393h129l-842 -1393h-129zM985 162v43l262 637h195l-197 -506h217v289h193v-289h129l-51 -174h-78v-162h-195v162h-475z" />
    <glyph glyph-name="onehalf" unicode="&#xbd;" horiz-adv-x="1841" 
d="M111 1047v174l325 172h101v-842h-201v616zM403 0l842 1393h129l-842 -1393h-129zM1102 592v186q96 84 287 84q340 0 340 -268q0 -162 -195 -334l-90 -80h328v-180h-652v55l303 303q104 104 105 203q0 125 -172 125q-152 0 -254 -94z" />
    <glyph glyph-name="threequarters" unicode="&#xbe;" horiz-adv-x="1853" 
d="M74 1393h651v-43l-227 -289q115 -16 179 -70.5t64 -165.5q0 -125 -105 -210t-312 -85q-141 0 -224 43v191q78 -61 203 -62q223 0 223 113q0 51 -44 77t-156 26h-74v40l207 261h-334zM449 0l841 1393h129l-841 -1393h-129zM1030 162v43l262 637h195l-197 -506h217v289h193
v-289h129l-51 -174h-78v-162h-195v162h-475z" />
    <glyph glyph-name="questiondown" unicode="&#xbf;" horiz-adv-x="937" 
d="M63 55q0 82 35 157t71 116t112 114q94 94 94 248v21h266v-19q0 -139 -43 -227t-135 -176q-63 -59 -91 -102.5t-28 -100.5q0 -147 186 -147q98 0 196.5 51t141.5 125v-279q-55 -55 -158.5 -93t-228.5 -38q-201 0 -309.5 92t-108.5 258zM342 995.5q0 73.5 46 120.5t118 47
q74 0 119 -47t45 -120.5t-45 -122t-119 -48.5q-72 0 -118 48.5t-46 122z" />
    <glyph glyph-name="Agrave" unicode="&#xc0;" horiz-adv-x="1294" 
d="M-45 0l553 1393h178l547 -1393h-283l-110 289h-363l-78 198h367l-145 383l-39 121l-39 -121l-328 -870h-260zM276 1784h256l252 -273h-241z" />
    <glyph glyph-name="Aacute" unicode="&#xc1;" horiz-adv-x="1294" 
d="M-45 0l553 1393h178l547 -1393h-283l-110 289h-363l-78 198h367l-145 383l-39 121l-39 -121l-328 -870h-260zM487 1511l256 273h252l-272 -273h-236z" />
    <glyph glyph-name="Acircumflex" unicode="&#xc2;" horiz-adv-x="1294" 
d="M-45 0l553 1393h178l547 -1393h-283l-110 289h-363l-78 198h367l-145 383l-39 121l-39 -121l-328 -870h-260zM303 1511l252 273h166l252 -273h-211l-123 119l-125 -119h-211z" />
    <glyph glyph-name="Atilde" unicode="&#xc3;" horiz-adv-x="1294" 
d="M-45 0l553 1393h178l547 -1393h-283l-110 289h-363l-78 198h367l-145 383l-39 121l-39 -121l-328 -870h-260zM283 1542q0 119 61.5 180.5t163.5 61.5q78 0 178 -64q57 -37 88 -37q35 0 47.5 21.5t12.5 79.5h161q0 -119 -61.5 -180.5t-159.5 -61.5q-90 0 -178 60
q-59 41 -88 40q-33 0 -46 -21.5t-13 -78.5h-166z" />
    <glyph glyph-name="Adieresis" unicode="&#xc4;" horiz-adv-x="1294" 
d="M-45 0l553 1393h178l547 -1393h-283l-110 289h-363l-78 198h367l-145 383l-39 121l-39 -121l-328 -870h-260zM281 1638q0 123 137 123t137 -123q0 -118 -137 -118t-137 118zM721 1638q0 123 133 123q139 0 139 -123q0 -118 -139 -118q-133 0 -133 118z" />
    <glyph glyph-name="Aring" unicode="&#xc5;" horiz-adv-x="1294" 
d="M-45 0l553 1393h178l547 -1393h-283l-110 289h-363l-78 198h367l-145 383l-39 121l-39 -121l-328 -870h-260zM377 1726.5q0 100.5 69.5 161t190.5 60.5q123 0 192.5 -60.5t69.5 -161t-69.5 -162t-192.5 -61.5q-121 0 -190.5 61.5t-69.5 162zM528 1726.5
q0 -90.5 109 -90.5q111 0 111 90.5t-111 90.5q-109 0 -109 -90.5z" />
    <glyph glyph-name="AE" unicode="&#xc6;" horiz-adv-x="1708" 
d="M-2 0l682 1393h962l-71 -232h-658l101 -334h401v-213h-336l115 -383h377l71 -231h-649l-84 289h-344l-78 198h365l-109 381l-34 121l-43 -121l-408 -868h-260z" />
    <glyph glyph-name="Ccedilla" unicode="&#xc7;" horiz-adv-x="1216" 
d="M86 696q0 346 182.5 537.5t458.5 191.5q262 0 395 -102v-295q-133 166 -356 166q-195 0 -300.5 -125t-105.5 -360q0 -240 105.5 -375t300.5 -135q233 0 356 147v-256q-57 -55 -160.5 -89t-224.5 -34h-20l-31 -96q33 12 78 12q94 0 145.5 -47t51.5 -135q0 -115 -81 -176.5
t-216 -61.5q-131 0 -205 50v161q72 -72 211 -71q123 0 123 88q0 76 -102.5 76t-176.5 -39l72 254q-238 43 -369 224t-131 490z" />
    <glyph glyph-name="Egrave" unicode="&#xc8;" horiz-adv-x="1130" 
d="M154 0v1393h909l-72 -232h-567v-334h412v-213h-412v-383h567l72 -231h-909zM266 1784h256l252 -273h-242z" />
    <glyph glyph-name="Eacute" unicode="&#xc9;" horiz-adv-x="1130" 
d="M154 0v1393h909l-72 -232h-567v-334h412v-213h-412v-383h567l72 -231h-909zM477 1511l256 273h252l-272 -273h-236z" />
    <glyph glyph-name="Ecircumflex" unicode="&#xca;" horiz-adv-x="1130" 
d="M154 0v1393h909l-72 -232h-567v-334h412v-213h-412v-383h567l72 -231h-909zM293 1511l252 273h166l252 -273h-211l-123 119l-125 -119h-211z" />
    <glyph glyph-name="Edieresis" unicode="&#xcb;" horiz-adv-x="1130" 
d="M154 0v1393h909l-72 -232h-567v-334h412v-213h-412v-383h567l72 -231h-909zM270 1638q0 123 137.5 123t137.5 -123q0 -118 -137.5 -118t-137.5 118zM711 1638q0 123 133 123q139 0 139 -123q0 -118 -139 -118q-133 0 -133 118z" />
    <glyph glyph-name="Igrave" unicode="&#xcc;" horiz-adv-x="577" 
d="M-76 1784h256l252 -273h-242zM154 0v1393h270v-1393h-270z" />
    <glyph glyph-name="Iacute" unicode="&#xcd;" horiz-adv-x="577" 
d="M135 1511l256 273h252l-272 -273h-236zM154 0v1393h270v-1393h-270z" />
    <glyph glyph-name="Icircumflex" unicode="&#xce;" horiz-adv-x="577" 
d="M-49 1511l252 273h166l252 -273h-211l-123 119l-125 -119h-211zM154 0v1393h270v-1393h-270z" />
    <glyph glyph-name="Idieresis" unicode="&#xcf;" horiz-adv-x="577" 
d="M-72 1638q0 123 137.5 123t137.5 -123q0 -118 -137.5 -118t-137.5 118zM154 0v1393h270v-1393h-270zM369 1638q0 123 133 123q139 0 139 -123q0 -118 -139 -118q-133 0 -133 118z" />
    <glyph glyph-name="Eth" unicode="&#xd0;" horiz-adv-x="1380" 
d="M20 627v137h140v629h395q362 -2 550.5 -165t188.5 -532q0 -184 -57 -322t-160.5 -218t-233.5 -118t-288 -38h-395v627h-140zM430 231h125q262 0 363.5 105.5t101.5 349.5q0 246 -103.5 360.5t-361.5 114.5h-125v-397h285v-137h-285v-396z" />
    <glyph glyph-name="Ntilde" unicode="&#xd1;" horiz-adv-x="1419" 
d="M154 0v1393h227l639 -906h4v906h242v-1393h-197l-670 944h-4v-944h-241zM352 1563q0 119 61.5 180t164.5 61q78 0 178 -63q57 -37 88 -37q35 0 47 21.5t12 78.5h162q0 -119 -61.5 -180t-159.5 -61q-90 0 -178 59q-59 41 -88 41q-33 0 -46.5 -21.5t-13.5 -78.5h-166z" />
    <glyph glyph-name="Ograve" unicode="&#xd2;" horiz-adv-x="1527" 
d="M80 696q0 174 58.5 315.5t155.5 230.5t218 136t252 47q313 0 498.5 -189t185.5 -540q0 -174 -58.5 -315t-155.5 -230.5t-218 -136.5t-252 -47q-313 0 -498.5 189.5t-185.5 539.5zM354 709q0 -244 110 -378t300 -134q188 0 299 130t111 359q0 244 -110 377t-300 133
q-188 0 -299 -129t-111 -358zM403 1784h256l252 -273h-241z" />
    <glyph glyph-name="Oacute" unicode="&#xd3;" horiz-adv-x="1527" 
d="M80 696q0 174 58.5 315.5t155.5 230.5t218 136t252 47q313 0 498.5 -189t185.5 -540q0 -174 -58.5 -315t-155.5 -230.5t-218 -136.5t-252 -47q-313 0 -498.5 189.5t-185.5 539.5zM354 709q0 -244 110 -378t300 -134q188 0 299 130t111 359q0 244 -110 377t-300 133
q-188 0 -299 -129t-111 -358zM614 1511l256 273h252l-272 -273h-236z" />
    <glyph glyph-name="Ocircumflex" unicode="&#xd4;" horiz-adv-x="1527" 
d="M80 696q0 174 58.5 315.5t155.5 230.5t218 136t252 47q313 0 498.5 -189t185.5 -540q0 -174 -58.5 -315t-155.5 -230.5t-218 -136.5t-252 -47q-313 0 -498.5 189.5t-185.5 539.5zM354 709q0 -244 110 -378t300 -134q188 0 299 130t111 359q0 244 -110 377t-300 133
q-188 0 -299 -129t-111 -358zM430 1511l252 273h166l252 -273h-211l-123 119l-125 -119h-211z" />
    <glyph glyph-name="Otilde" unicode="&#xd5;" horiz-adv-x="1527" 
d="M80 696q0 174 58.5 315.5t155.5 230.5t218 136t252 47q313 0 498.5 -189t185.5 -540q0 -174 -58.5 -315t-155.5 -230.5t-218 -136.5t-252 -47q-313 0 -498.5 189.5t-185.5 539.5zM354 709q0 -244 110 -378t300 -134q188 0 299 130t111 359q0 244 -110 377t-300 133
q-188 0 -299 -129t-111 -358zM410 1542q0 119 61 180.5t164 61.5q78 0 178 -64q57 -37 88 -37q35 0 47.5 21.5t12.5 79.5h161q0 -119 -61.5 -180.5t-159.5 -61.5q-90 0 -178 60q-59 41 -88 40q-33 0 -46.5 -21.5t-13.5 -78.5h-165z" />
    <glyph glyph-name="Odieresis" unicode="&#xd6;" horiz-adv-x="1527" 
d="M80 696q0 174 58.5 315.5t155.5 230.5t218 136t252 47q313 0 498.5 -189t185.5 -540q0 -174 -58.5 -315t-155.5 -230.5t-218 -136.5t-252 -47q-313 0 -498.5 189.5t-185.5 539.5zM354 709q0 -244 110 -378t300 -134q188 0 299 130t111 359q0 244 -110 377t-300 133
q-188 0 -299 -129t-111 -358zM408 1638q0 123 137 123t137 -123q0 -118 -137 -118t-137 118zM848 1638q0 123 133 123q139 0 139 -123q0 -118 -139 -118q-133 0 -133 118z" />
    <glyph glyph-name="multiply" unicode="&#xd7;" horiz-adv-x="1044" 
d="M100 993l166 164l256 -258l256 256l164 -164l-256 -256l258 -256l-164 -166l-258 258l-254 -254l-164 164l254 254z" />
    <glyph glyph-name="Oslash" unicode="&#xd8;" horiz-adv-x="1531" 
d="M23 0l198 213q-137 184 -137 483q0 174 58.5 315.5t155.5 230.5t218 136t252 47q274 0 451 -145l108 115h176l-194 -209q143 -188 143 -490q0 -174 -58.5 -315t-155.5 -230.5t-218 -136.5t-252 -47q-281 0 -457 148l-106 -115h-182zM358 709q0 -174 56 -291l628 674
q-109 104 -274 104q-188 0 -299 -129t-111 -358zM489 305q105 -108 279 -108q188 0 299 130t111 359q0 176 -60 295z" />
    <glyph glyph-name="Ugrave" unicode="&#xd9;" horiz-adv-x="1456" 
d="M141 612v781h271v-785q0 -213 77.5 -312t241.5 -99t242 99t78 312v785h264v-781q0 -324 -164 -484.5t-436 -160.5q-281 0 -427.5 153.5t-146.5 491.5zM371 1784h256l252 -273h-242z" />
    <glyph glyph-name="Uacute" unicode="&#xda;" horiz-adv-x="1456" 
d="M141 612v781h271v-785q0 -213 77.5 -312t241.5 -99t242 99t78 312v785h264v-781q0 -324 -164 -484.5t-436 -160.5q-281 0 -427.5 153.5t-146.5 491.5zM582 1511l256 273h252l-273 -273h-235z" />
    <glyph glyph-name="Ucircumflex" unicode="&#xdb;" horiz-adv-x="1456" 
d="M141 612v781h271v-785q0 -213 77.5 -312t241.5 -99t242 99t78 312v785h264v-781q0 -324 -164 -484.5t-436 -160.5q-281 0 -427.5 153.5t-146.5 491.5zM397 1511l252 273h166l252 -273h-211l-123 119l-125 -119h-211z" />
    <glyph glyph-name="Udieresis" unicode="&#xdc;" horiz-adv-x="1456" 
d="M141 612v781h271v-785q0 -213 77.5 -312t241.5 -99t242 99t78 312v785h264v-781q0 -324 -164 -484.5t-436 -160.5q-281 0 -427.5 153.5t-146.5 491.5zM375 1638q0 123 137 123t137 -123q0 -118 -137 -118t-137 118zM815 1638q0 123 133 123q139 0 139 -123
q0 -118 -139 -118q-133 0 -133 118z" />
    <glyph glyph-name="Yacute" unicode="&#xdd;" horiz-adv-x="1185" 
d="M2 1393h299l303 -586l311 586h269l-457 -822v-571h-270v571zM449 1511l256 273h251l-272 -273h-235z" />
    <glyph glyph-name="Thorn" unicode="&#xde;" horiz-adv-x="1177" 
d="M154 0v1393h270v-195h164q293 0 420 -118.5t127 -342.5q0 -233 -127 -377.5t-400 -144.5h-184v-215h-270zM424 422h164q272 0 272 285q0 137 -61.5 206.5t-212.5 69.5h-162v-561z" />
    <glyph glyph-name="germandbls" unicode="&#xdf;" horiz-adv-x="1245" 
d="M139 0v1141q0 205 136.5 319.5t349.5 114.5q231 0 356 -102.5t125 -280.5q0 -154 -83 -251t-216 -130v-4q156 -20 259 -120.5t103 -264.5q0 -209 -123.5 -332t-334.5 -123q-63 0 -123 17.5t-82 38.5v231q72 -72 172 -72q98 0 159.5 62.5t61.5 173.5q0 123 -92 187.5
t-268 64.5v221q135 0 215 68.5t80 187.5q0 106 -58.5 162.5t-152.5 56.5q-102 0 -161 -56.5t-59 -168.5v-1141h-264z" />
    <glyph glyph-name="agrave" unicode="&#xe0;" horiz-adv-x="1273" 
d="M80 549q0 297 139 455.5t359 158.5q170 0 258 -108l41 75h198v-862q0 -74 55 -73q51 0 89 30v-192q-43 -53 -162 -53q-164 0 -217 133q-31 -61 -106.5 -103.5t-196.5 -42.5q-199 0 -328 146.5t-129 435.5zM276 1542h256l252 -272h-241zM350 549q0 -367 250 -367
q154 0 213 109v577q-63 86 -203 86q-125 0 -192.5 -113.5t-67.5 -291.5z" />
    <glyph glyph-name="aacute" unicode="&#xe1;" horiz-adv-x="1273" 
d="M80 549q0 297 139 455.5t359 158.5q170 0 258 -108l41 75h198v-862q0 -74 55 -73q51 0 89 30v-192q-43 -53 -162 -53q-164 0 -217 133q-31 -61 -106.5 -103.5t-196.5 -42.5q-199 0 -328 146.5t-129 435.5zM350 549q0 -367 250 -367q154 0 213 109v577q-63 86 -203 86
q-125 0 -192.5 -113.5t-67.5 -291.5zM487 1270l256 272h252l-272 -272h-236z" />
    <glyph glyph-name="acircumflex" unicode="&#xe2;" horiz-adv-x="1273" 
d="M80 549q0 297 139 455.5t359 158.5q170 0 258 -108l41 75h198v-862q0 -74 55 -73q51 0 89 30v-192q-43 -53 -162 -53q-164 0 -217 133q-31 -61 -106.5 -103.5t-196.5 -42.5q-199 0 -328 146.5t-129 435.5zM303 1270l252 272h166l252 -272h-211l-123 119l-125 -119h-211z
M350 549q0 -367 250 -367q154 0 213 109v577q-63 86 -203 86q-125 0 -192.5 -113.5t-67.5 -291.5z" />
    <glyph glyph-name="atilde" unicode="&#xe3;" horiz-adv-x="1273" 
d="M80 549q0 297 139 455.5t359 158.5q170 0 258 -108l41 75h198v-862q0 -74 55 -73q51 0 89 30v-192q-43 -53 -162 -53q-164 0 -217 133q-31 -61 -106.5 -103.5t-196.5 -42.5q-199 0 -328 146.5t-129 435.5zM283 1300q0 119 61.5 180.5t163.5 61.5q78 0 178 -63
q57 -37 88 -37q35 0 47.5 21.5t12.5 78.5h161q0 -119 -61.5 -180.5t-159.5 -61.5q-90 0 -178 60q-59 41 -88 41q-33 0 -46 -21.5t-13 -79.5h-166zM350 549q0 -367 250 -367q154 0 213 109v577q-63 86 -203 86q-125 0 -192.5 -113.5t-67.5 -291.5z" />
    <glyph glyph-name="adieresis" unicode="&#xe4;" horiz-adv-x="1273" 
d="M80 549q0 297 139 455.5t359 158.5q170 0 258 -108l41 75h198v-862q0 -74 55 -73q51 0 89 30v-192q-43 -53 -162 -53q-164 0 -217 133q-31 -61 -106.5 -103.5t-196.5 -42.5q-199 0 -328 146.5t-129 435.5zM281 1397q0 123 137 123t137 -123q0 -119 -137 -119t-137 119z
M350 549q0 -367 250 -367q154 0 213 109v577q-63 86 -203 86q-125 0 -192.5 -113.5t-67.5 -291.5zM721 1397q0 123 133 123q139 0 139 -123q0 -119 -139 -119q-133 0 -133 119z" />
    <glyph glyph-name="aring" unicode="&#xe5;" horiz-adv-x="1273" 
d="M80 549q0 297 139 455.5t359 158.5q170 0 258 -108l41 75h198v-862q0 -74 55 -73q51 0 89 30v-192q-43 -53 -162 -53q-164 0 -217 133q-31 -61 -106.5 -103.5t-196.5 -42.5q-199 0 -328 146.5t-129 435.5zM350 549q0 -367 250 -367q154 0 213 109v577q-63 86 -203 86
q-125 0 -192.5 -113.5t-67.5 -291.5zM377 1484.5q0 100.5 69.5 161t190.5 60.5q123 0 192.5 -60.5t69.5 -161t-69.5 -161.5t-192.5 -61q-121 0 -190.5 61t-69.5 161.5zM528 1485q0 -90 109 -90q111 0 111 90t-111 90q-109 0 -109 -90z" />
    <glyph glyph-name="ae" unicode="&#xe6;" horiz-adv-x="1816" 
d="M78 291q0 168 119.5 251t367.5 122l168 26q0 141 -63.5 198.5t-192.5 57.5q-121 0 -217 -54t-139 -138v278q143 131 401 131t377 -143q137 143 365 143q94 0 174 -25.5t150.5 -83t110.5 -166t40 -259.5v-150h-733q10 -131 85.5 -211t227.5 -80q254 0 377 136v-244
q-131 -113 -402 -113q-297 0 -442 183q-114 -183 -395 -183q-166 0 -272.5 81t-106.5 243zM338 297q0 -133 182 -133q82 0 155 38t97 99q-27 80 -39 213l-149 -33q-137 -31 -191.5 -71.5t-54.5 -112.5zM1008 664h471v10q0 272 -228 272q-111 0 -173 -81.5t-70 -200.5z" />
    <glyph glyph-name="ccedilla" unicode="&#xe7;" horiz-adv-x="1042" 
d="M80 565q0 291 157.5 444.5t391.5 153.5q109 0 194.5 -24.5t126.5 -59.5v-260q-106 117 -301 117q-139 0 -218 -98.5t-79 -272.5t79 -272t218 -98q182 0 309 127v-242q-43 -41 -134 -76t-199 -37l-31 -96q33 12 78 12q94 0 145 -47t51 -135q0 -115 -81 -176.5t-216 -61.5
q-131 0 -204 50v161q72 -72 211 -71q123 0 122 88q0 76 -102 76t-176 -39l72 252q-195 35 -304.5 182t-109.5 403z" />
    <glyph glyph-name="egrave" unicode="&#xe8;" horiz-adv-x="1175" 
d="M76 565q0 287 156.5 442.5t369.5 155.5q217 0 358.5 -122.5t141.5 -411.5v-150h-754q10 -129 91 -210t233 -81q254 0 377 136v-242q-128 -115 -402 -115q-266 0 -418.5 149.5t-152.5 448.5zM244 1542h256l252 -272h-242zM350 664h492v10q0 131 -61.5 201.5t-180.5 70.5
q-109 0 -175.5 -83.5t-74.5 -198.5z" />
    <glyph glyph-name="eacute" unicode="&#xe9;" horiz-adv-x="1175" 
d="M76 565q0 287 156.5 442.5t369.5 155.5q217 0 358.5 -122.5t141.5 -411.5v-150h-754q10 -129 91 -210t233 -81q254 0 377 136v-242q-128 -115 -402 -115q-266 0 -418.5 149.5t-152.5 448.5zM350 664h492v10q0 131 -61.5 201.5t-180.5 70.5q-109 0 -175.5 -83.5
t-74.5 -198.5zM455 1270l256 272h252l-273 -272h-235z" />
    <glyph glyph-name="ecircumflex" unicode="&#xea;" horiz-adv-x="1175" 
d="M76 565q0 287 156.5 442.5t369.5 155.5q217 0 358.5 -122.5t141.5 -411.5v-150h-754q10 -129 91 -210t233 -81q254 0 377 136v-242q-128 -115 -402 -115q-266 0 -418.5 149.5t-152.5 448.5zM270 1270l252 272h166l252 -272h-211l-123 119l-125 -119h-211zM350 664h492v10
q0 131 -61.5 201.5t-180.5 70.5q-109 0 -175.5 -83.5t-74.5 -198.5z" />
    <glyph glyph-name="edieresis" unicode="&#xeb;" horiz-adv-x="1175" 
d="M76 565q0 287 156.5 442.5t369.5 155.5q217 0 358.5 -122.5t141.5 -411.5v-150h-754q10 -129 91 -210t233 -81q254 0 377 136v-242q-128 -115 -402 -115q-266 0 -418.5 149.5t-152.5 448.5zM248 1397q0 123 137 123t137 -123q0 -119 -137 -119t-137 119zM350 664h492v10
q0 131 -61.5 201.5t-180.5 70.5q-109 0 -175.5 -83.5t-74.5 -198.5zM688 1397q0 123 133 123q139 0 140 -123q-1 -119 -140 -119q-133 0 -133 119z" />
    <glyph glyph-name="igrave" unicode="&#xec;" horiz-adv-x="542" 
d="M-90 1542h256l252 -272h-242zM139 0v1130h264v-1130h-264z" />
    <glyph glyph-name="iacute" unicode="&#xed;" horiz-adv-x="542" 
d="M121 1270l256 272h252l-273 -272h-235zM139 0v1130h264v-1130h-264z" />
    <glyph glyph-name="icircumflex" unicode="&#xee;" horiz-adv-x="542" 
d="M-63 1270l251 272h166l252 -272h-211l-123 119l-125 -119h-210zM139 0v1130h264v-1130h-264z" />
    <glyph glyph-name="idieresis" unicode="&#xef;" horiz-adv-x="542" 
d="M-86 1397q0 123 137 123t137 -123q0 -119 -137 -119t-137 119zM139 0v1130h264v-1130h-264zM354 1397q0 123 133 123q139 0 140 -123q-1 -119 -140 -119q-133 0 -133 119z" />
    <glyph glyph-name="eth" unicode="&#xf0;" horiz-adv-x="1243" 
d="M80 524q0 129 44 233.5t115.5 169t155.5 99.5t170 35q174 0 246 -96l4 2q-72 160 -246 309l-135 -107h-166l217 172q-147 106 -342 191v10h322q84 -35 166 -86l108 86h166l-186 -147q195 -147 319.5 -363.5t124.5 -456.5q0 -293 -158.5 -450.5t-394.5 -157.5
q-240 0 -385 146.5t-145 410.5zM352 524q0 -147 70 -243.5t201 -96.5q133 0 202.5 96.5t69.5 243.5q0 145 -69.5 242.5t-202.5 97.5q-131 0 -201 -97t-70 -243z" />
    <glyph glyph-name="ntilde" unicode="&#xf1;" horiz-adv-x="1230" 
d="M139 0v1130h246l18 -100q35 57 111 95t180 38q217 0 312.5 -112.5t95.5 -345.5v-705h-264v653q0 166 -46.5 235.5t-160.5 69.5q-158 0 -228 -114v-844h-264zM266 1300q0 119 61.5 180.5t164.5 61.5q78 0 178 -63q57 -37 88 -37q35 0 47 21.5t12 78.5h162
q0 -119 -61.5 -180.5t-159.5 -61.5q-90 0 -178 60q-59 41 -88 41q-33 0 -46.5 -21.5t-13.5 -79.5h-166z" />
    <glyph glyph-name="ograve" unicode="&#xf2;" horiz-adv-x="1239" 
d="M78 565q0 291 158.5 444.5t396.5 153.5q244 0 386 -151.5t142 -446.5q0 -291 -158.5 -444.5t-394.5 -153.5q-244 0 -387 150.5t-143 447.5zM260 1542h256l252 -272h-242zM350 565q0 -176 69 -278.5t202 -102.5q135 0 203.5 102.5t68.5 278.5q0 174 -68.5 277.5
t-203.5 103.5q-133 0 -202 -103.5t-69 -277.5z" />
    <glyph glyph-name="oacute" unicode="&#xf3;" horiz-adv-x="1239" 
d="M78 565q0 291 158.5 444.5t396.5 153.5q244 0 386 -151.5t142 -446.5q0 -291 -158.5 -444.5t-394.5 -153.5q-244 0 -387 150.5t-143 447.5zM350 565q0 -176 69 -278.5t202 -102.5q135 0 203.5 102.5t68.5 278.5q0 174 -68.5 277.5t-203.5 103.5q-133 0 -202 -103.5
t-69 -277.5zM471 1270l256 272h252l-272 -272h-236z" />
    <glyph glyph-name="ocircumflex" unicode="&#xf4;" horiz-adv-x="1239" 
d="M78 565q0 291 158.5 444.5t396.5 153.5q244 0 386 -151.5t142 -446.5q0 -291 -158.5 -444.5t-394.5 -153.5q-244 0 -387 150.5t-143 447.5zM287 1270l252 272h166l251 -272h-211l-122 119l-125 -119h-211zM350 565q0 -176 69 -278.5t202 -102.5q135 0 203.5 102.5
t68.5 278.5q0 174 -68.5 277.5t-203.5 103.5q-133 0 -202 -103.5t-69 -277.5z" />
    <glyph glyph-name="otilde" unicode="&#xf5;" horiz-adv-x="1239" 
d="M78 565q0 291 158.5 444.5t396.5 153.5q244 0 386 -151.5t142 -446.5q0 -291 -158.5 -444.5t-394.5 -153.5q-244 0 -387 150.5t-143 447.5zM266 1300q0 119 61.5 180.5t164.5 61.5q78 0 178 -63q57 -37 88 -37q35 0 47 21.5t12 78.5h162q0 -119 -61.5 -180.5
t-159.5 -61.5q-90 0 -178 60q-59 41 -88 41q-33 0 -46.5 -21.5t-13.5 -79.5h-166zM350 565q0 -176 69 -278.5t202 -102.5q135 0 203.5 102.5t68.5 278.5q0 174 -68.5 277.5t-203.5 103.5q-133 0 -202 -103.5t-69 -277.5z" />
    <glyph glyph-name="odieresis" unicode="&#xf6;" horiz-adv-x="1239" 
d="M78 565q0 291 158.5 444.5t396.5 153.5q244 0 386 -151.5t142 -446.5q0 -291 -158.5 -444.5t-394.5 -153.5q-244 0 -387 150.5t-143 447.5zM264 1397q0 123 137.5 123t137.5 -123q0 -119 -137.5 -119t-137.5 119zM350 565q0 -176 69 -278.5t202 -102.5q135 0 203.5 102.5
t68.5 278.5q0 174 -68.5 277.5t-203.5 103.5q-133 0 -202 -103.5t-69 -277.5zM705 1397q0 123 133 123q139 0 139 -123q0 -119 -139 -119q-133 0 -133 119z" />
    <glyph glyph-name="divide" unicode="&#xf7;" horiz-adv-x="1107" 
d="M78 621v231h952v-231h-952zM399 348q0 74 45 122t119 48q72 0 118 -48t46 -122t-46 -121t-118 -47q-74 0 -119 47t-45 121zM399 1122.5q0 73.5 45 121.5t119 48q72 0 118 -48t46 -121.5t-46 -121t-118 -47.5q-74 0 -119 47.5t-45 121z" />
    <glyph glyph-name="oslash" unicode="&#xf8;" horiz-adv-x="1247" 
d="M25 0l157 174q-100 150 -100 391q0 291 158.5 444.5t396.5 153.5q207 0 342 -110l70 77h176l-158 -176q98 -152 98 -389q0 -291 -158.5 -444.5t-394.5 -153.5q-207 0 -340 107l-65 -74h-182zM354 565q0 -104 23 -178l432 479q-70 80 -184 80q-133 0 -202 -103.5
t-69 -277.5zM442 262q68 -78 183 -78q135 0 203.5 102.5t68.5 278.5q0 92 -23 176z" />
    <glyph glyph-name="ugrave" unicode="&#xf9;" horiz-adv-x="1212" 
d="M129 426v704h264v-653q0 -168 42 -236.5t157 -68.5q147 0 217 115v843h264v-1130h-248l-16 100q-33 -55 -109 -94t-176 -39q-213 0 -304 111.5t-91 347.5zM244 1542h256l252 -272h-242z" />
    <glyph glyph-name="uacute" unicode="&#xfa;" horiz-adv-x="1212" 
d="M129 426v704h264v-653q0 -168 42 -236.5t157 -68.5q147 0 217 115v843h264v-1130h-248l-16 100q-33 -55 -109 -94t-176 -39q-213 0 -304 111.5t-91 347.5zM455 1270l256 272h252l-273 -272h-235z" />
    <glyph glyph-name="ucircumflex" unicode="&#xfb;" horiz-adv-x="1212" 
d="M129 426v704h264v-653q0 -168 42 -236.5t157 -68.5q147 0 217 115v843h264v-1130h-248l-16 100q-33 -55 -109 -94t-176 -39q-213 0 -304 111.5t-91 347.5zM270 1270l252 272h166l252 -272h-211l-123 119l-125 -119h-211z" />
    <glyph glyph-name="udieresis" unicode="&#xfc;" horiz-adv-x="1212" 
d="M129 426v704h264v-653q0 -168 42 -236.5t157 -68.5q147 0 217 115v843h264v-1130h-248l-16 100q-33 -55 -109 -94t-176 -39q-213 0 -304 111.5t-91 347.5zM248 1397q0 123 137 123t137 -123q0 -119 -137 -119t-137 119zM688 1397q0 123 133 123q139 0 140 -123
q-1 -119 -140 -119q-133 0 -133 119z" />
    <glyph glyph-name="yacute" unicode="&#xfd;" horiz-adv-x="1081" 
d="M8 1130h287l283 -815l221 815h262l-322 -1060q-35 -113 -72.5 -196t-95 -155.5t-139.5 -110.5t-186 -38q-131 0 -197 61v228q76 -80 187 -80q70 0 124 40t97 152zM410 1270l256 272h252l-273 -272h-235z" />
    <glyph glyph-name="thorn" unicode="&#xfe;" horiz-adv-x="1230" 
d="M139 -397v1939h264v-512q74 133 289 133q459 0 459 -567q0 -295 -144.5 -462t-359.5 -167q-176 0 -244 74v-438h-264zM403 260q68 -84 215 -84q131 0 197 112.5t66 293.5q0 367 -252 366q-162 0 -226 -104v-584z" />
    <glyph glyph-name="ydieresis" unicode="&#xff;" horiz-adv-x="1081" 
d="M8 1130h287l283 -815l221 815h262l-322 -1060q-35 -113 -72.5 -196t-95 -155.5t-139.5 -110.5t-186 -38q-131 0 -197 61v228q76 -80 187 -80q70 0 124 40t97 152zM203 1397q0 123 137 123t137 -123q0 -119 -137 -119t-137 119zM643 1397q0 123 133 123q139 0 139 -123
q0 -119 -139 -119q-133 0 -133 119z" />
    <glyph glyph-name="OE" unicode="&#x152;" horiz-adv-x="2166" 
d="M80 696q0 172 57.5 314.5t152.5 230.5t213 136t240 48q289 0 431 -165v133h909l-72 -232h-567v-334h411v-213h-411v-383h567l72 -231h-909v160q-157 -193 -431 -193q-299 0 -481 189.5t-182 539.5zM354 709q0 -244 110 -378t300 -134q188 0 299 130t111 359
q0 244 -110 377t-300 133q-188 0 -299 -129t-111 -358z" />
    <glyph glyph-name="oe" unicode="&#x153;" horiz-adv-x="1998" 
d="M78 565q0 289 157.5 443.5t387.5 154.5q283 0 409 -188q133 188 402 188q98 0 179 -25.5t153.5 -83t113.5 -166t41 -259.5v-150h-754q10 -129 91 -210t233 -81q254 0 377 136v-242q-127 -115 -402 -115q-162 0 -271.5 43t-178.5 146q-133 -189 -418 -189
q-236 0 -378 150.5t-142 447.5zM350 565q0 -176 69 -278.5t202 -102.5q135 0 203.5 102.5t68.5 278.5q0 174 -68.5 277.5t-203.5 103.5q-133 0 -202 -103.5t-69 -277.5zM1169 664h492v10q0 131 -61.5 201.5t-180.5 70.5q-109 0 -175.5 -83.5t-74.5 -198.5z" />
    <glyph glyph-name="Ydieresis" unicode="&#x178;" horiz-adv-x="1185" 
d="M2 1393h299l303 -586l311 586h269l-457 -822v-571h-270v571zM242 1638q0 123 137 123t137 -123q0 -118 -137 -118t-137 118zM682 1638q0 123 133 123q139 0 139 -123q0 -118 -139 -118q-133 0 -133 118z" />
    <glyph glyph-name="circumflex" unicode="&#x2c6;" 
d="M279 1270l251 272h166l252 -272h-211l-123 119l-125 -119h-210z" />
    <glyph glyph-name="tilde" unicode="&#x2dc;" 
d="M258 1300q0 119 61.5 180.5t163.5 61.5q78 0 179 -63q57 -37 88 -37q35 0 47 21.5t12 78.5h162q0 -119 -61.5 -180.5t-159.5 -61.5q-90 0 -179 60q-59 41 -88 41q-33 0 -46 -21.5t-13 -79.5h-166z" />
    <glyph glyph-name="uni2000" unicode="&#x2000;" horiz-adv-x="974" 
 />
    <glyph glyph-name="uni2001" unicode="&#x2001;" horiz-adv-x="1948" 
 />
    <glyph glyph-name="uni2002" unicode="&#x2002;" horiz-adv-x="974" 
 />
    <glyph glyph-name="uni2003" unicode="&#x2003;" horiz-adv-x="1948" 
 />
    <glyph glyph-name="uni2004" unicode="&#x2004;" horiz-adv-x="649" 
 />
    <glyph glyph-name="uni2005" unicode="&#x2005;" horiz-adv-x="487" 
 />
    <glyph glyph-name="uni2006" unicode="&#x2006;" horiz-adv-x="324" 
 />
    <glyph glyph-name="uni2007" unicode="&#x2007;" horiz-adv-x="324" 
 />
    <glyph glyph-name="uni2008" unicode="&#x2008;" horiz-adv-x="243" 
 />
    <glyph glyph-name="uni2009" unicode="&#x2009;" horiz-adv-x="389" 
 />
    <glyph glyph-name="uni200A" unicode="&#x200a;" horiz-adv-x="108" 
 />
    <glyph glyph-name="uni2010" unicode="&#x2010;" horiz-adv-x="780" 
d="M123 518v223h534v-223h-534z" />
    <glyph glyph-name="uni2011" unicode="&#x2011;" horiz-adv-x="780" 
d="M123 518v223h534v-223h-534z" />
    <glyph glyph-name="figuredash" unicode="&#x2012;" horiz-adv-x="780" 
d="M123 518v223h534v-223h-534z" />
    <glyph glyph-name="endash" unicode="&#x2013;" horiz-adv-x="1427" 
d="M121 526v209h1186v-209h-1186z" />
    <glyph glyph-name="emdash" unicode="&#x2014;" horiz-adv-x="1884" 
d="M121 526v209h1642v-209h-1642z" />
    <glyph glyph-name="quoteleft" unicode="&#x2018;" horiz-adv-x="497" 
d="M100 1171q0 111 64.5 226t134.5 178l115 -21q-76 -143 -90 -260q80 -39 79 -133q0 -70 -43 -111.5t-112 -41.5q-68 0 -108 44t-40 119z" />
    <glyph glyph-name="quoteright" unicode="&#x2019;" horiz-adv-x="485" 
d="M102 1028q76 143 91 260q-80 39 -80 133q0 70 43 112t112 42q68 0 108 -44t40 -120q0 -111 -64.5 -225.5t-134.5 -177.5z" />
    <glyph glyph-name="quotesinglbase" unicode="&#x201a;" horiz-adv-x="497" 
d="M86 -289q76 143 90 260q-80 39 -80 133q0 70 43 112t113 42q68 0 107.5 -44t39.5 -120q0 -111 -64 -225.5t-134 -177.5z" />
    <glyph glyph-name="quotedblleft" unicode="&#x201c;" horiz-adv-x="866" 
d="M100 1171q0 111 64.5 226t134.5 178l115 -21q-76 -143 -90 -260q80 -39 79 -133q0 -70 -43 -111.5t-112 -41.5q-68 0 -108 44t-40 119zM469 1171q0 111 64.5 226t134.5 178l114 -21q-76 -143 -90 -260q80 -39 80 -133q0 -70 -43 -111.5t-113 -41.5q-68 0 -107.5 44
t-39.5 119z" />
    <glyph glyph-name="quotedblright" unicode="&#x201d;" horiz-adv-x="854" 
d="M102 1028q76 143 91 260q-80 39 -80 133q0 70 43 112t112 42q68 0 108 -44t40 -120q0 -111 -64.5 -225.5t-134.5 -177.5zM471 1028q76 143 90 260q-80 39 -80 133q0 70 43 112t113 42q68 0 107.5 -44t39.5 -120q0 -111 -64 -225.5t-134 -177.5z" />
    <glyph glyph-name="quotedblbase" unicode="&#x201e;" horiz-adv-x="866" 
d="M86 -289q76 143 90 260q-80 39 -80 133q0 70 43 112t113 42q68 0 107.5 -44t39.5 -120q0 -111 -64 -225.5t-134 -177.5zM455 -289q76 143 90 260q-80 39 -80 133q0 70 43 112t113 42q68 0 107.5 -44t39.5 -120q0 -111 -64.5 -225.5t-134.5 -177.5z" />
    <glyph glyph-name="bullet" unicode="&#x2022;" horiz-adv-x="684" 
d="M90 729q0 113 69.5 186.5t182.5 73.5q111 0 181.5 -73.5t70.5 -186.5q0 -115 -70.5 -187.5t-181.5 -72.5q-113 0 -182.5 72.5t-69.5 187.5z" />
    <glyph glyph-name="ellipsis" unicode="&#x2026;" horiz-adv-x="1402" 
d="M96 131q0 72 43 119t115 47q70 0 115 -47t45 -119t-45 -118t-115 -46q-72 0 -115 46t-43 118zM543 131q0 72 45 119t114.5 47t114.5 -47t45 -119t-45 -118t-114.5 -46t-114.5 46t-45 118zM989 131q0 72 44 119t116 47q70 0 114 -47t44 -119t-44 -118t-114 -46
q-72 0 -116 46t-44 118z" />
    <glyph glyph-name="uni202F" unicode="&#x202f;" horiz-adv-x="389" 
 />
    <glyph glyph-name="guilsinglleft" unicode="&#x2039;" horiz-adv-x="743" 
d="M59 514q240 264 355 494h243q-133 -250 -338 -494q176 -209 338 -514h-243q-137 274 -355 514z" />
    <glyph glyph-name="guilsinglright" unicode="&#x203a;" horiz-adv-x="743" 
d="M86 0q162 305 338 514q-205 244 -338 494h244q115 -229 354 -494q-217 -240 -354 -514h-244z" />
    <glyph glyph-name="uni205F" unicode="&#x205f;" horiz-adv-x="487" 
 />
    <glyph glyph-name="Euro" unicode="&#x20ac;" horiz-adv-x="1265" 
d="M72 492v135h123v41q0 41 2 61h-125v133h141q51 248 221 378t369 130q225 0 344 -110v-312q-96 178 -344 178q-260 0 -316 -264h412v-133h-428v-102h428v-135h-412q57 -285 316 -285q248 0 344 164v-287q-119 -119 -344 -119q-238 0 -397.5 128t-198.5 399h-135z" />
    <glyph glyph-name="trademark" unicode="&#x2122;" horiz-adv-x="1955" 
d="M111 1225v168h720v-168h-251v-615h-215v615h-254zM930 610v783h180l264 -340l250 340h182v-783h-207v471l-202 -270h-60l-202 270v-471h-205z" />
    <glyph glyph-name="uni25FC" unicode="&#x25fc;" horiz-adv-x="1126" 
d="M0 0v1126h1126v-1126h-1126z" />
    </font>
</defs>
</svg>
