<svg width="193" height="82" viewBox="0 0 193 82" fill="none" xmlns="http://www.w3.org/2000/svg">
<g filter="url(#filter0_dd_1_5)">
<path d="M26.6943 24.8031L31.5687 20.6786H172.121V53.386L167.444 57.6377L163.235 61.4643H21.0213V29.6033L26.6943 24.8031Z" stroke="#E2E2E2"/>
</g>
<path d="M26.3713 24.4214L31.3856 20.1786H172.621V53.6071L167.781 58.0077L163.428 61.9643H20.5213V29.3714L26.3713 24.4214Z" fill="#BC2B22"/>
<path d="M19.7679 21.4587L25.1344 16.5H179.643V55.9061L174.471 61.0401L169.835 65.6428H13.5V27.2502L19.7679 21.4587Z" stroke="#E2E2E2" stroke-opacity="0.2"/>
<path d="M58.7412 41.594C58.7412 40.8027 58.8297 40.0777 59.0068 39.4192C59.1839 38.7551 59.4274 38.1879 59.7373 37.7175C60.0527 37.2416 60.4263 36.8404 60.8579 36.5139C61.2951 36.1819 61.7682 35.9384 62.2773 35.7834C62.7864 35.623 63.326 35.5427 63.896 35.5427C65.3459 35.5427 66.4222 35.8471 67.125 36.4558V38.365C66.793 37.9555 66.3751 37.6318 65.8716 37.3938C65.368 37.1558 64.7925 37.0369 64.145 37.0369C63.005 37.0369 62.1113 37.4159 61.4639 38.1741C60.8164 38.9322 60.4927 40.0417 60.4927 41.5027C60.4927 43.0079 60.8109 44.1589 61.4473 44.9558C62.0892 45.7527 62.9884 46.1511 64.145 46.1511C64.7814 46.1511 65.3542 46.046 65.8633 45.8357C66.3779 45.6199 66.7985 45.3155 67.125 44.9226V46.5911C66.7874 46.9176 66.3419 47.1749 65.7886 47.363C65.2352 47.5512 64.6264 47.6453 63.9624 47.6453C62.3299 47.6453 61.0516 47.1389 60.1274 46.1262C59.2033 45.1135 58.7412 43.6028 58.7412 41.594ZM68.9555 47.3713V34.7375H70.6571V47.3713H68.9555ZM72.8197 35.9329C72.8197 35.3297 73.1323 35.0281 73.7576 35.0281C74.0731 35.0281 74.3166 35.1083 74.4881 35.2688C74.6597 35.4237 74.7454 35.6451 74.7454 35.9329C74.7454 36.2151 74.6597 36.4309 74.4881 36.5803C74.3166 36.7242 74.0731 36.7961 73.7576 36.7961C73.1323 36.7961 72.8197 36.5084 72.8197 35.9329ZM72.9027 47.3713V38.1243H74.6043V47.3713H72.9027ZM76.3601 42.7478C76.3601 41.9343 76.4735 41.2122 76.7004 40.5813C76.9329 39.9449 77.2511 39.433 77.655 39.0457C78.059 38.6528 78.5183 38.3567 79.033 38.1575C79.5531 37.9527 80.1121 37.8503 80.7097 37.8503C81.3129 37.8503 81.8497 37.9278 82.3201 38.0828C82.7904 38.2322 83.1446 38.4203 83.3826 38.6472V40.3655C82.796 39.6627 81.9521 39.3113 80.8508 39.3113C79.9931 39.3113 79.3207 39.6101 78.8337 40.2078C78.3523 40.7999 78.1116 41.6466 78.1116 42.7478C78.1116 43.849 78.3495 44.6985 78.8254 45.2961C79.3069 45.8883 79.9765 46.1843 80.8342 46.1843C81.3987 46.1843 81.905 46.0792 82.3533 45.8689C82.8015 45.6586 83.1667 45.3875 83.449 45.0554V46.6575C83.2221 46.912 82.8568 47.1417 82.3533 47.3464C81.8497 47.5457 81.2852 47.6453 80.6599 47.6453C79.3318 47.6453 78.2831 47.2358 77.5139 46.4167C76.7447 45.5977 76.3601 44.3748 76.3601 42.7478ZM85.1964 47.3713V34.7375H86.8981V42.0339C86.9645 41.9841 87.0558 41.9177 87.172 41.8347C87.2882 41.7462 87.5151 41.5636 87.8527 41.2869C88.1903 41.0102 88.5168 40.7279 88.8322 40.4402C89.1532 40.1469 89.5129 39.79 89.9113 39.3694C90.3153 38.9433 90.6722 38.5282 90.9821 38.1243H92.717C91.981 39.22 90.8797 40.4153 89.4132 41.7102L93.1901 47.3713H91.1979L88.1266 42.7976L86.8981 43.7356V47.3713H85.1964ZM98.4116 47.3713V35.8083H100.146V47.3713H98.4116ZM100.246 40.7058H105.6V35.8083H107.335V47.3713H105.6V42.1833H101.201L100.246 40.7058ZM109.215 42.7478C109.215 41.9233 109.334 41.19 109.572 40.5481C109.816 39.9062 110.139 39.3943 110.543 39.0125C110.947 38.6251 111.393 38.3346 111.88 38.1409C112.372 37.9472 112.89 37.8503 113.432 37.8503C113.864 37.8503 114.262 37.8918 114.627 37.9749C114.993 38.0523 115.347 38.1934 115.69 38.3982C116.039 38.5974 116.332 38.8547 116.57 39.1702C116.808 39.4856 116.999 39.8951 117.143 40.3987C117.286 40.9023 117.358 41.4806 117.358 42.1335V43.3123H110.967C111.011 44.2198 111.279 44.9309 111.772 45.4456C112.264 45.9602 112.987 46.2175 113.938 46.2175C114.68 46.2175 115.302 46.1096 115.806 45.8938C116.315 45.6724 116.703 45.4013 116.968 45.0803V46.6409C116.271 47.3105 115.211 47.6453 113.789 47.6453C112.35 47.6453 111.227 47.2385 110.419 46.425C109.616 45.6116 109.215 44.3858 109.215 42.7478ZM110.983 42.1003H115.69V41.8596C115.69 40.9797 115.493 40.324 115.101 39.8923C114.713 39.4607 114.151 39.2449 113.415 39.2449C112.718 39.2449 112.145 39.5077 111.697 40.0334C111.254 40.5592 111.017 41.2481 110.983 42.1003ZM119.081 47.3713V38.1243H120.567L120.7 39.5022C120.76 38.9931 120.982 38.5919 121.364 38.2986C121.751 37.9998 122.188 37.8503 122.675 37.8503C123.085 37.8503 123.395 37.9195 123.605 38.0579V39.6184C123.339 39.4469 122.966 39.3611 122.484 39.3611C122.102 39.3611 121.759 39.469 121.455 39.6848C121.151 39.8951 120.926 40.1967 120.783 40.5896V47.3713H119.081ZM124.348 42.7478C124.348 41.9233 124.467 41.19 124.705 40.5481C124.948 39.9062 125.272 39.3943 125.676 39.0125C126.08 38.6251 126.525 38.3346 127.012 38.1409C127.505 37.9472 128.022 37.8503 128.565 37.8503C128.996 37.8503 129.395 37.8918 129.76 37.9749C130.125 38.0523 130.479 38.1934 130.823 38.3982C131.171 38.5974 131.464 38.8547 131.702 39.1702C131.94 39.4856 132.131 39.8951 132.275 40.3987C132.419 40.9023 132.491 41.4806 132.491 42.1335V43.3123H126.099C126.144 44.2198 126.412 44.9309 126.905 45.4456C127.397 45.9602 128.119 46.2175 129.071 46.2175C129.813 46.2175 130.435 46.1096 130.939 45.8938C131.448 45.6724 131.835 45.4013 132.101 45.0803V46.6409C131.404 47.3105 130.344 47.6453 128.922 47.6453C127.483 47.6453 126.359 47.2385 125.552 46.425C124.749 45.6116 124.348 44.3858 124.348 42.7478ZM126.116 42.1003H130.823V41.8596C130.823 40.9797 130.626 40.324 130.233 39.8923C129.846 39.4607 129.284 39.2449 128.548 39.2449C127.851 39.2449 127.278 39.5077 126.83 40.0334C126.387 40.5592 126.149 41.2481 126.116 42.1003Z" fill="white"/>
<defs>
<filter id="filter0_dd_1_5" x="0.580357" y="0.237644" width="191.982" height="81.6675" filterUnits="userSpaceOnUse" color-interpolation-filters="sRGB">
<feFlood flood-opacity="0" result="BackgroundImageFix"/>
<feColorMatrix in="SourceAlpha" type="matrix" values="0 0 0 0 0 0 0 0 0 0 0 0 0 0 0 0 0 0 127 0" result="hardAlpha"/>
<feOffset/>
<feGaussianBlur stdDeviation="4.98524"/>
<feColorMatrix type="matrix" values="0 0 0 0 1 0 0 0 0 1 0 0 0 0 1 0 0 0 1 0"/>
<feBlend mode="normal" in2="BackgroundImageFix" result="effect1_dropShadow_1_5"/>
<feColorMatrix in="SourceAlpha" type="matrix" values="0 0 0 0 0 0 0 0 0 0 0 0 0 0 0 0 0 0 127 0" result="hardAlpha"/>
<feOffset/>
<feGaussianBlur stdDeviation="9.97047"/>
<feColorMatrix type="matrix" values="0 0 0 0 1 0 0 0 0 1 0 0 0 0 1 0 0 0 1 0"/>
<feBlend mode="normal" in2="effect1_dropShadow_1_5" result="effect2_dropShadow_1_5"/>
<feBlend mode="normal" in="SourceGraphic" in2="effect2_dropShadow_1_5" result="shape"/>
</filter>
</defs>
</svg>
