<svg width="10" height="10" viewBox="0 0 10 10" fill="none" xmlns="http://www.w3.org/2000/svg">
<g clip-path="url(#clip0_13_151)">
<path fill-rule="evenodd" clip-rule="evenodd" d="M7.8125 10H0.9375C0.420625 10 0 9.57938 0 9.0625V2.1875C0 1.67063 0.420625 1.25 0.9375 1.25H5.3125C5.485 1.25 5.625 1.39 5.625 1.5625C5.625 1.735 5.485 1.875 5.3125 1.875H0.9375C0.765625 1.875 0.625 2.015 0.625 2.1875V9.0625C0.625 9.235 0.765625 9.375 0.9375 9.375H7.8125C7.98438 9.375 8.125 9.235 8.125 9.0625V4.6875C8.125 4.515 8.265 4.375 8.4375 4.375C8.61 4.375 8.75 4.515 8.75 4.6875V9.0625C8.75 9.57938 8.32938 10 7.8125 10Z" fill="white"/>
<path fill-rule="evenodd" clip-rule="evenodd" d="M5.9375 0C5.765 0 5.625 0.14 5.625 0.3125C5.625 0.485 5.765 0.625 5.9375 0.625H8.93313L5.09125 4.46625C4.96938 4.58875 4.96938 4.78625 5.09125 4.90875C5.1525 4.96938 5.2325 5 5.3125 5C5.3925 5 5.4725 4.96938 5.53375 4.90875L9.375 1.06687V4.0625C9.375 4.235 9.515 4.375 9.6875 4.375C9.86 4.375 10 4.235 10 4.0625V0H5.9375Z" fill="white"/>
</g>
<defs>
<clipPath id="clip0_13_151">
<rect width="10" height="10" fill="white"/>
</clipPath>
</defs>
</svg>
