<svg width="33" height="33" viewBox="0 0 33 33" fill="none" xmlns="http://www.w3.org/2000/svg">
<path d="M16.6928 19.6971C18.3919 19.6971 19.7692 18.3197 19.7692 16.6207C19.7692 14.9216 18.3919 13.5442 16.6928 13.5442C14.9937 13.5442 13.6163 14.9216 13.6163 16.6207C13.6163 18.3197 14.9937 19.6971 16.6928 19.6971Z" fill="#4E4C4A"/>
<path d="M20.2654 13.5444H22.4487C22.6472 13.5444 22.8457 13.3459 22.8457 13.1474V10.9641C22.8457 10.7656 22.6472 10.5671 22.4487 10.5671H20.2654C20.067 10.5671 19.8685 10.7656 19.8685 10.9641V13.1474C19.7692 13.3459 19.9677 13.5444 20.2654 13.5444Z" fill="#4E4C4A"/>
<path d="M16.6928 0.742188C7.95956 0.742188 0.814209 7.88754 0.814209 16.6207C0.814209 25.354 7.95956 32.4993 16.6928 32.4993C25.426 32.4993 32.5713 25.354 32.5713 16.6207C32.5713 7.88754 25.426 0.742188 16.6928 0.742188ZM24.632 22.6744C24.632 23.6669 23.7389 24.56 22.7465 24.56H10.6391C9.64666 24.56 8.75349 23.7661 8.75349 22.6744V10.567C8.75349 9.4754 9.64666 8.68147 10.6391 8.68147H22.7465C23.7389 8.68147 24.632 9.4754 24.632 10.567V22.6744Z" fill="#4E4C4A"/>
<path d="M21.5556 16.6207C21.5556 19.3002 19.3723 21.4835 16.6928 21.4835C14.0133 21.4835 11.83 19.3002 11.83 16.6207C11.83 16.2237 11.9292 15.7275 12.0284 15.3306H10.5398V22.2774C10.5398 22.4759 10.7383 22.6744 10.9368 22.6744H22.3495C22.548 22.6744 22.7465 22.4759 22.7465 22.2774V15.3306H21.2579C21.4563 15.7275 21.5556 16.2237 21.5556 16.6207Z" fill="#4E4C4A"/>
</svg>
