<svg width="98" height="35" viewBox="0 0 98 35" fill="none" xmlns="http://www.w3.org/2000/svg">
<path d="M54.867 3.8753L54.8026 3.81125L53.642 2.65826L52.3525 3.93936L53.642 5.22045L54.867 3.8753Z" fill="white"/>
<path d="M57.4462 3.8753L57.2528 3.81125L56.0922 2.65826L54.8027 3.93936L56.0922 5.22045L57.4462 3.8753Z" fill="white"/>
<path d="M39.9092 3.61909C39.9092 3.87531 40.1671 4.00342 40.3605 4.06748C40.6184 4.13153 40.8763 4.32369 40.8763 4.70802V14.5724H51.837V14.7646C51.837 14.8287 51.837 14.8287 51.837 15.0208C51.837 15.8535 52.0949 16.366 52.5462 16.5581C52.5462 16.5581 52.8041 16.7503 53.191 16.7503C53.4489 16.7503 53.7068 16.6862 54.0291 16.4941L54.2225 16.43L54.0291 16.2379C53.7712 15.9816 53.5778 15.213 53.5778 14.7646V14.7005H57.6397V5.60479C57.6397 5.60479 57.1239 6.75777 55.1252 8.23103C55.1252 8.23103 55.1897 8.61536 55.5765 8.80752C56.0923 9.06374 56.0278 9.38401 56.0278 9.38401V13.0351H53.5133V12.843V12.6508C53.5133 11.754 53.2554 9.57618 50.8054 9.57618H50.7409C50.0317 9.57618 49.3225 9.57618 48.7422 9.57618H48.5488C47.1304 9.57618 46.3567 9.38401 46.0988 8.99968L46.0343 8.80752L45.9698 8.87158C45.7119 9.06374 45.5185 9.38401 45.5185 9.76834C45.5185 10.3448 45.9053 11.0494 46.4211 11.0494C46.808 11.0494 47.3238 11.0494 47.8396 11.0494C48.7422 11.0494 49.7738 11.0494 49.7738 11.0494C51.7725 11.0494 51.837 11.9462 51.837 12.3305V12.7789H42.4882V0.736633C42.4882 0.736633 41.3921 2.20989 39.8447 3.29882V3.36287V3.61909H39.9092Z" fill="white"/>
<path d="M33.5262 16.0457C33.5262 16.0457 33.3328 17.5189 36.3631 17.5189C38.8131 17.5189 38.8776 15.9816 38.8776 15.9816V10.3448C38.8776 9.96048 38.8131 8.99966 37.7816 8.99966H29.2709V8.35912C29.2709 8.16695 29.3354 8.16695 29.5288 8.1029C29.9801 7.84668 30.0446 7.5264 29.9801 7.3983C29.013 6.8218 28.0459 5.54071 28.0459 5.54071V10.4729H36.5565H36.621C36.8789 10.4729 37.2658 10.537 37.2658 11.1135V15.0849C37.2658 15.0849 37.2658 15.9176 36.4276 15.9176C35.0736 15.9176 35.1381 15.213 35.1381 15.213V13.0351H28.0459V14.7646H33.6552V16.0457H33.5262Z" fill="white"/>
<path d="M69.1802 4.708C69.1802 4.25961 69.4381 4.13151 69.6316 4.06745C69.825 4.0034 70.0184 3.87529 70.0829 3.49096V3.4269C70.0829 3.23474 70.0184 3.23474 69.825 3.17069C69.6316 3.10663 69.3737 2.91447 68.8579 2.46608C67.9552 1.76148 67.7618 1.37715 67.7618 1.37715L67.5039 0.928772V14.7005H69.2447C69.1802 14.6365 69.1802 4.96422 69.1802 4.708Z" fill="white"/>
<path d="M63.3779 16.43L62.2173 17.583L61.0568 16.43L62.2173 15.277L63.3779 16.43ZM59.4449 16.43L62.2818 19.2484L65.1187 16.43L63.3779 14.7005L65.4411 12.5227V0.928772C65.4411 0.928772 64.6029 2.65825 63.2489 3.55501V3.61907C63.2489 3.87529 63.4424 4.0034 63.6358 4.06745C63.8292 4.13151 64.0226 4.32367 64.0226 4.708C64.0226 5.09233 64.0226 11.69 64.0226 11.69L62.2818 13.4835L60.541 11.69C60.541 11.6259 60.541 4.96422 60.541 4.708C60.541 4.25961 60.7344 4.13151 60.9278 4.06745C61.1213 4.0034 61.1857 3.87529 61.3147 3.61907V3.55501C60.0252 2.65825 59.1226 0.928772 59.1226 0.928772V12.7148L61.1857 14.8286L59.4449 16.43Z" fill="white"/>
<path d="M54.4803 22.5152L54.9316 22.7714C54.9961 22.8355 54.9961 22.8355 54.9961 22.9636V26.6147H47.1302L45.3249 28.8566V22.9636V22.8995L45.3894 22.8355L45.7762 22.5793V22.1949H41.7788V22.5793L42.1657 22.8355L42.2301 22.8995V33.7248V33.917L42.1657 33.981L41.7788 34.2372V34.6216H45.7762V34.2372L45.3249 33.981L45.2604 33.917V28.9847L45.7118 29.0488L46.2275 28.7926L46.4854 28.7285C46.4854 28.7285 46.5499 28.7285 46.6789 28.7285H54.9316V32.5718L57.8974 29.3691V23.0917L57.9619 23.0277L58.4132 22.8355V22.4512H54.4803V22.5152Z" fill="white"/>
<path d="M97.098 26.935C96.6467 25.4617 95.5506 24.3087 93.9388 23.412C92.5203 22.5792 90.3927 22.259 87.6203 22.259H76.853V22.6433L77.3044 22.8995V24.1806H87.5558C89.619 24.1806 91.1664 24.4368 92.069 25.0133C93.4875 25.846 94.2612 26.999 94.2612 28.3442C94.2612 29.0488 94.0677 29.6893 93.7454 30.3299C93.3585 30.9064 92.7782 31.4188 92.0045 31.8031C91.0374 32.3796 89.49 32.6358 87.4913 32.6358H82.1399V25.0133H79.2386V33.6607V33.7248L79.1741 33.7888L78.7873 33.981V34.3653H87.5558C89.2966 34.3653 90.5216 34.3012 91.5532 34.1091C92.8427 33.8529 94.0033 33.4045 94.9059 32.7639C95.873 32.1234 96.6467 31.2907 96.9691 30.522C97.227 29.8815 97.4204 29.2409 97.4204 28.5363C97.2915 27.9598 97.1625 27.3833 97.098 26.935Z" fill="white"/>
<path d="M64.0227 24.4368L54.416 34.3653H58.8648V33.9169H58.6713H58.4779H58.2845L65.6346 26.2304L64.0227 24.4368Z" fill="white"/>
<path d="M73.6938 34.045V34.4934H78.0136L66.4082 22.259L64.6674 24.0525L66.6016 26.0382L68.6003 28.0239H65.2477L63.4424 29.9455L63.8292 30.2017L64.2805 29.9455H64.345C64.345 29.9455 64.5384 29.9455 64.6029 29.9455H70.2122L74.0807 34.1091C74.0807 34.1091 74.0162 34.1731 73.6938 34.1731H73.6294V34.045H73.6938Z" fill="white"/>
<path d="M40.1022 22.7715L40.4891 22.5152V22.1309H36.6206V22.5152L37.0075 22.7715L37.2009 22.9636V33.5967V33.7889L37.1364 33.8529L36.6851 34.0451V34.4294H40.5536V34.0451L40.1667 33.8529L40.1022 33.7889V22.9636V22.8996V22.7715Z" fill="white"/>
<path d="M20.6956 32.0594H20.5022H20.0509L19.5351 32.3156C19.4706 32.3797 19.3417 32.3797 19.2772 32.3797H10.4442C8.44546 32.3797 6.89807 32.1234 5.93095 31.547C4.38357 30.7142 3.67435 29.6253 3.67435 28.088C3.67435 27.4475 3.86777 26.7429 4.31909 26.1664C5.02831 25.0774 6.12438 24.2447 7.73624 23.9885C8.18756 23.9244 8.57441 23.9244 8.83231 23.9244H13.3455C13.6034 23.9244 13.6034 23.9885 13.6034 23.9885L13.5389 24.3728H13.8613L15.7956 22.0028H10.3797C9.09021 22.0028 8.12309 22.0028 7.47834 22.0669C7.0915 22.0669 6.76912 22.1309 6.51123 22.259C5.60858 22.4512 4.77041 22.8355 3.99672 23.2839C2.57828 24.0526 1.61116 25.0134 1.09536 26.1023C0.837467 26.7429 0.644043 27.4475 0.644043 28.2802C0.644043 30.2659 1.74011 31.8032 3.8033 33.0202C4.70594 33.5967 5.80201 33.917 6.96255 34.1091C7.86519 34.3013 9.02573 34.3013 10.5086 34.3013H18.6969L20.6956 32.0594Z" fill="white"/>
<path d="M16.2467 29.1128L18.181 26.7428H5.35053L4.06104 28.6644H15.602C15.7954 28.6644 15.8599 28.7285 15.8599 28.7285L15.7954 29.1128H16.2467Z" fill="white"/>
<path d="M17.214 22.1309L15.4087 24.3728L15.7955 24.4369H15.86L16.3758 24.1807C16.5692 24.1166 16.6337 23.9885 16.8271 23.9885H23.9193V33.5326V33.5967L23.8549 33.6608L23.468 33.917V34.3013H27.4654V33.917L27.0786 33.6608L27.0141 33.5967V33.5326V24.0526H33.2681C33.526 24.0526 33.526 24.1166 33.526 24.1166V24.5009H33.9129L35.8471 22.1309H17.214Z" fill="white"/>
</svg>
