<svg width="218" height="38" viewBox="0 0 218 38" fill="none" xmlns="http://www.w3.org/2000/svg">
<path d="M1.5 26V12.4H5.74C7.64667 12.4 9.01333 12.7867 9.84 13.56C10.6667 14.3333 11.08 15.4467 11.08 16.9C11.08 18.42 10.6667 19.6533 9.84 20.6C9.01333 21.5333 7.71333 22 5.94 22H4.14V26H1.5ZM4.14 14.5V19.98H5.74C7.51333 19.98 8.4 19.0533 8.4 17.2C8.4 16.3067 8.2 15.6333 7.8 15.18C7.4 14.7267 6.70667 14.5 5.72 14.5H4.14ZM17.2439 26.32C15.6572 26.32 14.3972 25.8333 13.4639 24.86C12.5306 23.8733 12.0639 22.4133 12.0639 20.48C12.0639 18.5867 12.5772 17.14 13.6039 16.14C14.6439 15.14 15.9372 14.64 17.4839 14.64C19.0706 14.64 20.3239 15.1333 21.2439 16.12C22.1772 17.1067 22.6439 18.56 22.6439 20.48C22.6439 22.3733 22.1239 23.82 21.0839 24.82C20.0572 25.82 18.7772 26.32 17.2439 26.32ZM17.3639 24.2C18.2439 24.2 18.9039 23.8667 19.3439 23.2C19.7972 22.5333 20.0239 21.6267 20.0239 20.48C20.0239 19.3467 19.7972 18.4467 19.3439 17.78C18.9039 17.1 18.2439 16.76 17.3639 16.76C16.4972 16.76 15.8372 17.1 15.3839 17.78C14.9439 18.4467 14.7239 19.3467 14.7239 20.48C14.7239 21.6267 14.9439 22.5333 15.3839 23.2C15.8372 23.8667 16.4972 24.2 17.3639 24.2ZM26.5533 26L23.5733 14.96H26.1333L27.7933 21.46L30.2333 14.96H31.3133L33.7933 21.46L35.3933 14.96H37.7733L34.8333 26H33.2533L30.6933 19.38L28.1133 26H26.5533ZM44.177 26.32C42.4437 26.32 41.077 25.8333 40.077 24.86C39.0904 23.8867 38.597 22.4267 38.597 20.48C38.597 18.6133 39.1037 17.1733 40.117 16.16C41.1437 15.1467 42.3504 14.64 43.737 14.64C45.1504 14.64 46.317 15.04 47.237 15.84C48.157 16.64 48.617 17.98 48.617 19.86V21.32H41.257C41.3237 22.16 41.617 22.8467 42.137 23.38C42.6704 23.9 43.4304 24.16 44.417 24.16C46.0704 24.16 47.297 23.72 48.097 22.84V25.2C47.2704 25.9467 45.9637 26.32 44.177 26.32ZM41.277 19.52H46.077V19.42C46.077 18.5667 45.877 17.9133 45.477 17.46C45.077 16.9933 44.4904 16.76 43.717 16.76C43.0104 16.76 42.437 17.0333 41.997 17.58C41.5704 18.1267 41.3304 18.7733 41.277 19.52ZM50.5014 26V14.96H52.7414L52.9414 16.52C52.9947 15.9467 53.2414 15.4933 53.6814 15.16C54.1347 14.8133 54.6414 14.64 55.2014 14.64C55.7081 14.64 56.0814 14.72 56.3214 14.88V17.22C56.0281 17.0333 55.5614 16.94 54.9214 16.94C54.0547 16.94 53.4414 17.32 53.0814 18.08V26H50.5014ZM62.488 26.32C60.7546 26.32 59.388 25.8333 58.388 24.86C57.4013 23.8867 56.908 22.4267 56.908 20.48C56.908 18.6133 57.4146 17.1733 58.428 16.16C59.4546 15.1467 60.6613 14.64 62.048 14.64C63.4613 14.64 64.628 15.04 65.548 15.84C66.468 16.64 66.928 17.98 66.928 19.86V21.32H59.568C59.6346 22.16 59.928 22.8467 60.448 23.38C60.9813 23.9 61.7413 24.16 62.728 24.16C64.3813 24.16 65.608 23.72 66.408 22.84V25.2C65.5813 25.9467 64.2746 26.32 62.488 26.32ZM59.588 19.52H64.388V19.42C64.388 18.5667 64.188 17.9133 63.788 17.46C63.388 16.9933 62.8013 16.76 62.028 16.76C61.3213 16.76 60.748 17.0333 60.308 17.58C59.8813 18.1267 59.6413 18.7733 59.588 19.52ZM72.7123 26.32C71.379 26.32 70.299 25.8533 69.4723 24.92C68.6457 23.9733 68.2323 22.5533 68.2323 20.66C68.2323 18.7133 68.679 17.2267 69.5723 16.2C70.4657 15.16 71.6523 14.64 73.1323 14.64C74.279 14.64 75.0723 14.88 75.5123 15.36V10.94H78.0923V26H75.6923L75.5123 25.02C75.0323 25.8867 74.099 26.32 72.7123 26.32ZM75.5123 23.2V17.5C75.099 16.9533 74.399 16.68 73.4123 16.68C72.559 16.68 71.919 17.0467 71.4923 17.78C71.079 18.5133 70.8723 19.4667 70.8723 20.64C70.8723 23.0267 71.6857 24.22 73.3123 24.22C74.3923 24.22 75.1257 23.88 75.5123 23.2ZM90.1692 26.32C89.0226 26.32 88.1492 25.9667 87.5492 25.26L87.1492 26H85.2092V10.94H87.7892V15.94C87.9492 15.6067 88.2759 15.3067 88.7692 15.04C89.2759 14.7733 89.8892 14.64 90.6092 14.64C93.5959 14.64 95.0892 16.4867 95.0892 20.18C95.0892 22.1 94.6159 23.6067 93.6692 24.7C92.7359 25.78 91.5692 26.32 90.1692 26.32ZM87.7892 17.76V23.44C88.2292 24 88.9292 24.28 89.8892 24.28C90.7426 24.28 91.3826 23.9133 91.8092 23.18C92.2359 22.4467 92.4492 21.4933 92.4492 20.32C92.4492 17.9333 91.6292 16.74 89.9892 16.74C88.9626 16.74 88.2292 17.08 87.7892 17.76ZM97.9633 30.2C97.1099 30.2 96.4699 30 96.0433 29.6V27.38C96.5366 27.9 97.1433 28.16 97.8633 28.16C98.3166 28.16 98.7166 28.0267 99.0633 27.76C99.4233 27.5067 99.7433 27.0133 100.023 26.28L95.6433 14.96H98.4433L101.203 22.92L103.363 14.96H105.923L102.783 25.32C102.557 26.0533 102.317 26.6867 102.063 27.22C101.823 27.7667 101.517 28.2733 101.143 28.74C100.77 29.22 100.317 29.58 99.7833 29.82C99.2499 30.0733 98.6433 30.2 97.9633 30.2Z" fill="white"/>
<path d="M141.369 15.9481C139.64 15.9481 138.232 14.5352 138.232 12.7975C138.232 11.0599 139.638 9.64526 141.369 9.64526C143.1 9.64526 144.506 11.0582 144.506 12.7975C144.506 14.5369 143.1 15.9481 141.369 15.9481ZM141.369 11.5694C140.695 11.5694 140.147 12.1204 140.147 12.7975C140.147 13.4746 140.695 14.0256 141.369 14.0256C142.043 14.0256 142.591 13.4746 142.591 12.7975C142.591 12.1204 142.043 11.5694 141.369 11.5694Z" fill="white"/>
<path d="M131.041 33.7027C129.312 33.7027 127.905 32.2898 127.905 30.5504C127.905 28.8111 129.31 27.3999 131.041 27.3999C132.772 27.3999 134.178 28.8128 134.178 30.5504C134.178 32.2881 132.772 33.7027 131.041 33.7027ZM131.041 29.3241C130.368 29.3241 129.819 29.8751 129.819 30.5522C129.819 31.2293 130.368 31.7803 131.041 31.7803C131.715 31.7803 132.263 31.2293 132.263 30.5522C132.263 29.8751 131.715 29.3241 131.041 29.3241Z" fill="white"/>
<path d="M120.73 15.8495C119.001 15.8495 117.594 14.4366 117.594 12.6972C117.594 10.9578 119 9.54492 120.73 9.54492C122.461 9.54492 123.867 10.9578 123.867 12.6972C123.867 14.4366 122.461 15.8495 120.73 15.8495ZM120.73 11.4708C120.057 11.4708 119.508 12.0218 119.508 12.6989C119.508 13.376 120.057 13.927 120.73 13.927C121.404 13.927 121.952 13.376 121.952 12.6989C121.952 12.0218 121.404 11.4708 120.73 11.4708Z" fill="white"/>
<path d="M136.466 16.751L136.304 16.8443C134.979 17.6147 133.52 18.0707 132.038 18.2106C131.849 18.2279 131.66 18.2417 131.471 18.2486C131.328 18.2555 131.184 18.2572 131.041 18.2572C130.708 18.2572 130.374 18.2417 130.043 18.2106C128.559 18.069 127.102 17.6147 125.775 16.8443L125.613 16.751L126.569 15.086L126.731 15.1775C128.781 16.3676 131.215 16.6388 133.439 15.991C134.097 15.801 134.738 15.5299 135.343 15.1775L135.507 15.0842L136.462 16.7493L136.466 16.751Z" fill="white"/>
<path d="M138.078 15.8167L136.466 16.7511L136.39 16.796L136.304 16.8461C134.255 18.0345 132.805 20.0157 132.249 22.275C132.083 22.9451 131.997 23.6378 131.997 24.3425V26.3997C131.369 26.2511 130.711 26.2511 130.082 26.3997V24.3425C130.082 22.8018 130.419 21.306 131.039 19.9449C131.119 19.7721 131.201 19.6011 131.29 19.4336C131.51 19.0104 131.76 18.601 132.036 18.2107C132.897 16.9912 134.02 15.9514 135.345 15.181L135.431 15.1327L135.508 15.086L137.119 14.1533C137.304 14.7751 137.631 15.3451 138.076 15.8184L138.078 15.8167Z" fill="white"/>
<path d="M135.347 15.1794C134.74 15.5301 134.101 15.803 133.442 15.993C132.781 16.5682 132.189 17.2228 131.675 17.9517C131.605 18.0502 131.538 18.1486 131.473 18.2505C131.662 18.2436 131.851 18.2298 132.04 18.2125C132.901 16.9931 134.023 15.9533 135.348 15.1829L135.434 15.1345L135.512 15.0879L135.348 15.1812L135.347 15.1794Z" fill="#CCCCCC"/>
<path d="M131.997 24.3408V26.398C131.37 26.2494 130.711 26.2494 130.082 26.398V24.3408C130.082 21.9623 129.099 19.71 127.43 18.0967C126.937 17.6182 126.382 17.1985 125.775 16.8444L125.691 16.7961L125.227 16.5266L124.003 15.8167C124.446 15.3452 124.775 14.7734 124.96 14.1516L126.184 14.8615L126.571 15.0861L126.648 15.131L126.732 15.1793C128.059 15.9497 129.182 16.9895 130.043 18.209C130.153 18.3644 130.258 18.5216 130.359 18.684C130.613 19.0882 130.842 19.5079 131.04 19.9432C131.66 21.3042 131.997 22.8001 131.997 24.3408Z" fill="white"/>
<path d="M131.447 19.7566C131.397 19.6478 131.345 19.5407 131.292 19.4319C131.203 19.5994 131.12 19.7704 131.041 19.9432C131.662 21.3042 131.999 22.8001 131.999 24.3408C131.999 23.6361 132.085 22.9434 132.251 22.2732C132.086 21.4096 131.818 20.5684 131.447 19.7566Z" fill="#CCCCCC"/>
<path d="M139.018 16.5663C138.666 16.3608 138.349 16.1069 138.078 15.8167C137.634 15.3451 137.306 14.7734 137.12 14.1516C137.005 13.7681 136.945 13.3674 136.945 12.9581V7.57069L131.041 4.14551L125.139 7.57069V12.9581C125.139 13.3674 125.077 13.7681 124.964 14.1516C124.778 14.7734 124.45 15.3451 124.006 15.8167C123.733 16.1086 123.419 16.3608 123.066 16.5663L118.424 19.2591V26.1112L124.328 29.5364L128.968 26.8436C129.322 26.6381 129.699 26.4895 130.086 26.398C130.715 26.2494 131.371 26.2494 132 26.398C132.387 26.4895 132.763 26.6381 133.117 26.8436L137.76 29.5364L143.664 26.1112V19.2591L139.021 16.5663H139.018ZM141.746 25.0006L137.755 27.3151L134.07 25.1768C133.42 24.8002 132.717 24.555 131.997 24.4392C131.681 24.3891 131.361 24.3632 131.04 24.3632C130.718 24.3632 130.4 24.3891 130.082 24.441C129.362 24.555 128.657 24.8002 128.009 25.1768L124.326 27.3151L120.335 25.0006V20.3698L124.02 18.2314C124.67 17.8549 125.232 17.3661 125.692 16.7961C126.096 16.2951 126.42 15.7321 126.65 15.131C126.909 14.447 127.05 13.7129 127.05 12.9581V8.68133L131.04 6.36678L135.03 8.68133V12.9581C135.03 13.7129 135.17 14.447 135.431 15.131C135.661 15.7338 135.983 16.2951 136.388 16.7961C136.847 17.3661 137.411 17.8549 138.059 18.2314L141.744 20.3698V25.0006H141.746Z" fill="white"/>
<path d="M130.044 18.2108C128.561 18.0691 127.104 17.6149 125.777 16.8445L125.693 16.7979L125.777 16.8462C126.383 17.1986 126.939 17.62 127.432 18.0985C128.257 18.3869 129.115 18.5735 130 18.6581C130.118 18.6702 130.239 18.6806 130.359 18.6858C130.257 18.5234 130.153 18.3662 130.043 18.2108H130.044Z" fill="#CCCCCC"/>
<path d="M156.029 12.0396H158.31L163.403 26.0552H160.347L159.409 23.1616H153.953L153.056 26.0552H150L154.644 12.9778C154.888 12.3523 155.351 12.0396 156.029 12.0396ZM156.681 14.8516L154.725 20.799H158.636L156.681 14.8516Z" fill="white"/>
<path d="M165.411 26.055V20.7989C165.411 19.7397 165.566 18.8488 165.879 18.1313C166.192 17.4112 166.617 16.8357 167.161 16.3994C167.676 15.9921 168.281 15.6925 168.975 15.5032C169.669 15.314 170.381 15.2168 171.114 15.2168H171.521V18.1103H170.583C169.795 18.1103 169.211 18.2995 168.83 18.6806C168.449 19.0617 168.26 19.6583 168.26 20.473V26.055H165.408H165.411Z" fill="white"/>
<path d="M180.701 22.7145H182.738C182.438 23.8551 181.868 24.725 181.027 25.3216C180.183 25.9471 179.124 26.2598 177.85 26.2598C176.302 26.2598 175.093 25.7578 174.223 24.7513C173.353 23.7736 172.919 22.3755 172.919 20.5542C172.919 18.733 173.34 17.4583 174.184 16.4807C175.053 15.4768 176.262 14.9722 177.81 14.9722C179.44 14.9722 180.704 15.461 181.6 16.4386C182.089 17.0352 182.441 17.729 182.659 18.5175H179.808C179.671 18.2468 179.537 18.0418 179.4 17.9051C179.048 17.524 178.544 17.3348 177.892 17.3348C177.295 17.3348 176.806 17.524 176.425 17.9051C175.936 18.4491 175.692 19.3453 175.692 20.5936C175.692 21.842 175.936 22.7276 176.425 23.2428C176.777 23.6764 177.308 23.8945 178.015 23.8945C178.478 23.8945 178.872 23.7999 179.198 23.6107C179.279 23.5844 179.353 23.5371 179.421 23.4688C179.49 23.4004 179.563 23.3269 179.645 23.2454C179.7 23.1639 179.808 23.0562 179.971 22.9195C180.134 22.7828 180.378 22.7145 180.704 22.7145H180.701Z" fill="white"/>
<path d="M193.997 15.2195V21.5742C193.997 23.5032 193.495 24.7673 192.488 25.3639C191.482 25.9605 190.383 26.2601 189.188 26.2601C188.021 26.2049 186.954 25.879 185.989 25.2824C185.025 24.6859 184.544 23.448 184.544 21.5742V15.2195H187.395V22.1471C187.395 22.7989 187.584 23.2746 187.965 23.5742C188.347 23.8738 188.78 24.0236 189.269 24.0236C189.758 24.0236 190.199 23.8738 190.594 23.5742C190.988 23.2746 191.185 22.7989 191.185 22.1471V16.6071C191.185 16.226 191.314 15.9002 191.571 15.6295C191.829 15.3588 192.163 15.2221 192.57 15.2221H193.997V15.2195Z" fill="white"/>
<path d="M198.57 13.385V16.6438C198.869 16.1287 199.303 15.7056 199.873 15.3797C200.362 15.109 200.959 14.9724 201.666 14.9724C202.943 14.9724 203.989 15.5032 204.804 16.5624C205.618 17.6215 206.026 18.9933 206.026 20.6779C206.026 22.3625 205.618 23.7344 204.804 24.7935C204.396 25.3086 203.847 25.6845 203.153 25.9131C202.459 26.1444 201.773 26.26 201.095 26.26C199.792 26.26 198.583 25.921 197.469 25.2403C196.354 24.5623 195.797 23.2587 195.797 21.3297V12H197.182C197.563 12 197.889 12.1367 198.16 12.4074C198.43 12.678 198.567 13.0039 198.567 13.385H198.57ZM203.214 20.5571C203.214 19.5794 203.011 18.8199 202.601 18.2759C202.194 17.7056 201.637 17.4191 200.93 17.4191C200.17 17.4191 199.584 17.6898 199.177 18.2338C198.769 18.8041 198.564 19.5794 198.564 20.5571C198.564 21.6976 198.754 22.5255 199.135 23.0432C199.542 23.6135 200.112 23.9 200.846 23.9C201.579 23.9 202.191 23.6161 202.599 23.0432C203.006 22.4729 203.211 21.6451 203.211 20.5571H203.214Z" fill="white"/>
<path d="M215.408 22.7145H217.445C217.145 23.8551 216.575 24.725 215.734 25.3216C214.89 25.9471 213.831 26.2598 212.556 26.2598C211.008 26.2598 209.8 25.7578 208.93 24.7513C208.06 23.7736 207.626 22.3755 207.626 20.5542C207.626 18.733 208.047 17.4583 208.89 16.4807C209.76 15.4768 210.969 14.9722 212.517 14.9722C214.146 14.9722 215.41 15.461 216.307 16.4386C217.177 17.4452 217.61 18.8433 217.61 20.6357V21.0851C217.61 21.2218 217.597 21.3164 217.568 21.3716H210.52C210.546 22.2125 210.751 22.838 211.132 23.2454C211.484 23.679 212.015 23.8971 212.722 23.8971C213.185 23.8971 213.579 23.8025 213.905 23.6133C213.986 23.587 214.06 23.5397 214.128 23.4714C214.196 23.4031 214.27 23.3295 214.351 23.248C214.378 23.1665 214.48 23.0588 214.656 22.9221C214.832 22.7855 215.085 22.7171 215.41 22.7171L215.408 22.7145ZM210.52 19.5372H214.675C214.619 18.8039 214.43 18.2599 214.104 17.9077C213.752 17.5267 213.248 17.3374 212.596 17.3374C211.999 17.3374 211.51 17.5267 211.129 17.9077C210.748 18.2888 210.546 18.8302 210.517 19.5372H210.52Z" fill="white"/>
</svg>
