<?xml version="1.0" standalone="no"?>
<!DOCTYPE svg PUBLIC "-//W3C//DTD SVG 1.1//EN" "http://www.w3.org/Graphics/SVG/1.1/DTD/svg11.dtd" >
<svg xmlns="http://www.w3.org/2000/svg" xmlns:xlink="http://www.w3.org/1999/xlink" version="1.1">
<metadata>
Created by FontForge 20170731 at Wed Feb 27 17:57:21 2013
 By Aleksey,,,
Copyright (c) 2013 by Etihad Airways. All rights reserved.
</metadata>
<defs>
<font id="EtihadAltis-Bold" horiz-adv-x="938" >
  <font-face 
    font-family="Etihad Altis Text"
    font-weight="700"
    font-stretch="normal"
    units-per-em="1000"
    panose-1="2 11 8 3 3 0 0 0 0 3"
    ascent="782"
    descent="-218"
    x-height="556"
    cap-height="680"
    bbox="-155 -292 1322 1098"
    underline-thickness="74"
    underline-position="-180"
    unicode-range="U+0020-FB04"
  />
<missing-glyph horiz-adv-x="644" 
d="M60 685h524v-685h-524v685zM281 343l-141 218v-437zM451 77l-129 201l-130 -201h259zM451 608h-259l130 -201zM504 561l-140 -218l140 -219v437z" />
    <glyph glyph-name="f_f" unicode="ff" horiz-adv-x="704" 
d="M86 428h-64v54l64 57v71q0 42 14 73t38.5 51t57.5 30t71 10q48 0 75.5 -10t39.5 -18v-133q-13 12 -31.5 23.5t-47.5 11.5q-53 0 -53 -54v-43h165v59q0 42 15 73t40.5 51t60 30t73.5 10q52 0 81 -10t42 -18v-133q-15 14 -38 24.5t-53 10.5q-31 0 -44 -14.5t-13 -41.5v-41
h120l-42 -122h-78v-429h-164v429h-165v-429h-164v428z" />
    <glyph glyph-name="fi" unicode="fi" horiz-adv-x="637" 
d="M86 429h-64v54l64 57v70q0 42 13.5 73t37 51t56 30t71.5 10q46 0 70.5 -9.5t35.5 -16.5v-134q-13 14 -29 24t-42 10t-37.5 -13t-11.5 -41v-43h329v-551h-164v429h-165v-429h-164v429zM495 607q-39 0 -61 20t-22 57t22 57.5t61 20.5q40 0 63 -20.5t23 -57.5t-23 -57
t-63 -20z" />
    <glyph glyph-name="fl" unicode="fl" horiz-adv-x="635" 
d="M86 427h-64v56l64 57v70q0 42 13.5 73t37 51t56 30t71.5 10q46 0 70.5 -9.5t35.5 -16.5v-134q-13 14 -29 24t-42 10t-37.5 -13t-11.5 -41v-43h105l-42 -124h-63v-427h-164v427zM413 757h164v-757h-164v757z" />
    <glyph glyph-name="f_f_i" unicode="ffi" horiz-adv-x="966" 
d="M86 428h-64v54l64 57v71q0 42 14 73t38.5 51t57.5 30t71 10q48 0 75.5 -10t39.5 -18v-133q-13 12 -31.5 23.5t-47.5 11.5q-53 0 -53 -54v-43h165v59q0 42 14 73t38 51t57 30t72 10q48 0 74 -9.5t38 -16.5v-134q-13 13 -31 23.5t-46 10.5q-52 0 -52 -54v-43h329v-551h-164
v429h-165v-429h-164v429h-165v-429h-164v428zM825 607q-40 0 -62 20t-22 57t22 57.5t62 20.5q39 0 62.5 -20.5t23.5 -57.5t-23.5 -57t-62.5 -20z" />
    <glyph glyph-name="f_f_l" unicode="ffl" horiz-adv-x="964" 
d="M86 428h-64v54l64 57v71q0 42 14 73t38.5 51t57.5 30t71 10q48 0 75.5 -10t39.5 -18v-133q-13 12 -31.5 23.5t-47.5 11.5q-53 0 -53 -54v-43h165v59q0 42 14 73t38 51t57 30t72 10q48 0 74 -9.5t38 -16.5v-134q-13 13 -31 23.5t-46 10.5q-52 0 -52 -54v-43h110l-42 -122
h-68v-429h-164v429h-165v-429h-164v428zM742 757h163v-757h-163v757z" />
    <glyph glyph-name=".notdef" horiz-adv-x="644" 
d="M60 685h524v-685h-524v685zM281 343l-141 218v-437zM451 77l-129 201l-130 -201h259zM451 608h-259l130 -201zM504 561l-140 -218l140 -219v437z" />
    <glyph glyph-name=".null" horiz-adv-x="0" 
 />
    <glyph glyph-name="nonmarkingreturn" horiz-adv-x="240" 
 />
    <glyph glyph-name="space" unicode=" " horiz-adv-x="240" 
 />
    <glyph glyph-name="space" unicode="&#xa0;" horiz-adv-x="240" 
 />
    <glyph glyph-name="exclam" unicode="!" horiz-adv-x="288" 
d="M144 -16q-41 0 -66.5 23.5t-25.5 63.5q0 39 25.5 63t66.5 24q42 0 67.5 -24t25.5 -63q0 -40 -25.5 -63.5t-67.5 -23.5zM54 680h180l-20 -475h-140z" />
    <glyph glyph-name="quotedbl" unicode="&#x22;" horiz-adv-x="426" 
d="M35 670v26q0 33 22 55.5t59 22.5q35 0 58.5 -22.5t23.5 -55.5v-26l-49 -201h-63zM227 670v26q0 33 23 55.5t59 22.5q35 0 58.5 -22.5t23.5 -55.5v-26l-50 -201h-63z" />
    <glyph glyph-name="numbersign" unicode="#" horiz-adv-x="701" 
d="M83 503h144l36 191h91l-36 -191h121l36 191h90l-36 -191h144l-15 -79h-144l-28 -150h145l-15 -79h-144l-36 -195h-90l36 195h-121l-36 -195h-91l36 195h-142l14 79h142l28 150h-143zM275 274h121l28 150h-121z" />
    <glyph glyph-name="dollar" unicode="$" horiz-adv-x="546" 
d="M305 39q-11 -2 -23 -2.5t-24 -1.5v-81h-66v82q-62 4 -98.5 17.5t-52.5 24.5v146q23 -24 72.5 -44.5t118.5 -20.5q60 0 89 11t29 40q0 24 -19.5 33.5t-50.5 14.5l-78 17q-36 6 -66 17.5t-51.5 31.5t-33.5 49.5t-12 70.5q0 64 39.5 106.5t113.5 59.5v91h66v-82q10 1 20 1.5
t21 0.5h6v80h65v-84q49 -7 79.5 -18.5t44.5 -21.5v-145q-23 26 -73 44.5t-121 18.5q-52 0 -77 -8t-25 -34q0 -23 17 -32.5t46 -15.5l76 -15q39 -7 71.5 -18t56 -30t36.5 -48t13 -71q0 -60 -37 -104t-107 -66v-99h-65v85z" />
    <glyph glyph-name="percent" unicode="%" horiz-adv-x="782" 
d="M195 323q-34 0 -64 9.5t-52.5 31.5t-36 59t-13.5 91t13.5 90.5t36 58.5t52.5 31.5t64 9.5q52 0 93 -23q16 -9 31 -15t31 -10t34 -6t42 -2q54 0 88.5 16.5t55.5 39.5l71 -43l-416 -661h-103l365 575q-14 -5 -29.5 -8t-35.5 -3t-36.5 2.5t-31.5 8.5q6 -27 6 -61
q0 -54 -13 -91t-35.5 -59t-52.5 -31.5t-64 -9.5zM195 422q27 0 38 21t11 71q0 48 -10.5 69.5t-38.5 21.5t-39 -21.5t-11 -69.5q0 -50 11 -71t39 -21zM588 -16q-34 0 -64.5 9.5t-53 31.5t-35.5 59t-13 91t13 90t35.5 58.5t53 32t64.5 9.5t64 -9.5t52.5 -32t35.5 -58.5t13 -90
t-13 -91t-35.5 -59t-52.5 -31.5t-64 -9.5zM587 82q28 0 39 21.5t11 71.5q0 48 -11 69.5t-39 21.5t-38.5 -21.5t-10.5 -69.5q0 -50 10.5 -71.5t38.5 -21.5z" />
    <glyph glyph-name="ampersand" unicode="&#x26;" horiz-adv-x="806" 
d="M352 -16q-165 0 -245 57.5t-80 170.5q0 35 11 64.5t29 53t41.5 40.5t49.5 28q-27 23 -45 54t-18 70q0 43 17.5 75.5t48.5 54.5t74 33t95 11q33 0 59.5 -5t46.5 -12t33 -15t19 -13v-148q-18 18 -55.5 36t-84.5 18q-84 0 -84 -49q0 -23 12 -37.5t35 -34.5l77 -64v-47h-130
q-23 -11 -40 -33t-17 -57q0 -24 7.5 -44t26.5 -34t50 -22t78 -8q95 0 143 34t48 106q0 12 -1.5 28t-7.5 30h-59v141h322l-43 -141h-60q5 -15 7.5 -32.5t2.5 -31.5q0 -69 -26.5 -120.5t-74.5 -86.5t-115 -52.5t-147 -17.5z" />
    <glyph glyph-name="quotesingle" unicode="'" horiz-adv-x="233" 
d="M35 670v26q0 33 22 55.5t59 22.5q35 0 58.5 -22.5t23.5 -55.5v-26l-49 -201h-63z" />
    <glyph glyph-name="parenleft" unicode="(" horiz-adv-x="375" 
d="M238 -121q-45 25 -83 69t-65.5 101t-42.5 123t-15 135q0 64 15 127t42.5 117t65.5 96.5t83 66.5h140q-46 -26 -84 -65.5t-65 -91t-42 -114.5t-15 -136q0 -77 16.5 -143t44.5 -120.5t65.5 -96t78.5 -68.5h-139v0z" />
    <glyph glyph-name="parenright" unicode=")" horiz-adv-x="374" 
d="M-3 -121q44 26 82 66.5t65.5 93t43 116t15.5 137.5q0 76 -16 141.5t-43.5 119t-65 94t-80.5 66.5h138q46 -24 84 -67.5t65.5 -99.5t42.5 -121t15 -133q0 -66 -15 -129.5t-42.5 -118.5t-65.5 -98t-84 -67h-139v0z" />
    <glyph glyph-name="asterisk" unicode="*" horiz-adv-x="446" 
d="M174 491l-79 -59l-57 89l95 57l-96 52l58 89l81 -57l-6 95h107l-5 -95l81 57l57 -86l-95 -56l94 -56l-56 -88l-81 57l6 -94h-108z" />
    <glyph glyph-name="plus" unicode="+" horiz-adv-x="540" 
d="M197 296h-166v138h166v165h145v-165h167v-138h-167v-166h-145v166z" />
    <glyph glyph-name="comma" unicode="," horiz-adv-x="274" 
d="M38 -147q7 13 14.5 31t14.5 37t12.5 38.5t8.5 36.5q-23 12 -36.5 35.5t-13.5 51.5q0 45 28 73t71 28t70 -29t27 -78q0 -36 -13 -72.5t-31.5 -68.5t-39 -57t-36.5 -39z" />
    <glyph glyph-name="hyphen" unicode="-" horiz-adv-x="378" 
d="M53 377h272v-135h-272v135z" />
    <glyph glyph-name="period" unicode="." horiz-adv-x="272" 
d="M136 -16q-43 0 -70.5 28t-27.5 71t27.5 72t70.5 29q42 0 70 -29t28 -72t-28 -71t-70 -28z" />
    <glyph glyph-name="slash" unicode="/" horiz-adv-x="660" 
d="M519 775h125l-501 -855h-124z" />
    <glyph glyph-name="zero" unicode="0" horiz-adv-x="610" 
d="M306 -16q-77 0 -129 22t-84 66.5t-46 111.5t-14 157q0 180 70 267.5t203 87.5q77 0 129 -22t83.5 -66t45 -110.5t13.5 -156.5q0 -180 -68.5 -268.5t-202.5 -88.5zM306 122q30 0 49.5 12t30.5 38t15 67.5t4 101.5t-4 101.5t-15 67t-30.5 37t-49.5 11.5t-49.5 -11.5
t-31 -37t-16 -67t-4.5 -101.5t4.5 -101.5t16 -67.5t31 -38t49.5 -12z" />
    <glyph glyph-name="one" unicode="1" horiz-adv-x="398" 
d="M172 495l-134 -71v146l207 110h87v-680h-160v495z" />
    <glyph glyph-name="two" unicode="2" horiz-adv-x="523" 
d="M43 44l196 248q29 37 52 76.5t23 84.5q0 103 -109 103q-50 0 -96.5 -23.5t-76.5 -54.5v149q25 25 76 47t126 22q124 0 182 -58t58 -159q0 -43 -12.5 -80.5t-32 -70.5t-43.5 -62.5t-46 -56.5l-54 -65h196v-144h-439v44z" />
    <glyph glyph-name="three" unicode="3" horiz-adv-x="535" 
d="M204 -16q-61 0 -99.5 11t-58.5 23v152q21 -20 55.5 -35t84.5 -15q78 0 108.5 25t30.5 69q0 40 -26.5 61t-96.5 21h-51v33l127 211h-208l-42 140h455v-34l-143 -235q31 -6 59.5 -18.5t50.5 -34.5t35 -55.5t13 -81.5q0 -46 -17 -88.5t-53 -75.5t-91.5 -53t-132.5 -20z" />
    <glyph glyph-name="four" unicode="4" horiz-adv-x="595" 
d="M343 132h-335v34l196 514h157l-149 -409h133l20 233h133v-233h89l-39 -139h-50v-132h-155v132z" />
    <glyph glyph-name="five" unicode="5" horiz-adv-x="533" 
d="M206 -16q-66 0 -105.5 10.5t-59.5 21.5v149q21 -15 58.5 -30t94.5 -15q68 0 99.5 22t31.5 61q0 38 -27 58t-102 20q-44 0 -75.5 -6t-57.5 -16l16 421h409l-41 -140h-226l-3 -128q5 2 19 3t26 1q119 0 177 -47.5t58 -153.5q0 -53 -21 -95.5t-59.5 -72.5t-92 -46.5
t-119.5 -16.5z" />
    <glyph glyph-name="six" unicode="6" horiz-adv-x="584" 
d="M294 -16q-61 0 -109 18.5t-81.5 54t-51 86t-17.5 113.5q0 85 23.5 154t59.5 122.5t80.5 90t86.5 57.5h214v-9q-37 -17 -73 -38t-69 -48t-60.5 -60t-47.5 -74q17 10 39.5 15.5t51.5 5.5q49 0 89.5 -15t69.5 -44.5t44.5 -73t15.5 -100.5q0 -56 -19 -103t-53.5 -81
t-83.5 -52.5t-109 -18.5zM298 123q45 0 69 30t24 80t-24 78.5t-69 28.5q-34 0 -56 -10.5t-34 -26.5q-2 -16 -2.5 -31.5t-0.5 -32.5q0 -54 23.5 -85t69.5 -31z" />
    <glyph glyph-name="seven" unicode="7" horiz-adv-x="488" 
d="M289 540h-244l-42 140h484v-34l-229 -646h-168z" />
    <glyph glyph-name="eight" unicode="8" horiz-adv-x="593" 
d="M289 -16q-66 0 -114 15t-78.5 42t-45 63.5t-14.5 80.5q0 60 30.5 99t75.5 59q-36 20 -63.5 58t-27.5 97q0 94 67 146t184 52q115 0 176.5 -52t61.5 -146q0 -59 -27.5 -95.5t-64.5 -56.5q45 -16 75.5 -57.5t30.5 -103.5q0 -44 -16.5 -80.5t-50 -63.5t-83.5 -42t-116 -15z
M296 120q48 0 71 22t23 58q0 35 -23 56t-71 21t-70.5 -21t-22.5 -56q0 -36 22.5 -58t70.5 -22zM295 408q41 0 63 20t22 56t-22 56.5t-63 20.5q-39 0 -60.5 -20.5t-21.5 -56.5t21.5 -56t60.5 -20z" />
    <glyph glyph-name="nine" unicode="9" horiz-adv-x="584" 
d="M85 9q37 17 73 38t69 47.5t60.5 59.5t47.5 74q-17 -9 -39.5 -14.5t-51.5 -5.5q-50 0 -90 15t-69 44.5t-44.5 73t-15.5 100.5q0 56 19 103t53.5 80.5t83.5 52.5t110 19q60 0 108 -18.5t81.5 -54t51 -86t17.5 -113.5q0 -85 -23 -155t-59 -123t-78.5 -90t-81.5 -56h-222v9z
M287 340q33 0 54.5 10.5t34.5 26.5q2 15 3 31t1 33q0 54 -24 85t-69 31q-46 0 -69.5 -30t-23.5 -80t23.5 -78.5t69.5 -28.5z" />
    <glyph glyph-name="colon" unicode=":" horiz-adv-x="291" 
d="M146 -17q-42 0 -69 27.5t-27 69.5t27 70t69 28q41 0 68 -28t27 -70t-27 -69.5t-68 -27.5zM146 348q-42 0 -69 27.5t-27 69.5t27 70t69 28q41 0 68 -28t27 -70t-27 -69.5t-68 -27.5z" />
    <glyph glyph-name="semicolon" unicode=";" horiz-adv-x="295" 
d="M47 -144q7 13 14.5 30t14 35.5t12 37.5t8.5 36q-23 12 -36 35t-13 50q0 43 27.5 70.5t69.5 27.5t68 -28t26 -76q0 -35 -12.5 -70.5t-30.5 -66.5t-38.5 -56t-35.5 -38zM153 347q-42 0 -69 27.5t-27 69.5t27 70t69 28q41 0 68 -28t27 -70t-27 -69.5t-68 -27.5z" />
    <glyph glyph-name="less" unicode="&#x3c;" horiz-adv-x="566" 
d="M24 352v7l479 297v-156l-234 -148l234 -148v-149z" />
    <glyph glyph-name="equal" unicode="=" horiz-adv-x="562" 
d="M56 316h450v-131h-450v131zM56 542h450v-132h-450v132z" />
    <glyph glyph-name="greater" unicode="&#x3e;" horiz-adv-x="566" 
d="M64 204l233 148l-233 148v156l478 -297v-7l-478 -297v149z" />
    <glyph glyph-name="question" unicode="?" horiz-adv-x="476" 
d="M138 213q0 32 4.5 57.5t14.5 47t24 40.5t34 38q27 26 42.5 46t15.5 47q0 25 -18.5 44.5t-67.5 19.5q-23 0 -46 -6t-43.5 -16t-37 -23t-26.5 -28v158q23 23 73 40.5t121 17.5q103 0 160.5 -43.5t57.5 -131.5q0 -33 -9 -60t-24 -49.5t-34.5 -42.5t-40.5 -41
q-28 -28 -36.5 -53.5t-8.5 -60.5v-9h-155v8zM216 -16q-42 0 -67.5 23.5t-25.5 63.5q0 39 25 63t67 24q41 0 67 -24t26 -63q0 -40 -25.5 -63.5t-66.5 -23.5z" />
    <glyph glyph-name="at" unicode="@" horiz-adv-x="922" 
d="M463 -54q65 0 110 9t81 28v-94q-22 -10 -69.5 -21t-122.5 -11q-92 0 -170.5 28t-136 82t-90.5 132.5t-33 179.5q0 100 34.5 178.5t94 132.5t139.5 82t172 28t169 -25t133 -74t87.5 -122t31.5 -170q0 -60 -13.5 -110t-39.5 -87t-64 -57.5t-87 -20.5q-63 0 -98 22.5
t-46 54.5q-13 -23 -42.5 -40.5t-78.5 -17.5q-36 0 -68 13t-56 40.5t-38 70t-14 101.5t14.5 103t40 73t60 43.5t74.5 14.5q41 0 65 -14t37 -30l25 31h89v-309q0 -35 10.5 -49.5t36.5 -14.5q16 0 32.5 9t29.5 30.5t21.5 56.5t8.5 88q0 79 -23 136t-64.5 94.5t-100.5 55.5
t-131 18q-71 0 -133 -21.5t-107.5 -63.5t-71.5 -104.5t-26 -144.5t24.5 -144.5t68 -104.5t104 -63.5t131.5 -21.5zM458 155q25 0 40.5 9.5t24.5 25.5v193q-9 12 -23.5 20.5t-37.5 8.5q-21 0 -35.5 -10.5t-24 -29t-14 -43t-4.5 -52.5q0 -57 18 -89.5t56 -32.5z" />
    <glyph glyph-name="A" unicode="A" horiz-adv-x="676" 
d="M280 680h118q5 -11 18 -44t32 -79.5t41.5 -102.5t46 -114t46 -114t41 -102.5t31.5 -79.5t18 -44h-173l-47 122h-155l-44 117l-90 -239h-161zM253 240h154l-58 153l-19 58l-19 -58z" />
    <glyph glyph-name="B" unicode="B" horiz-adv-x="629" 
d="M66 680h238q141 0 203.5 -43.5t62.5 -128.5q0 -35 -10 -61t-26.5 -44.5t-38.5 -30t-46 -18.5v-1q29 -5 55 -15t45.5 -28.5t31 -47t11.5 -69.5q0 -42 -15 -77.5t-48 -61t-85 -40t-125 -14.5h-253v680zM325 131q60 0 81.5 21t21.5 59q0 37 -21.5 56t-82.5 19h-91v-155h92z
M312 410q54 0 74 18.5t20 54.5q0 35 -21.5 50.5t-72.5 15.5h-79v-139h79z" />
    <glyph glyph-name="C" unicode="C" horiz-adv-x="603" 
d="M368 -16q-77 0 -139 22.5t-105.5 67t-66.5 111.5t-23 156q0 88 26 154.5t71 111t105 67t128 22.5q42 0 74.5 -5t56 -12.5t40 -16.5t27.5 -18v-167q-27 32 -70 53.5t-105 21.5q-88 0 -135 -53t-47 -155q0 -101 46 -158.5t136 -57.5q59 0 103.5 18.5t71.5 49.5v-151
q-27 -26 -77.5 -43.5t-116.5 -17.5z" />
    <glyph glyph-name="D" unicode="D" horiz-adv-x="692" 
d="M66 680h220q88 0 156.5 -18t116 -57.5t72.5 -104t25 -158.5q0 -95 -29 -160t-79 -105.5t-117.5 -58.5t-144.5 -18h-220v680zM286 139q57 0 95 11.5t61 35.5t32.5 61.5t9.5 90.5q0 52 -9.5 90.5t-32.5 63.5t-61 37t-95 12h-53v-402h53z" />
    <glyph glyph-name="E" unicode="E" horiz-adv-x="570" 
d="M66 680h478l-43 -138h-268v-128h195v-131h-195v-145h268l43 -138h-478v680z" />
    <glyph glyph-name="F" unicode="F" horiz-adv-x="540" 
d="M66 680h467l-43 -138h-257v-135h184v-128h-184v-279h-167v680z" />
    <glyph glyph-name="G" unicode="G" horiz-adv-x="656" 
d="M367 -16q-75 0 -136.5 22.5t-105 67t-67.5 111t-24 155.5q0 88 27 155t74.5 111.5t110.5 67t135 22.5q44 0 79.5 -6t63.5 -14.5t48 -19t34 -19.5v-169q-15 16 -35 31t-45.5 27t-56.5 19t-68 7q-96 0 -146 -53.5t-50 -156.5q0 -105 44.5 -164.5t122.5 -59.5q21 0 41.5 2.5
t34.5 8.5v178h158v-259q-36 -26 -95 -45t-144 -19z" />
    <glyph glyph-name="H" unicode="H" horiz-adv-x="715" 
d="M66 680h167v-680h-167v680zM482 277h-166l-82 143h248v260h167v-680h-167v277z" />
    <glyph glyph-name="I" unicode="I" horiz-adv-x="299" 
d="M66 680h167v-680h-167v680z" />
    <glyph glyph-name="J" unicode="J" horiz-adv-x="456" 
d="M153 -16q-51 0 -84.5 11t-49.5 21v159q19 -17 48 -33t66 -16q51 0 72.5 27t21.5 91v436h168v-448q0 -68 -19.5 -115t-52.5 -76.5t-77 -43t-93 -13.5z" />
    <glyph glyph-name="K" unicode="K" horiz-adv-x="666" 
d="M66 680h168v-276l244 276h171l-233 -260l250 -420h-189l-169 296l-74 -82v-214h-168v680z" />
    <glyph glyph-name="L" unicode="L" horiz-adv-x="494" 
d="M66 680h167v-538h210l43 -142h-420v680z" />
    <glyph glyph-name="M" unicode="M" horiz-adv-x="830" 
d="M66 680h148l207 -294l195 294h149v-680h-169v421l-175 -260h-8l-180 260v-421h-167v680z" />
    <glyph glyph-name="N" unicode="N" horiz-adv-x="715" 
d="M66 680h156l275 -393h2v393h150v-680h-134l-297 421h-2v-421h-150v680z" />
    <glyph glyph-name="O" unicode="O" horiz-adv-x="764" 
d="M380 -16q-77 0 -141 22.5t-109.5 67.5t-71 111.5t-25.5 154.5t29 155t77.5 111.5t112 67t132.5 22.5q77 0 141 -22.5t109.5 -67t71 -111.5t25.5 -155q0 -89 -29 -155.5t-77.5 -111t-112 -67t-132.5 -22.5zM382 126q82 0 129.5 55.5t47.5 155.5q0 105 -46.5 161t-130.5 56
q-83 0 -130.5 -55t-47.5 -155q0 -104 47 -161t131 -57z" />
    <glyph glyph-name="P" unicode="P" horiz-adv-x="603" 
d="M66 680h239q77 0 130.5 -15.5t87 -45.5t48.5 -73.5t15 -98.5q0 -58 -15 -106.5t-48 -83.5t-85.5 -54.5t-127.5 -19.5h-77v-183h-167v680zM233 308h70q62 0 86.5 32t24.5 91q0 60 -24 90.5t-88 30.5h-69v-244z" />
    <glyph glyph-name="Q" unicode="Q" horiz-adv-x="766" 
d="M334 -13q-68 6 -123 32t-94.5 70t-61 107t-21.5 144q0 88 29 155t78 111.5t112 67t132 22.5q77 0 141 -22.5t110 -67t71.5 -111.5t25.5 -155q0 -69 -18 -124.5t-49.5 -98t-74.5 -71.5t-92 -44l107 -147h-192zM383 126q83 0 130.5 56t47.5 155q0 105 -47 161t-131 56
q-83 0 -130 -55t-47 -154q0 -105 46.5 -162t130.5 -57z" />
    <glyph glyph-name="R" unicode="R" horiz-adv-x="623" 
d="M300 211h-67v-211h-167v680h251q121 0 190.5 -53t69.5 -172q0 -81 -33.5 -136t-94.5 -83l172 -236h-181zM306 324q55 0 77.5 31t22.5 87q0 54 -22.5 82t-78.5 28h-72v-228h73z" />
    <glyph glyph-name="S" unicode="S" horiz-adv-x="540" 
d="M234 -16q-75 0 -120.5 16t-64.5 30v163q13 -12 31.5 -24.5t42.5 -23t52 -17t60 -6.5q60 0 85.5 19t25.5 56q0 30 -22 45t-73 26l-26 6q-42 9 -76 25t-59 40.5t-38.5 58.5t-13.5 80q0 103 66.5 160.5t189.5 57.5q77 0 123 -16t66 -30v-162q-26 24 -74.5 46.5t-113.5 22.5
q-51 0 -74 -15.5t-23 -49.5q0 -29 18 -45.5t68 -26.5l25 -5q44 -9 80.5 -23.5t62.5 -38t40 -57t14 -80.5q0 -51 -17 -94t-51 -73.5t-85 -47.5t-119 -17z" />
    <glyph glyph-name="T" unicode="T" horiz-adv-x="582" 
d="M208 538h-188v142h560l-43 -142h-162v-538h-167v538z" />
    <glyph glyph-name="U" unicode="U" horiz-adv-x="724" 
d="M355 -16q-69 0 -123.5 17t-92.5 54.5t-58.5 97.5t-20.5 146v381h167v-382q0 -88 32.5 -129t103.5 -41t103.5 41t32.5 129v382h166v-381q0 -83 -23.5 -143t-64.5 -98t-98 -56t-124 -18z" />
    <glyph glyph-name="V" unicode="V" horiz-adv-x="647" 
d="M5 680h177l145 -430h5l146 430h166q-5 -11 -17 -44t-29.5 -79.5t-39 -102.5t-43 -114t-42.5 -114t-38.5 -102.5t-30 -79.5t-16.5 -44h-131z" />
    <glyph glyph-name="W" unicode="W" horiz-adv-x="949" 
d="M9 680h176l108 -430h6l101 331l-31 99h162l132 -430h4l109 430h166l-208 -680h-138l-124 384l-126 -384h-134z" />
    <glyph glyph-name="X" unicode="X" horiz-adv-x="614" 
d="M218 357l-195 323h177l117 -198l105 198h169l-197 -319q4 -7 20.5 -35t39 -65.5l48 -80l48 -80t39 -65.5t20.5 -35h-175l-138 235l-123 -235h-169z" />
    <glyph glyph-name="Y" unicode="Y" horiz-adv-x="626" 
d="M228 276l-228 404h189l131 -257l136 257h169l-228 -404v-276h-169v276z" />
    <glyph glyph-name="Z" unicode="Z" horiz-adv-x="533" 
d="M29 45l266 498h-230l-43 137h479v-46l-265 -497h266v-137h-473v45z" />
    <glyph glyph-name="bracketleft" unicode="[" horiz-adv-x="362" 
d="M61 708h274v-114h-142v-599h142v-114h-274v827z" />
    <glyph glyph-name="backslash" unicode="\" horiz-adv-x="660" 
d="M16 775h125l500 -855h-124z" />
    <glyph glyph-name="bracketright" unicode="]" horiz-adv-x="362" 
d="M27 -5h141v599h-141v114h274v-827h-274v114z" />
    <glyph glyph-name="asciicircum" unicode="^" horiz-adv-x="543" 
d="M259 792h7l226 -321h-157l-78 120l-78 -120h-146z" />
    <glyph glyph-name="underscore" unicode="_" horiz-adv-x="766" 
d="M95 -54h576v-125h-576v125z" />
    <glyph glyph-name="grave" unicode="`" horiz-adv-x="615" 
d="M188 757h153l116 -139h-136z" />
    <glyph glyph-name="a" unicode="a" horiz-adv-x="639" 
d="M256 -16q-48 0 -89 16.5t-71 51.5t-47 89t-17 130t18 132.5t50.5 94t77 56t97.5 18.5q54 0 84.5 -17.5t47.5 -37.5l20 39h124v-403q0 -18 7 -25.5t18 -7.5q14 0 23 4.5t16 11.5v-121q-8 -9 -32 -18t-59 -9q-89 0 -119 67q-14 -29 -51.5 -50t-97.5 -21zM389 408
q-11 14 -31.5 24.5t-52.5 10.5q-27 0 -47 -13.5t-33 -36.5t-19.5 -54.5t-6.5 -67.5q0 -73 24 -114.5t78 -41.5q32 0 54.5 12t33.5 32v249z" />
    <glyph glyph-name="b" unicode="b" horiz-adv-x="619" 
d="M340 -16q-58 0 -89 17.5t-48 37.5l-21 -39h-124v757h164v-246q6 10 18 21t29.5 20t41 14.5t52.5 5.5q51 0 92.5 -15t71 -48.5t45 -86.5t15.5 -129t-19 -134t-52 -97t-78.5 -58.5t-97.5 -19.5zM222 147q17 -20 40 -28t49 -8q29 0 50 13.5t34 37.5t19 55.5t6 67.5
q0 72 -23 113t-82 41q-34 0 -57 -11.5t-36 -31.5v-249z" />
    <glyph glyph-name="c" unicode="c" horiz-adv-x="511" 
d="M307 -16q-62 0 -112.5 17.5t-87 53.5t-56.5 91.5t-20 131.5t22.5 131.5t60.5 91.5t88 53.5t106 17.5q61 0 103 -13.5t61 -28.5v-149q-27 26 -60 39t-80 13q-65 0 -99 -40.5t-34 -114.5q0 -75 34.5 -115t98.5 -40q47 0 81.5 15.5t61.5 40.5v-142q-19 -17 -63 -35t-105 -18
z" />
    <glyph glyph-name="d" unicode="d" horiz-adv-x="619" 
d="M258 -16q-49 0 -90.5 16.5t-71.5 51.5t-46.5 89t-16.5 130t18 132.5t50 94t77.5 56t100.5 18.5q33 0 66 -7.5t52 -27.5v220h163v-757h-144l-12 48q-15 -23 -49.5 -43.5t-96.5 -20.5zM397 408q-15 19 -38.5 27t-51.5 8q-29 0 -49.5 -13.5t-33.5 -36.5t-18.5 -54.5
t-5.5 -67.5q0 -73 22.5 -114.5t81.5 -41.5q35 0 58.5 12t34.5 31v250z" />
    <glyph glyph-name="e" unicode="e" horiz-adv-x="587" 
d="M324 -16q-138 0 -215.5 71.5t-77.5 222.5q0 76 23 131.5t60.5 91.5t86.5 53.5t100 17.5q49 0 95.5 -12t82 -42.5t57 -82.5t21.5 -131v-73h-358q2 -23 11 -43.5t27 -36t45.5 -24.5t66.5 -9q70 0 114 19t67 39v-136q-23 -19 -73 -37.5t-133 -18.5zM402 333v4q0 51 -24 79
t-75 28q-24 0 -43 -9t-31.5 -24.5t-20 -35.5t-8.5 -42h202z" />
    <glyph glyph-name="f" unicode="f" horiz-adv-x="369" 
d="M86 426h-64v56l64 57v71q0 42 15 73t40.5 51t60 30t73.5 10q52 0 81 -10t42 -18v-133q-15 14 -37.5 24.5t-53.5 10.5t-44 -14.5t-13 -41.5v-38h121l-44 -128h-77v-426h-164v426z" />
    <glyph glyph-name="g" unicode="g" horiz-adv-x="616" 
d="M250 -210q-68 0 -116 13.5t-68 26.5v154q26 -23 72 -42t110 -19q72 0 109.5 30.5t37.5 95.5v22q-17 -17 -51.5 -32t-85.5 -15q-49 0 -90.5 16t-71.5 49t-46.5 83.5t-16.5 118.5q0 69 17.5 121.5t50 88t77.5 53.5t99 18q46 0 82 -15t55 -36l18 35h127v-485
q0 -140 -82.5 -210.5t-226.5 -70.5zM395 408q-17 20 -39.5 27.5t-48.5 7.5q-29 0 -49.5 -13t-33 -34.5t-18.5 -49t-6 -55.5q0 -29 5.5 -54t17.5 -43t31.5 -28.5t48.5 -10.5q33 0 56.5 12.5t35.5 31.5v209z" />
    <glyph glyph-name="h" unicode="h" horiz-adv-x="616" 
d="M58 757h164v-243q19 24 55 41t86 17q108 0 153.5 -56.5t45.5 -170.5v-345h-164v316q0 69 -19 97.5t-66 28.5q-37 0 -59 -14t-32 -29v-399h-164v757z" />
    <glyph glyph-name="i" unicode="i" horiz-adv-x="280" 
d="M58 556h164v-556h-164v556zM140 612q-40 0 -62 20t-22 56q0 38 22 58t62 20q39 0 62.5 -20t23.5 -58q0 -36 -23.5 -56t-62.5 -20z" />
    <glyph glyph-name="j" unicode="j" horiz-adv-x="280" 
d="M25 -207q-33 0 -59 7t-37 12v131q14 -11 32 -18t37 -7q29 0 44.5 14.5t15.5 46.5v577h164v-567q0 -94 -51.5 -145t-145.5 -51zM140 612q-40 0 -62 20t-22 56q0 38 22 58t62 20q39 0 62.5 -20t23.5 -58q0 -36 -23.5 -56t-62.5 -20z" />
    <glyph glyph-name="k" unicode="k" horiz-adv-x="602" 
d="M276 230q-13 -11 -22.5 -19t-16.5 -13q-8 -6 -15 -11v-187h-164v757h164v-404q31 26 64 59q28 28 60 64.5t61 79.5h164q-31 -57 -77.5 -112.5t-95.5 -103.5l204 -340h-191z" />
    <glyph glyph-name="l" unicode="l" horiz-adv-x="280" 
d="M58 757h164v-757h-164v757z" />
    <glyph glyph-name="m" unicode="m" horiz-adv-x="918" 
d="M58 556h148l9 -48q18 28 54.5 46t84.5 18q117 0 159 -77q10 14 25.5 28t35.5 25t45.5 17.5t56.5 6.5q102 0 145.5 -56.5t43.5 -170.5v-345h-164v319q0 67 -17 95t-58 28q-30 0 -53 -13.5t-34 -31.5q2 -12 3 -25.5t1 -26.5v-345h-164v319q0 67 -17 95t-58 28
q-31 0 -51.5 -13.5t-30.5 -31.5v-397h-164v556z" />
    <glyph glyph-name="n" unicode="n" horiz-adv-x="616" 
d="M58 556h145l12 -48q18 28 55 46t92 18q108 0 154.5 -56.5t46.5 -170.5v-345h-164v316q0 69 -19 97.5t-66 28.5q-38 0 -60 -14.5t-32 -30.5v-397h-164v556z" />
    <glyph glyph-name="o" unicode="o" horiz-adv-x="621" 
d="M304 -16q-60 0 -110 17t-86.5 53t-56.5 91.5t-20 132.5q0 76 23 131.5t62 91.5t91 53.5t110 17.5q60 0 110 -17.5t86.5 -53.5t56.5 -91.5t20 -131.5q0 -77 -23 -132.5t-62 -91.5t-91 -53t-110 -17zM311 118q59 0 85.5 43.5t26.5 116.5q0 72 -26.5 116t-85.5 44
q-58 0 -85 -44t-27 -116q0 -73 27 -116.5t85 -43.5z" />
    <glyph glyph-name="p" unicode="p" horiz-adv-x="619" 
d="M58 556h145l12 -48q14 23 49 43.5t97 20.5q52 0 94 -15t71 -48.5t45 -86.5t16 -129t-19 -134t-52 -97t-78.5 -58.5t-97.5 -19.5q-33 0 -66 7.5t-52 27.5v-213h-164v750zM311 111q29 0 50 13.5t34 37.5t19 55.5t6 67.5q0 72 -23 113t-82 41q-35 0 -58.5 -12t-34.5 -31
v-250q15 -19 38.5 -27t50.5 -8z" />
    <glyph glyph-name="q" unicode="q" horiz-adv-x="619" 
d="M397 45q-6 -10 -18 -21t-29 -20t-40.5 -14.5t-51.5 -5.5q-50 0 -91 16.5t-71 51.5t-46.5 89t-16.5 130t17.5 132.5t50 94t77.5 56t99 18.5q58 0 90 -17.5t49 -37.5l20 39h124v-750h-163v239zM304 115q34 0 57 12t36 31v250q-17 20 -40 27.5t-49 7.5q-29 0 -49.5 -13.5
t-33.5 -36.5t-19 -54.5t-6 -67.5q0 -73 22.5 -114.5t81.5 -41.5z" />
    <glyph glyph-name="r" unicode="r" horiz-adv-x="383" 
d="M58 556h135l12 -74q6 43 38 66.5t75 23.5q20 0 33 -3.5t19 -7.5v-151q-10 7 -25 11t-37 4q-32 0 -53.5 -12t-32.5 -33v-380h-164v556z" />
    <glyph glyph-name="s" unicode="s" horiz-adv-x="487" 
d="M217 -16q-64 0 -105.5 11.5t-64.5 26.5v146q26 -22 66 -39t97 -17q56 0 76.5 15t20.5 36q0 11 -3 19t-11.5 13.5t-24 9.5t-39.5 8l-29 4q-87 13 -126.5 55t-39.5 117q0 36 13 69t40.5 58.5t70.5 40.5t104 15q63 0 106.5 -11.5t65.5 -28.5v-143q-26 26 -68 40.5t-98 14.5
q-50 0 -68 -13t-18 -34t13 -32.5t56 -19.5l31 -4q46 -7 79.5 -19t55 -32t31.5 -48t10 -67q0 -36 -13 -70t-42 -61t-75 -43.5t-111 -16.5z" />
    <glyph glyph-name="t" unicode="t" horiz-adv-x="408" 
d="M251 -16q-89 0 -127 46.5t-38 129.5v268h-65v59l53 69l99 131h77v-131h152l-44 -128h-108v-252q0 -30 10.5 -45.5t35.5 -15.5q29 0 49.5 13.5t32.5 30.5v-134q-14 -14 -44.5 -27.5t-82.5 -13.5z" />
    <glyph glyph-name="u" unicode="u" horiz-adv-x="608" 
d="M249 -16q-53 0 -90.5 14t-60.5 42.5t-33.5 71t-10.5 99.5v345h164v-317q0 -34 4 -58t13 -39t24.5 -21.5t38.5 -6.5q38 0 58 14.5t31 30.5v397h163v-556h-145l-11 48q-17 -26 -54 -45t-91 -19z" />
    <glyph glyph-name="v" unicode="v" horiz-adv-x="558" 
d="M2 556h177l90 -264l17 -61q4 10 9 30t8 31l93 264h160l-223 -556h-109z" />
    <glyph glyph-name="w" unicode="w" horiz-adv-x="773" 
d="M13 556h162l75 -294l112 294h59l115 -294l72 294h151l-151 -556h-101l-118 303l-119 -303h-100z" />
    <glyph glyph-name="x" unicode="x" horiz-adv-x="579" 
d="M201 292l-178 264h179l98 -150l91 150h164l-181 -258l202 -298h-181l-116 178l-111 -178h-166z" />
    <glyph glyph-name="y" unicode="y" horiz-adv-x="558" 
d="M139 -210q-36 0 -65.5 8t-43.5 19v135q17 -18 41.5 -27.5t53.5 -9.5t53.5 13.5t44.5 59.5l-221 568h179l115 -362l96 362h158l-156 -527q-15 -50 -36.5 -94t-52 -76t-71.5 -50.5t-95 -18.5z" />
    <glyph glyph-name="z" unicode="z" horiz-adv-x="498" 
d="M30 50l234 378h-205l-42 128h450v-50l-224 -378h222v-128h-435v50z" />
    <glyph glyph-name="braceleft" unicode="{" horiz-adv-x="395" 
d="M282 -134q-72 0 -113.5 36t-41.5 110v144q0 38 -20 59.5t-50 25.5l-50 5v99l49 5q31 3 51 24.5t20 61.5v141q0 74 39.5 110t115.5 36q32 0 52.5 -6.5t30.5 -13.5v-113q-9 7 -22.5 12.5t-35.5 5.5q-47 0 -47 -46v-134q0 -38 -10 -62.5t-26.5 -39t-37 -21t-42.5 -8.5v-3
q22 -2 42.5 -8.5t37 -21t26.5 -39t10 -62.5v-136q0 -21 12 -33.5t35 -12.5q22 0 35.5 5.5t22.5 12.5v-113q-10 -7 -30.5 -13.5t-52.5 -6.5z" />
    <glyph glyph-name="bar" unicode="|" horiz-adv-x="253" 
d="M60 753h133v-904h-133v904z" />
    <glyph glyph-name="braceright" unicode="}" horiz-adv-x="395" 
d="M113 -134q-33 0 -53 6.5t-30 13.5v113q9 -7 22 -12.5t36 -5.5t35 12.5t12 33.5v136q0 38 10 62.5t26 39t37 21t42 8.5v3q-21 2 -42 8.5t-37 21t-26 39t-10 62.5v134q0 46 -47 46q-23 0 -36 -5.5t-22 -12.5v113q10 7 30 13.5t53 6.5q76 0 115.5 -36t39.5 -110v-141
q0 -40 20 -61.5t50 -24.5l50 -5v-99l-50 -5q-30 -4 -50 -25.5t-20 -59.5v-144q0 -74 -41.5 -110t-113.5 -36z" />
    <glyph glyph-name="asciitilde" unicode="~" horiz-adv-x="674" 
d="M469 232q-27 0 -49 5.5t-42 15.5t-39.5 25t-40.5 33q-29 24 -48 36t-33 12q-11 0 -19.5 -3.5t-14.5 -15.5t-9 -34.5t-3 -59.5h-129q0 120 37.5 183.5t127.5 63.5q49 0 88.5 -21t81.5 -57q27 -23 47 -36.5t34 -13.5q11 0 20 3.5t15.5 15.5t10 34.5t3.5 59.5h129
q0 -121 -40 -183.5t-127 -62.5z" />
    <glyph glyph-name="exclamdown" unicode="&#xa1;" horiz-adv-x="279" 
d="M139 567q41 0 66.5 -23.5t25.5 -63.5q0 -39 -25.5 -63t-66.5 -24q-42 0 -67.5 24t-25.5 63q0 40 25.5 63.5t67.5 23.5zM229 -129h-180l20 475h140z" />
    <glyph glyph-name="cent" unicode="&#xa2;" horiz-adv-x="540" 
d="M222 45q-86 24 -136 93t-50 189q0 75 22 130.5t61 92t93 54t118 17.5q9 0 18.5 -0.5t17.5 -1.5l22 87h63l-25 -98q40 -10 64 -31v-161q-21 22 -44.5 36t-53.5 21l-75 -297q5 -1 10 -1h10q51 0 87.5 15t68.5 45v-154q-23 -19 -66.5 -34t-98.5 -15q-12 0 -24 0.5t-23 1.5
l-22 -88h-62zM204 326q0 -97 55 -132l72 285q-66 -2 -96.5 -42t-30.5 -111z" />
    <glyph glyph-name="sterling" unicode="&#xa3;" horiz-adv-x="609" 
d="M571 48q-18 -27 -53 -45.5t-96 -18.5q-46 0 -85 14.5t-77 34.5l-30 18q-19 -30 -50.5 -48.5t-82.5 -18.5q-19 0 -37.5 5t-26.5 11v139q13 -13 28 -13q19 0 27 11t11 32l13 112h-76v72h85l9 75q14 119 73.5 180t181.5 61q60 0 98 -18t56 -38v-177q-23 37 -57 61.5
t-85 24.5q-57 0 -78 -25t-26 -72l-9 -72h148v-72h-156l-12 -111q0 -1 -0.5 -1.5t-0.5 -1.5l35 -15q36 -16 69 -21t68 -5q24 0 45.5 7.5t39 20.5t30.5 30t21 36v-172v0z" />
    <glyph glyph-name="currency" unicode="&#xa4;" horiz-adv-x="620" 
d="M459 120q-52 -41 -145 -41q-99 0 -151 45l-71 -79l-54 49l80 90q-14 31 -20.5 69.5t-6.5 86.5q0 96 28 158l-81 91l54 49l72 -80q53 44 150 44q91 0 143 -41l69 77l56 -49l-78 -87q15 -32 22 -72.5t7 -89.5q0 -100 -28 -160l77 -86l-56 -49zM312 200q51 0 71.5 35.5
t20.5 106.5q0 70 -20.5 105.5t-71.5 35.5t-72 -35.5t-21 -105.5q0 -71 21 -106.5t72 -35.5z" />
    <glyph glyph-name="yen" unicode="&#xa5;" horiz-adv-x="649" 
d="M73 361h137l-183 291h177l126 -218l132 218h160l-182 -291h138v-70h-168v-42h168v-70h-168v-179h-169v179h-168v70h168v42h-168v70z" />
    <glyph glyph-name="brokenbar" unicode="&#xa6;" horiz-adv-x="256" 
d="M61 253h134v-404h-134v404zM61 753h134v-404h-134v404z" />
    <glyph glyph-name="section" unicode="&#xa7;" horiz-adv-x="545" 
d="M244 -147q-56 0 -91.5 10.5t-57.5 27.5v143q26 -26 62.5 -39.5t85.5 -13.5q35 0 46 6.5t11 19.5q0 10 -5.5 17.5t-20.5 18.5l-122 80q-39 25 -63.5 47.5t-38.5 44.5t-19 45.5t-5 52.5q0 50 24.5 88.5t75.5 59.5q-18 20 -23.5 42t-5.5 43q0 30 12 57.5t37 48t63.5 32.5
t92.5 12q56 0 91 -10.5t57 -27.5v-143q-26 26 -62.5 39.5t-85.5 13.5q-35 0 -46 -6.5t-11 -18.5q0 -10 4.5 -17t21.5 -19l122 -81q39 -25 63.5 -47t38.5 -44t19.5 -45.5t5.5 -52.5q0 -50 -25 -88.5t-76 -59.5q17 -20 23 -40.5t6 -44.5q0 -30 -12 -57.5t-37 -48.5t-63.5 -33
t-91.5 -12zM346 159q18 8 26.5 24t8.5 34q0 23 -8 40.5t-36 37.5l-116 80l-22 16q-18 -8 -26.5 -24t-8.5 -34q0 -23 7.5 -41t36.5 -37l116 -80q6 -4 12 -8.5z" />
    <glyph glyph-name="dieresis" unicode="&#xa8;" horiz-adv-x="616" 
d="M200 619q-34 0 -54 17.5t-20 49.5t20 50t54 18t53.5 -18t19.5 -50t-19.5 -49.5t-53.5 -17.5zM415 619q-32 0 -52 17.5t-20 49.5t20 50t52 18q35 0 55 -18t20 -50t-20 -49.5t-55 -17.5z" />
    <glyph glyph-name="copyright" unicode="&#xa9;" horiz-adv-x="926" 
d="M480 96q-53 0 -98.5 14.5t-79.5 45.5t-53 79.5t-19 116.5q0 66 22.5 114t58 79t80 46t89.5 15q56 0 92.5 -12.5t56.5 -28.5v-128q-20 32 -58 48.5t-86 16.5q-62 0 -94 -38t-32 -109q0 -72 32 -113t94 -41q46 0 85 14.5t59 44.5v-121q-20 -18 -60.5 -30.5t-88.5 -12.5z
M465 -74q-92 0 -171.5 28.5t-138 83.5t-92 133.5t-33.5 179.5q0 99 33.5 177.5t92 133t138 83t171.5 28.5q93 0 172.5 -28.5t138 -83t92 -133t33.5 -177.5q0 -101 -33.5 -179.5t-92 -133.5t-138 -83.5t-172.5 -28.5zM466 14q73 0 133.5 22t104.5 65t68.5 106t24.5 144
t-24.5 143.5t-68.5 105t-104.5 64t-133.5 21.5q-72 0 -132.5 -21.5t-104.5 -64t-68.5 -105t-24.5 -143.5t24.5 -144t68.5 -106t104.5 -65t132.5 -22z" />
    <glyph glyph-name="ordfeminine" unicode="&#xaa;" horiz-adv-x="497" 
d="M195 332q-66 0 -109 30t-43 92q0 63 48 93t143 44l67 9q-1 43 -23 59t-67 16q-49 0 -90 -20t-58 -49v120q18 16 59 32t111 16q98 0 150 -43t52 -137v-250h-116l-11 35q-10 -17 -37 -32t-76 -15zM301 525l-51 -12q-45 -9 -63 -21t-18 -33q0 -22 15 -32t40 -10q26 0 47 9
t30 21v78zM70 278h372v-109h-372v109z" />
    <glyph glyph-name="guillemotleft" unicode="&#xab;" horiz-adv-x="612" 
d="M198 0q-32 63 -74.5 125.5t-99.5 125.5q57 63 99.5 120t74.5 120h146q-72 -127 -168 -240q48 -57 90 -122t78 -129h-146zM429 0q-32 63 -74 125.5t-99 125.5q56 62 98.5 119.5t74.5 120.5h146q-36 -64 -77.5 -124t-89.5 -116q48 -57 89.5 -122t77.5 -129h-146z" />
    <glyph glyph-name="logicalnot" unicode="&#xac;" horiz-adv-x="599" 
d="M393 289h-345v141h491v-302h-146v161z" />
    <glyph glyph-name="registered" unicode="&#xae;" horiz-adv-x="580" 
d="M290 282q-54 0 -100.5 16.5t-80 48t-53 77t-19.5 104.5q0 58 19.5 103.5t53 77t80 48t100.5 16.5t100.5 -16.5t80.5 -48t53.5 -77t19.5 -103.5q0 -59 -19.5 -104.5t-53.5 -77t-80.5 -48t-100.5 -16.5zM291 352q82 0 129 49h-82l-48 71h-27v-71h-81v261h105
q57 0 89.5 -21.5t32.5 -66.5q0 -35 -15.5 -52t-35.5 -27l69 -86q18 22 28 51.5t10 67.5q0 43 -13 76.5t-36 55.5t-55 33.5t-70 11.5q-39 0 -71.5 -11.5t-56 -33.5t-36.5 -55.5t-13 -76.5t13 -75.5t36.5 -55t56 -34t71.5 -11.5zM293 534q18 0 26 9.5t8 25.5q0 32 -34 32h-30
v-67h30z" />
    <glyph glyph-name="macron" unicode="&#xaf;" horiz-adv-x="600" 
d="M131 730h337v-86h-337v86z" />
    <glyph glyph-name="degree" unicode="&#xb0;" horiz-adv-x="470" 
d="M233 341q-47 0 -83.5 14t-62 38.5t-39 59t-13.5 75.5q0 39 13.5 72.5t39.5 58.5t63.5 39t85.5 14q47 0 84 -13.5t62.5 -38t39 -58.5t13.5 -74t-14 -74t-40 -59t-63.5 -39.5t-85.5 -14.5zM236 442q35 0 56.5 24t21.5 62t-21.5 61t-56.5 23t-56.5 -23.5t-21.5 -60.5
q0 -42 21.5 -64t56.5 -22z" />
    <glyph glyph-name="plusminus" unicode="&#xb1;" horiz-adv-x="578" 
d="M216 403h-165v138h165v166h145v-166h167v-138h-167v-165h-145v165zM50 138h478v-138h-478v138z" />
    <glyph glyph-name="twosuperior" unicode="&#xb2;" horiz-adv-x="400" 
d="M33 380l140 134q23 22 40.5 46t17.5 50q0 28 -18 42t-60 14q-38 0 -72.5 -14.5t-54.5 -31.5v105q17 14 54 28t99 14q92 0 135 -35t43 -100q0 -27 -9 -49.5t-24 -42.5t-33.5 -36.5t-36.5 -31.5l-38 -32h160v-102h-343v42z" />
    <glyph glyph-name="threesuperior" unicode="&#xb3;" horiz-adv-x="401" 
d="M157 328q-48 0 -78 7.5t-44 15.5v107q16 -12 42.5 -21.5t64.5 -9.5q56 0 76.5 12.5t20.5 34.5q0 20 -17 30.5t-64 10.5h-41v30l91 112h-160l-29 100h344v-32l-104 -128q22 -3 43 -10.5t37.5 -21t26 -34.5t9.5 -51q0 -31 -12.5 -58.5t-39.5 -48.5t-68 -33t-98 -12z" />
    <glyph glyph-name="acute" unicode="&#xb4;" horiz-adv-x="613" 
d="M273 757h152l-135 -139h-134z" />
    <glyph glyph-name="mu" unicode="&#xb5;" horiz-adv-x="601" 
d="M59 556h163v-319q1 -67 17.5 -95t63.5 -28q37 0 57.5 14.5t30.5 30.5v397h164v-556h-148l-10 48q-13 -26 -40.5 -43t-72.5 -17q-20 0 -36.5 5t-25.5 13v-200h-163v750z" />
    <glyph glyph-name="mu" unicode="&#x3bc;" horiz-adv-x="601" 
d="M59 556h163v-319q1 -67 17.5 -95t63.5 -28q37 0 57.5 14.5t30.5 30.5v397h164v-556h-148l-10 48q-13 -26 -40.5 -43t-72.5 -17q-20 0 -36.5 5t-25.5 13v-200h-163v750z" />
    <glyph glyph-name="paragraph" unicode="&#xb6;" horiz-adv-x="602" 
d="M224 402q-4 -2 -10 -3q-11 -3 -30 -3q-38 0 -67.5 11.5t-50 32t-31 47.5t-10.5 57t10.5 57.5t31 48t50 32.5t67.5 12h345v-708l-104 -42v648h-98v-687l-103 -42v539z" />
    <glyph glyph-name="glyph119" unicode="&#xb7;" horiz-adv-x="279" 
d="M140 250q-43 0 -70.5 28t-27.5 71t27.5 72t70.5 29q42 0 70 -29t28 -72t-28 -71t-70 -28z" />
    <glyph glyph-name="cedilla" unicode="&#xb8;" horiz-adv-x="576" 
d="M265 -272q-39 0 -63.5 7.5t-37.5 15.5v87q36 -31 102 -31q34 0 46.5 10.5t12.5 28.5q0 17 -11.5 25.5t-38.5 8.5q-21 0 -44.5 -5.5t-37.5 -12.5l41 138h72l-20 -59q5 2 13.5 3t17.5 1q51 0 79 -24t28 -70q0 -60 -44 -91.5t-115 -31.5z" />
    <glyph glyph-name="onesuperior" unicode="&#xb9;" horiz-adv-x="374" 
d="M152 338v285l-118 -59v105l174 88h71v-419h-127z" />
    <glyph glyph-name="ordmasculine" unicode="&#xba;" horiz-adv-x="542" 
d="M265 332q-50 0 -91 13t-70.5 40.5t-46 69t-16.5 98.5q0 56 19 97.5t51 69t74.5 41t89.5 13.5q50 0 91.5 -13.5t71 -41t46 -69t16.5 -97.5q0 -57 -19 -98.5t-51 -69t-74.5 -40.5t-90.5 -13zM270 436q51 0 72 30.5t21 86.5q0 55 -21 86t-72 31q-50 0 -70.5 -31t-20.5 -86
q0 -56 20.5 -86.5t70.5 -30.5zM86 278h374v-109h-374v109z" />
    <glyph glyph-name="guillemotright" unicode="&#xbb;" horiz-adv-x="612" 
d="M37 0q35 64 77 129t90 122q-48 56 -90 116t-77 124h145q33 -63 75.5 -120.5t98.5 -119.5q-57 -63 -99 -125.5t-75 -125.5h-145zM268 0q36 64 77.5 129t89.5 122q-48 56 -89.5 116t-77.5 124h146q32 -63 74.5 -120.5t98.5 -119.5q-57 -63 -99 -125.5t-74 -125.5h-146z" />
    <glyph glyph-name="onequarter" unicode="&#xbc;" horiz-adv-x="911" 
d="M718 77h-232v31l128 311h121l-95 -245h84l14 137h102v-137h64l-29 -97h-35v-77h-122v77zM158 261v285l-118 -59v105l174 88h71v-419h-127zM631 680h76l-435 -680h-76z" />
    <glyph glyph-name="onehalf" unicode="&#xbd;" horiz-adv-x="927" 
d="M555 42l139 134q23 22 40.5 46t17.5 50q0 28 -18 42t-60 14q-38 0 -72.5 -14.5t-54.5 -31.5v105q17 14 54.5 28t98.5 14q92 0 135.5 -35t43.5 -99q0 -27 -9.5 -50t-24.5 -43t-33.5 -36.5t-36.5 -31.5l-38 -32h160v-102h-342v42zM158 261v285l-118 -59v105l174 88h71v-419
h-127zM622 680h76l-435 -680h-76z" />
    <glyph glyph-name="threequarters" unicode="&#xbe;" horiz-adv-x="924" 
d="M731 77h-232v31l128 311h121l-95 -245h84l14 137h102v-137h64l-29 -97h-35v-77h-122v77zM172 251q-48 0 -77.5 7.5t-43.5 15.5v107q15 -12 42 -21.5t65 -9.5q56 0 76.5 12.5t20.5 34.5q0 20 -17 30.5t-65 10.5h-41v30l92 112h-160l-29 100h343v-32l-104 -128
q22 -3 43.5 -10.5t37.5 -21t26 -34t10 -50.5q0 -31 -12.5 -59t-39.5 -49t-68.5 -33t-98.5 -12zM647 680h76l-435 -680h-76z" />
    <glyph glyph-name="questiondown" unicode="&#xbf;" horiz-adv-x="471" 
d="M335 338q0 -32 -4.5 -57.5t-14.5 -47t-24.5 -40.5t-33.5 -38q-27 -26 -42.5 -46t-15.5 -47q0 -12 4 -23.5t14 -20.5t26.5 -14.5t41.5 -5.5q23 0 46 6t43.5 16t37 23t26.5 28v-158q-23 -23 -73 -40.5t-121 -17.5q-103 0 -160.5 43.5t-57.5 131.5q0 33 9 60t24 49.5
t34.5 42.5t40.5 41q28 28 36.5 53.5t8.5 60.5v9h155v-8zM257 567q42 0 67.5 -23.5t25.5 -63.5q0 -39 -25 -63t-67 -24q-41 0 -67 24t-26 63q0 40 25.5 63.5t66.5 23.5z" />
    <glyph glyph-name="Agrave" unicode="&#xc0;" horiz-adv-x="676" 
d="M268 680h118q5 -11 18 -44t32 -79.5t41.5 -102.5t46 -114t46 -114t41 -102.5t31.5 -79.5t18 -44h-173l-47 122h-155l-44 117l-90 -239h-161zM144 875h153l116 -139h-136zM241 240h154l-58 153l-19 58l-19 -58z" />
    <glyph glyph-name="Aacute" unicode="&#xc1;" horiz-adv-x="676" 
d="M268 680h118q5 -11 18 -44t32 -79.5t41.5 -102.5t46 -114t46 -114t41 -102.5t31.5 -79.5t18 -44h-173l-47 122h-155l-44 117l-90 -239h-161zM241 240h154l-58 153l-19 58l-19 -58zM369 875h152l-135 -139h-134z" />
    <glyph glyph-name="Acircumflex" unicode="&#xc2;" horiz-adv-x="676" 
d="M268 680h118q5 -11 18 -44t32 -79.5t41.5 -102.5t46 -114t46 -114t41 -102.5t31.5 -79.5t18 -44h-173l-47 122h-155l-44 117l-90 -239h-161zM241 240h154l-58 153l-19 58l-19 -58zM280 875h106l128 -136h-125l-55 52l-57 -52h-125z" />
    <glyph glyph-name="Atilde" unicode="&#xc3;" horiz-adv-x="676" 
d="M268 680h118q5 -11 18 -44t32 -79.5t41.5 -102.5t46 -114t46 -114t41 -102.5t31.5 -79.5t18 -44h-173l-47 122h-155l-44 117l-90 -239h-161zM241 240h154l-58 153l-19 58l-19 -58zM148 749q0 63 32 94.5t85 31.5q31 0 52 -9.5t38 -20.5q13 -8 23.5 -13t21.5 -5
q16 0 22.5 10t6.5 36h91q0 -63 -33 -94.5t-84 -31.5q-29 0 -51 8.5t-38 18.5q-13 8 -24.5 14.5t-21.5 6.5q-16 0 -22.5 -10t-6.5 -36h-91z" />
    <glyph glyph-name="Adieresis" unicode="&#xc4;" horiz-adv-x="676" 
d="M268 680h118q5 -11 18 -44t32 -79.5t41.5 -102.5t46 -114t46 -114t41 -102.5t31.5 -79.5t18 -44h-173l-47 122h-155l-44 117l-90 -239h-161zM241 240h154l-58 153l-19 58l-19 -58zM225 737q-34 0 -54 17.5t-20 49.5t20 50t54 18t53.5 -18t19.5 -50t-19.5 -49.5
t-53.5 -17.5zM440 737q-32 0 -52 17.5t-20 49.5t20 50t52 18q35 0 55 -18t20 -50t-20 -49.5t-55 -17.5z" />
    <glyph glyph-name="Aring" unicode="&#xc5;" horiz-adv-x="676" 
d="M268 680h118q5 -11 18 -44t32 -79.5t41.5 -102.5t46 -114t46 -114t41 -102.5t31.5 -79.5t18 -44h-173l-47 122h-155l-44 117l-90 -239h-161zM333 729q-63 0 -98.5 31t-35.5 82t35.5 82t98.5 31t98.5 -31t35.5 -82t-35.5 -82t-98.5 -31zM241 240h154l-58 153l-19 58
l-19 -58zM333 802q27 0 37.5 12t10.5 28q0 17 -10.5 29t-37.5 12t-37 -12t-10 -29q0 -16 10 -28t37 -12z" />
    <glyph glyph-name="AE" unicode="&#xc6;" horiz-adv-x="867" 
d="M323 680h523l-43 -138h-319l40 -128h201v-131h-155l45 -145h188l43 -138h-353l-37 122h-145l-45 117l-109 -239h-161zM267 240h152l-45 153l-17 61l-20 -61z" />
    <glyph glyph-name="Ccedilla" unicode="&#xc7;" horiz-adv-x="605" 
d="M323 -272q-39 0 -63.5 7.5t-37.5 15.5v87q36 -31 102 -31q34 0 46.5 10.5t12.5 28.5q0 17 -11.5 25.5t-38.5 8.5q-21 0 -44.5 -5.5t-37.5 -12.5l38 129q-120 20 -187 107.5t-67 242.5q0 88 26 154.5t71 111t105 67t128 22.5q42 0 74.5 -5t56 -12.5t40 -16.5t27.5 -18
v-167q-27 32 -70 53.5t-105 21.5q-88 0 -135 -53t-47 -155q0 -101 46 -158.5t136 -57.5q59 0 103.5 18.5t71.5 49.5v-151q-27 -26 -77.5 -43.5t-116.5 -17.5h-11l-14 -43q5 2 13.5 3t17.5 1q51 0 79 -24t28 -70q0 -60 -44 -91.5t-115 -31.5z" />
    <glyph glyph-name="Egrave" unicode="&#xc8;" horiz-adv-x="570" 
d="M66 680h478l-43 -138h-268v-128h195v-131h-195v-145h268l43 -138h-478v680zM119 875h153l116 -139h-136z" />
    <glyph glyph-name="Eacute" unicode="&#xc9;" horiz-adv-x="570" 
d="M344 875h152l-135 -139h-134zM66 680h478l-43 -138h-268v-128h195v-131h-195v-145h268l43 -138h-478v680z" />
    <glyph glyph-name="Ecircumflex" unicode="&#xca;" horiz-adv-x="570" 
d="M255 875h106l128 -136h-125l-55 52l-57 -52h-125zM66 680h478l-43 -138h-268v-128h195v-131h-195v-145h268l43 -138h-478v680z" />
    <glyph glyph-name="Edieresis" unicode="&#xcb;" horiz-adv-x="570" 
d="M200 737q-34 0 -54 17.5t-20 49.5t20 50t54 18t53.5 -18t19.5 -50t-19.5 -49.5t-53.5 -17.5zM415 737q-32 0 -52 17.5t-20 49.5t20 50t52 18q35 0 55 -18t20 -50t-20 -49.5t-55 -17.5zM66 680h478l-43 -138h-268v-128h195v-131h-195v-145h268l43 -138h-478v680z" />
    <glyph glyph-name="Igrave" unicode="&#xcc;" horiz-adv-x="299" 
d="M66 680h167v-680h-167v680zM-42 875h153l116 -139h-136z" />
    <glyph glyph-name="Iacute" unicode="&#xcd;" horiz-adv-x="299" 
d="M66 680h167v-680h-167v680zM184 875h152l-135 -139h-134z" />
    <glyph glyph-name="Icircumflex" unicode="&#xce;" horiz-adv-x="299" 
d="M66 680h167v-680h-167v680zM95 875h106l128 -136h-125l-55 52l-57 -52h-125z" />
    <glyph glyph-name="Idieresis" unicode="&#xcf;" horiz-adv-x="299" 
d="M66 680h167v-680h-167v680zM40 737q-34 0 -54 17.5t-20 49.5t20 50t54 18t53.5 -18t19.5 -50t-19.5 -49.5t-53.5 -17.5zM255 737q-32 0 -52 17.5t-20 49.5t20 50t52 18q35 0 55 -18t20 -50t-20 -49.5t-55 -17.5z" />
    <glyph glyph-name="Eth" unicode="&#xd0;" horiz-adv-x="694" 
d="M8 379h60v301h220q88 0 156.5 -18t116 -57.5t72.5 -104t25 -158.5q0 -95 -29 -160t-79 -105.5t-117.5 -58.5t-144.5 -18h-220v300h-60v79zM288 139q57 0 95 11.5t61 35.5t32.5 61.5t9.5 90.5q0 52 -9.5 90.5t-32.5 63.5t-61 37t-95 12h-53v-162h124v-79h-124v-161h53z
" />
    <glyph glyph-name="Ntilde" unicode="&#xd1;" horiz-adv-x="715" 
d="M66 680h156l275 -393h2v393h150v-680h-134l-297 421h-2v-421h-150v680zM171 759q0 63 32 94.5t85 31.5q31 0 52 -9.5t38 -20.5q13 -8 23.5 -13t21.5 -5q16 0 22.5 10t6.5 36h91q0 -63 -33 -94.5t-84 -31.5q-29 0 -51 8.5t-38 18.5q-13 8 -24.5 14.5t-21.5 6.5
q-16 0 -22.5 -10t-6.5 -36h-91z" />
    <glyph glyph-name="Ograve" unicode="&#xd2;" horiz-adv-x="764" 
d="M380 -16q-77 0 -141 22.5t-109.5 67.5t-71 111.5t-25.5 154.5t29 155t77.5 111.5t112 67t132.5 22.5q77 0 141 -22.5t109.5 -67t71 -111.5t25.5 -155q0 -89 -29 -155.5t-77.5 -111t-112 -67t-132.5 -22.5zM382 126q82 0 129.5 55.5t47.5 155.5q0 105 -46.5 161t-130.5 56
q-83 0 -130.5 -55t-47.5 -155q0 -104 47 -161t131 -57zM193 875h153l116 -139h-136z" />
    <glyph glyph-name="Oacute" unicode="&#xd3;" horiz-adv-x="764" 
d="M418 875h152l-135 -139h-134zM380 -16q-77 0 -141 22.5t-109.5 67.5t-71 111.5t-25.5 154.5t29 155t77.5 111.5t112 67t132.5 22.5q77 0 141 -22.5t109.5 -67t71 -111.5t25.5 -155q0 -89 -29 -155.5t-77.5 -111t-112 -67t-132.5 -22.5zM382 126q82 0 129.5 55.5
t47.5 155.5q0 105 -46.5 161t-130.5 56q-83 0 -130.5 -55t-47.5 -155q0 -104 47 -161t131 -57z" />
    <glyph glyph-name="Ocircumflex" unicode="&#xd4;" horiz-adv-x="764" 
d="M329 875h106l128 -136h-125l-55 52l-57 -52h-125zM380 -16q-77 0 -141 22.5t-109.5 67.5t-71 111.5t-25.5 154.5t29 155t77.5 111.5t112 67t132.5 22.5q77 0 141 -22.5t109.5 -67t71 -111.5t25.5 -155q0 -89 -29 -155.5t-77.5 -111t-112 -67t-132.5 -22.5zM382 126
q82 0 129.5 55.5t47.5 155.5q0 105 -46.5 161t-130.5 56q-83 0 -130.5 -55t-47.5 -155q0 -104 47 -161t131 -57z" />
    <glyph glyph-name="Otilde" unicode="&#xd5;" horiz-adv-x="764" 
d="M380 -16q-77 0 -141 22.5t-109.5 67.5t-71 111.5t-25.5 154.5t29 155t77.5 111.5t112 67t132.5 22.5q77 0 141 -22.5t109.5 -67t71 -111.5t25.5 -155q0 -89 -29 -155.5t-77.5 -111t-112 -67t-132.5 -22.5zM382 126q82 0 129.5 55.5t47.5 155.5q0 105 -46.5 161t-130.5 56
q-83 0 -130.5 -55t-47.5 -155q0 -104 47 -161t131 -57zM197 749q0 63 32 94.5t85 31.5q31 0 52 -9.5t38 -20.5q13 -8 23.5 -13t21.5 -5q16 0 22.5 10t6.5 36h91q0 -63 -33 -94.5t-84 -31.5q-29 0 -51 8.5t-38 18.5q-13 8 -24.5 14.5t-21.5 6.5q-16 0 -22.5 -10t-6.5 -36h-91
z" />
    <glyph glyph-name="Odieresis" unicode="&#xd6;" horiz-adv-x="764" 
d="M274 737q-34 0 -54 17.5t-20 49.5t20 50t54 18t53.5 -18t19.5 -50t-19.5 -49.5t-53.5 -17.5zM489 737q-32 0 -52 17.5t-20 49.5t20 50t52 18q35 0 55 -18t20 -50t-20 -49.5t-55 -17.5zM380 -16q-77 0 -141 22.5t-109.5 67.5t-71 111.5t-25.5 154.5t29 155t77.5 111.5
t112 67t132.5 22.5q77 0 141 -22.5t109.5 -67t71 -111.5t25.5 -155q0 -89 -29 -155.5t-77.5 -111t-112 -67t-132.5 -22.5zM382 126q82 0 129.5 55.5t47.5 155.5q0 105 -46.5 161t-130.5 56q-83 0 -130.5 -55t-47.5 -155q0 -104 47 -161t131 -57z" />
    <glyph glyph-name="multiply" unicode="&#xd7;" horiz-adv-x="525" 
d="M262 266l-117 -115l-102 98l117 115l-119 117l103 98l118 -117l119 116l102 -98l-118 -116l119 -115l-102 -100z" />
    <glyph glyph-name="Oslash" unicode="&#xd8;" horiz-adv-x="765" 
d="M381 -16q-134 0 -222 65l-46 -49h-95l91 97q-36 45 -55.5 105t-19.5 138q0 88 29 155t77.5 111.5t112 67t132.5 22.5q133 0 221 -65l47 50h92l-90 -97q37 -44 57 -105t20 -139q0 -89 -29 -155.5t-77.5 -111t-112 -67t-132.5 -22.5zM383 126q82 0 129.5 55.5t47.5 155.5
q0 71 -23 120l-269 -290q44 -41 115 -41zM205 344q0 -68 22 -120l270 290q-45 40 -114 40q-83 0 -130.5 -55t-47.5 -155z" />
    <glyph glyph-name="Ugrave" unicode="&#xd9;" horiz-adv-x="725" 
d="M355 -16q-69 0 -123.5 17t-92.5 54.5t-58.5 97.5t-20.5 146v381h167v-382q0 -88 32.5 -129t103.5 -41t103.5 41t32.5 129v382h166v-381q0 -83 -23.5 -143t-64.5 -98t-98 -56t-124 -18zM174 875h153l116 -139h-136z" />
    <glyph glyph-name="Uacute" unicode="&#xda;" horiz-adv-x="725" 
d="M400 875h152l-135 -139h-134zM355 -16q-69 0 -123.5 17t-92.5 54.5t-58.5 97.5t-20.5 146v381h167v-382q0 -88 32.5 -129t103.5 -41t103.5 41t32.5 129v382h166v-381q0 -83 -23.5 -143t-64.5 -98t-98 -56t-124 -18z" />
    <glyph glyph-name="Ucircumflex" unicode="&#xdb;" horiz-adv-x="725" 
d="M311 875h106l128 -136h-125l-55 52l-57 -52h-125zM355 -16q-69 0 -123.5 17t-92.5 54.5t-58.5 97.5t-20.5 146v381h167v-382q0 -88 32.5 -129t103.5 -41t103.5 41t32.5 129v382h166v-381q0 -83 -23.5 -143t-64.5 -98t-98 -56t-124 -18z" />
    <glyph glyph-name="Udieresis" unicode="&#xdc;" horiz-adv-x="725" 
d="M255 737q-34 0 -54 17.5t-20 49.5t20 50t54 18t53.5 -18t19.5 -50t-19.5 -49.5t-53.5 -17.5zM470 737q-32 0 -52 17.5t-20 49.5t20 50t52 18q35 0 55 -18t20 -50t-20 -49.5t-55 -17.5zM355 -16q-69 0 -123.5 17t-92.5 54.5t-58.5 97.5t-20.5 146v381h167v-382
q0 -88 32.5 -129t103.5 -41t103.5 41t32.5 129v382h166v-381q0 -83 -23.5 -143t-64.5 -98t-98 -56t-124 -18z" />
    <glyph glyph-name="Yacute" unicode="&#xdd;" horiz-adv-x="626" 
d="M228 276l-228 404h189l131 -257l136 257h169l-228 -404v-276h-169v276zM350 875h152l-135 -139h-134z" />
    <glyph glyph-name="Thorn" unicode="&#xde;" horiz-adv-x="602" 
d="M66 680h167v-87h72q77 0 130.5 -16t87 -46t48.5 -73.5t15 -98.5q0 -58 -15 -106t-48 -83t-85.5 -54.5t-127.5 -19.5h-77v-96h-167v680zM233 221h70q62 0 86.5 32t24.5 91q0 60 -24 90.5t-88 30.5h-69v-244z" />
    <glyph glyph-name="germandbls" unicode="&#xdf;" horiz-adv-x="629" 
d="M368 -16q-33 0 -63 8t-41 16v137q12 -13 31 -22.5t45 -9.5q40 0 65.5 24.5t25.5 72.5q0 104 -154 104v132q57 1 89 29.5t32 79.5q0 47 -24.5 69t-62.5 22q-40 0 -64.5 -22.5t-24.5 -71.5v-552h-164v562q0 52 19 92t53.5 67t81.5 40.5t103 13.5q123 0 187 -51.5t64 -143.5
q0 -40 -11.5 -70.5t-31 -53t-45 -37t-54.5 -21.5v-2q34 -5 65.5 -18.5t56 -36.5t39 -56.5t14.5 -77.5q0 -104 -61 -163.5t-170 -59.5z" />
    <glyph glyph-name="agrave" unicode="&#xe0;" horiz-adv-x="639" 
d="M256 -16q-48 0 -89 16.5t-71 51.5t-47 89t-17 130t18 132.5t50.5 94t77 56t97.5 18.5q54 0 84.5 -17.5t47.5 -37.5l20 39h124v-403q0 -18 7 -25.5t18 -7.5q14 0 23 4.5t16 11.5v-121q-8 -9 -32 -18t-59 -9q-89 0 -119 67q-14 -29 -51.5 -50t-97.5 -21zM389 408
q-11 14 -31.5 24.5t-52.5 10.5q-27 0 -47 -13.5t-33 -36.5t-19.5 -54.5t-6.5 -67.5q0 -73 24 -114.5t78 -41.5q32 0 54.5 12t33.5 32v249zM129 757h153l116 -139h-136z" />
    <glyph glyph-name="aacute" unicode="&#xe1;" horiz-adv-x="639" 
d="M256 -16q-48 0 -89 16.5t-71 51.5t-47 89t-17 130t18 132.5t50.5 94t77 56t97.5 18.5q54 0 84.5 -17.5t47.5 -37.5l20 39h124v-403q0 -18 7 -25.5t18 -7.5q14 0 23 4.5t16 11.5v-121q-8 -9 -32 -18t-59 -9q-89 0 -119 67q-14 -29 -51.5 -50t-97.5 -21zM389 408
q-11 14 -31.5 24.5t-52.5 10.5q-27 0 -47 -13.5t-33 -36.5t-19.5 -54.5t-6.5 -67.5q0 -73 24 -114.5t78 -41.5q32 0 54.5 12t33.5 32v249zM355 757h152l-135 -139h-134z" />
    <glyph glyph-name="acircumflex" unicode="&#xe2;" horiz-adv-x="639" 
d="M256 -16q-48 0 -89 16.5t-71 51.5t-47 89t-17 130t18 132.5t50.5 94t77 56t97.5 18.5q54 0 84.5 -17.5t47.5 -37.5l20 39h124v-403q0 -18 7 -25.5t18 -7.5q14 0 23 4.5t16 11.5v-121q-8 -9 -32 -18t-59 -9q-89 0 -119 67q-14 -29 -51.5 -50t-97.5 -21zM389 408
q-11 14 -31.5 24.5t-52.5 10.5q-27 0 -47 -13.5t-33 -36.5t-19.5 -54.5t-6.5 -67.5q0 -73 24 -114.5t78 -41.5q32 0 54.5 12t33.5 32v249zM266 757h106l128 -136h-125l-55 52l-57 -52h-125z" />
    <glyph glyph-name="atilde" unicode="&#xe3;" horiz-adv-x="639" 
d="M256 -16q-48 0 -89 16.5t-71 51.5t-47 89t-17 130t18 132.5t50.5 94t77 56t97.5 18.5q54 0 84.5 -17.5t47.5 -37.5l20 39h124v-403q0 -18 7 -25.5t18 -7.5q14 0 23 4.5t16 11.5v-121q-8 -9 -32 -18t-59 -9q-89 0 -119 67q-14 -29 -51.5 -50t-97.5 -21zM389 408
q-11 14 -31.5 24.5t-52.5 10.5q-27 0 -47 -13.5t-33 -36.5t-19.5 -54.5t-6.5 -67.5q0 -73 24 -114.5t78 -41.5q32 0 54.5 12t33.5 32v249zM134 631q0 63 32 94.5t85 31.5q31 0 52 -9.5t38 -20.5q13 -8 23.5 -13t21.5 -5q16 0 22.5 10t6.5 36h91q0 -63 -33 -94.5t-84 -31.5
q-29 0 -51 8.5t-38 18.5q-13 8 -24.5 14.5t-21.5 6.5q-16 0 -22.5 -10t-6.5 -36h-91z" />
    <glyph glyph-name="adieresis" unicode="&#xe4;" horiz-adv-x="639" 
d="M256 -16q-48 0 -89 16.5t-71 51.5t-47 89t-17 130t18 132.5t50.5 94t77 56t97.5 18.5q54 0 84.5 -17.5t47.5 -37.5l20 39h124v-403q0 -18 7 -25.5t18 -7.5q14 0 23 4.5t16 11.5v-121q-8 -9 -32 -18t-59 -9q-89 0 -119 67q-14 -29 -51.5 -50t-97.5 -21zM389 408
q-11 14 -31.5 24.5t-52.5 10.5q-27 0 -47 -13.5t-33 -36.5t-19.5 -54.5t-6.5 -67.5q0 -73 24 -114.5t78 -41.5q32 0 54.5 12t33.5 32v249zM210 619q-34 0 -54 17.5t-20 49.5t20 50t54 18t53.5 -18t19.5 -50t-19.5 -49.5t-53.5 -17.5zM425 619q-32 0 -52 17.5t-20 49.5t20 50
t52 18q35 0 55 -18t20 -50t-20 -49.5t-55 -17.5z" />
    <glyph glyph-name="aring" unicode="&#xe5;" horiz-adv-x="639" 
d="M256 -16q-48 0 -89 16.5t-71 51.5t-47 89t-17 130t18 132.5t50.5 94t77 56t97.5 18.5q54 0 84.5 -17.5t47.5 -37.5l20 39h124v-403q0 -18 7 -25.5t18 -7.5q14 0 23 4.5t16 11.5v-121q-8 -9 -32 -18t-59 -9q-89 0 -119 67q-14 -29 -51.5 -50t-97.5 -21zM389 408
q-11 14 -31.5 24.5t-52.5 10.5q-27 0 -47 -13.5t-33 -36.5t-19.5 -54.5t-6.5 -67.5q0 -73 24 -114.5t78 -41.5q32 0 54.5 12t33.5 32v249zM319 611q-63 0 -98.5 31t-35.5 82t35.5 82t98.5 31t98.5 -31t35.5 -82t-35.5 -82t-98.5 -31zM319 684q27 0 37.5 12t10.5 28
q0 17 -10.5 29t-37.5 12t-37 -12t-10 -29q0 -16 10 -28t37 -12z" />
    <glyph glyph-name="ae" unicode="&#xe6;" horiz-adv-x="893" 
d="M221 -16q-42 0 -76.5 10t-60 30t-39.5 51t-14 72q0 84 58 124t174 58l81 13q-1 56 -28 77t-81 21q-60 0 -109.5 -25t-71.5 -63v157q10 9 27 19.5t42 20.5t59 16.5t79 6.5q65 0 109.5 -16t73.5 -45q33 30 78 45.5t96 15.5q46 0 90 -12t78 -42.5t55 -82.5t21 -131v-73h-350
q2 -23 10.5 -43.5t25.5 -36t44 -24.5t66 -9q70 0 114 19t67 39v-136q-23 -19 -73 -37.5t-133 -18.5q-73 0 -128.5 20t-93.5 62q-23 -35 -68 -58.5t-122 -23.5zM282 226q-55 -12 -77 -28.5t-22 -45.5q0 -27 19.5 -40t54.5 -13q32 0 62.5 14.5t41.5 38.5q-7 21 -10.5 41.5
t-5.5 46.5zM707 333v4q0 51 -21.5 79t-71.5 28q-25 0 -43.5 -9t-30.5 -24.5t-19 -35.5t-8 -42h194z" />
    <glyph glyph-name="ccedilla" unicode="&#xe7;" horiz-adv-x="512" 
d="M273 -272q-39 0 -63.5 7.5t-37.5 15.5v87q36 -31 102 -31q34 0 46.5 10.5t12.5 28.5q0 17 -11.5 25.5t-38.5 8.5q-21 0 -44.5 -5.5t-37.5 -12.5l38 128q-95 17 -151 87.5t-56 200.5q0 76 22.5 131.5t60.5 91.5t88 53.5t106 17.5q61 0 103 -13.5t61 -28.5v-149
q-27 26 -60 39t-80 13q-65 0 -99 -40.5t-34 -114.5q0 -75 34.5 -115t98.5 -40q47 0 81.5 15.5t61.5 40.5v-142q-19 -17 -63 -35t-105 -18l-14 -43q5 2 13.5 3t17.5 1q51 0 79 -24t28 -70q0 -60 -44 -91.5t-115 -31.5z" />
    <glyph glyph-name="egrave" unicode="&#xe8;" horiz-adv-x="587" 
d="M324 -16q-138 0 -215.5 71.5t-77.5 222.5q0 76 23 131.5t60.5 91.5t86.5 53.5t100 17.5q49 0 95.5 -12t82 -42.5t57 -82.5t21.5 -131v-73h-358q2 -23 11 -43.5t27 -36t45.5 -24.5t66.5 -9q70 0 114 19t67 39v-136q-23 -19 -73 -37.5t-133 -18.5zM115 757h153l116 -139
h-136zM402 333v4q0 51 -24 79t-75 28q-24 0 -43 -9t-31.5 -24.5t-20 -35.5t-8.5 -42h202z" />
    <glyph glyph-name="eacute" unicode="&#xe9;" horiz-adv-x="587" 
d="M324 -16q-138 0 -215.5 71.5t-77.5 222.5q0 76 23 131.5t60.5 91.5t86.5 53.5t100 17.5q49 0 95.5 -12t82 -42.5t57 -82.5t21.5 -131v-73h-358q2 -23 11 -43.5t27 -36t45.5 -24.5t66.5 -9q70 0 114 19t67 39v-136q-23 -19 -73 -37.5t-133 -18.5zM340 757h152l-135 -139
h-134zM402 333v4q0 51 -24 79t-75 28q-24 0 -43 -9t-31.5 -24.5t-20 -35.5t-8.5 -42h202z" />
    <glyph glyph-name="ecircumflex" unicode="&#xea;" horiz-adv-x="587" 
d="M324 -16q-138 0 -215.5 71.5t-77.5 222.5q0 76 23 131.5t60.5 91.5t86.5 53.5t100 17.5q49 0 95.5 -12t82 -42.5t57 -82.5t21.5 -131v-73h-358q2 -23 11 -43.5t27 -36t45.5 -24.5t66.5 -9q70 0 114 19t67 39v-136q-23 -19 -73 -37.5t-133 -18.5zM251 757h106l128 -136
h-125l-55 52l-57 -52h-125zM402 333v4q0 51 -24 79t-75 28q-24 0 -43 -9t-31.5 -24.5t-20 -35.5t-8.5 -42h202z" />
    <glyph glyph-name="edieresis" unicode="&#xeb;" horiz-adv-x="587" 
d="M324 -16q-138 0 -215.5 71.5t-77.5 222.5q0 76 23 131.5t60.5 91.5t86.5 53.5t100 17.5q49 0 95.5 -12t82 -42.5t57 -82.5t21.5 -131v-73h-358q2 -23 11 -43.5t27 -36t45.5 -24.5t66.5 -9q70 0 114 19t67 39v-136q-23 -19 -73 -37.5t-133 -18.5zM402 333v4q0 51 -24 79
t-75 28q-24 0 -43 -9t-31.5 -24.5t-20 -35.5t-8.5 -42h202zM196 619q-34 0 -54 17.5t-20 49.5t20 50t54 18t53.5 -18t19.5 -50t-19.5 -49.5t-53.5 -17.5zM411 619q-32 0 -52 17.5t-20 49.5t20 50t52 18q35 0 55 -18t20 -50t-20 -49.5t-55 -17.5z" />
    <glyph glyph-name="igrave" unicode="&#xec;" horiz-adv-x="280" 
d="M58 556h164v-556h-164v556zM-49 757h153l116 -139h-136z" />
    <glyph glyph-name="iacute" unicode="&#xed;" horiz-adv-x="280" 
d="M176 757h152l-135 -139h-134zM58 556h164v-556h-164v556z" />
    <glyph glyph-name="icircumflex" unicode="&#xee;" horiz-adv-x="280" 
d="M87 757h106l128 -136h-125l-55 52l-57 -52h-125zM58 556h164v-556h-164v556z" />
    <glyph glyph-name="idieresis" unicode="&#xef;" horiz-adv-x="280" 
d="M32 619q-34 0 -54 17.5t-20 49.5t20 50t54 18t53.5 -18t19.5 -50t-19.5 -49.5t-53.5 -17.5zM247 619q-32 0 -52 17.5t-20 49.5t20 50t52 18q35 0 55 -18t20 -50t-20 -49.5t-55 -17.5zM58 556h164v-556h-164v556z" />
    <glyph glyph-name="eth" unicode="&#xf0;" horiz-adv-x="623" 
d="M230 650q-75 54 -172 94v9h189q20 -8 39 -17t39 -20l54 37h106l-106 -73q43 -32 81.5 -74t67.5 -92t46 -107.5t17 -120.5q0 -79 -23 -136t-62 -94t-91 -54.5t-110 -17.5q-60 0 -110 17t-86.5 51.5t-56.5 86t-20 120.5t22.5 119t58 82t80 47.5t89.5 15.5q30 0 57 -9
t42 -27l2 1q-17 33 -43 64t-60 60l-62 -43h-106zM312 118q29 0 50.5 11t35 30t20 45t6.5 55t-6.5 55t-20 45.5t-35 30.5t-50.5 11t-50 -11t-35 -30.5t-20.5 -45.5t-6.5 -55t6.5 -55t20.5 -45t35 -30t50 -11z" />
    <glyph glyph-name="ntilde" unicode="&#xf1;" horiz-adv-x="616" 
d="M58 556h145l12 -48q18 28 55 46t92 18q108 0 154.5 -56.5t46.5 -170.5v-345h-164v316q0 69 -19 97.5t-66 28.5q-38 0 -60 -14.5t-32 -30.5v-397h-164v556zM126 631q0 63 32 94.5t85 31.5q31 0 52 -9.5t38 -20.5q13 -8 23.5 -13t21.5 -5q16 0 22.5 10t6.5 36h91
q0 -63 -33 -94.5t-84 -31.5q-29 0 -51 8.5t-38 18.5q-13 8 -24.5 14.5t-21.5 6.5q-16 0 -22.5 -10t-6.5 -36h-91z" />
    <glyph glyph-name="ograve" unicode="&#xf2;" horiz-adv-x="621" 
d="M304 -16q-60 0 -110 17t-86.5 53t-56.5 91.5t-20 132.5q0 76 23 131.5t62 91.5t91 53.5t110 17.5q60 0 110 -17.5t86.5 -53.5t56.5 -91.5t20 -131.5q0 -77 -23 -132.5t-62 -91.5t-91 -53t-110 -17zM311 118q59 0 85.5 43.5t26.5 116.5q0 72 -26.5 116t-85.5 44
q-58 0 -85 -44t-27 -116q0 -73 27 -116.5t85 -43.5zM122 757h153l116 -139h-136z" />
    <glyph glyph-name="oacute" unicode="&#xf3;" horiz-adv-x="621" 
d="M347 757h152l-135 -139h-134zM304 -16q-60 0 -110 17t-86.5 53t-56.5 91.5t-20 132.5q0 76 23 131.5t62 91.5t91 53.5t110 17.5q60 0 110 -17.5t86.5 -53.5t56.5 -91.5t20 -131.5q0 -77 -23 -132.5t-62 -91.5t-91 -53t-110 -17zM311 118q59 0 85.5 43.5t26.5 116.5
q0 72 -26.5 116t-85.5 44q-58 0 -85 -44t-27 -116q0 -73 27 -116.5t85 -43.5z" />
    <glyph glyph-name="ocircumflex" unicode="&#xf4;" horiz-adv-x="621" 
d="M258 757h106l128 -136h-125l-55 52l-57 -52h-125zM304 -16q-60 0 -110 17t-86.5 53t-56.5 91.5t-20 132.5q0 76 23 131.5t62 91.5t91 53.5t110 17.5q60 0 110 -17.5t86.5 -53.5t56.5 -91.5t20 -131.5q0 -77 -23 -132.5t-62 -91.5t-91 -53t-110 -17zM311 118
q59 0 85.5 43.5t26.5 116.5q0 72 -26.5 116t-85.5 44q-58 0 -85 -44t-27 -116q0 -73 27 -116.5t85 -43.5z" />
    <glyph glyph-name="otilde" unicode="&#xf5;" horiz-adv-x="621" 
d="M304 -16q-60 0 -110 17t-86.5 53t-56.5 91.5t-20 132.5q0 76 23 131.5t62 91.5t91 53.5t110 17.5q60 0 110 -17.5t86.5 -53.5t56.5 -91.5t20 -131.5q0 -77 -23 -132.5t-62 -91.5t-91 -53t-110 -17zM311 118q59 0 85.5 43.5t26.5 116.5q0 72 -26.5 116t-85.5 44
q-58 0 -85 -44t-27 -116q0 -73 27 -116.5t85 -43.5zM126 631q0 63 32 94.5t85 31.5q31 0 52 -9.5t38 -20.5q13 -8 23.5 -13t21.5 -5q16 0 22.5 10t6.5 36h91q0 -63 -33 -94.5t-84 -31.5q-29 0 -51 8.5t-38 18.5q-13 8 -24.5 14.5t-21.5 6.5q-16 0 -22.5 -10t-6.5 -36h-91z
" />
    <glyph glyph-name="odieresis" unicode="&#xf6;" horiz-adv-x="621" 
d="M203 619q-34 0 -54 17.5t-20 49.5t20 50t54 18t53.5 -18t19.5 -50t-19.5 -49.5t-53.5 -17.5zM418 619q-32 0 -52 17.5t-20 49.5t20 50t52 18q35 0 55 -18t20 -50t-20 -49.5t-55 -17.5zM304 -16q-60 0 -110 17t-86.5 53t-56.5 91.5t-20 132.5q0 76 23 131.5t62 91.5
t91 53.5t110 17.5q60 0 110 -17.5t86.5 -53.5t56.5 -91.5t20 -131.5q0 -77 -23 -132.5t-62 -91.5t-91 -53t-110 -17zM311 118q59 0 85.5 43.5t26.5 116.5q0 72 -26.5 116t-85.5 44q-58 0 -85 -44t-27 -116q0 -73 27 -116.5t85 -43.5z" />
    <glyph glyph-name="divide" unicode="&#xf7;" horiz-adv-x="553" 
d="M280 73q-40 0 -64.5 25t-24.5 64t24.5 64t64.5 25t65 -25t25 -64t-25 -64t-65 -25zM280 478q-40 0 -64.5 25t-24.5 63q0 40 24.5 65t64.5 25t65 -25t25 -65q0 -38 -25 -63t-65 -25zM33 434h487v-138h-487v138z" />
    <glyph glyph-name="oslash" unicode="&#xf8;" horiz-adv-x="624" 
d="M305 -16q-103 0 -172 48l-29 -32h-92l73 80q-26 35 -39.5 84t-13.5 114q0 76 23 131.5t62 91.5t91 53.5t110 17.5q51 0 94.5 -12.5t78.5 -38.5l32 35h90l-75 -82q26 -35 39.5 -84t13.5 -112q0 -77 -23 -132.5t-62 -91.5t-91 -53t-110 -17zM200 278q0 -37 6 -67l181 196
q-28 31 -75 31q-58 0 -85 -44t-27 -116zM312 118q59 0 85.5 43.5t26.5 116.5q0 37 -7 64l-179 -195q27 -29 74 -29z" />
    <glyph glyph-name="ugrave" unicode="&#xf9;" horiz-adv-x="608" 
d="M249 -16q-53 0 -90.5 14t-60.5 42.5t-33.5 71t-10.5 99.5v345h164v-317q0 -34 4 -58t13 -39t24.5 -21.5t38.5 -6.5q38 0 58 14.5t31 30.5v397h163v-556h-145l-11 48q-17 -26 -54 -45t-91 -19zM114 757h153l116 -139h-136z" />
    <glyph glyph-name="uacute" unicode="&#xfa;" horiz-adv-x="608" 
d="M339 757h152l-135 -139h-134zM249 -16q-53 0 -90.5 14t-60.5 42.5t-33.5 71t-10.5 99.5v345h164v-317q0 -34 4 -58t13 -39t24.5 -21.5t38.5 -6.5q38 0 58 14.5t31 30.5v397h163v-556h-145l-11 48q-17 -26 -54 -45t-91 -19z" />
    <glyph glyph-name="ucircumflex" unicode="&#xfb;" horiz-adv-x="608" 
d="M250 757h106l128 -136h-125l-55 52l-57 -52h-125zM249 -16q-53 0 -90.5 14t-60.5 42.5t-33.5 71t-10.5 99.5v345h164v-317q0 -34 4 -58t13 -39t24.5 -21.5t38.5 -6.5q38 0 58 14.5t31 30.5v397h163v-556h-145l-11 48q-17 -26 -54 -45t-91 -19z" />
    <glyph glyph-name="udieresis" unicode="&#xfc;" horiz-adv-x="608" 
d="M195 619q-34 0 -54 17.5t-20 49.5t20 50t54 18t53.5 -18t19.5 -50t-19.5 -49.5t-53.5 -17.5zM410 619q-32 0 -52 17.5t-20 49.5t20 50t52 18q35 0 55 -18t20 -50t-20 -49.5t-55 -17.5zM249 -16q-53 0 -90.5 14t-60.5 42.5t-33.5 71t-10.5 99.5v345h164v-317q0 -34 4 -58
t13 -39t24.5 -21.5t38.5 -6.5q38 0 58 14.5t31 30.5v397h163v-556h-145l-11 48q-17 -26 -54 -45t-91 -19z" />
    <glyph glyph-name="yacute" unicode="&#xfd;" horiz-adv-x="558" 
d="M139 -210q-36 0 -65.5 8t-43.5 19v135q17 -18 41.5 -27.5t53.5 -9.5t53.5 13.5t44.5 59.5l-221 568h179l115 -362l96 362h158l-156 -527q-15 -50 -36.5 -94t-52 -76t-71.5 -50.5t-95 -18.5zM327 757h152l-135 -139h-134z" />
    <glyph glyph-name="thorn" unicode="&#xfe;" horiz-adv-x="619" 
d="M58 758h164v-242q14 20 46 38t90 18q52 0 94.5 -15.5t72.5 -49t46 -87t16 -129.5t-19.5 -133.5t-53.5 -96t-79 -58t-97 -19.5q-31 0 -64.5 7t-51.5 25v-211h-164v953zM311 111q29 0 50 13.5t34 37.5t19 55.5t6 67.5q0 72 -23 113t-82 41q-35 0 -58.5 -12t-34.5 -31v-250
q15 -19 38.5 -27t50.5 -8z" />
    <glyph glyph-name="ydieresis" unicode="&#xff;" horiz-adv-x="558" 
d="M139 -210q-36 0 -65.5 8t-43.5 19v135q17 -18 41.5 -27.5t53.5 -9.5t53.5 13.5t44.5 59.5l-221 568h179l115 -362l96 362h158l-156 -527q-15 -50 -36.5 -94t-52 -76t-71.5 -50.5t-95 -18.5zM183 619q-34 0 -54 17.5t-20 49.5t20 50t54 18t53.5 -18t19.5 -50t-19.5 -49.5
t-53.5 -17.5zM398 619q-32 0 -52 17.5t-20 49.5t20 50t52 18q35 0 55 -18t20 -50t-20 -49.5t-55 -17.5z" />
    <glyph glyph-name="Amacron" unicode="&#x100;" horiz-adv-x="676" 
d="M268 680h118q5 -11 18 -44t32 -79.5t41.5 -102.5t46 -114t46 -114t41 -102.5t31.5 -79.5t18 -44h-173l-47 122h-155l-44 117l-90 -239h-161zM241 240h154l-58 153l-19 58l-19 -58zM165 848h337v-86h-337v86z" />
    <glyph glyph-name="amacron" unicode="&#x101;" horiz-adv-x="639" 
d="M256 -16q-48 0 -89 16.5t-71 51.5t-47 89t-17 130t18 132.5t50.5 94t77 56t97.5 18.5q54 0 84.5 -17.5t47.5 -37.5l20 39h124v-403q0 -18 7 -25.5t18 -7.5q14 0 23 4.5t16 11.5v-121q-8 -9 -32 -18t-59 -9q-89 0 -119 67q-14 -29 -51.5 -50t-97.5 -21zM389 408
q-11 14 -31.5 24.5t-52.5 10.5q-27 0 -47 -13.5t-33 -36.5t-19.5 -54.5t-6.5 -67.5q0 -73 24 -114.5t78 -41.5q32 0 54.5 12t33.5 32v249zM150 730h337v-86h-337v86z" />
    <glyph glyph-name="Abreve" unicode="&#x102;" horiz-adv-x="676" 
d="M268 680h118q5 -11 18 -44t32 -79.5t41.5 -102.5t46 -114t46 -114t41 -102.5t31.5 -79.5t18 -44h-173l-47 122h-155l-44 117l-90 -239h-161zM332 735q-39 0 -69 11t-51 30t-32 44.5t-11 54.5h102q0 -20 13 -38t48 -18q37 0 50 18t13 38h102q0 -29 -11 -54.5t-32 -44.5
t-52 -30t-70 -11zM241 240h154l-58 153l-19 58l-19 -58z" />
    <glyph glyph-name="abreve" unicode="&#x103;" horiz-adv-x="639" 
d="M256 -16q-48 0 -89 16.5t-71 51.5t-47 89t-17 130t18 132.5t50.5 94t77 56t97.5 18.5q54 0 84.5 -17.5t47.5 -37.5l20 39h124v-403q0 -18 7 -25.5t18 -7.5q14 0 23 4.5t16 11.5v-121q-8 -9 -32 -18t-59 -9q-89 0 -119 67q-14 -29 -51.5 -50t-97.5 -21zM389 408
q-11 14 -31.5 24.5t-52.5 10.5q-27 0 -47 -13.5t-33 -36.5t-19.5 -54.5t-6.5 -67.5q0 -73 24 -114.5t78 -41.5q32 0 54.5 12t33.5 32v249zM317 617q-39 0 -69 11t-51 30t-32 44.5t-11 54.5h102q0 -20 13 -38t48 -18q37 0 50 18t13 38h102q0 -29 -11 -54.5t-32 -44.5t-52 -30
t-70 -11z" />
    <glyph glyph-name="Aogonek" unicode="&#x104;" horiz-adv-x="676" 
d="M519 -205q-53 0 -82 24t-29 61t23.5 68.5t55.5 51.5l-47 122h-155l-44 117l-90 -239h-161l278 680h118q5 -11 18 -44t32 -79.5t41.5 -102.5t46 -114t46 -114t41 -102.5t31.5 -79.5t18 -44h-75q-41 -27 -55 -47t-14 -37q0 -14 9 -22.5t27 -8.5q19 0 30 5.5t22 13.5v-87
q-11 -8 -29.5 -15t-55.5 -7zM241 240h154l-58 153l-19 58l-19 -58z" />
    <glyph glyph-name="aogonek" unicode="&#x105;" horiz-adv-x="640" 
d="M518 -205q-53 0 -82 24t-29 61q0 35 20 64.5t49 49.5q-50 14 -71 61q-14 -29 -51.5 -50t-97.5 -21q-48 0 -89 16.5t-71 51.5t-47 89t-17 130t18 132.5t50.5 94t77 56t97.5 18.5q54 0 84.5 -17.5t47.5 -37.5l20 39h124v-403q0 -18 7 -25.5t18 -7.5q14 0 23 4.5t16 11.5
v-121q-5 -5 -15 -10.5t-24 -9.5q-36 -25 -48.5 -43.5t-12.5 -35.5q0 -14 9 -22.5t27 -8.5q19 0 30 5.5t22 13.5v-87q-11 -8 -29.5 -15t-55.5 -7zM389 408q-11 14 -31.5 24.5t-52.5 10.5q-27 0 -47 -13.5t-33 -36.5t-19.5 -54.5t-6.5 -67.5q0 -73 24 -114.5t78 -41.5
q32 0 54.5 12t33.5 32v249z" />
    <glyph glyph-name="Cacute" unicode="&#x106;" horiz-adv-x="603" 
d="M388 875h152l-135 -139h-134zM368 -16q-77 0 -139 22.5t-105.5 67t-66.5 111.5t-23 156q0 88 26 154.5t71 111t105 67t128 22.5q42 0 74.5 -5t56 -12.5t40 -16.5t27.5 -18v-167q-27 32 -70 53.5t-105 21.5q-88 0 -135 -53t-47 -155q0 -101 46 -158.5t136 -57.5
q59 0 103.5 18.5t71.5 49.5v-151q-27 -26 -77.5 -43.5t-116.5 -17.5z" />
    <glyph glyph-name="cacute" unicode="&#x107;" horiz-adv-x="511" 
d="M314 757h152l-135 -139h-134zM307 -16q-62 0 -112.5 17.5t-87 53.5t-56.5 91.5t-20 131.5t22.5 131.5t60.5 91.5t88 53.5t106 17.5q61 0 103 -13.5t61 -28.5v-149q-27 26 -60 39t-80 13q-65 0 -99 -40.5t-34 -114.5q0 -75 34.5 -115t98.5 -40q47 0 81.5 15.5t61.5 40.5
v-142q-19 -17 -63 -35t-105 -18z" />
    <glyph glyph-name="Ccircumflex" unicode="&#x108;" horiz-adv-x="603" 
d="M299 875h106l128 -136h-125l-55 52l-57 -52h-125zM368 -16q-77 0 -139 22.5t-105.5 67t-66.5 111.5t-23 156q0 88 26 154.5t71 111t105 67t128 22.5q42 0 74.5 -5t56 -12.5t40 -16.5t27.5 -18v-167q-27 32 -70 53.5t-105 21.5q-88 0 -135 -53t-47 -155q0 -101 46 -158.5
t136 -57.5q59 0 103.5 18.5t71.5 49.5v-151q-27 -26 -77.5 -43.5t-116.5 -17.5z" />
    <glyph glyph-name="ccircumflex" unicode="&#x109;" horiz-adv-x="511" 
d="M225 757h106l128 -136h-125l-55 52l-57 -52h-125zM307 -16q-62 0 -112.5 17.5t-87 53.5t-56.5 91.5t-20 131.5t22.5 131.5t60.5 91.5t88 53.5t106 17.5q61 0 103 -13.5t61 -28.5v-149q-27 26 -60 39t-80 13q-65 0 -99 -40.5t-34 -114.5q0 -75 34.5 -115t98.5 -40
q47 0 81.5 15.5t61.5 40.5v-142q-19 -17 -63 -35t-105 -18z" />
    <glyph glyph-name="Cdotaccent" unicode="&#x10a;" horiz-adv-x="603" 
d="M368 -16q-77 0 -139 22.5t-105.5 67t-66.5 111.5t-23 156q0 88 26 154.5t71 111t105 67t128 22.5q42 0 74.5 -5t56 -12.5t40 -16.5t27.5 -18v-167q-27 32 -70 53.5t-105 21.5q-88 0 -135 -53t-47 -155q0 -101 46 -158.5t136 -57.5q59 0 103.5 18.5t71.5 49.5v-151
q-27 -26 -77.5 -43.5t-116.5 -17.5zM353 730q-40 0 -62 20t-22 56q0 38 22 58t62 20q39 0 62.5 -20t23.5 -58q0 -36 -23.5 -56t-62.5 -20z" />
    <glyph glyph-name="cdotaccent" unicode="&#x10b;" horiz-adv-x="511" 
d="M307 -16q-62 0 -112.5 17.5t-87 53.5t-56.5 91.5t-20 131.5t22.5 131.5t60.5 91.5t88 53.5t106 17.5q61 0 103 -13.5t61 -28.5v-149q-27 26 -60 39t-80 13q-65 0 -99 -40.5t-34 -114.5q0 -75 34.5 -115t98.5 -40q47 0 81.5 15.5t61.5 40.5v-142q-19 -17 -63 -35t-105 -18
zM278 612q-40 0 -62 20t-22 56q0 38 22 58t62 20q39 0 62.5 -20t23.5 -58q0 -36 -23.5 -56t-62.5 -20z" />
    <glyph glyph-name="Ccaron" unicode="&#x10c;" horiz-adv-x="603" 
d="M171 875h125l56 -55l56 55h125l-123 -139h-116zM368 -16q-77 0 -139 22.5t-105.5 67t-66.5 111.5t-23 156q0 88 26 154.5t71 111t105 67t128 22.5q42 0 74.5 -5t56 -12.5t40 -16.5t27.5 -18v-167q-27 32 -70 53.5t-105 21.5q-88 0 -135 -53t-47 -155q0 -101 46 -158.5
t136 -57.5q59 0 103.5 18.5t71.5 49.5v-151q-27 -26 -77.5 -43.5t-116.5 -17.5z" />
    <glyph glyph-name="ccaron" unicode="&#x10d;" horiz-adv-x="511" 
d="M97 757h125l56 -55l56 55h125l-123 -139h-116zM307 -16q-62 0 -112.5 17.5t-87 53.5t-56.5 91.5t-20 131.5t22.5 131.5t60.5 91.5t88 53.5t106 17.5q61 0 103 -13.5t61 -28.5v-149q-27 26 -60 39t-80 13q-65 0 -99 -40.5t-34 -114.5q0 -75 34.5 -115t98.5 -40
q47 0 81.5 15.5t61.5 40.5v-142q-19 -17 -63 -35t-105 -18z" />
    <glyph glyph-name="Dcaron" unicode="&#x10e;" horiz-adv-x="692" 
d="M151 875h125l56 -55l56 55h125l-123 -139h-116zM66 680h220q88 0 156.5 -18t116 -57.5t72.5 -104t25 -158.5q0 -95 -29 -160t-79 -105.5t-117.5 -58.5t-144.5 -18h-220v680zM286 139q57 0 95 11.5t61 35.5t32.5 61.5t9.5 90.5q0 52 -9.5 90.5t-32.5 63.5t-61 37t-95 12
h-53v-402h53z" />
    <glyph glyph-name="dcaron" unicode="&#x10f;" horiz-adv-x="646" 
d="M615 685v72h121v-70l-36 -130h-101zM258 -16q-49 0 -90.5 16.5t-71.5 51.5t-46.5 89t-16.5 130t18 132.5t50 94t77.5 56t100.5 18.5q33 0 66 -7.5t52 -27.5v220h163v-757h-144l-12 48q-15 -23 -49.5 -43.5t-96.5 -20.5zM397 408q-15 19 -38.5 27t-51.5 8
q-29 0 -49.5 -13.5t-33.5 -36.5t-18.5 -54.5t-5.5 -67.5q0 -73 22.5 -114.5t81.5 -41.5q35 0 58.5 12t34.5 31v250z" />
    <glyph glyph-name="Dcroat" unicode="&#x110;" horiz-adv-x="694" 
d="M8 379h60v301h220q88 0 156.5 -18t116 -57.5t72.5 -104t25 -158.5q0 -95 -29 -160t-79 -105.5t-117.5 -58.5t-144.5 -18h-220v300h-60v79zM288 139q57 0 95 11.5t61 35.5t32.5 61.5t9.5 90.5q0 52 -9.5 90.5t-32.5 63.5t-61 37t-95 12h-53v-162h124v-79h-124v-161h53z
" />
    <glyph glyph-name="dcroat" unicode="&#x111;" horiz-adv-x="619" 
d="M297 679h100v78h163v-78h59v-77h-59v-602h-144l-12 48q-15 -23 -49.5 -43.5t-96.5 -20.5q-49 0 -90.5 16.5t-71.5 51.5t-46.5 89t-16.5 130t18 132.5t50 94t77.5 56t100.5 18.5q33 0 66 -7.5t52 -27.5v65h-100v77zM397 408q-15 19 -38.5 27t-51.5 8q-29 0 -49.5 -13.5
t-33.5 -36.5t-18.5 -54.5t-5.5 -67.5q0 -73 22.5 -114.5t81.5 -41.5q35 0 58.5 12t34.5 31v250z" />
    <glyph glyph-name="Emacron" unicode="&#x112;" horiz-adv-x="570" 
d="M66 680h478l-43 -138h-268v-128h195v-131h-195v-145h268l43 -138h-478v680zM140 848h337v-86h-337v86z" />
    <glyph glyph-name="emacron" unicode="&#x113;" horiz-adv-x="587" 
d="M324 -16q-138 0 -215.5 71.5t-77.5 222.5q0 76 23 131.5t60.5 91.5t86.5 53.5t100 17.5q49 0 95.5 -12t82 -42.5t57 -82.5t21.5 -131v-73h-358q2 -23 11 -43.5t27 -36t45.5 -24.5t66.5 -9q70 0 114 19t67 39v-136q-23 -19 -73 -37.5t-133 -18.5zM135 730h337v-86h-337v86
zM402 333v4q0 51 -24 79t-75 28q-24 0 -43 -9t-31.5 -24.5t-20 -35.5t-8.5 -42h202z" />
    <glyph glyph-name="Ebreve" unicode="&#x114;" horiz-adv-x="570" 
d="M66 680h478l-43 -138h-268v-128h195v-131h-195v-145h268l43 -138h-478v680zM307 735q-39 0 -69 11t-51 30t-32 44.5t-11 54.5h102q0 -20 13 -38t48 -18q37 0 50 18t13 38h102q0 -29 -11 -54.5t-32 -44.5t-52 -30t-70 -11z" />
    <glyph glyph-name="ebreve" unicode="&#x115;" horiz-adv-x="587" 
d="M324 -16q-138 0 -215.5 71.5t-77.5 222.5q0 76 23 131.5t60.5 91.5t86.5 53.5t100 17.5q49 0 95.5 -12t82 -42.5t57 -82.5t21.5 -131v-73h-358q2 -23 11 -43.5t27 -36t45.5 -24.5t66.5 -9q70 0 114 19t67 39v-136q-23 -19 -73 -37.5t-133 -18.5zM303 617q-39 0 -69 11
t-51 30t-32 44.5t-11 54.5h102q0 -20 13 -38t48 -18q37 0 50 18t13 38h102q0 -29 -11 -54.5t-32 -44.5t-52 -30t-70 -11zM402 333v4q0 51 -24 79t-75 28q-24 0 -43 -9t-31.5 -24.5t-20 -35.5t-8.5 -42h202z" />
    <glyph glyph-name="Edotaccent" unicode="&#x116;" horiz-adv-x="570" 
d="M66 680h478l-43 -138h-268v-128h195v-131h-195v-145h268l43 -138h-478v680zM308 730q-40 0 -62 20t-22 56q0 38 22 58t62 20q39 0 62.5 -20t23.5 -58q0 -36 -23.5 -56t-62.5 -20z" />
    <glyph glyph-name="edotaccent" unicode="&#x117;" horiz-adv-x="587" 
d="M324 -16q-138 0 -215.5 71.5t-77.5 222.5q0 76 23 131.5t60.5 91.5t86.5 53.5t100 17.5q49 0 95.5 -12t82 -42.5t57 -82.5t21.5 -131v-73h-358q2 -23 11 -43.5t27 -36t45.5 -24.5t66.5 -9q70 0 114 19t67 39v-136q-23 -19 -73 -37.5t-133 -18.5zM304 612q-40 0 -62 20
t-22 56q0 38 22 58t62 20q39 0 62.5 -20t23.5 -58q0 -36 -23.5 -56t-62.5 -20zM402 333v4q0 51 -24 79t-75 28q-24 0 -43 -9t-31.5 -24.5t-20 -35.5t-8.5 -42h202z" />
    <glyph glyph-name="Eogonek" unicode="&#x118;" horiz-adv-x="570" 
d="M66 680h478l-43 -138h-268v-128h195v-131h-195v-145h268l43 -138h-44q-41 -27 -55 -47t-14 -37q0 -14 9 -22.5t27 -8.5q19 0 30 5.5t22 13.5v-87q-11 -8 -29.5 -15t-55.5 -7q-53 0 -82 24t-29 61t23.5 68.5t55.5 51.5h-336v680z" />
    <glyph glyph-name="eogonek" unicode="&#x119;" horiz-adv-x="589" 
d="M325 -16q-138 0 -215.5 71.5t-77.5 222.5q0 76 23 131.5t60.5 91.5t86.5 53.5t100 17.5q49 0 95.5 -12t82 -42.5t57 -82.5t21.5 -131v-73h-358q2 -23 11 -43.5t27 -36t45.5 -24.5t66.5 -9q70 0 114 19t67 39v-136q-16 -15 -43 -26q-21 -17 -28.5 -31.5t-7.5 -28.5
t9 -22.5t27 -8.5q19 0 30 5.5t22 13.5v-87q-11 -8 -29.5 -15t-55.5 -7q-53 0 -82 24t-29 61q0 19 6 35.5t17 32.5q-10 -1 -20.5 -1.5t-21.5 -0.5zM403 333v4q0 51 -24 79t-75 28q-24 0 -43 -9t-31.5 -24.5t-20 -35.5t-8.5 -42h202z" />
    <glyph glyph-name="Ecaron" unicode="&#x11a;" horiz-adv-x="570" 
d="M127 875h125l56 -55l56 55h125l-123 -139h-116zM66 680h478l-43 -138h-268v-128h195v-131h-195v-145h268l43 -138h-478v680z" />
    <glyph glyph-name="ecaron" unicode="&#x11b;" horiz-adv-x="587" 
d="M324 -16q-138 0 -215.5 71.5t-77.5 222.5q0 76 23 131.5t60.5 91.5t86.5 53.5t100 17.5q49 0 95.5 -12t82 -42.5t57 -82.5t21.5 -131v-73h-358q2 -23 11 -43.5t27 -36t45.5 -24.5t66.5 -9q70 0 114 19t67 39v-136q-23 -19 -73 -37.5t-133 -18.5zM123 757h125l56 -55
l56 55h125l-123 -139h-116zM402 333v4q0 51 -24 79t-75 28q-24 0 -43 -9t-31.5 -24.5t-20 -35.5t-8.5 -42h202z" />
    <glyph glyph-name="Gcircumflex" unicode="&#x11c;" horiz-adv-x="656" 
d="M315 875h106l128 -136h-125l-55 52l-57 -52h-125zM367 -16q-75 0 -136.5 22.5t-105 67t-67.5 111t-24 155.5q0 88 27 155t74.5 111.5t110.5 67t135 22.5q44 0 79.5 -6t63.5 -14.5t48 -19t34 -19.5v-169q-15 16 -35 31t-45.5 27t-56.5 19t-68 7q-96 0 -146 -53.5
t-50 -156.5q0 -105 44.5 -164.5t122.5 -59.5q21 0 41.5 2.5t34.5 8.5v178h158v-259q-36 -26 -95 -45t-144 -19z" />
    <glyph glyph-name="gcircumflex" unicode="&#x11d;" horiz-adv-x="616" 
d="M258 757h106l128 -136h-125l-55 52l-57 -52h-125zM250 -210q-68 0 -116 13.5t-68 26.5v154q26 -23 72 -42t110 -19q72 0 109.5 30.5t37.5 95.5v22q-17 -17 -51.5 -32t-85.5 -15q-49 0 -90.5 16t-71.5 49t-46.5 83.5t-16.5 118.5q0 69 17.5 121.5t50 88t77.5 53.5t99 18
q46 0 82 -15t55 -36l18 35h127v-485q0 -140 -82.5 -210.5t-226.5 -70.5zM395 408q-17 20 -39.5 27.5t-48.5 7.5q-29 0 -49.5 -13t-33 -34.5t-18.5 -49t-6 -55.5q0 -29 5.5 -54t17.5 -43t31.5 -28.5t48.5 -10.5q33 0 56.5 12.5t35.5 31.5v209z" />
    <glyph glyph-name="Gbreve" unicode="&#x11e;" horiz-adv-x="656" 
d="M367 -16q-75 0 -136.5 22.5t-105 67t-67.5 111t-24 155.5q0 88 27 155t74.5 111.5t110.5 67t135 22.5q44 0 79.5 -6t63.5 -14.5t48 -19t34 -19.5v-169q-15 16 -35 31t-45.5 27t-56.5 19t-68 7q-96 0 -146 -53.5t-50 -156.5q0 -105 44.5 -164.5t122.5 -59.5q21 0 41.5 2.5
t34.5 8.5v178h158v-259q-36 -26 -95 -45t-144 -19zM367 735q-39 0 -69 11t-51 30t-32 44.5t-11 54.5h102q0 -20 13 -38t48 -18q37 0 50 18t13 38h102q0 -29 -11 -54.5t-32 -44.5t-52 -30t-70 -11z" />
    <glyph glyph-name="gbreve" unicode="&#x11f;" horiz-adv-x="616" 
d="M250 -210q-68 0 -116 13.5t-68 26.5v154q26 -23 72 -42t110 -19q72 0 109.5 30.5t37.5 95.5v22q-17 -17 -51.5 -32t-85.5 -15q-49 0 -90.5 16t-71.5 49t-46.5 83.5t-16.5 118.5q0 69 17.5 121.5t50 88t77.5 53.5t99 18q46 0 82 -15t55 -36l18 35h127v-485
q0 -140 -82.5 -210.5t-226.5 -70.5zM395 408q-17 20 -39.5 27.5t-48.5 7.5q-29 0 -49.5 -13t-33 -34.5t-18.5 -49t-6 -55.5q0 -29 5.5 -54t17.5 -43t31.5 -28.5t48.5 -10.5q33 0 56.5 12.5t35.5 31.5v209zM311 617q-39 0 -69 11t-51 30t-32 44.5t-11 54.5h102q0 -20 13 -38
t48 -18q37 0 50 18t13 38h102q0 -29 -11 -54.5t-32 -44.5t-52 -30t-70 -11z" />
    <glyph glyph-name="Gdotaccent" unicode="&#x120;" horiz-adv-x="656" 
d="M367 -16q-75 0 -136.5 22.5t-105 67t-67.5 111t-24 155.5q0 88 27 155t74.5 111.5t110.5 67t135 22.5q44 0 79.5 -6t63.5 -14.5t48 -19t34 -19.5v-169q-15 16 -35 31t-45.5 27t-56.5 19t-68 7q-96 0 -146 -53.5t-50 -156.5q0 -105 44.5 -164.5t122.5 -59.5q21 0 41.5 2.5
t34.5 8.5v178h158v-259q-36 -26 -95 -45t-144 -19zM368 730q-40 0 -62 20t-22 56q0 38 22 58t62 20q39 0 62.5 -20t23.5 -58q0 -36 -23.5 -56t-62.5 -20z" />
    <glyph glyph-name="gdotaccent" unicode="&#x121;" horiz-adv-x="616" 
d="M311 612q-40 0 -62 20t-22 56q0 38 22 58t62 20q39 0 62.5 -20t23.5 -58q0 -36 -23.5 -56t-62.5 -20zM250 -210q-68 0 -116 13.5t-68 26.5v154q26 -23 72 -42t110 -19q72 0 109.5 30.5t37.5 95.5v22q-17 -17 -51.5 -32t-85.5 -15q-49 0 -90.5 16t-71.5 49t-46.5 83.5
t-16.5 118.5q0 69 17.5 121.5t50 88t77.5 53.5t99 18q46 0 82 -15t55 -36l18 35h127v-485q0 -140 -82.5 -210.5t-226.5 -70.5zM395 408q-17 20 -39.5 27.5t-48.5 7.5q-29 0 -49.5 -13t-33 -34.5t-18.5 -49t-6 -55.5q0 -29 5.5 -54t17.5 -43t31.5 -28.5t48.5 -10.5
q33 0 56.5 12.5t35.5 31.5v209z" />
    <glyph glyph-name="Gcommaaccent" unicode="&#x122;" horiz-adv-x="656" 
d="M304 -133v72h121v-70l-36 -130h-101zM367 -16q-75 0 -136.5 22.5t-105 67t-67.5 111t-24 155.5q0 88 27 155t74.5 111.5t110.5 67t135 22.5q44 0 79.5 -6t63.5 -14.5t48 -19t34 -19.5v-169q-15 16 -35 31t-45.5 27t-56.5 19t-68 7q-96 0 -146 -53.5t-50 -156.5
q0 -105 44.5 -164.5t122.5 -59.5q21 0 41.5 2.5t34.5 8.5v178h158v-259q-36 -26 -95 -45t-144 -19z" />
    <glyph glyph-name="gcommaaccent" unicode="&#x123;" horiz-adv-x="616" 
d="M370 690v-72h-121v70l36 130h101zM250 -210q-68 0 -116 13.5t-68 26.5v154q26 -23 72 -42t110 -19q72 0 109.5 30.5t37.5 95.5v22q-17 -17 -51.5 -32t-85.5 -15q-49 0 -90.5 16t-71.5 49t-46.5 83.5t-16.5 118.5q0 69 17.5 121.5t50 88t77.5 53.5t99 18q46 0 82 -15
t55 -36l18 35h127v-485q0 -140 -82.5 -210.5t-226.5 -70.5zM395 408q-17 20 -39.5 27.5t-48.5 7.5q-29 0 -49.5 -13t-33 -34.5t-18.5 -49t-6 -55.5q0 -29 5.5 -54t17.5 -43t31.5 -28.5t48.5 -10.5q33 0 56.5 12.5t35.5 31.5v209z" />
    <glyph glyph-name="Hcircumflex" unicode="&#x124;" horiz-adv-x="715" 
d="M304 875h106l128 -136h-125l-55 52l-57 -52h-125zM66 680h167v-680h-167v680zM482 277h-166l-82 143h248v260h167v-680h-167v277z" />
    <glyph glyph-name="hcircumflex" unicode="&#x125;" horiz-adv-x="616" 
d="M258 936h106l128 -136h-125l-55 52l-57 -52h-125zM58 757h164v-243q19 24 55 41t86 17q108 0 153.5 -56.5t45.5 -170.5v-345h-164v316q0 69 -19 97.5t-66 28.5q-37 0 -59 -14t-32 -29v-399h-164v757z" />
    <glyph glyph-name="Hbar" unicode="&#x126;" horiz-adv-x="722" 
d="M8 553h61v127h167v-127h249v127h167v-127h62v-79h-62v-474h-167v277h-166l-82 143h248v54h-249v-474h-167v474h-61v79z" />
    <glyph glyph-name="hbar" unicode="&#x127;" horiz-adv-x="616" 
d="M0 679h58v78h164v-78h100v-77h-100v-88q19 24 55 41t86 17q108 0 153.5 -56.5t45.5 -170.5v-345h-164v316q0 69 -19 97.5t-66 28.5q-37 0 -59 -14t-32 -29v-399h-164v602h-58v77z" />
    <glyph glyph-name="Itilde" unicode="&#x128;" horiz-adv-x="299" 
d="M66 680h167v-680h-167v680zM-37 749q0 63 32 94.5t85 31.5q31 0 52 -9.5t38 -20.5q13 -8 23.5 -13t21.5 -5q16 0 22.5 10t6.5 36h91q0 -63 -33 -94.5t-84 -31.5q-29 0 -51 8.5t-38 18.5q-13 8 -24.5 14.5t-21.5 6.5q-16 0 -22.5 -10t-6.5 -36h-91z" />
    <glyph glyph-name="itilde" unicode="&#x129;" horiz-adv-x="280" 
d="M58 556h164v-556h-164v556zM-45 631q0 63 32 94.5t85 31.5q31 0 52 -9.5t38 -20.5q13 -8 23.5 -13t21.5 -5q16 0 22.5 10t6.5 36h91q0 -63 -33 -94.5t-84 -31.5q-29 0 -51 8.5t-38 18.5q-13 8 -24.5 14.5t-21.5 6.5q-16 0 -22.5 -10t-6.5 -36h-91z" />
    <glyph glyph-name="Imacron" unicode="&#x12a;" horiz-adv-x="299" 
d="M66 680h167v-680h-167v680zM-21 848h337v-86h-337v86z" />
    <glyph glyph-name="imacron" unicode="&#x12b;" horiz-adv-x="280" 
d="M58 556h164v-556h-164v556zM-28 730h337v-86h-337v86z" />
    <glyph glyph-name="Ibreve" unicode="&#x12c;" horiz-adv-x="299" 
d="M66 680h167v-680h-167v680zM146 735q-39 0 -69 11t-51 30t-32 44.5t-11 54.5h102q0 -20 13 -38t48 -18q37 0 50 18t13 38h102q0 -29 -11 -54.5t-32 -44.5t-52 -30t-70 -11z" />
    <glyph glyph-name="ibreve" unicode="&#x12d;" horiz-adv-x="280" 
d="M58 556h164v-556h-164v556zM139 617q-39 0 -69 11t-51 30t-32 44.5t-11 54.5h102q0 -20 13 -38t48 -18q37 0 50 18t13 38h102q0 -29 -11 -54.5t-32 -44.5t-52 -30t-70 -11z" />
    <glyph glyph-name="Iogonek" unicode="&#x12e;" horiz-adv-x="299" 
d="M66 680h167v-680q-41 -27 -55 -47t-14 -37q0 -14 9 -22.5t27 -8.5q19 0 30 5.5t22 13.5v-87q-11 -8 -29.5 -15t-55.5 -7q-53 0 -82 24t-29 61t23.5 68.5t55.5 51.5h-69v680z" />
    <glyph glyph-name="iogonek" unicode="&#x12f;" horiz-adv-x="280" 
d="M58 556h164v-556h-1q-41 -27 -55 -47t-14 -37q0 -14 9 -22.5t27 -8.5q19 0 30 5.5t22 13.5v-87q-11 -8 -29.5 -15t-55.5 -7q-53 0 -82 24t-29 61t23.5 68.5t55.5 51.5h-65v556zM140 612q-40 0 -62 20t-22 56q0 38 22 58t62 20q39 0 62.5 -20t23.5 -58q0 -36 -23.5 -56
t-62.5 -20z" />
    <glyph glyph-name="Idotaccent" unicode="&#x130;" horiz-adv-x="299" 
d="M66 680h167v-680h-167v680zM148 730q-40 0 -62 20t-22 56q0 38 22 58t62 20q39 0 62.5 -20t23.5 -58q0 -36 -23.5 -56t-62.5 -20z" />
    <glyph glyph-name="dotlessi" unicode="&#x131;" horiz-adv-x="280" 
d="M58 556h164v-556h-164v556z" />
    <glyph glyph-name="IJ" unicode="&#x132;" horiz-adv-x="628" 
d="M236 -16q-58 0 -105.5 15t-67.5 35v160q30 -29 71.5 -48.5t98.5 -19.5q92 0 129.5 45t37.5 140v369h169l-1 -376q0 -80 -24 -139.5t-67.5 -100t-104.5 -60.5t-136 -20zM63 680h168v-432h-168v432z" />
    <glyph glyph-name="ij" unicode="&#x133;" horiz-adv-x="544" 
d="M289 -207q-33 0 -59 7t-37 12v131q14 -11 32 -18t37 -7q29 0 44.5 14.5t15.5 46.5v577h164v-567q0 -94 -51.5 -145t-145.5 -51zM58 556h164v-556h-164v556zM139 612q-40 0 -62 20t-22 56q0 38 22 58t62 20q39 0 62.5 -20t23.5 -58q0 -36 -23.5 -56t-62.5 -20zM403 612
q-40 0 -62 20t-22 56q0 38 22 58t62 20q39 0 62.5 -20t23.5 -58q0 -36 -23.5 -56t-62.5 -20z" />
    <glyph glyph-name="Jcircumflex" unicode="&#x134;" horiz-adv-x="456" 
d="M256 875h106l128 -136h-125l-55 52l-57 -52h-125zM153 -16q-51 0 -84.5 11t-49.5 21v159q19 -17 48 -33t66 -16q51 0 72.5 27t21.5 91v436h168v-448q0 -68 -19.5 -115t-52.5 -76.5t-77 -43t-93 -13.5z" />
    <glyph glyph-name="jcircumflex" unicode="&#x135;" horiz-adv-x="280" 
d="M25 -207q-33 0 -59 7t-37 12v131q14 -11 32 -18t37 -7q29 0 44.5 14.5t15.5 46.5v577h164v-567q0 -94 -51.5 -145t-145.5 -51zM88 757h106l128 -136h-125l-55 52l-57 -52h-125z" />
    <glyph glyph-name="Kcommaaccent" unicode="&#x136;" horiz-adv-x="665" 
d="M287 -133v72h121v-70l-36 -130h-101zM66 680h168v-276l244 276h171l-233 -260l250 -420h-189l-169 296l-74 -82v-214h-168v680z" />
    <glyph glyph-name="kcommaaccent" unicode="&#x137;" horiz-adv-x="601" 
d="M276 230q-13 -11 -22.5 -19t-16.5 -13q-8 -6 -15 -11v-187h-164v757h164v-404q31 26 64 59q28 28 60 64.5t61 79.5h164q-31 -57 -77.5 -112.5t-95.5 -103.5l204 -340h-191zM260 -133v72h121v-70l-36 -130h-101z" />
    <glyph glyph-name="kgreenlandic" unicode="&#x138;" horiz-adv-x="611" 
d="M282 227q-13 -10 -22.5 -18t-17.5 -13q-9 -7 -16 -12v-184h-164v556h164v-203q33 26 66 59q29 28 62 64.5t62 79.5h166q-31 -58 -78.5 -114.5t-98.5 -105.5l205 -336h-191z" />
    <glyph glyph-name="Lacute" unicode="&#x139;" horiz-adv-x="494" 
d="M184 875h152l-135 -139h-134zM66 680h167v-538h210l43 -142h-420v680z" />
    <glyph glyph-name="lacute" unicode="&#x13a;" horiz-adv-x="280" 
d="M177 936h152l-135 -139h-134zM58 757h164v-757h-164v757z" />
    <glyph glyph-name="Lcommaaccent" unicode="&#x13b;" horiz-adv-x="494" 
d="M204 -133v72h121v-70l-36 -130h-101zM66 680h167v-538h210l43 -142h-420v680z" />
    <glyph glyph-name="lcommaaccent" unicode="&#x13c;" horiz-adv-x="280" 
d="M81 -133v72h121v-70l-36 -130h-101zM58 757h164v-757h-164v757z" />
    <glyph glyph-name="Lcaron" unicode="&#x13d;" horiz-adv-x="496" 
d="M311 607v72h121v-70l-36 -130h-101zM66 680h167v-538h210l43 -142h-420v680z" />
    <glyph glyph-name="lcaron" unicode="&#x13e;" horiz-adv-x="308" 
d="M274 685v72h121v-70l-36 -130h-101zM58 757h164v-757h-164v757z" />
    <glyph glyph-name="Ldot" unicode="&#x13f;" horiz-adv-x="521" 
d="M66 680h167v-538h210l43 -142h-420v680zM407 290q-40 0 -62 20t-22 56q0 38 22 58t62 20q39 0 62.5 -20t23.5 -58q0 -36 -23.5 -56t-62.5 -20z" />
    <glyph glyph-name="ldot" unicode="&#x140;" horiz-adv-x="411" 
d="M58 757h164v-757h-164v757zM346 274q-40 0 -62 20t-22 56q0 38 22 58t62 20q39 0 62.5 -20t23.5 -58q0 -36 -23.5 -56t-62.5 -20z" />
    <glyph glyph-name="Lslash" unicode="&#x141;" horiz-adv-x="498" 
d="M10 303l60 36v341h167v-240l122 74v-91l-122 -74v-207h210l43 -142h-420v248l-60 -36v91z" />
    <glyph glyph-name="lslash" unicode="&#x142;" horiz-adv-x="296" 
d="M9 314l56 43v400h164v-272l58 46v-90l-58 -45v-396h-164v268l-56 -43v89z" />
    <glyph glyph-name="Nacute" unicode="&#x143;" horiz-adv-x="715" 
d="M333 885h152l-135 -139h-134zM66 680h156l275 -393h2v393h150v-680h-134l-297 421h-2v-421h-150v680z" />
    <glyph glyph-name="nacute" unicode="&#x144;" horiz-adv-x="616" 
d="M347 757h152l-135 -139h-134zM58 556h145l12 -48q18 28 55 46t92 18q108 0 154.5 -56.5t46.5 -170.5v-345h-164v316q0 69 -19 97.5t-66 28.5q-38 0 -60 -14.5t-32 -30.5v-397h-164v556z" />
    <glyph glyph-name="Ncommaaccent" unicode="&#x145;" horiz-adv-x="715" 
d="M302 -133v72h121v-70l-36 -130h-101zM66 680h156l275 -393h2v393h150v-680h-134l-297 421h-2v-421h-150v680z" />
    <glyph glyph-name="ncommaaccent" unicode="&#x146;" horiz-adv-x="616" 
d="M251 -133v72h121v-70l-36 -130h-101zM58 556h145l12 -48q18 28 55 46t92 18q108 0 154.5 -56.5t46.5 -170.5v-345h-164v316q0 69 -19 97.5t-66 28.5q-38 0 -60 -14.5t-32 -30.5v-397h-164v556z" />
    <glyph glyph-name="Ncaron" unicode="&#x147;" horiz-adv-x="715" 
d="M176 885h125l56 -55l56 55h125l-123 -139h-116zM66 680h156l275 -393h2v393h150v-680h-134l-297 421h-2v-421h-150v680z" />
    <glyph glyph-name="ncaron" unicode="&#x148;" horiz-adv-x="616" 
d="M130 757h125l56 -55l56 55h125l-123 -139h-116zM58 556h145l12 -48q18 28 55 46t92 18q108 0 154.5 -56.5t46.5 -170.5v-345h-164v316q0 69 -19 97.5t-66 28.5q-38 0 -60 -14.5t-32 -30.5v-397h-164v556z" />
    <glyph glyph-name="napostrophe" unicode="&#x149;" horiz-adv-x="730" 
d="M26 685v72h121v-70l-36 -130h-101zM171 556h145l12 -48q18 28 55 46t92 18q108 0 154.5 -56.5t46.5 -170.5v-345h-164v316q0 69 -19 97.5t-66 28.5q-38 0 -60 -14.5t-32 -30.5v-397h-164v556z" />
    <glyph glyph-name="Eng" unicode="&#x14a;" horiz-adv-x="715" 
d="M411 -209q-50 0 -81 11t-46 25v163q19 -23 46 -40.5t62 -17.5q49 0 78.5 21.5t29.5 73.5v11l-282 383h-2v-421h-150v680h156l272 -380h5v380h150v-652q0 -65 -19 -110t-51 -73.5t-75.5 -41t-92.5 -12.5z" />
    <glyph glyph-name="eng" unicode="&#x14b;" horiz-adv-x="616" 
d="M366 -207q-29 0 -54.5 7.5t-36.5 16.5v126q13 -10 29.5 -16.5t33.5 -6.5q29 0 45 15t16 53v328q0 69 -19 97.5t-66 28.5q-38 0 -60 -14.5t-32 -30.5v-397h-164v556h148l10 -48q17 28 53.5 46t90.5 18q110 0 156.5 -56t46.5 -171v-351q0 -95 -51 -148t-146 -53z" />
    <glyph glyph-name="Omacron" unicode="&#x14c;" horiz-adv-x="764" 
d="M214 848h337v-86h-337v86zM380 -16q-77 0 -141 22.5t-109.5 67.5t-71 111.5t-25.5 154.5t29 155t77.5 111.5t112 67t132.5 22.5q77 0 141 -22.5t109.5 -67t71 -111.5t25.5 -155q0 -89 -29 -155.5t-77.5 -111t-112 -67t-132.5 -22.5zM382 126q82 0 129.5 55.5t47.5 155.5
q0 105 -46.5 161t-130.5 56q-83 0 -130.5 -55t-47.5 -155q0 -104 47 -161t131 -57z" />
    <glyph glyph-name="omacron" unicode="&#x14d;" horiz-adv-x="621" 
d="M143 730h337v-86h-337v86zM304 -16q-60 0 -110 17t-86.5 53t-56.5 91.5t-20 132.5q0 76 23 131.5t62 91.5t91 53.5t110 17.5q60 0 110 -17.5t86.5 -53.5t56.5 -91.5t20 -131.5q0 -77 -23 -132.5t-62 -91.5t-91 -53t-110 -17zM311 118q59 0 85.5 43.5t26.5 116.5
q0 72 -26.5 116t-85.5 44q-58 0 -85 -44t-27 -116q0 -73 27 -116.5t85 -43.5z" />
    <glyph glyph-name="Obreve" unicode="&#x14e;" horiz-adv-x="764" 
d="M380 -16q-77 0 -141 22.5t-109.5 67.5t-71 111.5t-25.5 154.5t29 155t77.5 111.5t112 67t132.5 22.5q77 0 141 -22.5t109.5 -67t71 -111.5t25.5 -155q0 -89 -29 -155.5t-77.5 -111t-112 -67t-132.5 -22.5zM382 126q82 0 129.5 55.5t47.5 155.5q0 105 -46.5 161t-130.5 56
q-83 0 -130.5 -55t-47.5 -155q0 -104 47 -161t131 -57zM381 735q-39 0 -69 11t-51 30t-32 44.5t-11 54.5h102q0 -20 13 -38t48 -18q37 0 50 18t13 38h102q0 -29 -11 -54.5t-32 -44.5t-52 -30t-70 -11z" />
    <glyph glyph-name="obreve" unicode="&#x14f;" horiz-adv-x="621" 
d="M304 -16q-60 0 -110 17t-86.5 53t-56.5 91.5t-20 132.5q0 76 23 131.5t62 91.5t91 53.5t110 17.5q60 0 110 -17.5t86.5 -53.5t56.5 -91.5t20 -131.5q0 -77 -23 -132.5t-62 -91.5t-91 -53t-110 -17zM311 118q59 0 85.5 43.5t26.5 116.5q0 72 -26.5 116t-85.5 44
q-58 0 -85 -44t-27 -116q0 -73 27 -116.5t85 -43.5zM310 617q-39 0 -69 11t-51 30t-32 44.5t-11 54.5h102q0 -20 13 -38t48 -18q37 0 50 18t13 38h102q0 -29 -11 -54.5t-32 -44.5t-52 -30t-70 -11z" />
    <glyph glyph-name="Ohungarumlaut" unicode="&#x150;" horiz-adv-x="764" 
d="M347 875h116l-142 -139h-115zM523 875h117l-142 -139h-117zM380 -16q-77 0 -141 22.5t-109.5 67.5t-71 111.5t-25.5 154.5t29 155t77.5 111.5t112 67t132.5 22.5q77 0 141 -22.5t109.5 -67t71 -111.5t25.5 -155q0 -89 -29 -155.5t-77.5 -111t-112 -67t-132.5 -22.5z
M382 126q82 0 129.5 55.5t47.5 155.5q0 105 -46.5 161t-130.5 56q-83 0 -130.5 -55t-47.5 -155q0 -104 47 -161t131 -57z" />
    <glyph glyph-name="ohungarumlaut" unicode="&#x151;" horiz-adv-x="621" 
d="M276 757h116l-142 -139h-115zM452 757h117l-142 -139h-117zM304 -16q-60 0 -110 17t-86.5 53t-56.5 91.5t-20 132.5q0 76 23 131.5t62 91.5t91 53.5t110 17.5q60 0 110 -17.5t86.5 -53.5t56.5 -91.5t20 -131.5q0 -77 -23 -132.5t-62 -91.5t-91 -53t-110 -17zM311 118
q59 0 85.5 43.5t26.5 116.5q0 72 -26.5 116t-85.5 44q-58 0 -85 -44t-27 -116q0 -73 27 -116.5t85 -43.5z" />
    <glyph glyph-name="OE" unicode="&#x152;" horiz-adv-x="1070" 
d="M358 -16q-70 0 -129.5 22.5t-103 67.5t-68 111.5t-24.5 154.5t28.5 155t74.5 111.5t105 67t120 22.5q136 0 198 -73v57h484l-43 -138h-272v-128h194v-131h-194v-145h272l43 -138h-484v67q-34 -42 -85 -62.5t-116 -20.5zM382 126q82 0 129.5 55.5t47.5 155.5
q0 104 -46.5 160t-130.5 56q-83 0 -130.5 -54.5t-47.5 -154.5q0 -104 47 -161t131 -57z" />
    <glyph glyph-name="oe" unicode="&#x153;" horiz-adv-x="980" 
d="M298 -16q-58 0 -107 17t-84.5 53t-55.5 91.5t-20 132.5q0 76 23 131.5t61.5 91.5t89 53.5t106.5 17.5q64 0 114 -19.5t83 -65.5q36 48 86 66.5t105 18.5q48 0 93 -12t80 -42.5t56 -82.5t21 -131v-73h-358q2 -23 11.5 -43.5t27.5 -36t45 -24.5t66 -9q70 0 114.5 19
t67.5 39v-136q-23 -19 -73 -37.5t-131 -18.5q-76 0 -130 19.5t-88 66.5q-36 -47 -88 -66.5t-115 -19.5zM311 118q59 0 85.5 43.5t26.5 116.5q0 72 -26.5 116t-85.5 44q-58 0 -85 -44t-27 -116q0 -73 27 -116.5t85 -43.5zM794 333v4q0 51 -24 79t-75 28q-24 0 -43 -9
t-31.5 -24.5t-20 -35.5t-8.5 -42h202z" />
    <glyph glyph-name="Racute" unicode="&#x154;" horiz-adv-x="623" 
d="M286 885h152l-135 -139h-134zM300 211h-67v-211h-167v680h251q121 0 190.5 -53t69.5 -172q0 -81 -33.5 -136t-94.5 -83l172 -236h-181zM306 324q55 0 77.5 31t22.5 87q0 54 -22.5 82t-78.5 28h-72v-228h73z" />
    <glyph glyph-name="racute" unicode="&#x155;" horiz-adv-x="383" 
d="M251 757h152l-135 -139h-134zM58 556h135l12 -74q6 43 38 66.5t75 23.5q20 0 33 -3.5t19 -7.5v-151q-10 7 -25 11t-37 4q-32 0 -53.5 -12t-32.5 -33v-380h-164v556z" />
    <glyph glyph-name="Rcommaaccent" unicode="&#x156;" horiz-adv-x="622" 
d="M300 211h-67v-211h-167v680h251q121 0 190.5 -53t69.5 -172q0 -81 -33.5 -136t-94.5 -83l172 -236h-181zM306 324q55 0 77.5 31t22.5 87q0 54 -22.5 82t-78.5 28h-72v-228h73zM262 -133v72h121v-70l-36 -130h-101z" />
    <glyph glyph-name="rcommaaccent" unicode="&#x157;" horiz-adv-x="384" 
d="M80 -133v72h121v-70l-36 -130h-101zM58 556h135l12 -74q6 43 38 66.5t75 23.5q20 0 33 -3.5t19 -7.5v-151q-10 7 -25 11t-37 4q-32 0 -53.5 -12t-32.5 -33v-380h-164v556z" />
    <glyph glyph-name="Rcaron" unicode="&#x158;" horiz-adv-x="623" 
d="M300 211h-67v-211h-167v680h251q121 0 190.5 -53t69.5 -172q0 -81 -33.5 -136t-94.5 -83l172 -236h-181zM306 324q55 0 77.5 31t22.5 87q0 54 -22.5 82t-78.5 28h-72v-228h73zM129 885h125l56 -55l56 55h125l-123 -139h-116z" />
    <glyph glyph-name="rcaron" unicode="&#x159;" horiz-adv-x="383" 
d="M34 757h125l56 -55l56 55h125l-123 -139h-116zM58 556h135l12 -74q6 43 38 66.5t75 23.5q20 0 33 -3.5t19 -7.5v-151q-10 7 -25 11t-37 4q-32 0 -53.5 -12t-32.5 -33v-380h-164v556z" />
    <glyph glyph-name="Sacute" unicode="&#x15a;" horiz-adv-x="540" 
d="M320 875h152l-135 -139h-134zM234 -16q-75 0 -120.5 16t-64.5 30v163q13 -12 31.5 -24.5t42.5 -23t52 -17t60 -6.5q60 0 85.5 19t25.5 56q0 30 -22 45t-73 26l-26 6q-42 9 -76 25t-59 40.5t-38.5 58.5t-13.5 80q0 103 66.5 160.5t189.5 57.5q77 0 123 -16t66 -30v-162
q-26 24 -74.5 46.5t-113.5 22.5q-51 0 -74 -15.5t-23 -49.5q0 -29 18 -45.5t68 -26.5l25 -5q44 -9 80.5 -23.5t62.5 -38t40 -57t14 -80.5q0 -51 -17 -94t-51 -73.5t-85 -47.5t-119 -17z" />
    <glyph glyph-name="sacute" unicode="&#x15b;" horiz-adv-x="486" 
d="M279 757h152l-135 -139h-134zM217 -16q-64 0 -105.5 11.5t-64.5 26.5v146q26 -22 66 -39t97 -17q56 0 76.5 15t20.5 36q0 11 -3 19t-11.5 13.5t-24 9.5t-39.5 8l-29 4q-87 13 -126.5 55t-39.5 117q0 36 13 69t40.5 58.5t70.5 40.5t104 15q63 0 106.5 -11.5t65.5 -28.5
v-143q-26 26 -68 40.5t-98 14.5q-50 0 -68 -13t-18 -34t13 -32.5t56 -19.5l31 -4q46 -7 79.5 -19t55 -32t31.5 -48t10 -67q0 -36 -13 -70t-42 -61t-75 -43.5t-111 -16.5z" />
    <glyph glyph-name="Scircumflex" unicode="&#x15c;" horiz-adv-x="540" 
d="M231 875h106l128 -136h-125l-55 52l-57 -52h-125zM234 -16q-75 0 -120.5 16t-64.5 30v163q13 -12 31.5 -24.5t42.5 -23t52 -17t60 -6.5q60 0 85.5 19t25.5 56q0 30 -22 45t-73 26l-26 6q-42 9 -76 25t-59 40.5t-38.5 58.5t-13.5 80q0 103 66.5 160.5t189.5 57.5
q77 0 123 -16t66 -30v-162q-26 24 -74.5 46.5t-113.5 22.5q-51 0 -74 -15.5t-23 -49.5q0 -29 18 -45.5t68 -26.5l25 -5q44 -9 80.5 -23.5t62.5 -38t40 -57t14 -80.5q0 -51 -17 -94t-51 -73.5t-85 -47.5t-119 -17z" />
    <glyph glyph-name="scircumflex" unicode="&#x15d;" horiz-adv-x="486" 
d="M190 757h106l128 -136h-125l-55 52l-57 -52h-125zM217 -16q-64 0 -105.5 11.5t-64.5 26.5v146q26 -22 66 -39t97 -17q56 0 76.5 15t20.5 36q0 11 -3 19t-11.5 13.5t-24 9.5t-39.5 8l-29 4q-87 13 -126.5 55t-39.5 117q0 36 13 69t40.5 58.5t70.5 40.5t104 15
q63 0 106.5 -11.5t65.5 -28.5v-143q-26 26 -68 40.5t-98 14.5q-50 0 -68 -13t-18 -34t13 -32.5t56 -19.5l31 -4q46 -7 79.5 -19t55 -32t31.5 -48t10 -67q0 -36 -13 -70t-42 -61t-75 -43.5t-111 -16.5z" />
    <glyph glyph-name="Scedilla" unicode="&#x15e;" horiz-adv-x="539" 
d="M225 -272q-39 0 -63.5 7.5t-37.5 15.5v87q36 -31 102 -31q34 0 46.5 10.5t12.5 28.5q0 17 -11.5 25.5t-38.5 8.5q-21 0 -44.5 -5.5t-37.5 -12.5l36 124q-55 5 -89 18.5t-51 25.5v163q13 -12 31.5 -24.5t42.5 -23t52 -17t60 -6.5q60 0 85.5 19t25.5 56q0 30 -22 45t-73 26
l-26 6q-42 9 -76 25t-59 40.5t-38.5 58.5t-13.5 80q0 103 66.5 160.5t189.5 57.5q77 0 123 -16t66 -30v-162q-26 24 -74.5 46.5t-113.5 22.5q-51 0 -74 -15.5t-23 -49.5q0 -29 18 -45.5t68 -26.5l25 -5q44 -9 80.5 -23.5t62.5 -38t40 -57t14 -80.5q0 -98 -61.5 -161
t-184.5 -70l-14 -44q5 2 13.5 3t17.5 1q51 0 79 -24t28 -70q0 -60 -44 -91.5t-115 -31.5z" />
    <glyph glyph-name="scedilla" unicode="&#x15f;" horiz-adv-x="489" 
d="M216 -272q-39 0 -63.5 7.5t-37.5 15.5v87q36 -31 102 -31q34 0 46.5 10.5t12.5 28.5q0 17 -11.5 25.5t-38.5 8.5q-21 0 -44.5 -5.5t-37.5 -12.5l36 123q-48 4 -80.5 14t-51.5 23v146q26 -22 66 -39t97 -17q56 0 76.5 15t20.5 36q0 11 -3 19t-11.5 13.5t-24 9.5t-39.5 8
l-29 4q-87 13 -126.5 55t-39.5 117q0 36 13 69t40.5 58.5t70.5 40.5t104 15q63 0 106.5 -11.5t65.5 -28.5v-143q-26 26 -68 40.5t-98 14.5q-50 0 -68 -13t-18 -34t13 -32.5t56 -19.5l31 -4q46 -7 79.5 -19t55 -32t31.5 -48t10 -67q0 -33 -11.5 -65.5t-36 -58.5t-64 -44
t-95.5 -22l-15 -44q5 2 13.5 3t17.5 1q51 0 79 -24t28 -70q0 -60 -44 -91.5t-115 -31.5z" />
    <glyph glyph-name="Scaron" unicode="&#x160;" horiz-adv-x="540" 
d="M103 875h125l56 -55l56 55h125l-123 -139h-116zM234 -16q-75 0 -120.5 16t-64.5 30v163q13 -12 31.5 -24.5t42.5 -23t52 -17t60 -6.5q60 0 85.5 19t25.5 56q0 30 -22 45t-73 26l-26 6q-42 9 -76 25t-59 40.5t-38.5 58.5t-13.5 80q0 103 66.5 160.5t189.5 57.5
q77 0 123 -16t66 -30v-162q-26 24 -74.5 46.5t-113.5 22.5q-51 0 -74 -15.5t-23 -49.5q0 -29 18 -45.5t68 -26.5l25 -5q44 -9 80.5 -23.5t62.5 -38t40 -57t14 -80.5q0 -51 -17 -94t-51 -73.5t-85 -47.5t-119 -17z" />
    <glyph glyph-name="scaron" unicode="&#x161;" horiz-adv-x="486" 
d="M62 757h125l56 -55l56 55h125l-123 -139h-116zM217 -16q-64 0 -105.5 11.5t-64.5 26.5v146q26 -22 66 -39t97 -17q56 0 76.5 15t20.5 36q0 11 -3 19t-11.5 13.5t-24 9.5t-39.5 8l-29 4q-87 13 -126.5 55t-39.5 117q0 36 13 69t40.5 58.5t70.5 40.5t104 15
q63 0 106.5 -11.5t65.5 -28.5v-143q-26 26 -68 40.5t-98 14.5q-50 0 -68 -13t-18 -34t13 -32.5t56 -19.5l31 -4q46 -7 79.5 -19t55 -32t31.5 -48t10 -67q0 -36 -13 -70t-42 -61t-75 -43.5t-111 -16.5z" />
    <glyph glyph-name="Tcommaaccent" unicode="&#x162;" horiz-adv-x="581" 
d="M226 -133v72h121v-70l-36 -130h-101zM207 538h-188v142h560l-43 -142h-162v-538h-167v538z" />
    <glyph glyph-name="tcommaaccent" unicode="&#x163;" horiz-adv-x="408" 
d="M172 -133v72h121v-70l-36 -130h-101zM251 -16q-89 0 -127 46.5t-38 129.5v268h-65v59l53 69l99 131h77v-131h152l-44 -128h-108v-252q0 -30 10.5 -45.5t35.5 -15.5q29 0 49.5 13.5t32.5 30.5v-134q-14 -14 -44.5 -27.5t-82.5 -13.5z" />
    <glyph glyph-name="Tcaron" unicode="&#x164;" horiz-adv-x="582" 
d="M110 885h125l56 -55l56 55h125l-123 -139h-116zM208 538h-188v142h560l-43 -142h-162v-538h-167v538z" />
    <glyph glyph-name="tcaron" unicode="&#x165;" horiz-adv-x="409" 
d="M313 734v72h121v-70l-36 -130h-101zM251 -16q-89 0 -127 46.5t-38 129.5v268h-65v59l53 69l99 131h77v-131h152l-44 -128h-108v-252q0 -30 10.5 -45.5t35.5 -15.5q29 0 49.5 13.5t32.5 30.5v-134q-14 -14 -44.5 -27.5t-82.5 -13.5z" />
    <glyph glyph-name="Tbar" unicode="&#x166;" horiz-adv-x="582" 
d="M110 418h98v120h-188v142h560l-43 -142h-162v-120h98v-80h-98v-338h-167v338h-98v80z" />
    <glyph glyph-name="tbar" unicode="&#x167;" horiz-adv-x="408" 
d="M21 352h65v76h-65v59l53 69l99 131h77v-131h152l-44 -128h-108v-76h99v-77h-99v-99q0 -30 10.5 -45.5t35.5 -15.5q29 0 49.5 13.5t32.5 30.5v-134q-14 -14 -44.5 -27.5t-82.5 -13.5q-89 0 -127 46.5t-38 129.5v115h-65v77z" />
    <glyph glyph-name="Utilde" unicode="&#x168;" horiz-adv-x="725" 
d="M355 -16q-69 0 -123.5 17t-92.5 54.5t-58.5 97.5t-20.5 146v381h167v-382q0 -88 32.5 -129t103.5 -41t103.5 41t32.5 129v382h166v-381q0 -83 -23.5 -143t-64.5 -98t-98 -56t-124 -18zM179 749q0 63 32 94.5t85 31.5q31 0 52 -9.5t38 -20.5q13 -8 23.5 -13t21.5 -5
q16 0 22.5 10t6.5 36h91q0 -63 -33 -94.5t-84 -31.5q-29 0 -51 8.5t-38 18.5q-13 8 -24.5 14.5t-21.5 6.5q-16 0 -22.5 -10t-6.5 -36h-91z" />
    <glyph glyph-name="utilde" unicode="&#x169;" horiz-adv-x="608" 
d="M249 -16q-53 0 -90.5 14t-60.5 42.5t-33.5 71t-10.5 99.5v345h164v-317q0 -34 4 -58t13 -39t24.5 -21.5t38.5 -6.5q38 0 58 14.5t31 30.5v397h163v-556h-145l-11 48q-17 -26 -54 -45t-91 -19zM119 631q0 63 32 94.5t85 31.5q31 0 52 -9.5t38 -20.5q13 -8 23.5 -13
t21.5 -5q16 0 22.5 10t6.5 36h91q0 -63 -33 -94.5t-84 -31.5q-29 0 -51 8.5t-38 18.5q-13 8 -24.5 14.5t-21.5 6.5q-16 0 -22.5 -10t-6.5 -36h-91z" />
    <glyph glyph-name="Umacron" unicode="&#x16a;" horiz-adv-x="725" 
d="M355 -16q-69 0 -123.5 17t-92.5 54.5t-58.5 97.5t-20.5 146v381h167v-382q0 -88 32.5 -129t103.5 -41t103.5 41t32.5 129v382h166v-381q0 -83 -23.5 -143t-64.5 -98t-98 -56t-124 -18zM195 848h337v-86h-337v86z" />
    <glyph glyph-name="umacron" unicode="&#x16b;" horiz-adv-x="608" 
d="M249 -16q-53 0 -90.5 14t-60.5 42.5t-33.5 71t-10.5 99.5v345h164v-317q0 -34 4 -58t13 -39t24.5 -21.5t38.5 -6.5q38 0 58 14.5t31 30.5v397h163v-556h-145l-11 48q-17 -26 -54 -45t-91 -19zM135 730h337v-86h-337v86z" />
    <glyph glyph-name="Ubreve" unicode="&#x16c;" horiz-adv-x="725" 
d="M355 -16q-69 0 -123.5 17t-92.5 54.5t-58.5 97.5t-20.5 146v381h167v-382q0 -88 32.5 -129t103.5 -41t103.5 41t32.5 129v382h166v-381q0 -83 -23.5 -143t-64.5 -98t-98 -56t-124 -18zM362 735q-39 0 -69 11t-51 30t-32 44.5t-11 54.5h102q0 -20 13 -38t48 -18
q37 0 50 18t13 38h102q0 -29 -11 -54.5t-32 -44.5t-52 -30t-70 -11z" />
    <glyph glyph-name="ubreve" unicode="&#x16d;" horiz-adv-x="608" 
d="M249 -16q-53 0 -90.5 14t-60.5 42.5t-33.5 71t-10.5 99.5v345h164v-317q0 -34 4 -58t13 -39t24.5 -21.5t38.5 -6.5q38 0 58 14.5t31 30.5v397h163v-556h-145l-11 48q-17 -26 -54 -45t-91 -19zM302 617q-39 0 -69 11t-51 30t-32 44.5t-11 54.5h102q0 -20 13 -38t48 -18
q37 0 50 18t13 38h102q0 -29 -11 -54.5t-32 -44.5t-52 -30t-70 -11z" />
    <glyph glyph-name="Uring" unicode="&#x16e;" horiz-adv-x="725" 
d="M363 729q-63 0 -98.5 31t-35.5 82t35.5 82t98.5 31t98.5 -31t35.5 -82t-35.5 -82t-98.5 -31zM363 802q27 0 37.5 12t10.5 28q0 17 -10.5 29t-37.5 12t-37 -12t-10 -29q0 -16 10 -28t37 -12zM355 -16q-69 0 -123.5 17t-92.5 54.5t-58.5 97.5t-20.5 146v381h167v-382
q0 -88 32.5 -129t103.5 -41t103.5 41t32.5 129v382h166v-381q0 -83 -23.5 -143t-64.5 -98t-98 -56t-124 -18z" />
    <glyph glyph-name="uring" unicode="&#x16f;" horiz-adv-x="608" 
d="M304 611q-63 0 -98.5 31t-35.5 82t35.5 82t98.5 31t98.5 -31t35.5 -82t-35.5 -82t-98.5 -31zM304 684q27 0 37.5 12t10.5 28q0 17 -10.5 29t-37.5 12t-37 -12t-10 -29q0 -16 10 -28t37 -12zM249 -16q-53 0 -90.5 14t-60.5 42.5t-33.5 71t-10.5 99.5v345h164v-317
q0 -34 4 -58t13 -39t24.5 -21.5t38.5 -6.5q38 0 58 14.5t31 30.5v397h163v-556h-145l-11 48q-17 -26 -54 -45t-91 -19z" />
    <glyph glyph-name="Uhungarumlaut" unicode="&#x170;" horiz-adv-x="725" 
d="M355 -16q-69 0 -123.5 17t-92.5 54.5t-58.5 97.5t-20.5 146v381h167v-382q0 -88 32.5 -129t103.5 -41t103.5 41t32.5 129v382h166v-381q0 -83 -23.5 -143t-64.5 -98t-98 -56t-124 -18zM328 875h116l-142 -139h-115zM504 875h117l-142 -139h-117z" />
    <glyph glyph-name="uhungarumlaut" unicode="&#x171;" horiz-adv-x="608" 
d="M249 -16q-53 0 -90.5 14t-60.5 42.5t-33.5 71t-10.5 99.5v345h164v-317q0 -34 4 -58t13 -39t24.5 -21.5t38.5 -6.5q38 0 58 14.5t31 30.5v397h163v-556h-145l-11 48q-17 -26 -54 -45t-91 -19zM268 757h116l-142 -139h-115zM444 757h117l-142 -139h-117z" />
    <glyph glyph-name="Uogonek" unicode="&#x172;" horiz-adv-x="726" 
d="M356 -16q-69 0 -123.5 17t-92.5 54.5t-58.5 97.5t-20.5 146v381h167v-382q0 -88 32.5 -129t103.5 -41t103.5 41t32.5 129v382h166v-381q0 -120 -47 -191.5t-125 -100.5q-41 -27 -55 -47t-14 -37q0 -14 9 -22.5t27 -8.5q19 0 30 5.5t22 13.5v-87q-11 -8 -29.5 -15
t-55.5 -7q-53 0 -82 24t-29 61q0 28 14 52.5t35 44.5h-10v0z" />
    <glyph glyph-name="uogonek" unicode="&#x173;" horiz-adv-x="608" 
d="M249 -16q-53 0 -90.5 14t-60.5 42.5t-33.5 71t-10.5 99.5v345h164v-317q0 -34 4 -58t13 -39t24.5 -21.5t38.5 -6.5q38 0 58 14.5t31 30.5v397h163v-556h-48q-41 -27 -55 -47t-14 -37q0 -14 9 -22.5t27 -8.5q19 0 30 5.5t22 13.5v-87q-11 -8 -29.5 -15t-55.5 -7
q-53 0 -82 24t-29 61t23.5 68.5t55.5 51.5h1l-11 48q-17 -26 -54 -45t-91 -19z" />
    <glyph glyph-name="Wcircumflex" unicode="&#x174;" horiz-adv-x="949" 
d="M424 875h106l128 -136h-125l-55 52l-57 -52h-125zM9 680h176l108 -430h6l101 331l-31 99h162l132 -430h4l109 430h166l-208 -680h-138l-124 384l-126 -384h-134z" />
    <glyph glyph-name="wcircumflex" unicode="&#x175;" horiz-adv-x="773" 
d="M336 757h106l128 -136h-125l-55 52l-57 -52h-125zM13 556h162l75 -294l112 294h59l115 -294l72 294h151l-151 -556h-101l-118 303l-119 -303h-100z" />
    <glyph glyph-name="Ycircumflex" unicode="&#x176;" horiz-adv-x="626" 
d="M228 276l-228 404h189l131 -257l136 257h169l-228 -404v-276h-169v276zM261 875h106l128 -136h-125l-55 52l-57 -52h-125z" />
    <glyph glyph-name="ycircumflex" unicode="&#x177;" horiz-adv-x="558" 
d="M139 -210q-36 0 -65.5 8t-43.5 19v135q17 -18 41.5 -27.5t53.5 -9.5t53.5 13.5t44.5 59.5l-221 568h179l115 -362l96 362h158l-156 -527q-15 -50 -36.5 -94t-52 -76t-71.5 -50.5t-95 -18.5zM238 757h106l128 -136h-125l-55 52l-57 -52h-125z" />
    <glyph glyph-name="Ydieresis" unicode="&#x178;" horiz-adv-x="626" 
d="M228 276l-228 404h189l131 -257l136 257h169l-228 -404v-276h-169v276zM206 737q-34 0 -54 17.5t-20 49.5t20 50t54 18t53.5 -18t19.5 -50t-19.5 -49.5t-53.5 -17.5zM421 737q-32 0 -52 17.5t-20 49.5t20 50t52 18q35 0 55 -18t20 -50t-20 -49.5t-55 -17.5z" />
    <glyph glyph-name="Zacute" unicode="&#x179;" horiz-adv-x="533" 
d="M301 875h152l-135 -139h-134zM29 45l266 498h-230l-43 137h479v-46l-265 -497h266v-137h-473v45z" />
    <glyph glyph-name="zacute" unicode="&#x17a;" horiz-adv-x="498" 
d="M289 757h152l-135 -139h-134zM30 50l234 378h-205l-42 128h450v-50l-224 -378h222v-128h-435v50z" />
    <glyph glyph-name="Zdotaccent" unicode="&#x17b;" horiz-adv-x="533" 
d="M29 45l266 498h-230l-43 137h479v-46l-265 -497h266v-137h-473v45zM265 730q-40 0 -62 20t-22 56q0 38 22 58t62 20q39 0 62.5 -20t23.5 -58q0 -36 -23.5 -56t-62.5 -20z" />
    <glyph glyph-name="zdotaccent" unicode="&#x17c;" horiz-adv-x="498" 
d="M30 50l234 378h-205l-42 128h450v-50l-224 -378h222v-128h-435v50zM253 612q-40 0 -62 20t-22 56q0 38 22 58t62 20q39 0 62.5 -20t23.5 -58q0 -36 -23.5 -56t-62.5 -20z" />
    <glyph glyph-name="Zcaron" unicode="&#x17d;" horiz-adv-x="533" 
d="M84 875h125l56 -55l56 55h125l-123 -139h-116zM29 45l266 498h-230l-43 137h479v-46l-265 -497h266v-137h-473v45z" />
    <glyph glyph-name="zcaron" unicode="&#x17e;" horiz-adv-x="498" 
d="M72 757h125l56 -55l56 55h125l-123 -139h-116zM30 50l234 378h-205l-42 128h450v-50l-224 -378h222v-128h-435v50z" />
    <glyph glyph-name="longs" unicode="&#x17f;" horiz-adv-x="327" 
d="M86 426h-64v56l64 57v71q0 42 15 73t40.5 51t60 30t73.5 10q52 0 81 -10t42 -18v-133q-15 14 -37.5 24.5t-53.5 10.5t-44 -14.5t-13 -41.5v-592h-164v426z" />
    <glyph glyph-name="Schwa" unicode="&#x18f;" horiz-adv-x="668" 
d="M321 -16q-59 0 -110.5 17t-90 55.5t-61 100.5t-22.5 151v84h423q-8 81 -50 120.5t-134 39.5q-45 0 -80 -7.5t-62 -19t-46 -25t-32 -25.5v156q13 11 34.5 23t51.5 21.5t69 15.5t87 6q78 0 140 -20.5t105.5 -63t67 -107t23.5 -152.5q0 -98 -24.5 -168t-67.5 -115t-100 -66
t-121 -21zM203 267q0 -68 27.5 -104t98.5 -36q59 0 90 35t37 118h-253v-13z" />
    <glyph glyph-name="florin" unicode="&#x192;" horiz-adv-x="427" 
d="M100 338h-69l10 72h71l11 76q14 100 61 144t133 44q48 0 82.5 -10t49.5 -23l-20 -129q-11 22 -38.5 32t-56.5 10q-17 0 -27.5 -5t-17 -15t-10.5 -25.5t-7 -36.5l-10 -62h114l-7 -72h-117l-74 -442h-151z" />
    <glyph glyph-name="Aringacute" unicode="&#x1fa;" horiz-adv-x="676" 
d="M268 680h118q5 -11 18 -44t32 -79.5t41.5 -102.5t46 -114t46 -114t41 -102.5t31.5 -79.5t18 -44h-173l-47 122h-155l-44 117l-90 -239h-161zM241 240h154l-58 153l-19 58l-19 -58zM389 1098h152l-135 -139h-134zM353 712q-63 0 -98.5 31t-35.5 82t35.5 82t98.5 31
t98.5 -31t35.5 -82t-35.5 -82t-98.5 -31zM353 785q27 0 37.5 12t10.5 28q0 17 -10.5 29t-37.5 12t-37 -12t-10 -29q0 -16 10 -28t37 -12z" />
    <glyph glyph-name="aringacute" unicode="&#x1fb;" horiz-adv-x="639" 
d="M256 -16q-48 0 -89 16.5t-71 51.5t-47 89t-17 130t18 132.5t50.5 94t77 56t97.5 18.5q54 0 84.5 -17.5t47.5 -37.5l20 39h124v-403q0 -18 7 -25.5t18 -7.5q14 0 23 4.5t16 11.5v-121q-8 -9 -32 -18t-59 -9q-89 0 -119 67q-14 -29 -51.5 -50t-97.5 -21zM389 408
q-11 14 -31.5 24.5t-52.5 10.5q-27 0 -47 -13.5t-33 -36.5t-19.5 -54.5t-6.5 -67.5q0 -73 24 -114.5t78 -41.5q32 0 54.5 12t33.5 32v249zM356 1004h152l-135 -139h-134zM320 611q-63 0 -98.5 31t-35.5 82t35.5 82t98.5 31t98.5 -31t35.5 -82t-35.5 -82t-98.5 -31zM320 684
q27 0 37.5 12t10.5 28q0 17 -10.5 29t-37.5 12t-37 -12t-10 -29q0 -16 10 -28t37 -12z" />
    <glyph glyph-name="AEacute" unicode="&#x1fc;" horiz-adv-x="867" 
d="M323 680h523l-43 -138h-319l40 -128h201v-131h-155l45 -145h188l43 -138h-353l-37 122h-145l-45 117l-109 -239h-161zM577 875h152l-135 -139h-134zM267 240h152l-45 153l-17 61l-20 -61z" />
    <glyph glyph-name="aeacute" unicode="&#x1fd;" horiz-adv-x="893" 
d="M478 757h152l-135 -139h-134zM221 -16q-42 0 -76.5 10t-60 30t-39.5 51t-14 72q0 84 58 124t174 58l81 13q-1 56 -28 77t-81 21q-60 0 -109.5 -25t-71.5 -63v157q10 9 27 19.5t42 20.5t59 16.5t79 6.5q65 0 109.5 -16t73.5 -45q33 30 78 45.5t96 15.5q46 0 90 -12
t78 -42.5t55 -82.5t21 -131v-73h-350q2 -23 10.5 -43.5t25.5 -36t44 -24.5t66 -9q70 0 114 19t67 39v-136q-23 -19 -73 -37.5t-133 -18.5q-73 0 -128.5 20t-93.5 62q-23 -35 -68 -58.5t-122 -23.5zM282 226q-55 -12 -77 -28.5t-22 -45.5q0 -27 19.5 -40t54.5 -13
q32 0 62.5 14.5t41.5 38.5q-7 21 -10.5 41.5t-5.5 46.5zM707 333v4q0 51 -21.5 79t-71.5 28q-25 0 -43.5 -9t-30.5 -24.5t-19 -35.5t-8 -42h194z" />
    <glyph glyph-name="Oslashacute" unicode="&#x1fe;" horiz-adv-x="765" 
d="M381 -16q-134 0 -222 65l-46 -49h-95l91 97q-36 45 -55.5 105t-19.5 138q0 88 29 155t77.5 111.5t112 67t132.5 22.5q133 0 221 -65l47 50h92l-90 -97q37 -44 57 -105t20 -139q0 -89 -29 -155.5t-77.5 -111t-112 -67t-132.5 -22.5zM383 126q82 0 129.5 55.5t47.5 155.5
q0 71 -23 120l-269 -290q44 -41 115 -41zM205 344q0 -68 22 -120l270 290q-45 40 -114 40q-83 0 -130.5 -55t-47.5 -155zM417 879h152l-135 -139h-134z" />
    <glyph glyph-name="oslashacute" unicode="&#x1ff;" horiz-adv-x="624" 
d="M305 -16q-103 0 -172 48l-29 -32h-92l73 80q-26 35 -39.5 84t-13.5 114q0 76 23 131.5t62 91.5t91 53.5t110 17.5q51 0 94.5 -12.5t78.5 -38.5l32 35h90l-75 -82q26 -35 39.5 -84t13.5 -112q0 -77 -23 -132.5t-62 -91.5t-91 -53t-110 -17zM200 278q0 -37 6 -67l181 196
q-28 31 -75 31q-58 0 -85 -44t-27 -116zM312 118q59 0 85.5 43.5t26.5 116.5q0 37 -7 64l-179 -195q27 -29 74 -29zM349 757h152l-135 -139h-134z" />
    <glyph glyph-name="Scommaaccent" unicode="&#x218;" horiz-adv-x="537" 
d="M196 -133v72h121v-70l-36 -130h-101zM233 -16q-75 0 -120.5 16t-64.5 30v163q13 -12 31.5 -24.5t42.5 -23t52 -17t60 -6.5q60 0 85.5 19t25.5 56q0 30 -22 45t-73 26l-26 6q-42 9 -76 25t-59 40.5t-38.5 58.5t-13.5 80q0 103 66.5 160.5t189.5 57.5q77 0 123 -16t66 -30
v-162q-26 24 -74.5 46.5t-113.5 22.5q-51 0 -74 -15.5t-23 -49.5q0 -29 18 -45.5t68 -26.5l25 -5q44 -9 80.5 -23.5t62.5 -38t40 -57t14 -80.5q0 -51 -17 -94t-51 -73.5t-85 -47.5t-119 -17z" />
    <glyph glyph-name="scommaaccent" unicode="&#x219;" horiz-adv-x="486" 
d="M191 -133v72h121v-70l-36 -130h-101zM217 -16q-64 0 -105.5 11.5t-64.5 26.5v146q26 -22 66 -39t97 -17q56 0 76.5 15t20.5 36q0 11 -3 19t-11.5 13.5t-24 9.5t-39.5 8l-29 4q-87 13 -126.5 55t-39.5 117q0 36 13 69t40.5 58.5t70.5 40.5t104 15q63 0 106.5 -11.5
t65.5 -28.5v-143q-26 26 -68 40.5t-98 14.5q-50 0 -68 -13t-18 -34t13 -32.5t56 -19.5l31 -4q46 -7 79.5 -19t55 -32t31.5 -48t10 -67q0 -36 -13 -70t-42 -61t-75 -43.5t-111 -16.5z" />
    <glyph glyph-name="dotlessj" unicode="&#x237;" horiz-adv-x="280" 
d="M25 -207q-33 0 -59 7t-37 12v131q14 -11 32 -18t37 -7q29 0 44.5 14.5t15.5 46.5v577h164v-567q0 -94 -51.5 -145t-145.5 -51z" />
    <glyph glyph-name="schwa" unicode="&#x259;" horiz-adv-x="588" 
d="M263 572q138 0 215.5 -71.5t77.5 -222.5q0 -77 -23 -132.5t-60.5 -91.5t-86.5 -53t-100 -17q-50 0 -96 12t-81.5 42.5t-57 82.5t-21.5 131v73h358q-2 23 -11 43.5t-27 36t-45.5 24.5t-66.5 9q-70 0 -114 -19t-67 -39v136q22 19 72.5 37.5t133.5 18.5zM185 223v-4
q0 -51 24 -79t75 -28q24 0 43 9t31.5 24.5t19.5 35.5t9 42h-202z" />
    <glyph glyph-name="hsuperior" unicode="&#x2b0;" horiz-adv-x="485" 
d="M48 791h132v-166q14 16 41.5 26.5t65.5 10.5q85 0 120 -39.5t35 -120.5v-241h-132v220q0 42 -14 59t-49 17q-27 0 -43.5 -8t-23.5 -18v-270h-132v530z" />
    <glyph glyph-name="jsuperior" unicode="&#x2b2;" horiz-adv-x="234" 
d="M27 116q-24 0 -43 5.5t-27 11.5v109q21 -20 51 -20q46 0 46 37v392h132v-388q0 -69 -41 -108t-118 -39zM119 686q-31 0 -48.5 15t-17.5 44q0 28 17.5 44t48.5 16t50 -16t19 -44q0 -29 -19 -44t-50 -15z" />
    <glyph glyph-name="wsuperior" unicode="&#x2b7;" horiz-adv-x="599" 
d="M8 651h131l54 -184l87 184h47l87 -184l54 184h121l-116 -390h-85l-86 190l-88 -190h-84z" />
    <glyph glyph-name="ysuperior" unicode="&#x2b8;" horiz-adv-x="432" 
d="M100 114q-26 0 -47 6.5t-32 15.5v113q14 -14 33 -23.5t42 -9.5q18 0 36.5 7t33.5 33l-167 395h144l85 -241l72 241h127l-120 -365q-12 -36 -28.5 -67t-41 -54.5t-58 -37t-79.5 -13.5z" />
    <glyph glyph-name="circumflex" unicode="&#x2c6;" horiz-adv-x="605" 
d="M249 757h106l128 -136h-125l-55 52l-57 -52h-125z" />
    <glyph glyph-name="caron" unicode="&#x2c7;" horiz-adv-x="605" 
d="M121 757h125l56 -55l56 55h125l-123 -139h-116z" />
    <glyph glyph-name="breve" unicode="&#x2d8;" horiz-adv-x="597" 
d="M297 617q-39 0 -69 11t-51 30t-32 44.5t-11 54.5h102q0 -20 13 -38t48 -18q37 0 50 18t13 38h102q0 -29 -11 -54.5t-32 -44.5t-52 -30t-70 -11z" />
    <glyph glyph-name="dotaccent" unicode="&#x2d9;" horiz-adv-x="565" 
d="M280 612q-40 0 -62 20t-22 56q0 38 22 58t62 20q39 0 62.5 -20t23.5 -58q0 -36 -23.5 -56t-62.5 -20z" />
    <glyph glyph-name="ring" unicode="&#x2da;" horiz-adv-x="573" 
d="M286 611q-63 0 -98.5 31t-35.5 82t35.5 82t98.5 31t98.5 -31t35.5 -82t-35.5 -82t-98.5 -31zM286 684q27 0 37.5 12t10.5 28q0 17 -10.5 29t-37.5 12t-37 -12t-10 -29q0 -16 10 -28t37 -12z" />
    <glyph glyph-name="ogonek" unicode="&#x2db;" horiz-adv-x="560" 
d="M293 -205q-53 0 -82 24t-29 61t23.5 68.5t55.5 51.5h98q-41 -27 -55 -47t-14 -37q0 -14 9 -22.5t27 -8.5q19 0 30 5.5t22 13.5v-87q-11 -8 -29.5 -15t-55.5 -7z" />
    <glyph glyph-name="tilde" unicode="&#x2dc;" horiz-adv-x="611" 
d="M120 631q0 63 32 94.5t85 31.5q31 0 52 -9.5t38 -20.5q13 -8 23.5 -13t21.5 -5q16 0 22.5 10t6.5 36h91q0 -63 -33 -94.5t-84 -31.5q-29 0 -51 8.5t-38 18.5q-13 8 -24.5 14.5t-21.5 6.5q-16 0 -22.5 -10t-6.5 -36h-91v0z" />
    <glyph glyph-name="hungarumlaut" unicode="&#x2dd;" horiz-adv-x="643" 
d="M245 757h116l-142 -139h-115zM421 757h117l-142 -139h-117z" />
    <glyph glyph-name="xsuperior" unicode="&#x2e3;" horiz-adv-x="449" 
d="M153 468l-137 183h144l74 -101l67 101h132l-139 -183l156 -207h-146l-88 120l-83 -120h-134z" />
    <glyph glyph-name="Delta" unicode="&#x394;" horiz-adv-x="715" 
d="M301 680h118l274 -680h-671zM472 125l-103 268l-19 58l-19 -58l-102 -268h243z" />
    <glyph glyph-name="Delta" unicode="&#x2206;" horiz-adv-x="715" 
d="M301 680h118l274 -680h-671zM472 125l-103 268l-19 58l-19 -58l-102 -268h243z" />
    <glyph glyph-name="Omega" unicode="&#x3a9;" horiz-adv-x="784" 
d="M59 137h169v38q-42 12 -77 32.5t-60 50t-39 69.5t-14 93q0 73 31 125.5t81 85.5t113.5 48.5t128.5 15.5q73 0 138 -15.5t113.5 -48.5t76.5 -85.5t28 -125.5q0 -50 -15.5 -88.5t-42 -68t-62.5 -50t-76 -33.5v-43h166v-137h-284v241q72 11 108.5 51t36.5 103
q0 81 -50 123.5t-142 42.5q-88 -1 -135 -43t-47 -123q0 -60 34.5 -100t104.5 -52v-243h-285v137z" />
    <glyph glyph-name="Omega" unicode="&#x2126;" horiz-adv-x="784" 
d="M59 137h169v38q-42 12 -77 32.5t-60 50t-39 69.5t-14 93q0 73 31 125.5t81 85.5t113.5 48.5t128.5 15.5q73 0 138 -15.5t113.5 -48.5t76.5 -85.5t28 -125.5q0 -50 -15.5 -88.5t-42 -68t-62.5 -50t-76 -33.5v-43h166v-137h-284v241q72 11 108.5 51t36.5 103
q0 81 -50 123.5t-142 42.5q-88 -1 -135 -43t-47 -123q0 -60 34.5 -100t104.5 -52v-243h-285v137z" />
    <glyph glyph-name="pi" unicode="&#x3c0;" horiz-adv-x="660" 
d="M529 -16q-32 0 -59 7.5t-46 25t-29.5 46.5t-10.5 73v291h-116v-427h-165v427h-83v129h631l-43 -129h-59v-266q0 -29 7 -39.5t27 -10.5q17 0 31 14v-124q-8 -5 -28 -11t-57 -6z" />
    <glyph glyph-name="Wgrave" unicode="&#x1e80;" horiz-adv-x="949" 
d="M9 680h176l108 -430h6l101 331l-31 99h162l132 -430h4l109 430h166l-208 -680h-138l-124 384l-126 -384h-134zM287 875h153l116 -139h-136z" />
    <glyph glyph-name="wgrave" unicode="&#x1e81;" horiz-adv-x="773" 
d="M13 556h162l75 -294l112 294h59l115 -294l72 294h151l-151 -556h-101l-118 303l-119 -303h-100zM201 757h153l116 -139h-136z" />
    <glyph glyph-name="Wacute" unicode="&#x1e82;" horiz-adv-x="949" 
d="M513 875h152l-135 -139h-134zM9 680h176l108 -430h6l101 331l-31 99h162l132 -430h4l109 430h166l-208 -680h-138l-124 384l-126 -384h-134z" />
    <glyph glyph-name="wacute" unicode="&#x1e83;" horiz-adv-x="773" 
d="M425 757h152l-135 -139h-134zM13 556h162l75 -294l112 294h59l115 -294l72 294h151l-151 -556h-101l-118 303l-119 -303h-100z" />
    <glyph glyph-name="Wdieresis" unicode="&#x1e84;" horiz-adv-x="949" 
d="M368 737q-34 0 -54 17.5t-20 49.5t20 50t54 18t53.5 -18t19.5 -50t-19.5 -49.5t-53.5 -17.5zM583 737q-32 0 -52 17.5t-20 49.5t20 50t52 18q35 0 55 -18t20 -50t-20 -49.5t-55 -17.5zM9 680h176l108 -430h6l101 331l-31 99h162l132 -430h4l109 430h166l-208 -680h-138
l-124 384l-126 -384h-134z" />
    <glyph glyph-name="wdieresis" unicode="&#x1e85;" horiz-adv-x="773" 
d="M281 619q-34 0 -54 17.5t-20 49.5t20 50t54 18t53.5 -18t19.5 -50t-19.5 -49.5t-53.5 -17.5zM496 619q-32 0 -52 17.5t-20 49.5t20 50t52 18q35 0 55 -18t20 -50t-20 -49.5t-55 -17.5zM13 556h162l75 -294l112 294h59l115 -294l72 294h151l-151 -556h-101l-118 303
l-119 -303h-100z" />
    <glyph glyph-name="Ygrave" unicode="&#x1ef2;" horiz-adv-x="626" 
d="M228 276l-228 404h189l131 -257l136 257h169l-228 -404v-276h-169v276zM125 875h153l116 -139h-136z" />
    <glyph glyph-name="ygrave" unicode="&#x1ef3;" horiz-adv-x="558" 
d="M139 -210q-36 0 -65.5 8t-43.5 19v135q17 -18 41.5 -27.5t53.5 -9.5t53.5 13.5t44.5 59.5l-221 568h179l115 -362l96 362h158l-156 -527q-15 -50 -36.5 -94t-52 -76t-71.5 -50.5t-95 -18.5zM102 757h153l116 -139h-136z" />
    <glyph glyph-name="endash" unicode="&#x2013;" horiz-adv-x="706" 
d="M52 373h602v-126h-602v126z" />
    <glyph glyph-name="emdash" unicode="&#x2014;" 
d="M52 373h834v-125h-834v125z" />
    <glyph glyph-name="quoteleft" unicode="&#x2018;" horiz-adv-x="254" 
d="M217 762q-6 -12 -13 -27.5t-13 -33t-11 -35t-7 -33.5q21 -11 32.5 -31t11.5 -44q0 -39 -25 -63t-66 -24q-39 0 -62 25t-23 67q0 32 11.5 64.5t28 61t35.5 51t34 34.5z" />
    <glyph glyph-name="quoteright" unicode="&#x2019;" horiz-adv-x="250" 
d="M45 483q6 12 13 27.5t13 33t11 35t7 33.5q-21 11 -32.5 31t-11.5 44q0 39 25 63t66 24q39 0 62 -25t23 -67q0 -32 -11.5 -64.5t-28 -61t-35.5 -51t-34 -34.5z" />
    <glyph glyph-name="quotesinglbase" unicode="&#x201a;" horiz-adv-x="256" 
d="M39 -139q6 12 13 27.5t13 33t11 35t7 33.5q-21 11 -32.5 31t-11.5 44q0 39 25 63t66 24q39 0 62 -25t23 -67q0 -32 -11.5 -64.5t-28 -61t-35.5 -51t-34 -34.5z" />
    <glyph glyph-name="quotedblleft" unicode="&#x201c;" horiz-adv-x="459" 
d="M217 762q-6 -12 -13 -27.5t-13 -33t-11 -35t-7 -33.5q21 -11 32.5 -31t11.5 -44q0 -39 -25 -63t-66 -24q-39 0 -62 25t-23 67q0 32 11.5 64.5t28 61t35.5 51t34 34.5zM422 762q-6 -12 -13 -27.5t-13 -33t-11 -35t-7 -33.5q21 -11 32.5 -31t11.5 -44q0 -39 -25 -63
t-66 -24q-39 0 -62 25t-23 67q0 32 11.5 64.5t28 61t35.5 51t34 34.5z" />
    <glyph glyph-name="quotedblright" unicode="&#x201d;" horiz-adv-x="454" 
d="M45 483q6 12 13 27.5t13 33t11 35t7 33.5q-21 11 -32.5 31t-11.5 44q0 39 25 63t66 24q39 0 62 -25t23 -67q0 -32 -11.5 -64.5t-28 -61t-35.5 -51t-34 -34.5zM250 483q6 12 13 27.5t13 33t11 35t7 33.5q-21 11 -32.5 31t-11.5 44q0 39 25 63t66 24q39 0 62 -25t23 -67
q0 -32 -11.5 -64.5t-28 -61t-35.5 -51t-34 -34.5z" />
    <glyph glyph-name="quotedblbase" unicode="&#x201e;" horiz-adv-x="460" 
d="M39 -139q6 12 13 27.5t13 33t11 35t7 33.5q-21 11 -32.5 31t-11.5 44q0 39 25 63t66 24q39 0 62 -25t23 -67q0 -32 -11.5 -64.5t-28 -61t-35.5 -51t-34 -34.5zM243 -139q6 12 13 27.5t13 33t11 35t7 33.5q-21 11 -32.5 31t-11.5 44q0 39 25 63t66 24q39 0 62 -25t23 -67
q0 -32 -11.5 -64.5t-28 -61t-35.5 -51t-34 -34.5z" />
    <glyph glyph-name="dagger" unicode="&#x2020;" horiz-adv-x="429" 
d="M157 442l17 60h-143v97h143l-17 61v122h113v-122l-16 -61h143v-97h-143l16 -60v-228h-113v228z" />
    <glyph glyph-name="daggerdbl" unicode="&#x2021;" horiz-adv-x="439" 
d="M163 122l16 61h-143v97h144l-17 60v102l17 60h-144v97h144l-17 61v122h113v-122l-16 -61h143v-97h-144l17 -60v-102l-17 -60h144v-97h-144l17 -61v-122h-113v122z" />
    <glyph glyph-name="bullet" unicode="&#x2022;" horiz-adv-x="341" 
d="M171 219q-30 0 -54.5 10.5t-42.5 28.5t-28 43t-10 55q0 29 10 54t28 43.5t42.5 29t54.5 10.5q28 0 52.5 -10.5t42.5 -29t28.5 -43.5t10.5 -54q0 -30 -10.5 -55t-28.5 -43t-42.5 -28.5t-52.5 -10.5z" />
    <glyph glyph-name="ellipsis" unicode="&#x2026;" horiz-adv-x="741" 
d="M131 -16q-42 0 -67 26.5t-25 67.5t25 68t67 27q40 0 66.5 -27t26.5 -68t-26.5 -67.5t-66.5 -26.5zM371 -16q-40 0 -66.5 26.5t-26.5 67.5t26.5 68t66.5 27t66.5 -27t26.5 -68t-26.5 -67.5t-66.5 -26.5zM611 -16q-41 0 -67 26.5t-26 67.5t26 68t67 27q40 0 66 -27t26 -68
t-26 -67.5t-66 -26.5z" />
    <glyph glyph-name="perthousand" unicode="&#x2030;" horiz-adv-x="1139" 
d="M198 323q-34 0 -64.5 9.5t-53 31.5t-35.5 59t-13 91t13 90.5t35.5 58.5t53 31.5t64.5 9.5q52 0 93 -23q16 -9 31 -15t30.5 -10t34 -6t41.5 -2q54 0 88.5 16.5t55.5 39.5l71 -43l-416 -661h-102l364 575q-27 -11 -64 -11q-40 0 -69 11q4 -14 5.5 -29t1.5 -32
q0 -54 -13 -91t-35.5 -59t-52.5 -31.5t-64 -9.5zM197 422q28 0 39 21t11 71q0 48 -11 69.5t-39 21.5q-27 0 -38 -21.5t-11 -69.5q0 -50 11 -71t38 -21zM590 -16q-34 0 -64.5 9.5t-53 31.5t-35.5 59t-13 91t13 90t35.5 58.5t53 32t64.5 9.5t64 -9.5t52.5 -32t35.5 -58.5
t13 -90t-13 -91t-35.5 -59t-52.5 -31.5t-64 -9.5zM590 82q27 0 38 21.5t11 71.5q0 48 -10.5 69.5t-38.5 21.5t-39 -21.5t-11 -69.5q0 -50 11 -71.5t39 -21.5zM946 -16q-34 0 -64.5 9.5t-53 31.5t-35.5 59t-13 91t13 90t35.5 58.5t53 32t64.5 9.5t64 -9.5t52.5 -32
t35.5 -58.5t13 -90t-13 -91t-35.5 -59t-52.5 -31.5t-64 -9.5zM945 82q28 0 39 21.5t11 71.5q0 48 -11 69.5t-39 21.5q-27 0 -38 -21.5t-11 -69.5q0 -50 11 -71.5t38 -21.5z" />
    <glyph glyph-name="guilsinglleft" unicode="&#x2039;" horiz-adv-x="380" 
d="M198 0q-32 63 -74.5 125.5t-99.5 125.5q57 63 99.5 120t74.5 120h146q-72 -127 -168 -240q48 -57 90 -122t78 -129h-146v0z" />
    <glyph glyph-name="guilsinglright" unicode="&#x203a;" horiz-adv-x="380" 
d="M37 0q35 64 77 129t90 122q-48 56 -90 116t-77 124h145q33 -63 75.5 -120.5t98.5 -119.5q-57 -63 -99 -125.5t-75 -125.5h-145v0z" />
    <glyph glyph-name="fraction" unicode="&#x2044;" horiz-adv-x="200" 
d="M280 680h76l-435 -680h-76z" />
    <glyph glyph-name="zerosuperior" unicode="&#x2070;" horiz-adv-x="438" 
d="M219 328q-54 0 -91 13.5t-59 41t-31.5 69t-9.5 96.5q0 112 48.5 165.5t142.5 53.5q55 0 91.5 -13.5t58.5 -40.5t31.5 -68.5t9.5 -96.5q0 -220 -191 -220zM219 428q18 0 28.5 6t16.5 19.5t8 36.5t2 58q0 34 -2 57t-8 37t-16.5 19.5t-28.5 5.5q-17 0 -28 -5.5t-17 -19.5
t-8 -37t-2 -57q0 -35 2 -58t8 -36.5t17 -19.5t28 -6z" />
    <glyph glyph-name="foursuperior" unicode="&#x2074;" horiz-adv-x="424" 
d="M241 415h-232v31l128 311h122l-96 -245h85l13 137h103v-137h64l-29 -97h-35v-77h-123v77z" />
    <glyph glyph-name="fivesuperior" unicode="&#x2075;" horiz-adv-x="398" 
d="M154 328q-49 0 -80 6t-47 14v103q16 -8 45.5 -16t72.5 -8q51 0 71.5 10t20.5 29q0 16 -18.5 25.5t-73.5 9.5q-33 0 -57 -3t-43 -8l12 267h310l-29 -100h-170l-1 -59q3 1 11.5 1.5t16.5 0.5q94 0 136.5 -30t42.5 -96q0 -67 -58.5 -106.5t-161.5 -39.5z" />
    <glyph glyph-name="sixsuperior" unicode="&#x2076;" horiz-adv-x="418" 
d="M210 328q-88 0 -136.5 43t-48.5 127q0 50 15.5 91.5t40.5 74.5t55.5 56t60.5 37h167v-7q-19 -8 -42 -19.5t-46 -26.5t-44 -34.5t-35 -42.5q11 3 23 5.5t28 2.5q67 0 109 -35.5t42 -110.5t-51 -118t-138 -43zM161 523q-2 -9 -2 -18v-18q0 -58 56 -58q55 0 55 55
q0 54 -55 54q-20 0 -33 -4t-21 -11z" />
    <glyph glyph-name="sevensuperior" unicode="&#x2077;" horiz-adv-x="383" 
d="M227 657h-196l-30 100h380v-32l-161 -387h-133z" />
    <glyph glyph-name="eightsuperior" unicode="&#x2078;" horiz-adv-x="424" 
d="M208 328q-95 0 -138.5 35.5t-43.5 90.5q0 36 21 59.5t52 34.5q-25 12 -43.5 35t-18.5 59q0 60 46.5 92.5t131.5 32.5q83 0 127.5 -32.5t44.5 -92.5q0 -36 -19 -58t-43 -33q30 -11 51 -35.5t21 -61.5q0 -55 -46 -90.5t-143 -35.5zM212 424q29 0 42.5 11t13.5 29
q0 17 -13.5 28t-42.5 11t-42.5 -11t-13.5 -28q0 -18 13.5 -29t42.5 -11zM211 595q24 0 37.5 10t13.5 28q0 17 -13.5 27t-37.5 10q-49 0 -49 -37q0 -38 49 -38z" />
    <glyph glyph-name="ninesuperior" unicode="&#x2079;" horiz-adv-x="419" 
d="M54 345l41 20.5t46 26.5t44 34t36 42q-11 -3 -23.5 -5.5t-27.5 -2.5q-67 0 -109.5 36t-42.5 110q0 37 13.5 67t38.5 51t60 32t78 11q87 0 136.5 -43t49.5 -127q0 -50 -16 -91.5t-40.5 -74.5t-55 -56.5t-60.5 -36.5h-168v7zM203 557q20 0 32.5 4t20.5 11q3 16 3 37
q0 58 -56 58q-55 0 -55 -55t55 -55z" />
    <glyph glyph-name="plussuperior" unicode="&#x207a;" horiz-adv-x="389" 
d="M142 513h-119v100h119v97h104v-97h120v-100h-120v-98h-104v98z" />
    <glyph glyph-name="minussuperior" unicode="&#x207b;" horiz-adv-x="431" 
d="M39 613h353v-100h-353v100z" />
    <glyph glyph-name="equalsuperior" unicode="&#x207c;" horiz-adv-x="404" 
d="M39 537h326v-93h-326v93zM39 682h326v-94h-326v94z" />
    <glyph glyph-name="parenleftsuperior" unicode="&#x207d;" horiz-adv-x="272" 
d="M168 290q-31 15 -57.5 41t-46 60.5t-30.5 75.5t-11 84q0 41 11 80t30.5 72t46 58t57.5 40h108q-64 -32 -104 -94.5t-40 -155.5q0 -48 12 -88.5t32 -73.5t45.5 -58t53.5 -41h-107v0z" />
    <glyph glyph-name="parenrightsuperior" unicode="&#x207e;" horiz-adv-x="272" 
d="M-4 290q30 16 56 40.5t45.5 57t31 72t11.5 86.5t-11 86.5t-30.5 71.5t-46 56t-56.5 40h107q31 -14 58 -40t46.5 -59.5t30.5 -73t11 -81.5t-11 -82t-30.5 -74t-46.5 -59.5t-58 -40.5h-107v0z" />
    <glyph glyph-name="nsuperior" unicode="&#x207f;" horiz-adv-x="486" 
d="M48 651h118l8 -33q13 20 41.5 32t70.5 12q84 0 120.5 -40t36.5 -120v-241h-133v220q0 42 -14 59t-49 17q-27 0 -43.5 -8.5t-23.5 -17.5v-270h-132v390z" />
    <glyph glyph-name="zeroinferior" unicode="&#x2080;" horiz-adv-x="440" 
d="M220 -204q-54 0 -91 13.5t-59 41t-31.5 69t-9.5 96.5q0 112 48.5 165.5t142.5 53.5q55 0 91.5 -13.5t58.5 -40.5t31.5 -68.5t9.5 -96.5q0 -220 -191 -220zM220 -104q18 0 28.5 6t16.5 19.5t8 36.5t2 58q0 34 -2 57t-8 37t-16.5 19.5t-28.5 5.5q-17 0 -28 -5.5t-17 -19.5
t-8 -37t-2 -57q0 -35 2 -58t8 -36.5t17 -19.5t28 -6z" />
    <glyph glyph-name="oneinferior" unicode="&#x2081;" horiz-adv-x="374" 
d="M152 -194v285l-118 -59v105l174 88h71v-419h-127z" />
    <glyph glyph-name="twoinferior" unicode="&#x2082;" horiz-adv-x="403" 
d="M35 -152l140 134q23 22 40.5 46t17.5 50q0 28 -18 42t-60 14q-39 0 -73 -14.5t-54 -31.5v105q17 14 54 28t99 14q92 0 135 -35t43 -99q0 -27 -9.5 -50t-24.5 -43t-33.5 -36.5t-36.5 -31.5l-37 -32h160v-102h-343v42z" />
    <glyph glyph-name="threeinferior" unicode="&#x2083;" horiz-adv-x="402" 
d="M157 -204q-48 0 -77.5 7.5t-43.5 15.5v107q15 -12 42 -21.5t65 -9.5q56 0 76.5 12.5t20.5 34.5q0 20 -17 30.5t-65 10.5h-41v30l92 112h-160l-29 100h343v-32l-104 -128q22 -3 43.5 -10.5t37.5 -21t26 -34.5t10 -51q0 -31 -12.5 -58.5t-39.5 -48.5t-68.5 -33t-98.5 -12z
" />
    <glyph glyph-name="fourinferior" unicode="&#x2084;" horiz-adv-x="425" 
d="M242 -117h-232v31l128 311h121l-95 -245h84l14 137h102v-137h64l-29 -97h-35v-77h-122v77z" />
    <glyph glyph-name="fiveinferior" unicode="&#x2085;" horiz-adv-x="400" 
d="M154 -204q-49 0 -80 6t-46 14v103q15 -8 45 -16t72 -8q51 0 71.5 10t20.5 29q0 8 -4 14.5t-14 11t-27.5 7t-45.5 2.5q-33 0 -57.5 -3t-43.5 -8l12 267h311l-29 -100h-170l-2 -59q3 1 12 1h17q93 0 135.5 -29.5t42.5 -95.5q0 -67 -58.5 -106.5t-161.5 -39.5z" />
    <glyph glyph-name="sixinferior" unicode="&#x2086;" horiz-adv-x="419" 
d="M210 -204q-88 0 -136.5 43t-48.5 127q0 50 15.5 91.5t40.5 74.5t55.5 56t60.5 37h167v-7q-18 -8 -41 -19.5t-46.5 -26.5t-44.5 -34.5t-35 -42.5q11 3 23 5t28 2q67 0 109 -35t42 -110t-51 -118t-138 -43zM161 -10q-2 -8 -2 -17v-18q0 -58 56 -58q55 0 55 55q0 54 -55 54
q-38 0 -54 -16z" />
    <glyph glyph-name="seveninferior" unicode="&#x2087;" horiz-adv-x="385" 
d="M227 125h-196l-30 100h380v-32l-161 -387h-133z" />
    <glyph glyph-name="eightinferior" unicode="&#x2088;" horiz-adv-x="426" 
d="M209 -204q-96 0 -139 35.5t-43 90.5q0 36 21 59.5t52 34.5q-25 12 -43.5 35t-18.5 59q0 60 46.5 92.5t131.5 32.5q83 0 127.5 -32.5t44.5 -92.5q0 -36 -19 -58t-43 -33q30 -11 51 -35.5t21 -61.5q0 -55 -46 -90.5t-143 -35.5zM213 -108q56 0 56 40q0 17 -13.5 28
t-42.5 11t-42.5 -11t-13.5 -28q0 -40 56 -40zM212 63q24 0 37.5 10t13.5 28q0 17 -13.5 27.5t-37.5 10.5q-23 0 -36 -10.5t-13 -27.5q0 -38 49 -38z" />
    <glyph glyph-name="nineinferior" unicode="&#x2089;" horiz-adv-x="420" 
d="M56 -187l41 20.5t46 26.5t44 34t35 42q-11 -3 -23 -5.5t-28 -2.5q-66 0 -108.5 35.5t-42.5 110.5q0 37 13.5 67t38.5 51t60 32t78 11q87 0 136 -43t49 -127q0 -50 -15.5 -91.5t-40.5 -74.5t-55.5 -56.5t-60.5 -36.5h-167v7zM205 25q20 0 32.5 4t20.5 11q3 16 3 37
q0 58 -56 58q-55 0 -55 -55t55 -55z" />
    <glyph glyph-name="parenleftinferior" unicode="&#x208d;" horiz-adv-x="275" 
d="M169 -242q-31 15 -58 41.5t-46.5 61t-30.5 75t-11 84.5q0 40 11 78.5t30.5 71.5t46.5 58.5t58 40.5h108q-64 -32 -104.5 -94.5t-40.5 -154.5q0 -48 12 -89t32 -74t46 -58t54 -41h-107v0z" />
    <glyph glyph-name="parenrightinferior" unicode="&#x208e;" horiz-adv-x="274" 
d="M-3 -243q30 17 56 41.5t45.5 57t31 72t11.5 86.5t-11 86.5t-30.5 71.5t-46 56t-56.5 40h107q31 -14 58 -40t46.5 -59.5t30.5 -73t11 -81.5t-11 -82t-30.5 -74t-46.5 -60t-58 -41h-107v0z" />
    <glyph glyph-name="Euro" unicode="&#x20ac;" horiz-adv-x="625" 
d="M30 421h70q13 64 43 111t70.5 77.5t88 45t96.5 14.5q70 0 111.5 -17t63.5 -37v-177q-49 85 -168 85q-58 0 -91.5 -25t-47.5 -77h178v-69h-187v-42h187v-71h-178q13 -54 46.5 -81.5t92.5 -27.5q57 0 100 19.5t68 60.5v-167q-26 -25 -70 -42t-105 -17q-59 0 -109.5 14.5
t-89.5 45.5t-65.5 79t-36.5 116h-67v71h61v42h-61v69z" />
    <glyph glyph-name="uni2105" unicode="&#x2105;" horiz-adv-x="971" 
d="M722 -21q-47 0 -86 11.5t-67.5 36.5t-44 64t-15.5 94q0 54 18 93t48.5 64t71 37t85.5 12q47 0 86.5 -12t67.5 -37t43.5 -64t15.5 -93q0 -55 -18 -94t-48.5 -64t-71 -36.5t-85.5 -11.5zM728 86q48 0 66 26t18 73q0 46 -18 72.5t-66 26.5t-66 -26.5t-18 -72.5q0 -47 18 -73
t66 -26zM647 680h76l-435 -680h-76zM245 296q-50 0 -90.5 12t-69 37.5t-44.5 64t-16 92.5t16.5 92.5t46 64t70 37.5t88.5 12q43 0 74.5 -8t48.5 -22v-124q-21 21 -48 30.5t-62 9.5q-51 0 -74.5 -24t-23.5 -69t23.5 -68t74.5 -23q68 0 112 38v-119q-17 -13 -49.5 -23
t-76.5 -10z" />
    <glyph glyph-name="uni2116" unicode="&#x2116;" horiz-adv-x="1176" 
d="M928 250q-47 0 -86 11.5t-67.5 36.5t-44 64t-15.5 94q0 54 18 93t48.5 64t71 37t85.5 12q47 0 86.5 -12t67.5 -37t43.5 -64t15.5 -93q0 -55 -18 -94t-48.5 -64t-71 -36.5t-85.5 -11.5zM934 357q48 0 66 26t18 73q0 46 -18 72.5t-66 26.5t-66 -26.5t-18 -72.5
q0 -47 18 -73t66 -26zM66 680h156l275 -393h2v393h150v-680h-134l-297 421h-2v-421h-150v680z" />
    <glyph glyph-name="trademark" unicode="&#x2122;" horiz-adv-x="985" 
d="M464 681h112l119 -153l114 153h112v-384h-128v207l-89 -114h-24l-88 114v-207h-128v384zM169 581h-119v100h371v-100h-118v-284h-134v284z" />
    <glyph glyph-name="estimated" unicode="&#x212e;" horiz-adv-x="817" 
d="M408 -16q-78 0 -146.5 28t-119 76.5t-80 113.5t-29.5 139q0 73 29.5 138t80 113t119 76t146.5 28t146.5 -28t119.5 -76t80.5 -113t29.5 -138v-9h-610q-4 0 -4 -5v-197q0 -13 6 -19q46 -52 106 -74t128 -22q72 0 135 25.5t108 79.5h55q-53 -63 -130.5 -99.5t-169.5 -36.5z
M642 364q3 0 3 6v181q0 8 -2 12.5t-7 9.5q-44 48 -102 69t-126 21q-66 0 -125.5 -21.5t-104.5 -69.5q-5 -5 -6.5 -11t-1.5 -14v-177q0 -6 4 -6h468z" />
    <glyph glyph-name="onethird" unicode="&#x2153;" horiz-adv-x="935" 
d="M158 261v285l-118 -59v105l174 88h71v-419h-127zM619 680h76l-435 -680h-76zM684 -10q-48 0 -77.5 7.5t-43.5 15.5v107q15 -12 42 -21.5t65 -9.5q56 0 76.5 12.5t20.5 34.5q0 20 -17 30.5t-65 10.5h-41v30l92 112h-160l-29 100h343v-32l-104 -128q22 -3 43.5 -10.5
t37.5 -21t26 -34.5t10 -51q0 -31 -12.5 -58.5t-39.5 -48.5t-68.5 -33t-98.5 -12z" />
    <glyph glyph-name="twothirds" unicode="&#x2154;" horiz-adv-x="980" 
d="M665 680h76l-435 -680h-76zM729 -10q-48 0 -77.5 7.5t-43.5 15.5v107q15 -12 42 -21.5t65 -9.5q56 0 76.5 12.5t20.5 34.5q0 20 -17 30.5t-65 10.5h-41v30l92 112h-160l-29 100h343v-32l-104 -128q22 -3 43.5 -10.5t37.5 -21t26 -34.5t10 -51q0 -31 -12.5 -58.5
t-39.5 -48.5t-68.5 -33t-98.5 -12zM41 303l140 134q23 22 40.5 46t17.5 50q0 28 -18 42t-60 14q-39 0 -73 -14.5t-54 -31.5v105q17 14 54 28t99 14q92 0 135 -35t43 -100q0 -27 -9.5 -49.5t-24.5 -42.5t-33.5 -36.5t-36.5 -31.5l-37 -32h160v-102h-343v42z" />
    <glyph glyph-name="oneeighth" unicode="&#x215b;" horiz-adv-x="931" 
d="M713 -10q-96 0 -139 35.5t-43 90.5q0 36 21 59.5t52 34.5q-25 12 -43.5 35t-18.5 59q0 60 46.5 92.5t131.5 32.5q83 0 127.5 -32.5t44.5 -92.5q0 -36 -19 -58t-43 -33q30 -11 51 -35.5t21 -61.5q0 -55 -46 -90.5t-143 -35.5zM717 86q56 0 56 40q0 17 -13.5 28t-42.5 11
t-42.5 -11t-13.5 -28q0 -40 56 -40zM716 257q24 0 37.5 10t13.5 28q0 17 -13.5 27.5t-37.5 10.5q-23 0 -36 -10.5t-13 -27.5q0 -38 49 -38zM158 261v285l-118 -59v105l174 88h71v-419h-127zM626 680h76l-435 -680h-76z" />
    <glyph glyph-name="threeeighths" unicode="&#x215c;" horiz-adv-x="928" 
d="M709 -10q-96 0 -139 35.5t-43 90.5q0 36 21 59.5t52 34.5q-25 12 -43.5 35t-18.5 59q0 60 46.5 92.5t131.5 32.5q83 0 127.5 -32.5t44.5 -92.5q0 -36 -19 -58t-43 -33q30 -11 51 -35.5t21 -61.5q0 -55 -46 -90.5t-143 -35.5zM713 86q56 0 56 40q0 17 -13.5 28t-42.5 11
t-42.5 -11t-13.5 -28q0 -40 56 -40zM712 257q24 0 37.5 10t13.5 28q0 17 -13.5 27.5t-37.5 10.5q-23 0 -36 -10.5t-13 -27.5q0 -38 49 -38zM165 251q-48 0 -77.5 7.5t-43.5 15.5v107q15 -12 42 -21.5t65 -9.5q56 0 76.5 12.5t20.5 34.5q0 20 -17 30.5t-65 10.5h-41v30
l92 112h-160l-29 100h343v-32l-104 -128q22 -3 43.5 -10.5t37.5 -21t26 -34t10 -50.5q0 -31 -12.5 -59t-39.5 -49t-68.5 -33t-98.5 -12zM627 680h76l-435 -680h-76z" />
    <glyph glyph-name="fiveeighths" unicode="&#x215d;" horiz-adv-x="929" 
d="M161 251q-49 0 -80 6t-46 14v103q15 -8 45 -16t72 -8q51 0 71.5 10t20.5 28q0 17 -18 26.5t-74 9.5q-32 0 -56.5 -3t-43.5 -8l12 267h310l-29 -100h-170l-1 -59q3 1 12 1.5t17 0.5q92 0 135 -30t43 -96q0 -67 -58.5 -106.5t-161.5 -39.5zM628 680h76l-435 -680h-76z
M710 -10q-96 0 -139 35.5t-43 90.5q0 36 21 59.5t52 34.5q-25 12 -43.5 35t-18.5 59q0 60 46.5 92.5t131.5 32.5q83 0 127.5 -32.5t44.5 -92.5q0 -36 -19 -58t-43 -33q30 -11 51 -35.5t21 -61.5q0 -55 -46 -90.5t-143 -35.5zM714 86q56 0 56 40q0 17 -13.5 28t-42.5 11
t-42.5 -11t-13.5 -28q0 -40 56 -40zM713 257q24 0 37.5 10t13.5 28q0 17 -13.5 27.5t-37.5 10.5q-23 0 -36 -10.5t-13 -27.5q0 -38 49 -38z" />
    <glyph glyph-name="seveneighths" unicode="&#x215e;" horiz-adv-x="901" 
d="M680 -10q-96 0 -139 35.5t-43 90.5q0 36 21 59.5t52 34.5q-25 12 -43.5 35t-18.5 59q0 60 46.5 92.5t131.5 32.5q83 0 127.5 -32.5t44.5 -92.5q0 -36 -19 -58t-43 -33q30 -11 51 -35.5t21 -61.5q0 -55 -46 -90.5t-143 -35.5zM684 86q56 0 56 40q0 17 -13.5 28t-42.5 11
t-42.5 -11t-13.5 -28q0 -40 56 -40zM683 257q24 0 37.5 10t13.5 28q0 17 -13.5 27.5t-37.5 10.5q-23 0 -36 -10.5t-13 -27.5q0 -38 49 -38zM592 680h76l-435 -680h-76zM242 580h-196l-30 100h380v-32l-161 -387h-133z" />
    <glyph glyph-name="arrowleft" unicode="&#x2190;" horiz-adv-x="794" 
d="M294 65q-45 76 -107 147t-147 135v3q85 64 147 135t107 147h163q-32 -66 -77 -119.5t-93 -95.5h454v-137h-454q48 -42 93 -95.5t77 -119.5h-163v0z" />
    <glyph glyph-name="arrowup" unicode="&#x2191;" horiz-adv-x="794" 
d="M112 445q77 44 148 106t135 148h4q63 -86 134 -148t148 -106v-164q-67 33 -120.5 78t-95.5 93v-455h-137v455q-42 -48 -95.5 -93t-120.5 -78v164v0z" />
    <glyph glyph-name="arrowright" unicode="&#x2192;" horiz-adv-x="794" 
d="M499 632q45 -76 107 -147t148 -135v-3q-86 -64 -148 -135t-107 -147h-162q32 66 77 119.5t93 95.5h-454v137h454q-48 42 -93 95.5t-77 119.5h162v0z" />
    <glyph glyph-name="arrowdown" unicode="&#x2193;" horiz-adv-x="794" 
d="M681 235q-77 -44 -148 -106t-134 -148h-4q-64 86 -135 148t-148 106v164q68 -33 121 -78t95 -93v455h137v-455q42 48 96 93t120 78v-164v0z" />
    <glyph glyph-name="uni2196" unicode="&#x2196;" horiz-adv-x="794" 
d="M119 216q23 85 29.5 179t-10.5 200l4 3q105 -16 199.5 -9.5t179.5 28.5l115 -114q-70 -26 -140 -32t-133 -1l321 -321l-97 -97l-321 321q5 -63 -1.5 -132.5t-30.5 -140.5l-115 116v0z" />
    <glyph glyph-name="uni2197" unicode="&#x2197;" horiz-adv-x="794" 
d="M274 617q85 -23 179 -29.5t200 10.5l3 -4q-16 -105 -9.5 -199.5t28.5 -179.5l-115 -115q-24 70 -30.5 140t-1.5 133l-321 -321l-98 96l322 322q-63 -5 -133 1.5t-140 30.5l116 115v0z" />
    <glyph glyph-name="uni2198" unicode="&#x2198;" horiz-adv-x="794" 
d="M675 453q-23 -85 -29.5 -179t9.5 -200l-3 -3q-105 16 -199.5 9.5t-179.5 -29.5l-115 115q70 25 140 31t133 1l-322 322l97 97l321 -321q-4 63 2.5 132.5t29.5 140.5l116 -116v0z" />
    <glyph glyph-name="uni2199" unicode="&#x2199;" horiz-adv-x="794" 
d="M533 51q-85 23 -179 29.5t-200 -9.5l-3 3q15 106 9 200t-29 179l115 116q25 -71 31 -140.5t1 -132.5l321 321l98 -97l-321 -321q63 5 132.5 -1.5t140.5 -30.5l-116 -116v0z" />
    <glyph glyph-name="partialdiff" unicode="&#x2202;" horiz-adv-x="635" 
d="M281 -9q-116 0 -182.5 60t-66.5 171q0 58 19 105t54 80t84.5 50.5t109.5 17.5t94 -13t51 -27q0 58 -11.5 96.5t-33.5 62t-53.5 33t-71.5 9.5q-37 0 -71 -11t-62 -28t-48.5 -37.5t-29.5 -39.5v160q10 12 29.5 27.5t49.5 29t71 22.5t94 9q61 0 114 -18t92.5 -59t62 -107
t22.5 -162q0 -101 -20 -181t-60 -135.5t-99.5 -85t-137.5 -29.5zM432 315q-16 14 -45 24.5t-63 10.5q-59 0 -93 -30t-34 -94q0 -53 25 -77.5t65 -24.5q37 0 63.5 16.5t44 43t26.5 61t11 70.5z" />
    <glyph glyph-name="product" unicode="&#x220f;" horiz-adv-x="669" 
d="M66 681h537v-681h-167v541h-204v-541h-166v681z" />
    <glyph glyph-name="summation" unicode="&#x2211;" horiz-adv-x="552" 
d="M31 34l202 307l-203 305v34h486l-42 -134h-221l138 -206l-136 -205h236l43 -135h-503v34z" />
    <glyph glyph-name="minus" unicode="&#x2212;" horiz-adv-x="597" 
d="M55 434h488v-138h-488v138z" />
    <glyph glyph-name="radical" unicode="&#x221a;" horiz-adv-x="558" 
d="M56 306h-46v116h140l128 -198h5l123 529h139l-178 -753h-93z" />
    <glyph glyph-name="infinity" unicode="&#x221e;" horiz-adv-x="770" 
d="M209 182q-35 0 -65.5 10.5t-54 32t-37 53t-13.5 73.5t13.5 75t37.5 56.5t56.5 36t70.5 12.5q54 0 94.5 -19t75.5 -66q38 47 80.5 66t94.5 19q34 0 65 -11t54.5 -32t37 -52.5t13.5 -73.5t-14 -75.5t-38 -56.5t-56.5 -35.5t-69.5 -12.5q-54 0 -95 19t-76 66
q-38 -47 -80 -66t-94 -19zM229 293q35 0 56.5 19t32.5 44q-11 26 -32.5 45t-56.5 19q-25 0 -44 -17t-19 -47t19 -46.5t44 -16.5zM541 294q26 0 45 16.5t19 46.5q0 29 -19 46t-45 17q-35 0 -56 -18.5t-32 -44.5q11 -26 32 -44.5t56 -18.5z" />
    <glyph glyph-name="integral" unicode="&#x222b;" horiz-adv-x="395" 
d="M121 -215q-46 0 -73.5 8.5t-36.5 13.5v136q10 -7 28 -14.5t38 -7.5q22 0 30 14t8 40v655q0 81 43.5 123.5t115.5 42.5q45 0 73 -8.5t36 -13.5v-137q-9 8 -27.5 15t-38.5 7q-21 0 -29.5 -14t-8.5 -39v-656q0 -81 -43 -123t-115 -42z" />
    <glyph glyph-name="approxequal" unicode="&#x2248;" horiz-adv-x="589" 
d="M536 315q0 -96 -42.5 -146.5t-111.5 -50.5q-23 0 -41.5 5.5t-34 14t-28 19t-23.5 20.5q-12 11 -23 18.5t-22 7.5q-20 0 -29 -19t-9 -53h-118q0 96 39.5 147t113.5 51q23 0 41 -5.5t33 -14.5t27.5 -19.5t23.5 -20.5q14 -13 24.5 -19.5t21.5 -6.5q20 0 29 18.5t9 53.5h120z
M382 358q-23 0 -41.5 5.5t-34 14.5t-28 19.5t-23.5 20.5q-12 11 -23 18t-22 7q-20 0 -29 -19t-9 -53h-118q0 96 39.5 146.5t113.5 50.5q23 0 41 -5.5t33 -14t27.5 -19t23.5 -20.5q14 -13 24.5 -19.5t21.5 -6.5q20 0 29 19t9 53h120q0 -96 -42.5 -146.5t-111.5 -50.5z" />
    <glyph glyph-name="notequal" unicode="&#x2260;" horiz-adv-x="541" 
d="M44 542h261l60 140h82l-60 -140h108v-132h-164l-40 -94h204v-131h-260l-60 -140h-82l60 140h-109v131h165l40 94h-205v132z" />
    <glyph glyph-name="lessequal" unicode="&#x2264;" horiz-adv-x="568" 
d="M31 415v7l478 242v-146l-201 -96l201 -96v-153zM53 131h456v-131h-456v131z" />
    <glyph glyph-name="greaterequal" unicode="&#x2265;" horiz-adv-x="568" 
d="M60 319l201 96l-201 95v154l478 -242v-7l-478 -242v146zM60 131h456v-131h-456v131z" />
    <glyph glyph-name="triangleright" unicode="&#x22b2;" horiz-adv-x="786" 
d="M102 612l586 -317v-5l-586 -317h-5v639h5z" />
    <glyph glyph-name="triangleleft" unicode="&#x22b3;" horiz-adv-x="786" 
d="M682 -26l-584 316v5l584 316h5v-637h-5z" />
    <glyph glyph-name="star" unicode="&#x22c6;" horiz-adv-x="786" 
d="M236 242l-208 165v8l268 10l93 250h8l93 -250l268 -10v-8l-208 -165l73 -261h-9l-221 146l-221 -146h-8z" />
    <glyph glyph-name="uni2460" unicode="&#x2460;" 
d="M468 -77q-92 0 -171 29t-137.5 83.5t-92 133.5t-33.5 179t33.5 178.5t92 132.5t137.5 82.5t171 28.5q93 0 172.5 -28.5t138 -82.5t92 -132.5t33.5 -178.5t-33.5 -179t-92 -133.5t-138 -83.5t-172.5 -29zM469 11q73 0 133.5 22t104.5 65t68.5 106t24.5 144t-24.5 143.5
t-68.5 105t-104.5 64t-133.5 21.5q-72 0 -133 -21.5t-105 -64t-69 -105t-25 -143.5t25 -144t69 -106t105 -65t133 -22zM417 113v322l-135 -67v128l195 91h79v-474h-139z" />
    <glyph glyph-name="uni2461" unicode="&#x2461;" 
d="M468 -77q-92 0 -171 29t-137.5 83.5t-92 133.5t-33.5 179t33.5 178.5t92 132.5t137.5 82.5t171 28.5q93 0 172.5 -28.5t138 -82.5t92 -132.5t33.5 -178.5t-33.5 -179t-92 -133.5t-138 -83.5t-172.5 -29zM469 11q73 0 133.5 22t104.5 65t68.5 106t24.5 144t-24.5 143.5
t-68.5 105t-104.5 64t-133.5 21.5q-72 0 -133 -21.5t-105 -64t-69 -105t-25 -143.5t25 -144t69 -106t105 -65t133 -22zM297 160l147 152q23 25 43 52t20 58t-19 47.5t-64 16.5q-42 0 -77.5 -16.5t-57.5 -37.5v119q19 15 58.5 31t105.5 16q100 0 146 -40t46 -112
q0 -30 -10 -56t-26 -48t-36 -41t-40 -36l-39 -37h170v-115h-367v47z" />
    <glyph glyph-name="uni2462" unicode="&#x2462;" 
d="M468 -77q-92 0 -171 29t-137.5 83.5t-92 133.5t-33.5 179t33.5 178.5t92 132.5t137.5 82.5t171 28.5q93 0 172.5 -28.5t138 -82.5t92 -132.5t33.5 -178.5t-33.5 -179t-92 -133.5t-138 -83.5t-172.5 -29zM469 11q73 0 133.5 22t104.5 65t68.5 106t24.5 144t-24.5 143.5
t-68.5 105t-104.5 64t-133.5 21.5q-72 0 -133 -21.5t-105 -64t-69 -105t-25 -143.5t25 -144t69 -106t105 -65t133 -22zM434 102q-51 0 -83.5 8.5t-47.5 17.5v119q16 -14 44.5 -24.5t70.5 -10.5q58 0 79 14.5t21 39.5q0 24 -17.5 36t-65.5 12h-44v33l96 127h-171l-34 113h373
v-35l-110 -147q23 -4 45 -12t39.5 -23.5t28 -38.5t10.5 -57q0 -35 -13.5 -66t-42 -54.5t-73 -37.5t-105.5 -14z" />
    <glyph glyph-name="uni2463" unicode="&#x2463;" 
d="M468 -77q-92 0 -171 29t-137.5 83.5t-92 133.5t-33.5 179t33.5 178.5t92 132.5t137.5 82.5t171 28.5q93 0 172.5 -28.5t138 -82.5t92 -132.5t33.5 -178.5t-33.5 -179t-92 -133.5t-138 -83.5t-172.5 -29zM469 11q73 0 133.5 22t104.5 65t68.5 106t24.5 144t-24.5 143.5
t-68.5 105t-104.5 64t-133.5 21.5q-72 0 -133 -21.5t-105 -64t-69 -105t-25 -143.5t25 -144t69 -106t105 -65t133 -22zM489 200h-248v35l137 352h132l-101 -278h86l19 155h109v-155h71l-35 -109h-36v-87h-134v87z" />
    <glyph glyph-name="uni2464" unicode="&#x2464;" 
d="M468 -77q-92 0 -171 29t-137.5 83.5t-92 133.5t-33.5 179t33.5 178.5t92 132.5t137.5 82.5t171 28.5q93 0 172.5 -28.5t138 -82.5t92 -132.5t33.5 -178.5t-33.5 -179t-92 -133.5t-138 -83.5t-172.5 -29zM469 11q73 0 133.5 22t104.5 65t68.5 106t24.5 144t-24.5 143.5
t-68.5 105t-104.5 64t-133.5 21.5q-72 0 -133 -21.5t-105 -64t-69 -105t-25 -143.5t25 -144t69 -106t105 -65t133 -22zM420 102q-51 0 -85 7.5t-50 15.5v116q17 -9 48.5 -19t77.5 -10q54 0 75 12.5t21 32.5t-19 31t-77 11q-35 0 -61.5 -3.5t-46.5 -9.5l13 301h340l-36 -113
h-181l-3 -67q3 0 12.5 1t17.5 1q100 0 145.5 -33.5t45.5 -108.5q0 -76 -62.5 -120.5t-174.5 -44.5z" />
    <glyph glyph-name="uni2465" unicode="&#x2465;" 
d="M468 -77q-92 0 -171 29t-137.5 83.5t-92 133.5t-33.5 179t33.5 178.5t92 132.5t137.5 82.5t171 28.5q93 0 172.5 -28.5t138 -82.5t92 -132.5t33.5 -178.5t-33.5 -179t-92 -133.5t-138 -83.5t-172.5 -29zM469 11q73 0 133.5 22t104.5 65t68.5 106t24.5 144t-24.5 143.5
t-68.5 105t-104.5 64t-133.5 21.5q-72 0 -133 -21.5t-105 -64t-69 -105t-25 -143.5t25 -144t69 -106t105 -65t133 -22zM456 102q-94 0 -147 49t-53 143q0 57 16.5 104t43 84t59 63.5t64.5 41.5h181v-8q-51 -20 -98.5 -54t-78.5 -88q25 10 56 10q70 0 115 -40t45 -123
q0 -85 -54.5 -133.5t-148.5 -48.5zM461 341q-20 0 -33 -5.5t-21 -13.5q-2 -8 -2 -18.5v-21.5q0 -67 56 -67q28 0 41.5 16.5t13.5 46.5t-13.5 46.5t-41.5 16.5z" />
    <glyph glyph-name="uni2466" unicode="&#x2466;" 
d="M468 -77q-92 0 -171 29t-137.5 83.5t-92 133.5t-33.5 179t33.5 178.5t92 132.5t137.5 82.5t171 28.5q93 0 172.5 -28.5t138 -82.5t92 -132.5t33.5 -178.5t-33.5 -179t-92 -133.5t-138 -83.5t-172.5 -29zM469 11q73 0 133.5 22t104.5 65t68.5 106t24.5 144t-24.5 143.5
t-68.5 105t-104.5 64t-133.5 21.5q-72 0 -133 -21.5t-105 -64t-69 -105t-25 -143.5t25 -144t69 -106t105 -65t133 -22zM500 474h-198l-36 113h402v-35l-169 -439h-148z" />
    <glyph glyph-name="uni2467" unicode="&#x2467;" 
d="M468 -77q-92 0 -171 29t-137.5 83.5t-92 133.5t-33.5 179t33.5 178.5t92 132.5t137.5 82.5t171 28.5q93 0 172.5 -28.5t138 -82.5t92 -132.5t33.5 -178.5t-33.5 -179t-92 -133.5t-138 -83.5t-172.5 -29zM469 11q73 0 133.5 22t104.5 65t68.5 106t24.5 144t-24.5 143.5
t-68.5 105t-104.5 64t-133.5 21.5q-72 0 -133 -21.5t-105 -64t-69 -105t-25 -143.5t25 -144t69 -106t105 -65t133 -22zM464 102q-52 0 -89 10.5t-60.5 29.5t-34.5 45t-11 57q0 41 22 67.5t54 39.5q-26 14 -45 39t-19 67q0 68 51 104.5t141 36.5t137.5 -36.5t47.5 -104.5
q0 -42 -20 -66t-45 -38q32 -11 53.5 -39t21.5 -70q0 -62 -50.5 -102t-153.5 -40zM469 210q29 0 43.5 12.5t14.5 32.5t-14.5 32.5t-43.5 12.5t-43 -12.5t-14 -32.5t14 -32.5t43 -12.5zM468 403q25 0 39 11.5t14 32.5q0 20 -14.5 31.5t-38.5 11.5q-23 0 -36.5 -11.5
t-13.5 -31.5q0 -21 13.5 -32.5t36.5 -11.5z" />
    <glyph glyph-name="uni2468" unicode="&#x2468;" 
d="M468 -77q-92 0 -171 29t-137.5 83.5t-92 133.5t-33.5 179t33.5 178.5t92 132.5t137.5 82.5t171 28.5q93 0 172.5 -28.5t138 -82.5t92 -132.5t33.5 -178.5t-33.5 -179t-92 -133.5t-138 -83.5t-172.5 -29zM469 11q73 0 133.5 22t104.5 65t68.5 106t24.5 144t-24.5 143.5
t-68.5 105t-104.5 64t-133.5 21.5q-72 0 -133 -21.5t-105 -64t-69 -105t-25 -143.5t25 -144t69 -106t105 -65t133 -22zM314 121q50 20 98.5 54t78.5 88q-23 -9 -56 -9q-35 0 -64.5 9.5t-51 30t-33.5 51t-12 72.5t14.5 75.5t41 57t64 36t84.5 12.5q94 0 146.5 -48.5
t52.5 -143.5q0 -56 -16.5 -103t-42.5 -84t-58.5 -64t-64.5 -42h-181v8zM473 360q20 0 33 5.5t21 13.5q2 10 2 19v20q0 68 -56 68t-56 -64q0 -62 56 -62z" />
    <glyph glyph-name="lozenge" unicode="&#x25ca;" horiz-adv-x="703" 
d="M21 292l323 482h13l326 -482l-326 -480h-13zM352 -9l194 301l-194 304h-2l-192 -304l192 -301h2z" />
    <glyph glyph-name="circle" unicode="&#x25cb;" horiz-adv-x="786" 
d="M83 295q0 67 23 123.5t64.5 98t98 64.5t124.5 23q67 0 124 -23t98 -64.5t64 -98t23 -123.5q0 -68 -23 -125t-64 -98t-98 -64t-124 -23q-68 0 -124.5 23t-98 64t-64.5 98t-23 125z" />
    <glyph glyph-name="heart" unicode="&#x2665;" horiz-adv-x="786" 
d="M392 -17q-53 45 -108.5 100t-101.5 115t-75 122t-29 121q0 71 44 114.5t119 43.5q60 0 96 -23.5t55 -54.5h2q19 31 55.5 54.5t96.5 23.5q37 0 67.5 -11.5t51.5 -32.5t32.5 -50t11.5 -64q0 -59 -29.5 -121t-76 -122t-102.5 -115t-109 -100z" />
    <glyph glyph-name="commaaccent" horiz-adv-x="565" 
d="M222 -133v72h121v-70l-36 -130h-101z" />
    <glyph glyph-name="periodcentered" horiz-adv-x="565" 
d="M280 274q-40 0 -62 20t-22 56q0 38 22 58t62 20q39 0 62.5 -20t23.5 -58q0 -36 -23.5 -56t-62.5 -20z" />
    <glyph glyph-name="i.dot" horiz-adv-x="280" 
d="M58 556h164v-556h-164v556zM140 612q-40 0 -62 20t-22 56q0 38 22 58t62 20q39 0 62.5 -20t23.5 -58q0 -36 -23.5 -56t-62.5 -20z" />
    <glyph glyph-name="zeroslash" horiz-adv-x="610" 
d="M306 -16q-77 0 -129 22t-84 66.5t-46 111.5t-14 157q0 180 70 267.5t203 87.5q77 0 129 -22t83.5 -66t45 -110.5t13.5 -156.5q0 -180 -68.5 -268.5t-202.5 -88.5zM306 122q30 0 49.5 12t30.5 38t15 67.5t4 101.5v23l-192 -151q9 -49 30.5 -70t62.5 -21zM205 319l192 151
q-9 48 -30 68t-61 20q-30 0 -49.5 -11.5t-31 -37t-16 -67t-4.5 -101.5v-22z" />
    <glyph glyph-name="zeroslash.tnum_lnum" horiz-adv-x="596" 
d="M298 -16q-74 0 -124.5 22t-81.5 66.5t-45 111.5t-14 157q0 180 69 267.5t196 87.5q74 0 124.5 -22t82 -66t45 -110.5t13.5 -156.5q0 -180 -68.5 -268.5t-196.5 -88.5zM205 316l179 142q-8 54 -28 77t-58 23q-27 0 -45 -11.5t-28.5 -37t-15 -67t-4.5 -101.5v-25zM298 122
q27 0 45 12t28.5 38t14.5 67.5t4 101.5v9l-177 -139q9 -48 29 -68.5t56 -20.5z" />
    <glyph glyph-name="zero.tnum_lnum" horiz-adv-x="596" 
d="M298 -16q-74 0 -124.5 22t-81.5 66.5t-45 111.5t-14 157q0 180 69 267.5t196 87.5q74 0 124.5 -22t81.5 -66t44.5 -110.5t13.5 -156.5q0 -180 -68 -268.5t-196 -88.5zM298 122q27 0 45 12t28.5 38t14.5 67.5t4 101.5t-4 101.5t-14.5 67t-28.5 37t-45 11.5t-45 -11.5
t-28.5 -37t-15 -67t-4.5 -101.5t4.5 -101.5t15 -67.5t28.5 -38t45 -12z" />
    <glyph glyph-name="one.tnum_lnum" horiz-adv-x="596" 
d="M134 140h122v355l-164 -87v146l237 126h88v-540h112v-140h-395v140z" />
    <glyph glyph-name="two.tnum_lnum" horiz-adv-x="596" 
d="M69 44l204 246q30 37 54 77t24 86q0 51 -27 77t-90 26q-54 0 -100.5 -23.5t-76.5 -54.5v149q24 25 75.5 47t130.5 22q130 0 188.5 -58t58.5 -159q0 -43 -13 -80.5t-33.5 -71t-45.5 -63t-49 -55.5l-58 -65h228v-144h-470v44z" />
    <glyph glyph-name="three.tnum_lnum" horiz-adv-x="596" 
d="M236 -16q-66 0 -105.5 11t-59.5 23v152q21 -20 57.5 -35t89.5 -15q82 0 113.5 25t31.5 69q0 20 -6 35t-20.5 25.5t-39 16t-60.5 5.5h-56v33l137 211h-227l-43 140h473v-34l-152 -235q33 -6 63 -18.5t53.5 -34.5t37 -55.5t13.5 -81.5q0 -46 -17 -88.5t-53.5 -75.5
t-93.5 -53t-136 -20z" />
    <glyph glyph-name="four.tnum_lnum" horiz-adv-x="596" 
d="M348 131h-330v33l182 516h154l-135 -410h134l14 234h136v-234h83l-37 -139h-46v-131h-155v131z" />
    <glyph glyph-name="five.tnum_lnum" horiz-adv-x="596" 
d="M237 -16q-69 0 -110 10.5t-61 21.5v149q21 -15 60.5 -30t98.5 -15q72 0 105 22t33 61q0 19 -6.5 33.5t-22 24.5t-41.5 15t-66 5q-47 0 -80.5 -6t-58.5 -16l16 421h427l-43 -140h-242l-3 -128q5 2 20 3t29 1q124 0 184 -47.5t60 -153.5q0 -53 -21.5 -95.5t-60.5 -72.5
t-94 -46.5t-123 -16.5z" />
    <glyph glyph-name="six.tnum_lnum" horiz-adv-x="596" 
d="M297 -16q-60 0 -106.5 18.5t-79 53.5t-49.5 84.5t-17 111.5q0 85 23 155t58.5 124t79.5 91t86 58h215v-9q-78 -34 -143.5 -85.5t-104.5 -133.5q16 9 37.5 14.5t47.5 5.5q98 0 155.5 -59.5t57.5 -173.5q0 -56 -18.5 -103t-52 -81t-81.5 -52.5t-108 -18.5zM302 123
q44 0 65 30t21 80t-21 78.5t-65 28.5q-30 0 -50.5 -10t-33.5 -25q-2 -16 -3 -32.5t-1 -33.5q0 -54 21.5 -85t66.5 -31z" />
    <glyph glyph-name="seven.tnum_lnum" horiz-adv-x="596" 
d="M360 540h-286l-43 140h527v-34l-229 -646h-168z" />
    <glyph glyph-name="eight.tnum_lnum" horiz-adv-x="596" 
d="M291 -16q-65 0 -111.5 15t-76.5 42t-44 63.5t-14 80.5q0 60 30 99t75 59q-36 20 -63 57t-27 98q0 46 17 83t49 62.5t77 39t101 13.5q112 0 172 -52t60 -146q0 -61 -27 -96.5t-63 -55.5q45 -16 74.5 -57.5t29.5 -103.5q0 -44 -16.5 -80.5t-49 -63.5t-81 -42t-112.5 -15z
M297 120q46 0 68.5 22t22.5 58q0 35 -22.5 56t-68.5 21q-44 0 -66 -21t-22 -56q0 -36 22 -58t66 -22zM297 408q38 0 59.5 20t21.5 56t-21.5 56.5t-59.5 20.5q-36 0 -57 -20.5t-21 -56.5t21 -56t57 -20z" />
    <glyph glyph-name="nine.tnum_lnum" horiz-adv-x="596" 
d="M88 9q39 17 75 38t68 47.5t58.5 59.5t46.5 74q-35 -20 -85 -20q-98 0 -155.5 59.5t-57.5 173.5q0 56 18 103t52 80.5t81.5 52.5t107.5 19t107 -18.5t79.5 -53.5t49.5 -84.5t17 -111.5q0 -86 -23 -155.5t-59 -123.5t-80 -91t-86 -58h-214v9zM293 340q29 0 50 10t33 24
q2 17 3 33t1 34q0 54 -21 85t-66 31q-44 0 -65.5 -30t-21.5 -80t21.5 -78.5t65.5 -28.5z" />
    <glyph glyph-name="zeroslash.onum" horiz-adv-x="685" 
d="M342 -16q-77 0 -135 21.5t-98 61.5t-60 98t-20 130q0 73 24 130.5t66.5 97.5t99.5 61t123 21q156 0 234.5 -81.5t78.5 -228.5q0 -72 -24 -130t-66 -98t-99 -61.5t-124 -21.5zM201 275l256 132q-18 31 -47.5 46t-67.5 15q-63 0 -102 -42t-39 -131v-20zM342 120
q63 0 101.5 43.5t38.5 131.5v9t-1 9l-254 -131q19 -31 48.5 -46.5t66.5 -15.5z" />
    <glyph glyph-name="zero.onum" horiz-adv-x="685" 
d="M342 -16q-77 0 -135 21.5t-98 61.5t-60 98t-20 130q0 73 24 130.5t66.5 97.5t99.5 61t123 21q156 0 234.5 -81.5t78.5 -228.5q0 -72 -24 -130t-66 -98t-99 -61.5t-124 -21.5zM342 120q63 0 101.5 43.5t38.5 131.5q0 89 -38.5 131t-101.5 42t-102 -42t-39 -131
q0 -88 39 -131.5t102 -43.5z" />
    <glyph glyph-name="one.onum" horiz-adv-x="387" 
d="M168 411l-148 -79v145l221 119h88v-596h-161v411z" />
    <glyph glyph-name="two.onum" horiz-adv-x="538" 
d="M41 42l196 185q35 32 61.5 69.5t26.5 76.5q0 43 -29 66.5t-87 23.5q-51 0 -97.5 -23t-77.5 -55v153q12 11 32 23t46 21.5t58.5 16t70.5 6.5q127 0 186 -54.5t59 -149.5q0 -35 -11 -66.5t-30 -60t-44 -54t-53 -48.5l-35 -31h193v-141h-465v42z" />
    <glyph glyph-name="three.onum" horiz-adv-x="536" 
d="M201 -114q-59 0 -102 11.5t-63 22.5v152q21 -20 58 -34t88 -14q86 0 121 24.5t35 71.5q0 43 -34 63t-112 20h-53v32l146 215h-221l-43 138h467v-33l-155 -234q35 -5 67.5 -17t57 -34.5t39 -56.5t14.5 -84q0 -51 -18 -95.5t-56 -77t-96.5 -51.5t-139.5 -19z" />
    <glyph glyph-name="four.onum" horiz-adv-x="600" 
d="M355 26h-349v33l200 529h157l-153 -424h147l20 242h133v-242h85l-38 -138h-47v-124h-155v124z" />
    <glyph glyph-name="five.onum" horiz-adv-x="544" 
d="M208 -114q-65 0 -108 10.5t-64 21.5v150q22 -15 62 -29.5t99 -14.5q145 0 145 89q0 42 -31 61t-112 19q-50 0 -81.5 -4.5t-59.5 -12.5l16 412h434l-43 -138h-246l-5 -127q7 2 23 4t30 2q67 0 114.5 -12t77.5 -37.5t43.5 -65.5t13.5 -96q0 -48 -20 -90t-59 -73.5
t-96.5 -50t-132.5 -18.5z" />
    <glyph glyph-name="six.onum" horiz-adv-x="594" 
d="M296 -16q-63 0 -113 19t-84.5 54.5t-52.5 86.5t-18 114q0 81 21 148.5t55.5 121.5t78 93.5t88.5 63.5h224v-5q-80 -35 -145.5 -86.5t-105.5 -131.5q18 10 43 16.5t57 6.5q52 0 94 -16t71.5 -46.5t45.5 -75.5t16 -102t-19 -105t-55 -82.5t-87 -54t-114 -19.5zM300 121
q52 0 77.5 31.5t25.5 85.5q0 52 -25.5 83.5t-77.5 31.5q-39 0 -62 -10.5t-37 -25.5q-2 -18 -3 -36t-1 -36q0 -59 26 -91.5t77 -32.5z" />
    <glyph glyph-name="seven.onum" horiz-adv-x="495" 
d="M304 450h-263l-43 138h499v-33l-240 -652h-168z" />
    <glyph glyph-name="eight.onum" horiz-adv-x="597" 
d="M291 -16q-67 0 -115.5 15t-79.5 42t-46 64t-15 81q0 62 30.5 101t75.5 59q-36 20 -63 58.5t-27 97.5q0 94 67.5 146.5t186.5 52.5q118 0 180 -52.5t62 -146.5q0 -59 -27.5 -96t-63.5 -57q45 -17 75 -58.5t30 -104.5q0 -44 -17 -81t-51 -64t-84.5 -42t-117.5 -15zM298 118
q51 0 75 23t24 60q0 36 -24 58.5t-75 22.5q-49 0 -72.5 -22.5t-23.5 -58.5q0 -37 23.5 -60t72.5 -23zM297 409q42 0 66 21t24 58q0 36 -24 58t-66 22q-41 0 -63 -22t-22 -58q0 -37 22 -58t63 -21z" />
    <glyph glyph-name="nine.onum" horiz-adv-x="589" 
d="M97 -92q80 38 145.5 89t105.5 117q-19 -10 -43.5 -16.5t-56.5 -6.5q-52 0 -94 16t-71.5 46.5t-45.5 75.5t-16 102q0 58 19 106t55 82.5t86.5 53.5t113.5 19q64 0 113.5 -19t84 -54.5t52.5 -86.5t18 -114q0 -81 -21 -146.5t-55.5 -117t-77.5 -89t-88 -62.5h-224v5z
M291 223q40 0 63 10.5t37 25.5q2 17 3 35t1 38q0 58 -26.5 90.5t-77.5 32.5t-76.5 -31.5t-25.5 -85.5q0 -52 25.5 -83.5t76.5 -31.5z" />
    <glyph glyph-name="zeroslash.tnum_onum" horiz-adv-x="596" 
d="M298 -16q-139 0 -205.5 76.5t-66.5 234.5q0 79 20.5 137t57 96.5t86.5 57.5t108 19q140 0 206 -76t66 -234q0 -78 -20.5 -136.5t-56.5 -97.5t-86 -58t-109 -19zM198 290l187 108q-11 39 -33 54.5t-54 15.5q-24 0 -42.5 -8.5t-31 -28.5t-19.5 -53t-7 -83v-5zM298 120
q24 0 42.5 9t31 29.5t19 54t6.5 82.5v3l-187 -107q11 -39 33.5 -55t54.5 -16z" />
    <glyph glyph-name="zero.tnum_onum" horiz-adv-x="596" 
d="M298 -16q-139 0 -205.5 76.5t-66.5 234.5q0 79 20.5 137t57 96.5t86.5 57.5t108 19q140 0 206 -76t66 -234q0 -78 -20.5 -136.5t-56.5 -97.5t-86 -58t-109 -19zM298 120q24 0 42.5 9t31 29.5t19 54t6.5 82.5q0 50 -6.5 83t-19 53t-31 28.5t-42.5 8.5t-42.5 -8.5
t-31 -28.5t-19.5 -53t-7 -83q0 -49 7 -82.5t19.5 -54t31 -29.5t42.5 -9z" />
    <glyph glyph-name="one.tnum_onum" horiz-adv-x="596" 
d="M133 140h123v271l-182 -97v146l255 136h87v-456h113v-140h-396v140z" />
    <glyph glyph-name="two.tnum_onum" horiz-adv-x="596" 
d="M69 42l195 185q35 32 61.5 69.5t26.5 76.5q0 43 -29 66.5t-87 23.5q-51 0 -97.5 -23t-77.5 -55v153q13 11 32.5 23t46 21.5t58.5 16t70 6.5q127 0 186 -54.5t59 -149.5q0 -35 -11 -66.5t-30 -60t-44 -54t-53 -48.5l-35 -31h197v-141h-468v42z" />
    <glyph glyph-name="three.tnum_onum" horiz-adv-x="596" 
d="M230 -114q-62 0 -105.5 11.5t-63.5 22.5v152q21 -20 58.5 -34t91.5 -14q90 0 125.5 21.5t35.5 68.5q0 43 -35 65.5t-117 22.5h-49v32l148 216h-231l-43 138h478v-33l-162 -235q37 -5 71 -18t59 -36t40 -58t15 -85q0 -51 -18.5 -94t-57 -75t-98.5 -50t-142 -18z" />
    <glyph glyph-name="four.tnum_onum" horiz-adv-x="596" 
d="M355 26h-346v33l188 529h157l-141 -424h144l20 242h133v-242h80l-32 -138h-48v-124h-155v124z" />
    <glyph glyph-name="five.tnum_onum" horiz-adv-x="596" 
d="M233 -114q-69 0 -112.5 10.5t-64.5 21.5v150q22 -15 62.5 -29.5t103.5 -14.5q151 0 151 89q0 41 -32 60.5t-116 19.5q-53 0 -85.5 -4.5t-60.5 -12.5l16 412h443l-43 -138h-256l-4 -127q7 2 23 4t33 2q70 0 118.5 -12t79 -37.5t44.5 -65.5t14 -96q0 -48 -20 -90
t-59.5 -73.5t-98.5 -50t-136 -18.5z" />
    <glyph glyph-name="six.tnum_onum" horiz-adv-x="596" 
d="M296 -16q-62 0 -110 19t-82 54.5t-51.5 86.5t-17.5 114q0 81 21 148.5t55.5 121.5t78 93.5t88.5 63.5h224v-5q-84 -37 -148.5 -88.5t-102.5 -128.5q15 9 39 15.5t53 6.5q101 0 160.5 -62.5t59.5 -177.5q0 -57 -19 -105t-53.5 -82.5t-84 -54t-110.5 -19.5zM300 121
q48 0 71.5 31.5t23.5 85.5q0 52 -23.5 83.5t-71.5 31.5q-35 0 -57 -10t-35 -25q-2 -17 -3 -35.5t-1 -37.5q0 -59 24 -91.5t72 -32.5z" />
    <glyph glyph-name="seven.tnum_onum" horiz-adv-x="596" 
d="M365 450h-290l-43 138h526v-33l-243 -652h-168z" />
    <glyph glyph-name="eight.tnum_onum" horiz-adv-x="596" 
d="M290 -16q-64 0 -110.5 15t-76.5 42t-44.5 64t-14.5 81q0 62 30 101t72 59q-34 20 -60.5 58.5t-26.5 97.5q0 94 65.5 146.5t179.5 52.5q113 0 172.5 -52.5t59.5 -146.5q0 -29 -7.5 -53t-19.5 -42.5t-27.5 -33t-31.5 -24.5q42 -17 71 -58.5t29 -104.5q0 -44 -16.5 -81
t-49 -64t-81.5 -42t-113 -15zM297 118q45 0 68 22.5t23 58.5t-23 59.5t-68 23.5q-44 0 -66.5 -23.5t-22.5 -59.5t22.5 -58.5t66.5 -22.5zM296 409q37 0 59.5 22t22.5 58q0 37 -23 58t-59 21q-35 0 -56.5 -21t-21.5 -58q0 -36 21.5 -58t56.5 -22z" />
    <glyph glyph-name="nine.tnum_onum" horiz-adv-x="596" 
d="M93 -92q79 38 146 87.5t105 117.5q-15 -9 -39 -15.5t-53 -6.5q-101 0 -160.5 62.5t-59.5 177.5q0 58 19 106t53.5 82.5t84 53.5t110.5 19t109.5 -19t82.5 -54.5t51.5 -86.5t17.5 -114q0 -81 -21 -146.5t-55.5 -117t-78 -89t-88.5 -62.5h-224v5zM295 223q35 0 56.5 10
t34.5 24q3 18 4 36.5t1 38.5q0 58 -24 90.5t-72 32.5t-71.5 -31.5t-23.5 -85.5q0 -52 23.5 -83.5t71.5 -31.5z" />
    <glyph glyph-name="asuperior" horiz-adv-x="486" 
d="M197 250q-37 0 -68.5 12t-54.5 37.5t-36 65t-13 93.5q0 49 13.5 87.5t38 64t57.5 39t72 13.5q38 0 63.5 -11.5t41.5 -29.5l10 30h104v-271q0 -22 19 -22q11 0 17.5 4t11.5 9v-101q-7 -6 -24.5 -12t-45.5 -6q-71 0 -96 53q-12 -23 -40 -39t-70 -16zM233 354q26 0 40.5 10
t19.5 27v144q-8 10 -21.5 17t-33.5 7q-43 0 -60 -29t-17 -75q0 -47 14.5 -74t57.5 -27z" />
    <glyph glyph-name="bsuperior" horiz-adv-x="488" 
d="M270 250q-38 0 -64.5 11.5t-40.5 26.5l-13 -27h-104v530h132v-166q10 12 36 24.5t70 12.5q86 0 131 -45t45 -151q0 -107 -53 -161.5t-139 -54.5zM180 373q11 -13 28.5 -18t37.5 -5q24 0 39.5 8.5t25 23.5t13 35.5t3.5 43.5q0 45 -15.5 70t-62.5 25q-50 0 -69 -26v-157z
" />
    <glyph glyph-name="csuperior" horiz-adv-x="402" 
d="M245 250q-50 0 -90.5 12t-69 37.5t-44.5 64t-16 92.5t16.5 92.5t46 64t70 37.5t88.5 12q43 0 74.5 -8t48.5 -22v-124q-21 21 -48 30.5t-62 9.5q-51 0 -74.5 -24t-23.5 -69t23.5 -68t74.5 -23q68 0 112 38v-119q-17 -13 -49.5 -23t-76.5 -10z" />
    <glyph glyph-name="dsuperior" horiz-adv-x="488" 
d="M201 250q-81 0 -128 47t-47 154q0 108 50 159.5t141 51.5q26 0 51.5 -4.5t39.5 -16.5v150h132v-530h-118l-9 33q-11 -17 -37.5 -30.5t-74.5 -13.5zM308 538q-11 11 -29 16t-38 5q-47 0 -63 -31t-16 -77t14.5 -71.5t62.5 -25.5q52 0 69 27v157z" />
    <glyph glyph-name="esuperior" horiz-adv-x="465" 
d="M258 250q-112 0 -172.5 50t-60.5 156q0 54 18 93t47.5 64t68 37t79.5 12q39 0 75.5 -8.5t64 -30t44.5 -58.5t17 -93v-51h-278q2 -15 7.5 -27t18 -20.5t33.5 -13t53 -4.5q54 0 93.5 14t56.5 29v-101q-15 -17 -57.5 -32.5t-107.5 -15.5zM307 495v3q0 29 -16.5 45.5
t-54.5 16.5q-35 0 -52 -16.5t-22 -48.5h145z" />
    <glyph glyph-name="egravesuperior" horiz-adv-x="465" 
d="M258 250q-112 0 -172.5 50t-60.5 156q0 54 18 93t47.5 64t68 37t79.5 12q39 0 75.5 -8.5t64 -30t44.5 -58.5t17 -93v-51h-278q2 -15 7.5 -27t18 -20.5t33.5 -13t53 -4.5q54 0 93.5 14t56.5 29v-101q-15 -17 -57.5 -32.5t-107.5 -15.5zM110 786h138l56 -92h-119zM307 495
v3q0 29 -16.5 45.5t-54.5 16.5q-35 0 -52 -16.5t-22 -48.5h145z" />
    <glyph glyph-name="fsuperior" horiz-adv-x="304" 
d="M70 547h-49v50l49 38v51q0 60 42 88.5t108 28.5q38 0 62 -8t32 -15v-105q-11 14 -29.5 21.5t-39.5 7.5q-27 0 -35 -8t-8 -24v-23h96l-34 -102h-62v-286h-132v286z" />
    <glyph glyph-name="gsuperior" horiz-adv-x="477" 
d="M203 277q-37 0 -69 12t-56 36.5t-38 61t-14 84.5q0 91 49.5 141t136.5 50q39 0 66 -13t41 -31l10 33h105v-344q-1 -97 -59.5 -145t-164.5 -48q-53 0 -89 9t-59 22v115q23 -17 54.5 -29.5t79.5 -12.5q54 0 80 20.5t26 55.5v19q-12 -14 -37.5 -25t-61.5 -11zM236 381
q26 0 43.5 10.5t22.5 21.5v116q-8 14 -24.5 22t-39.5 8q-45 0 -61 -26.5t-16 -64.5q0 -35 16.5 -61t58.5 -26z" />
    <glyph glyph-name="isuperior" horiz-adv-x="227" 
d="M112 686q-31 0 -48.5 15t-17.5 44q0 28 17.5 44t48.5 16q32 0 50 -16t18 -44q0 -29 -18 -44t-50 -15zM48 651h132v-390h-132v390z" />
    <glyph glyph-name="ksuperior" horiz-adv-x="473" 
d="M219 411q-9 -7 -16.5 -12t-12.5 -9q-6 -4 -10 -7v-122h-132v530h132v-273q23 18 48 39q21 18 45 42t46 52h133q-23 -42 -58.5 -81.5t-73.5 -73.5l154 -235h-154z" />
    <glyph glyph-name="lsuperior" horiz-adv-x="225" 
d="M47 261v530h132v-530h-132z" />
    <glyph glyph-name="msuperior" horiz-adv-x="719" 
d="M544 484q0 40 -13 56.5t-42 16.5q-23 0 -39.5 -7.5t-24.5 -18.5q2 -7 2 -13.5v-14.5v-242h-131v223q0 40 -13 56.5t-43 16.5q-23 0 -38 -7.5t-22 -18.5v-270h-132v390h119l7 -33q13 20 41 32t65 12q48 0 78 -14t47 -42q16 25 46.5 40.5t77.5 15.5q80 0 113.5 -40
t33.5 -120v-241h-132v223z" />
    <glyph glyph-name="osuperior" horiz-adv-x="486" 
d="M238 250q-47 0 -86 11.5t-67.5 36.5t-44 64t-15.5 94q0 54 18 93t48.5 64t71 37t85.5 12q47 0 86.5 -12t67.5 -37t43.5 -64t15.5 -93q0 -55 -18 -94t-48.5 -64t-71 -36.5t-85.5 -11.5zM244 357q48 0 66 26t18 73q0 46 -18 72.5t-66 26.5t-66 -26.5t-18 -72.5
q0 -47 18 -73t66 -26z" />
    <glyph glyph-name="psuperior" horiz-adv-x="488" 
d="M48 651h118l8 -33q11 17 38 30.5t74 13.5q85 0 130 -45t45 -151q0 -107 -52.5 -161.5t-138.5 -54.5q-26 0 -51 4.5t-39 16.5v-145h-132v525zM246 350q24 0 39.5 8.5t25 23.5t13 35.5t3.5 43.5q0 45 -15 70t-63 25q-26 0 -43.5 -7.5t-25.5 -18.5v-158q11 -11 28.5 -16.5
t37.5 -5.5z" />
    <glyph glyph-name="qsuperior" horiz-adv-x="488" 
d="M308 287q-10 -13 -36 -25t-71 -12q-81 0 -128 47.5t-47 154.5t50 158.5t140 51.5q37 0 65 -11.5t42 -25.5l13 26h104v-525h-132v161zM239 354q48 0 69 27v156q-13 12 -30 17t-36 5q-24 0 -39.5 -8.5t-24.5 -23t-12.5 -34t-3.5 -42.5q0 -46 15 -71.5t62 -25.5z" />
    <glyph glyph-name="rsuperior" horiz-adv-x="316" 
d="M48 651h109l9 -50q9 29 32 45t53 16q18 0 29.5 -4.5t16.5 -9.5v-128q-8 10 -21.5 16.5t-36.5 6.5q-20 0 -35 -7.5t-24 -20.5v-254h-132v390z" />
    <glyph glyph-name="ssuperior" horiz-adv-x="385" 
d="M166 250q-46 0 -79 9.5t-50 23.5v112q19 -23 52 -37t76 -14q42 0 56.5 8.5t14.5 21.5q0 14 -10.5 19.5t-45.5 9.5l-22 3q-69 8 -99 41t-30 84q0 25 10.5 48.5t32 42t56 29.5t82.5 11t82.5 -10t51.5 -23v-110q-19 23 -54 36t-79 13q-36 0 -50 -7.5t-14 -20.5t10 -19
t42 -11l24 -2q73 -9 105 -38.5t32 -83.5q0 -26 -10.5 -50t-34 -43.5t-60.5 -31t-89 -11.5z" />
    <glyph glyph-name="tsuperior" horiz-adv-x="329" 
d="M199 250q-70 0 -100 35t-30 95v169h-49v53l41 49l76 90h65v-90h116l-34 -102h-82v-156q0 -19 8 -29t28 -10q44 0 63 34v-105q-11 -12 -35 -22.5t-67 -10.5z" />
    <glyph glyph-name="usuperior" horiz-adv-x="480" 
d="M196 250q-83 0 -117.5 40t-34.5 120v241h132v-220q0 -43 12.5 -59.5t47.5 -16.5q27 0 42 8t23 18v270h132v-390h-119l-8 33q-14 -20 -41 -32t-69 -12z" />
    <glyph glyph-name="vsuperior" horiz-adv-x="433" 
d="M0 651h142l67 -167l13 -43l14 43l68 167h129l-173 -390h-88z" />
    <glyph glyph-name="zsuperior" horiz-adv-x="403" 
d="M27 303l187 246h-167l-35 102h365v-42l-179 -247h177v-101h-348v42z" />
    <glyph glyph-name="bracketleftsuperior" horiz-adv-x="273" 
d="M50 794h201v-81h-97v-340h97v-81h-201v502z" />
    <glyph glyph-name="bracketrightsuperior" horiz-adv-x="273" 
d="M22 373h97v340h-97v81h201v-502h-201v81z" />
    <glyph glyph-name="braceleftsuperior" horiz-adv-x="283" 
d="M199 283q-51 0 -82 21.5t-31 66.5v82q0 23 -13.5 36t-35.5 16l-33 3v70l33 4q22 2 35.5 15t13.5 37v81q0 88 113 88q25 0 39 -4t22 -8v-80q-6 4 -15.5 6.5t-24.5 2.5q-30 0 -30 -24v-73q0 -23 -7 -37.5t-19 -23t-27 -12.5t-31 -5v-3q16 -1 31 -5t27 -12.5t19 -23t7 -37.5
v-74q0 -25 30 -25q15 0 24.5 3t15.5 8v-82q-8 -4 -22 -7.5t-39 -3.5z" />
    <glyph glyph-name="bracerightsuperior" horiz-adv-x="284" 
d="M85 283q-25 0 -39.5 3.5t-21.5 7.5v82q6 -5 15 -8t24 -3q31 0 31 25v74q0 23 7 37.5t19 23t27 12.5t31 5v3q-16 1 -31 5t-27 12.5t-19 23t-7 37.5v73q0 24 -31 24q-15 0 -24 -2.5t-15 -6.5v80q7 4 21.5 8t39.5 4q113 0 113 -88v-81q0 -24 13.5 -37t35.5 -15l32 -4v-70
l-32 -3q-22 -3 -35.5 -16t-13.5 -36v-82q0 -45 -31 -66.5t-82 -21.5z" />
    <glyph glyph-name="hyphensuperior" horiz-adv-x="274" 
d="M39 575h196v-96h-196v96z" />
    <glyph glyph-name="commasuperior" horiz-adv-x="220" 
d="M37 250q10 17 21 42t16 46q-19 8 -29 24.5t-10 36.5q0 32 22 51t55 19q32 0 53.5 -19.5t21.5 -54.5q0 -24 -9.5 -47.5t-24 -44.5t-30 -37.5t-27.5 -25.5z" />
    <glyph glyph-name="periodsuperior" horiz-adv-x="218" 
d="M110 329q-34 0 -55.5 19t-21.5 51t21.5 51t55.5 19q32 0 54 -19t22 -51t-22 -51t-54 -19z" />
    <glyph glyph-name="centsuperior" horiz-adv-x="395" 
d="M162 365q-64 14 -100.5 56.5t-36.5 116.5q0 47 16 81t45 56t68.5 32.5t87.5 10.5h12.5t12.5 -1l16 53h49l-18 -59q25 -6 43 -17v-113q-17 12 -34 20t-39 11l-45 -149h7q38 0 63.5 7.5t49.5 24.5v-110q-17 -11 -48.5 -19t-70.5 -8h-16t-16 1l-16 -52h-47zM157 538
q0 -48 37 -66l43 143q-42 -2 -61 -22.5t-19 -54.5z" />
    <glyph glyph-name="dollarsuperior" horiz-adv-x="394" 
d="M219 361l-32 -2v-49h-49v49q-44 2 -70.5 9.5t-38.5 14.5v103q17 -16 52.5 -28.5t85.5 -12.5q41 0 59 5t18 19q0 11 -12 15t-30 7l-49 8q-29 3 -52 9.5t-40 19.5t-26 32t-9 47q0 84 112 105v58h49v-52q7 1 14 1h15h3v51h48v-54q35 -3 57 -10t33 -12v-101
q-17 17 -52.5 28.5t-86.5 11.5q-35 0 -50.5 -4t-15.5 -16q0 -11 10 -15.5t30 -7.5l47 -6q28 -3 52.5 -9.5t42 -18.5t27.5 -31t10 -47q0 -38 -26 -66t-78 -42v-60h-48v51z" />
    <glyph glyph-name="Eurosuperior" horiz-adv-x="450" 
d="M20 598h50q9 39 30 67.5t50 47.5t63.5 28t71.5 9q51 0 81 -10.5t45 -22.5v-123q-18 26 -47 39t-72 13q-72 0 -91 -48h116v-45h-124v-23h124v-44h-116q10 -26 31.5 -39t59.5 -13q82 0 119 49v-118q-17 -14 -49 -24.5t-77 -10.5q-88 0 -145 37t-72 119h-48v44h44v23h-44v45
z" />
    <glyph glyph-name="sterlingsuperior" horiz-adv-x="437" 
d="M410 368q-12 -17 -36.5 -28.5t-67.5 -11.5q-32 0 -60 9t-54 22l-21 11q-14 -19 -37.5 -30.5t-61.5 -11.5q-14 0 -28 3t-20 7v97q7 -7 19 -7q14 0 19.5 6.5t7.5 19.5l8 56h-52v47h59l6 40q11 73 53 113t131 40q44 0 71.5 -11.5t40.5 -23.5v-122q-17 23 -40.5 37.5
t-59.5 14.5q-38 0 -51.5 -13.5t-16.5 -37.5l-6 -37h99v-47h-105l-8 -56q0 -1 -0.5 -2t-0.5 -2l19 -7q25 -9 47.5 -11.5t48.5 -2.5q35 0 60.5 16t36.5 40v-117v0z" />
    <glyph glyph-name="yensuperior" horiz-adv-x="467" 
d="M51 560h96l-129 180h138l82 -124l88 124h123l-127 -180h95v-44h-117v-22h117v-46h-117v-110h-131v110h-118v46h118v22h-118v44z" />
    <glyph glyph-name="numbersignsuperior" horiz-adv-x="502" 
d="M59 649h102l26 117h69l-25 -117h80l26 117h71l-26 -117h101l-11 -57h-103l-17 -78h102l-12 -57h-102l-26 -119h-71l26 119h-80l-26 -119h-71l26 119h-100l12 57h101l17 78h-101zM201 514h80l17 78h-80z" />
    <glyph glyph-name="plusinferior" horiz-adv-x="393" 
d="M144 -19h-119v100h119v97h104v-97h120v-100h-120v-98h-104v98z" />
    <glyph glyph-name="minusinferior" horiz-adv-x="437" 
d="M42 81h353v-100h-353v100z" />
    <glyph glyph-name="equalinferior" horiz-adv-x="410" 
d="M42 5h326v-93h-326v93zM42 150h326v-94h-326v94z" />
    <glyph glyph-name="bracketleftinferior" horiz-adv-x="273" 
d="M48 262h202v-81h-98v-340h98v-81h-202v502z" />
    <glyph glyph-name="bracketrightinferior" horiz-adv-x="273" 
d="M24 -159h97v340h-97v81h201v-502h-201v81z" />
    <glyph glyph-name="braceleftinferior" horiz-adv-x="286" 
d="M201 -249q-51 0 -82.5 21.5t-31.5 66.5v82q0 23 -13 36t-35 16l-33 3v70l32 4q23 2 36 15t13 37v81q0 45 29 66.5t85 21.5q24 0 38.5 -4t21.5 -8v-80q-5 4 -14.5 6.5t-24.5 2.5q-30 0 -30 -24v-73q0 -23 -7.5 -37.5t-19.5 -23t-27 -12.5t-30 -5v-3q15 -1 30 -5t27 -12.5
t19.5 -23t7.5 -37.5v-75q0 -11 7.5 -17.5t22.5 -6.5t24.5 3t14.5 8v-82q-7 -4 -21.5 -7.5t-38.5 -3.5z" />
    <glyph glyph-name="bracerightinferior" horiz-adv-x="287" 
d="M86 -249q-24 0 -38.5 3.5t-22.5 7.5v82q6 -5 15.5 -8t23.5 -3q16 0 23.5 6.5t7.5 17.5v75q0 23 7.5 37.5t19.5 23t27 12.5t30 5v3q-15 1 -30 5t-27 12.5t-19.5 23t-7.5 37.5v73q0 24 -31 24q-14 0 -23.5 -2.5t-15.5 -6.5v80q8 4 22.5 8t38.5 4q56 0 85 -21.5t29 -66.5
v-81q0 -24 13 -37t36 -15l32 -4v-70l-33 -3q-22 -3 -35 -16t-13 -36v-82q0 -45 -31.5 -66.5t-82.5 -21.5z" />
    <glyph glyph-name="hypheninferior" horiz-adv-x="279" 
d="M41 43h196v-96h-196v96z" />
    <glyph glyph-name="commainferior" horiz-adv-x="210" 
d="M30 -283q10 17 21 42.5t16 46.5q-18 8 -28.5 24.5t-10.5 36.5q0 32 22 51t55 19t54.5 -19.5t21.5 -55.5q0 -23 -9.5 -47t-24 -45t-30.5 -37t-28 -25z" />
    <glyph glyph-name="periodinferior" horiz-adv-x="209" 
d="M105 -203q-33 0 -55 19t-22 51t22 51t55 19q32 0 54 -19t22 -51t-22 -51t-54 -19z" />
    <glyph glyph-name="centinferior" horiz-adv-x="395" 
d="M161 -166q-64 14 -100.5 56t-36.5 116q0 47 16 81t45 56t68.5 32.5t87.5 10.5h12.5t12.5 -1l16 53h48l-18 -59q27 -6 44 -17v-113q-17 12 -34 20t-39 11l-45 -149h7q38 0 63.5 7.5t49.5 24.5v-110q-17 -11 -48.5 -19t-70.5 -8h-16.5t-16.5 1l-15 -52h-47zM156 6
q0 -49 37 -65l43 142q-42 -2 -61 -22.5t-19 -54.5z" />
    <glyph glyph-name="dollarinferior" horiz-adv-x="397" 
d="M221 -170q-8 -1 -16 -1.5t-16 -0.5v-51h-49v51q-44 2 -70.5 9.5t-38.5 13.5v103q17 -16 52.5 -28.5t85.5 -12.5q41 0 59 5t18 19q0 11 -12 15t-30 7l-49 8q-29 3 -52 9.5t-40 19.5t-26 32t-9 47q0 84 112 105v58h49v-52q7 1 14 1h15h3v51h48v-54q35 -3 57 -10t33 -12
v-100q-17 16 -52.5 27.5t-86.5 11.5q-35 0 -50.5 -4t-15.5 -16q0 -11 10 -15.5t30 -7.5l47 -7q28 -3 52.5 -9t42 -18t27.5 -31t10 -47q0 -38 -26 -65.5t-78 -41.5v-62h-48v53z" />
    <glyph glyph-name="Euroinferior" horiz-adv-x="450" 
d="M21 66h50q9 39 30 67.5t50 47.5t63.5 28t70.5 9q51 0 81 -10.5t45 -22.5v-123q-35 52 -119 52q-71 0 -90 -48h115v-45h-123v-23h123v-44h-115q18 -52 90 -52q84 0 119 49v-118q-17 -14 -49 -24.5t-77 -10.5q-88 0 -145 37.5t-71 118.5h-48v44h44v23h-44v45z" />
    <glyph glyph-name="sterlinginferior" horiz-adv-x="441" 
d="M412 -164q-13 -17 -37 -28.5t-67 -11.5q-32 0 -60 9t-54 22l-22 11q-14 -19 -37 -30.5t-61 -11.5q-14 0 -28 3t-20 7v97q7 -7 19 -7q13 0 19 6.5t8 19.5l8 56h-52v47h59l6 40q11 73 53 113t131 40q44 0 71.5 -11.5t40.5 -23.5v-122q-17 23 -41 37.5t-59 14.5
q-38 0 -51.5 -13t-17.5 -38l-5 -37h98v-47h-105l-7 -56q0 -1 -0.5 -1.5t-0.5 -1.5l19 -8q25 -9 47.5 -11.5t47.5 -2.5q35 0 61 16t37 40v-117v0z" />
    <glyph glyph-name="yeninferior" horiz-adv-x="468" 
d="M52 28h95l-129 180h139l82 -124l88 124h123l-127 -180h95v-44h-117v-22h117v-46h-117v-110h-132v110h-117v46h117v22h-117v44z" />
    <glyph glyph-name="numbersigninferior" horiz-adv-x="504" 
d="M60 117h102l26 117h70l-26 -117h81l26 117h70l-26 -117h102l-12 -57h-103l-17 -78h103l-12 -57h-103l-26 -119h-70l26 119h-81l-26 -119h-71l26 119h-99l11 57h101l17 78h-101zM202 -18h81l17 78h-81z" />
    <glyph glyph-name="zero.dnom" horiz-adv-x="440" 
d="M220 -10q-54 0 -91 13.5t-59 41t-31.5 69t-9.5 96.5q0 112 48.5 165.5t142.5 53.5q55 0 91.5 -13.5t58.5 -40.5t31.5 -68.5t9.5 -96.5q0 -220 -191 -220zM220 90q18 0 28.5 6t16.5 19.5t8 36.5t2 58q0 34 -2 57t-8 37t-16.5 19.5t-28.5 5.5q-17 0 -28 -5.5t-17 -19.5
t-8 -37t-2 -57q0 -35 2 -58t8 -36.5t17 -19.5t28 -6z" />
    <glyph glyph-name="one.dnom" horiz-adv-x="374" 
d="M152 0v285l-118 -59v105l174 88h71v-419h-127z" />
    <glyph glyph-name="two.dnom" horiz-adv-x="402" 
d="M35 42l139 134q23 22 40.5 46t17.5 50q0 28 -18 42t-60 14q-38 0 -72.5 -14.5t-54.5 -31.5v105q17 14 54.5 28t98.5 14q92 0 135.5 -35t43.5 -99q0 -27 -9.5 -50t-24.5 -43t-33.5 -36.5t-36.5 -31.5l-38 -32h160v-102h-342v42z" />
    <glyph glyph-name="three.dnom" horiz-adv-x="402" 
d="M157 -10q-48 0 -77.5 7.5t-43.5 15.5v107q15 -12 42 -21.5t65 -9.5q56 0 76.5 12.5t20.5 34.5q0 20 -17 30.5t-65 10.5h-41v30l92 112h-160l-29 100h343v-32l-104 -128q22 -3 43.5 -10.5t37.5 -21t26 -34.5t10 -51q0 -31 -12.5 -58.5t-39.5 -48.5t-68.5 -33t-98.5 -12z
" />
    <glyph glyph-name="four.dnom" horiz-adv-x="426" 
d="M242 77h-232v31l128 311h121l-95 -245h84l14 137h102v-137h64l-29 -97h-35v-77h-122v77z" />
    <glyph glyph-name="five.dnom" horiz-adv-x="400" 
d="M154 -10q-49 0 -80 6t-46 14v103q15 -8 45 -16t72 -8q51 0 71.5 10t20.5 29q0 8 -4 14.5t-14 11t-27.5 7t-45.5 2.5q-33 0 -57.5 -3t-43.5 -8l12 267h311l-29 -100h-170l-2 -59q3 1 12 1h17q93 0 135.5 -29.5t42.5 -95.5q0 -67 -58.5 -106.5t-161.5 -39.5z" />
    <glyph glyph-name="six.dnom" horiz-adv-x="420" 
d="M210 -10q-88 0 -136.5 43t-48.5 127q0 50 15.5 91.5t40.5 74.5t55.5 56t60.5 37h167v-7q-18 -8 -41 -19.5t-46.5 -26.5t-44.5 -34.5t-35 -42.5q11 3 23 5t28 2q67 0 109 -35t42 -110t-51 -118t-138 -43zM161 184q-2 -8 -2 -17v-18q0 -58 56 -58q55 0 55 55q0 54 -55 54
q-38 0 -54 -16z" />
    <glyph glyph-name="seven.dnom" horiz-adv-x="385" 
d="M227 319h-196l-30 100h380v-32l-161 -387h-133z" />
    <glyph glyph-name="eight.dnom" horiz-adv-x="426" 
d="M209 -10q-96 0 -139 35.5t-43 90.5q0 36 21 59.5t52 34.5q-25 12 -43.5 35t-18.5 59q0 60 46.5 92.5t131.5 32.5q83 0 127.5 -32.5t44.5 -92.5q0 -36 -19 -58t-43 -33q30 -11 51 -35.5t21 -61.5q0 -55 -46 -90.5t-143 -35.5zM213 86q56 0 56 40q0 17 -13.5 28t-42.5 11
t-42.5 -11t-13.5 -28q0 -40 56 -40zM212 257q24 0 37.5 10t13.5 28q0 17 -13.5 27.5t-37.5 10.5q-23 0 -36 -10.5t-13 -27.5q0 -38 49 -38z" />
    <glyph glyph-name="nine.dnom" horiz-adv-x="420" 
d="M55 7l41 20.5t46 26.5t44 34t36 42q-11 -3 -23.5 -5.5t-27.5 -2.5q-67 0 -109.5 36t-42.5 110q0 37 13.5 67t38.5 51t60 32t78 11q87 0 136.5 -43t49.5 -127q0 -50 -16 -91.5t-40.5 -74.5t-55 -56.5t-60.5 -36.5h-168v7zM204 219q20 0 32.5 4t20.5 11q3 16 3 37
q0 58 -56 58q-55 0 -55 -55t55 -55z" />
    <glyph glyph-name="plus.dnom" horiz-adv-x="391" 
d="M143 175h-119v100h119v97h104v-97h120v-100h-120v-98h-104v98z" />
    <glyph glyph-name="minus.dnom" horiz-adv-x="437" 
d="M42 275h353v-100h-353v100z" />
    <glyph glyph-name="equal.dnom" horiz-adv-x="410" 
d="M42 199h326v-93h-326v93zM42 344h326v-94h-326v94z" />
    <glyph glyph-name="parenleft.dnom" horiz-adv-x="275" 
d="M169 -48q-31 15 -58 41.5t-46.5 61t-30.5 75t-11 84.5q0 40 11 78.5t30.5 71.5t46.5 58.5t58 40.5h108q-64 -32 -104.5 -94.5t-40.5 -154.5q0 -48 12 -89t32 -74t46 -58t54 -41h-107v0z" />
    <glyph glyph-name="parenright.dnom" horiz-adv-x="275" 
d="M-2 -49q30 17 56 41.5t45.5 57t31 72t11.5 86.5t-11 86.5t-30.5 71.5t-46 56t-56.5 40h107q31 -14 58 -40t46.5 -59.5t30.5 -73t11 -81.5t-11 -82t-30.5 -74t-46.5 -60t-58 -41h-107v0z" />
    <glyph glyph-name="bracketleft.dnom" horiz-adv-x="273" 
d="M48 456h202v-81h-98v-340h98v-81h-202v502z" />
    <glyph glyph-name="bracketright.dnom" horiz-adv-x="273" 
d="M24 35h97v340h-97v81h201v-502h-201v81z" />
    <glyph glyph-name="braceleft.dnom" horiz-adv-x="287" 
d="M202 -55q-51 0 -82 21.5t-31 66.5v82q0 23 -13.5 36t-35.5 16l-33 3v70l33 4q22 2 35.5 15t13.5 37v81q0 88 113 88q24 0 38.5 -4t22.5 -8v-80q-6 4 -15.5 6.5t-23.5 2.5q-31 0 -31 -24v-73q0 -23 -7 -37.5t-19 -23t-27 -12.5t-30 -5v-3q15 -1 30 -5t27 -12.5t19 -23
t7 -37.5v-75q0 -11 7.5 -17.5t23.5 -6.5q14 0 23.5 3t15.5 8v-82q-8 -4 -22.5 -7.5t-38.5 -3.5z" />
    <glyph glyph-name="braceright.dnom" horiz-adv-x="288" 
d="M86 -55q-25 0 -39.5 3.5t-21.5 7.5v82q6 -5 15 -8t24 -3t23 6.5t8 17.5v75q0 23 7 37.5t19 23t27 12.5t31 5v3q-16 1 -31 5t-27 12.5t-19 23t-7 37.5v73q0 24 -31 24q-15 0 -24 -2.5t-15 -6.5v80q7 4 21.5 8t39.5 4q113 0 113 -88v-81q0 -24 13.5 -37t35.5 -15l32 -4v-70
l-32 -3q-22 -3 -35.5 -16t-13.5 -36v-82q0 -45 -31 -66.5t-82 -21.5z" />
    <glyph glyph-name="hyphen.dnom" horiz-adv-x="279" 
d="M41 237h196v-96h-196v96z" />
    <glyph glyph-name="comma.dnom" horiz-adv-x="210" 
d="M30 -89q10 17 21 42.5t16 46.5q-18 8 -28.5 24.5t-10.5 36.5q0 32 22 51t55 19t54.5 -19.5t21.5 -55.5q0 -23 -9.5 -47t-24 -45t-30.5 -37t-28 -25z" />
    <glyph glyph-name="period.dnom" horiz-adv-x="207" 
d="M104 -9q-33 0 -54.5 19t-21.5 51t21.5 51t54.5 19t54.5 -19t21.5 -51t-21.5 -51t-54.5 -19z" />
    <glyph glyph-name="cent.dnom" horiz-adv-x="395" 
d="M161 27q-64 14 -100.5 56.5t-36.5 116.5q0 47 16 81t45 56t68.5 32.5t87.5 10.5h12.5t12.5 -1l16 53h48l-18 -59q27 -6 44 -17v-113q-17 12 -34 20t-39 11l-45 -149h7q38 0 63.5 7.5t49.5 24.5v-110q-17 -11 -48.5 -19t-70.5 -8h-16.5t-16.5 1l-15 -52h-47zM156 200
q0 -48 37 -66l43 143q-42 -2 -61 -22.5t-19 -54.5z" />
    <glyph glyph-name="dollar.dnom" horiz-adv-x="397" 
d="M221 23l-32 -2v-50h-49v50q-44 2 -70.5 9.5t-38.5 14.5v103q17 -16 52.5 -28.5t85.5 -12.5q41 0 59 5t18 19q0 11 -11.5 15t-30.5 7l-48 8q-29 3 -52.5 9.5t-40 19.5t-25.5 32t-9 47q0 84 111 105v58h49v-52q7 1 14 1h15h3v51h48v-54q35 -3 57 -10t33 -12v-100
q-17 16 -52.5 27.5t-86.5 11.5q-34 0 -50 -4t-16 -16q0 -11 10.5 -15.5t29.5 -7.5l47 -7q28 -3 52.5 -9t42.5 -18t28 -31t10 -47q0 -38 -26 -66t-79 -42v-61h-48v52z" />
    <glyph glyph-name="Euro.dnom" horiz-adv-x="450" 
d="M20 260h50q9 39 30 67.5t50 47.5t63.5 28t70.5 9q51 0 81.5 -10.5t45.5 -22.5v-123q-37 52 -119 52q-72 0 -91 -48h115v-45h-123v-23h123v-44h-115q17 -52 91 -52q82 0 119 49v-118q-18 -14 -50 -24.5t-77 -10.5q-87 0 -144.5 37t-71.5 119h-48v44h44v23h-44v45z" />
    <glyph glyph-name="sterling.dnom" horiz-adv-x="440" 
d="M411 30q-12 -17 -36.5 -28.5t-67.5 -11.5q-32 0 -60 9t-54 22l-21 11q-14 -19 -37.5 -30.5t-61.5 -11.5q-14 0 -28 3t-20 7v97q7 -7 19 -7q14 0 19.5 6.5t7.5 19.5l8 56h-52v47h59l6 40q11 73 53 113t131 40q44 0 71.5 -11.5t40.5 -23.5v-122q-17 23 -40.5 37.5
t-59.5 14.5q-38 0 -51.5 -13t-16.5 -38l-6 -37h99v-47h-105l-8 -56q0 -1 -0.5 -2t-0.5 -2l19 -7q25 -9 47.5 -11.5t48.5 -2.5q35 0 60.5 16t36.5 40v-117v0z" />
    <glyph glyph-name="yen.dnom" horiz-adv-x="468" 
d="M51 222h96l-129 180h138l82 -124l88 124h123l-127 -180h95v-44h-116v-22h116v-46h-116v-110h-132v110h-118v46h118v22h-118v44z" />
    <glyph glyph-name="numbersign.dnom" horiz-adv-x="503" 
d="M59 311h102l26 117h70l-26 -117h81l26 117h70l-26 -117h102l-12 -57h-103l-17 -78h103l-12 -57h-103l-26 -119h-70l26 119h-81l-26 -119h-71l26 119h-99l11 57h101l17 78h-101zM201 176h81l17 78h-81z" />
    <glyph glyph-name="zero.numr" horiz-adv-x="440" 
d="M220 251q-54 0 -91 13.5t-59 41t-31.5 69t-9.5 96.5q0 112 48.5 165.5t142.5 53.5q55 0 91.5 -13.5t58.5 -40.5t31.5 -68.5t9.5 -96.5q0 -220 -191 -220zM220 351q35 0 45 26t10 94q0 34 -2 57t-8 37t-16.5 19.5t-28.5 5.5q-17 0 -28 -5.5t-17 -19.5t-8 -37t-2 -57t2 -57
t8 -37t17 -20t28 -6z" />
    <glyph glyph-name="one.numr" horiz-adv-x="375" 
d="M153 261v285l-118 -59v105l174 88h71v-419h-127z" />
    <glyph glyph-name="two.numr" horiz-adv-x="403" 
d="M35 303l140 134q23 22 40.5 46t17.5 50q0 28 -18 42t-60 14q-39 0 -73 -14.5t-54 -31.5v105q17 14 54 28t99 14q92 0 135 -35t43 -100q0 -27 -9.5 -49.5t-24.5 -42.5t-33.5 -36.5t-36.5 -31.5l-37 -32h160v-102h-343v42z" />
    <glyph glyph-name="three.numr" horiz-adv-x="402" 
d="M157 251q-48 0 -77.5 7.5t-43.5 15.5v107q15 -12 42 -21.5t65 -9.5q56 0 76.5 12.5t20.5 34.5q0 20 -17 30.5t-65 10.5h-41v30l92 112h-160l-29 100h343v-32l-104 -128q22 -3 43.5 -10.5t37.5 -21t26 -34t10 -50.5q0 -31 -12.5 -59t-39.5 -49t-68.5 -33t-98.5 -12z" />
    <glyph glyph-name="four.numr" horiz-adv-x="425" 
d="M242 338h-232v32l128 310h121l-95 -245h84l14 137h102v-137h64l-29 -97h-35v-77h-122v77z" />
    <glyph glyph-name="five.numr" horiz-adv-x="400" 
d="M154 251q-49 0 -80 6t-46 14v103q15 -8 45 -16t72 -8q51 0 71.5 10t20.5 28q0 17 -18 26.5t-74 9.5q-32 0 -56.5 -3t-43.5 -8l12 267h310l-29 -100h-170l-1 -59q3 1 12 1.5t17 0.5q92 0 135 -30t43 -96q0 -67 -58.5 -106.5t-161.5 -39.5z" />
    <glyph glyph-name="six.numr" horiz-adv-x="419" 
d="M210 251q-88 0 -136.5 43t-48.5 127q0 50 15.5 91.5t40.5 74.5t55.5 56t60.5 37h167v-7q-18 -8 -41 -19.5t-46.5 -26.5t-44.5 -34.5t-35 -42.5q11 3 23 5.5t28 2.5q67 0 109 -35.5t42 -110.5t-51 -118t-138 -43zM161 446q-2 -9 -2 -18v-18q0 -58 56 -58q55 0 55 55
q0 54 -55 54q-20 0 -33 -4t-21 -11z" />
    <glyph glyph-name="seven.numr" horiz-adv-x="384" 
d="M227 580h-196l-30 100h380v-32l-161 -387h-133z" />
    <glyph glyph-name="eight.numr" horiz-adv-x="426" 
d="M209 251q-96 0 -139 35.5t-43 89.5q0 37 21 60.5t52 34.5q-25 12 -43.5 35t-18.5 59q0 60 46.5 92.5t131.5 32.5q83 0 127.5 -32.5t44.5 -92.5q0 -36 -19 -58t-43 -33q30 -11 51 -35.5t21 -62.5q0 -54 -46 -89.5t-143 -35.5zM213 347q29 0 42.5 11t13.5 29q0 17 -13.5 28
t-42.5 11t-42.5 -11t-13.5 -28q0 -18 13.5 -29t42.5 -11zM212 518q24 0 37.5 10t13.5 28q0 17 -13.5 27t-37.5 10q-49 0 -49 -37q0 -38 49 -38z" />
    <glyph glyph-name="nine.numr" horiz-adv-x="420" 
d="M56 268l41 20.5t46 26.5t44 34t35 42q-11 -3 -23 -5t-28 -2q-66 0 -108.5 35.5t-42.5 109.5q0 37 13.5 67t38.5 51t60 32t78 11q87 0 136 -43t49 -127q0 -50 -15.5 -91.5t-40.5 -74.5t-55.5 -56.5t-60.5 -36.5h-167v7zM205 480q20 0 32.5 4t20.5 12q3 15 3 35
q0 59 -56 59q-55 0 -55 -55t55 -55z" />
    <glyph glyph-name="plus.numr" horiz-adv-x="391" 
d="M143 436h-119v100h119v97h104v-97h120v-100h-120v-98h-104v98z" />
    <glyph glyph-name="minus.numr" horiz-adv-x="437" 
d="M42 536h353v-100h-353v100z" />
    <glyph glyph-name="equal.numr" horiz-adv-x="410" 
d="M42 461h326v-94h-326v94zM42 605h326v-94h-326v94z" />
    <glyph glyph-name="parenleft.numr" horiz-adv-x="275" 
d="M169 213q-31 15 -58 41t-46.5 60.5t-30.5 75.5t-11 84q0 41 11 80t30.5 72t46.5 58t58 40h108q-64 -32 -104.5 -94.5t-40.5 -155.5q0 -48 12 -88.5t32 -73.5t46 -58t54 -41h-107v0z" />
    <glyph glyph-name="parenright.numr" horiz-adv-x="275" 
d="M-2 213q30 16 56 40.5t45.5 57t31 72t11.5 86.5t-11 86.5t-30.5 71.5t-46 56t-56.5 40h107q31 -14 58 -40t46.5 -59.5t30.5 -73t11 -81.5t-11 -82t-30.5 -74t-46.5 -59.5t-58 -40.5h-107v0z" />
    <glyph glyph-name="bracketleft.numr" horiz-adv-x="273" 
d="M48 717h202v-81h-98v-340h98v-81h-202v502z" />
    <glyph glyph-name="bracketright.numr" horiz-adv-x="273" 
d="M23 296h97v340h-97v81h201v-502h-201v81z" />
    <glyph glyph-name="braceleft.numr" horiz-adv-x="286" 
d="M201 206q-51 0 -82.5 21.5t-31.5 66.5v82q0 23 -13 36t-35 16l-33 3v70l32 4q23 3 36 15.5t13 36.5v81q0 45 29 66.5t85 21.5q24 0 38.5 -4t21.5 -8v-80q-5 4 -14.5 6.5t-24.5 2.5q-30 0 -30 -24v-73q0 -23 -7.5 -37.5t-19.5 -23.5t-27 -13t-30 -5v-2q15 -1 30 -5
t27 -12.5t19.5 -23t7.5 -37.5v-74q0 -25 30 -25q15 0 24.5 3t14.5 8v-82q-7 -4 -21.5 -7.5t-38.5 -3.5z" />
    <glyph glyph-name="braceright.numr" horiz-adv-x="287" 
d="M86 206q-24 0 -38.5 3.5t-22.5 7.5v82q6 -5 15.5 -8t23.5 -3q31 0 31 25v74q0 23 7.5 37.5t19.5 23t27 12.5t30 5v2q-15 1 -30 5t-27 13t-19.5 23.5t-7.5 37.5v73q0 24 -31 24q-14 0 -23.5 -2.5t-15.5 -6.5v80q8 4 22.5 8t38.5 4q56 0 85 -21.5t29 -66.5v-81
q0 -24 13 -36.5t36 -15.5l32 -4v-70l-33 -3q-22 -3 -35 -16t-13 -36v-82q0 -45 -31.5 -66.5t-82.5 -21.5z" />
    <glyph glyph-name="hyphen.numr" horiz-adv-x="279" 
d="M41 498h196v-96h-196v96z" />
    <glyph glyph-name="comma.numr" horiz-adv-x="210" 
d="M30 173q10 17 21 42t16 46q-18 8 -28.5 24.5t-10.5 36.5q0 32 22 51t55 19t54.5 -19.5t21.5 -54.5q0 -24 -9.5 -47.5t-24 -44.5t-30.5 -37.5t-28 -25.5z" />
    <glyph glyph-name="period.numr" horiz-adv-x="209" 
d="M105 252q-33 0 -55 19t-22 51t22 51t55 19q32 0 54 -19t22 -51t-22 -51t-54 -19z" />
    <glyph glyph-name="cent.numr" horiz-adv-x="395" 
d="M161 288q-64 14 -100.5 56.5t-36.5 116.5q0 47 16 81t45 56t68.5 32.5t87.5 10.5h12.5t12.5 -1l16 53h48l-18 -59q27 -6 44 -17v-113q-17 12 -34 20t-39 11l-45 -149h7q38 0 63.5 7.5t49.5 24.5v-110q-17 -11 -48.5 -19t-70.5 -8h-16.5t-16.5 1l-15 -52h-47zM156 461
q0 -48 37 -66l43 143q-42 -2 -61 -22.5t-19 -54.5z" />
    <glyph glyph-name="dollar.numr" horiz-adv-x="397" 
d="M221 284l-32 -2v-49h-49v49q-44 2 -70.5 10t-38.5 14v103q17 -16 52.5 -28.5t85.5 -12.5q41 0 59 5t18 18q0 12 -12 16.5t-30 6.5l-49 8q-57 5 -92 28.5t-35 79.5q0 84 112 105v58h49v-52q7 1 14 1h15h3v51h48v-54q35 -3 57 -10t33 -12v-101q-17 17 -52.5 28.5
t-86.5 11.5q-35 0 -50.5 -4t-15.5 -16q0 -11 10 -15.5t30 -7.5l47 -6q28 -3 52.5 -9.5t42 -18.5t27.5 -31t10 -47q0 -38 -26 -66t-78 -42v-60h-48v51z" />
    <glyph glyph-name="Euro.numr" horiz-adv-x="450" 
d="M21 521h50q9 39 30 67.5t50 47.5t63.5 28t70.5 9q51 0 81 -10.5t45 -22.5v-123q-35 52 -119 52q-71 0 -90 -48h115v-45h-123v-23h123v-44h-115q18 -52 90 -52q84 0 119 49v-118q-17 -14 -49 -24.5t-77 -10.5q-87 0 -144.5 37t-71.5 119h-48v44h44v23h-44v45z" />
    <glyph glyph-name="sterling.numr" horiz-adv-x="440" 
d="M411 291q-12 -17 -36.5 -28.5t-67.5 -11.5q-32 0 -60 9t-54 22l-21 11q-14 -19 -37.5 -30.5t-61.5 -11.5q-14 0 -28 3t-20 7v97q7 -7 19 -7q14 0 19.5 6.5t7.5 19.5l8 56h-52v47h59l6 40q11 73 53 113t131 40q44 0 71.5 -11.5t40.5 -23.5v-122q-17 23 -40.5 37.5
t-59.5 14.5q-38 0 -51.5 -13.5t-16.5 -37.5l-6 -37h99v-47h-105l-8 -56q0 -1 -0.5 -2t-0.5 -2l19 -7q25 -10 47.5 -12.5t48.5 -2.5q35 0 60.5 16.5t36.5 40.5v-117v0z" />
    <glyph glyph-name="yen.numr" horiz-adv-x="469" 
d="M52 483h95l-129 180h139l82 -124l88 124h123l-127 -180h95v-44h-117v-22h117v-46h-117v-110h-132v110h-117v46h117v22h-117v44z" />
    <glyph glyph-name="numbersign.numr" horiz-adv-x="503" 
d="M59 572h102l26 117h70l-25 -117h80l26 117h71l-26 -117h101l-12 -57h-102l-17 -78h102l-12 -57h-102l-26 -119h-71l26 119h-80l-26 -119h-71l26 119h-100l11 57h101l17 78h-100zM202 437h80l17 78h-80z" />
    <glyph glyph-name="inch" horiz-adv-x="425" 
d="M56 680h128v-294h-128v294zM241 680h127v-294h-127v294z" />
    <glyph glyph-name="at.case" horiz-adv-x="904" 
d="M463 7q65 0 110 9t81 27v-93q-22 -10 -69.5 -21t-122.5 -11q-92 0 -170.5 28t-136 82t-90.5 132.5t-33 179.5q0 100 34.5 178.5t94 132.5t139.5 82t172 28t169 -25t133 -74t87.5 -122t31.5 -170q0 -60 -13.5 -110t-39.5 -87t-64 -57.5t-87 -20.5q-63 0 -98 22.5t-46 54.5
q-13 -23 -42.5 -40.5t-78.5 -17.5q-36 0 -68 13t-56 40t-38 69.5t-14 101.5t14.5 103t40 73.5t60 44t74.5 14.5q41 0 65 -14t37 -30l25 31h89v-310q0 -35 10.5 -49.5t36.5 -14.5q16 0 32.5 9t29.5 31t21.5 57t8.5 88q0 79 -23 136t-64.5 94t-100.5 55t-131 18
q-71 0 -133 -21t-107.5 -63t-71.5 -104.5t-26 -144.5q0 -83 24.5 -145.5t68 -104.5t104 -63t131.5 -21zM458 215q25 0 40.5 9.5t24.5 26.5v193q-9 11 -23.5 19.5t-37.5 8.5q-21 0 -35.5 -10.5t-24 -28.5t-14 -42.5t-4.5 -52.5q0 -57 18 -90t56 -33z" />
    <glyph glyph-name="parenleft.case" horiz-adv-x="374" 
d="M238 -71q-45 24 -83 68t-65.5 100t-42.5 122t-15 134q0 64 15 126t42.5 116t65.5 96t83 66h140q-46 -26 -84 -65t-65 -90.5t-42 -114t-15 -134.5q0 -76 16.5 -142t44.5 -120t65.5 -95t78.5 -67h-139v0z" />
    <glyph glyph-name="parenright.case" horiz-adv-x="374" 
d="M-3 -72q44 26 81.5 66t65 92t43 115.5t15.5 137.5q0 75 -16 140t-43.5 118t-65 93t-80.5 66h139q45 -24 83 -67t65.5 -98.5t42.5 -120t15 -131.5q0 -66 -15 -129t-42.5 -117.5t-65.5 -97.5t-83 -67h-139v0z" />
    <glyph glyph-name="bracketleft.case" horiz-adv-x="362" 
d="M61 751h274v-114h-142v-593h142v-114h-274v821z" />
    <glyph glyph-name="bracketright.case" horiz-adv-x="362" 
d="M27 44h141v593h-141v114h274v-821h-274v114z" />
    <glyph glyph-name="braceleft.case" horiz-adv-x="395" 
d="M282 -84q-72 0 -113.5 35.5t-41.5 108.5v143q0 38 -20 59t-50 25l-50 5v98l49 6q31 3 51 24t20 61v140q0 73 39.5 108.5t115.5 35.5q32 0 52.5 -6t30.5 -13v-114q-9 7 -22.5 12.5t-35.5 5.5q-47 0 -47 -45v-132q0 -38 -10 -62.5t-26.5 -38.5t-37 -20.5t-42.5 -8.5v-4
q22 -2 42.5 -8t37 -20.5t26.5 -38.5t10 -62v-135q0 -20 12 -32.5t35 -12.5q22 0 35.5 5.5t22.5 12.5v-113q-10 -7 -30.5 -13t-52.5 -6z" />
    <glyph glyph-name="braceright.case" horiz-adv-x="395" 
d="M114 -84q-33 0 -53 6t-31 13v113q9 -7 22.5 -12.5t36.5 -5.5t35 12.5t12 32.5v135q0 38 10 62t26 38.5t37 20.5t42 8v4q-21 2 -42 8.5t-37 20.5t-26 38.5t-10 62.5v132q0 45 -47 45q-23 0 -36.5 -5.5t-22.5 -12.5v114q11 7 31 13t53 6q76 0 115.5 -35.5t39.5 -108.5v-140
q0 -40 20 -61t50 -24l49 -6v-98l-49 -5q-30 -4 -50 -25t-20 -59v-143q0 -73 -41.5 -108.5t-113.5 -35.5z" />
    <glyph glyph-name="exclamdown.case" horiz-adv-x="288" 
d="M144 696q41 0 66.5 -23.5t25.5 -63.5q0 -39 -25.5 -63t-66.5 -24q-42 0 -67.5 24t-25.5 63q0 40 25.5 63.5t67.5 23.5zM234 0h-180l20 475h140z" />
    <glyph glyph-name="questiondown.case" horiz-adv-x="476" 
d="M338 467q0 -32 -4.5 -57.5t-14.5 -47t-24.5 -40.5t-33.5 -38q-27 -26 -42.5 -46t-15.5 -47q0 -12 4 -23.5t14 -20.5t26.5 -14.5t41.5 -5.5q23 0 46 6t43.5 16t37 23t26.5 28v-158q-23 -23 -73 -40.5t-121 -17.5q-103 0 -160.5 43.5t-57.5 131.5q0 33 9 60t24 49.5
t34.5 42.5t40.5 41q28 28 36.5 53.5t8.5 60.5v9h155v-8zM260 696q42 0 67.5 -23.5t25.5 -63.5q0 -39 -25 -63t-67 -24q-41 0 -67 24t-26 63q0 40 25.5 63.5t66.5 23.5z" />
    <glyph glyph-name="guillemotleft.case" horiz-adv-x="612" 
d="M199 0q-33 78 -75 157t-99 157q57 79 99 150.5t75 150.5h145q-72 -161 -167 -301q48 -70 89.5 -151.5t77.5 -162.5h-145zM430 0q-32 78 -74 157t-99 157q57 79 99 150.5t74 150.5h146q-36 -81 -78 -156t-89 -145q47 -70 89 -151.5t78 -162.5h-146z" />
    <glyph glyph-name="guillemotright.case" horiz-adv-x="612" 
d="M35 0q36 81 77.5 162.5t89.5 151.5q-95 140 -167 301h146q32 -79 74 -150.5t99 -150.5q-57 -78 -99 -157t-74 -157h-146zM267 0q35 81 77 162.5t90 151.5q-48 70 -90 145t-77 156h145q33 -79 75 -150.5t99 -150.5q-57 -78 -99 -157t-75 -157h-145z" />
    <glyph glyph-name="guilsinglleft.case" horiz-adv-x="379" 
d="M199 0q-33 78 -75 157t-99 157q57 79 99 150.5t75 150.5h145q-72 -161 -167 -301q48 -70 89.5 -151.5t77.5 -162.5h-145v0z" />
    <glyph glyph-name="guilsinglright.case" horiz-adv-x="380" 
d="M35 0q36 81 77.5 162.5t89.5 151.5q-95 140 -167 301h146q32 -79 74 -150.5t99 -150.5q-57 -78 -99 -157t-74 -157h-146v0z" />
    <glyph glyph-name="hyphen.case" horiz-adv-x="378" 
d="M53 416h272v-135h-272v135z" />
    <glyph glyph-name="endash.case" horiz-adv-x="706" 
d="M53 412h601v-126h-601v126z" />
    <glyph glyph-name="emdash.case" horiz-adv-x="939" 
d="M53 412h833v-125h-833v125z" />
    <glyph glyph-name="Published" horiz-adv-x="926" 
d="M465 -74q-92 0 -171.5 28.5t-138 83.5t-92 133.5t-33.5 179.5q0 99 33.5 177.5t92 133t138 83t171.5 28.5q93 0 172.5 -28.5t138 -83t92 -133t33.5 -177.5q0 -101 -33.5 -179.5t-92 -133.5t-138 -83.5t-172.5 -28.5zM466 14q73 0 133.5 22t104.5 65t68.5 106t24.5 144
t-24.5 143.5t-68.5 105t-104.5 64t-133.5 21.5q-72 0 -132.5 -21.5t-104.5 -64t-68.5 -105t-24.5 -143.5t24.5 -144t68.5 -106t104.5 -65t132.5 -22zM314 601h165q110 0 158 -48t48 -130q0 -41 -11.5 -76.5t-36.5 -62t-64 -42t-94 -15.5h-45v-125h-120v499zM434 317h43
q45 0 65.5 24t20.5 72q0 49 -20 72t-67 23h-42v-191z" />
    <glyph glyph-name="registered.alt" horiz-adv-x="926" 
d="M465 -74q-92 0 -171.5 28.5t-138 83.5t-92 133.5t-33.5 179.5q0 99 33.5 177.5t92 133t138 83t171.5 28.5q93 0 172.5 -28.5t138 -83t92 -133t33.5 -177.5q0 -101 -33.5 -179.5t-92 -133.5t-138 -83.5t-172.5 -28.5zM466 14q73 0 133.5 22t104.5 65t68.5 106t24.5 144
t-24.5 143.5t-68.5 105t-104.5 64t-133.5 21.5q-72 0 -132.5 -21.5t-104.5 -64t-68.5 -105t-24.5 -143.5t24.5 -144t68.5 -106t104.5 -65t132.5 -22zM469 256h-55v-153h-120v499h168q88 0 141 -40.5t53 -126.5q0 -54 -22 -93t-62 -61l118 -178h-132zM454 338q80 0 80 88
q0 45 -20 64t-61 19h-39v-171h40z" />
    <glyph glyph-name="arrowleft.alt" 
d="M468 -77q-92 0 -171 29t-137.5 83.5t-92 133.5t-33.5 179t33.5 178.5t92 132.5t137.5 82.5t171 28.5q93 0 172.5 -28.5t138 -82.5t92 -132.5t33.5 -178.5t-33.5 -179t-92 -133.5t-138 -83.5t-172.5 -29zM469 11q73 0 133.5 22t104.5 65t68.5 106t24.5 144t-24.5 143.5
t-68.5 105t-104.5 64t-133.5 21.5q-72 0 -133 -21.5t-105 -64t-69 -105t-25 -143.5t25 -144t69 -106t105 -65t133 -22zM400 115q-42 62 -96.5 120t-126.5 112v3q72 54 126.5 112t96.5 120h163q-30 -50 -67 -90.5t-76 -74.5h308v-137h-308q39 -34 75.5 -75t67.5 -90h-163z
" />
    <glyph glyph-name="arrowup.alt" 
d="M468 -77q-92 0 -171.5 29t-138 83.5t-92 133.5t-33.5 179t33.5 178.5t92 132.5t138 82.5t171.5 28.5q93 0 172.5 -28.5t138 -82.5t92 -132.5t33.5 -178.5t-33.5 -179t-92 -133.5t-138 -83.5t-172.5 -29zM469 11q73 0 133.5 22t104.5 65t68.5 106t24.5 144t-24.5 143.5
t-68.5 105t-104.5 64t-133.5 21.5q-72 0 -133 -21.5t-105 -64t-69 -105t-25 -143.5t25 -144t69 -106t105 -65t133 -22zM236 412q63 42 121 97t111 127h5q52 -72 110.5 -127t121.5 -97v-162q-51 31 -91.5 67.5t-74.5 74.5v-305h-137v305q-34 -38 -75 -74.5t-91 -67.5v162z
" />
    <glyph glyph-name="arrowright.alt" 
d="M468 -77q-92 0 -171.5 29t-138 83.5t-92 133.5t-33.5 179t33.5 178.5t92 132.5t138 82.5t171.5 28.5q93 0 172.5 -28.5t138 -82.5t92 -132.5t33.5 -178.5t-33.5 -179t-92 -133.5t-138 -83.5t-172.5 -29zM469 11q73 0 133.5 22t104.5 65t68.5 106t24.5 144t-24.5 143.5
t-68.5 105t-104.5 64t-133.5 21.5q-72 0 -133 -21.5t-105 -64t-69 -105t-25 -143.5t25 -144t69 -106t105 -65t133 -22zM537 579q42 -63 97 -120.5t126 -111.5v-4q-71 -53 -126 -111t-97 -121h-163q31 50 67.5 90.5t75.5 74.5h-308v138h308q-39 33 -75.5 74.5t-67.5 90.5h163
z" />
    <glyph glyph-name="arrowdown.alt" 
d="M468 -77q-92 0 -171.5 29t-138 83.5t-92 133.5t-33.5 179t33.5 178.5t92 132.5t138 82.5t171.5 28.5q93 0 172.5 -28.5t138 -82.5t92 -132.5t33.5 -178.5t-33.5 -179t-92 -133.5t-138 -83.5t-172.5 -29zM469 11q73 0 133.5 22t104.5 65t68.5 106t24.5 144t-24.5 143.5
t-68.5 105t-104.5 64t-133.5 21.5q-72 0 -133 -21.5t-105 -64t-69 -105t-25 -143.5t25 -144t69 -106t105 -65t133 -22zM701 281q-63 -42 -121 -97t-111 -127h-5q-52 72 -110.5 127t-121.5 97v162q51 -31 91.5 -67.5t74.5 -74.5v305h137v-305q34 38 75 74.5t91 67.5v-162z
" />
    <glyph glyph-name="uni2196.alt" 
d="M469 -77q-92 0 -171.5 29t-138 83.5t-92 133t-33.5 178.5t33.5 178.5t92 133t138 83t171.5 28.5t172 -28.5t138.5 -83t92 -133t33.5 -178.5t-33.5 -178.5t-92 -133t-138 -83.5t-172.5 -29zM470 11q73 0 133.5 22t104.5 64.5t68.5 105.5t24.5 144q0 82 -24.5 144.5
t-68.5 105t-105 64t-133 21.5t-133 -21.5t-105.5 -64t-69 -105t-24.5 -143.5q0 -82 24.5 -145t69 -105.5t105.5 -64.5t133 -22zM258 232q14 75 16.5 154.5t-10.5 167.5l3 4q88 -14 167.5 -11t153.5 17l115 -116q-57 -14 -111.5 -16.5t-105.5 0.5l216 -215l-98 -98l-216 216
q4 -51 1 -105.5t-17 -111.5z" />
    <glyph glyph-name="uni2197.alt" 
d="M469 -77q-92 0 -171 29t-137.5 83.5t-92 133t-33.5 178.5t33.5 178.5t92 133t137.5 83t171 28.5q93 0 172.5 -28.5t138 -83t92 -133t33.5 -178.5t-33.5 -178.5t-92 -133t-138 -83.5t-172.5 -29zM470 11q73 0 133.5 22t104.5 64.5t68.5 105.5t24.5 144q0 82 -24.5 144.5
t-68.5 105t-104.5 64t-133.5 21.5q-72 0 -133 -21.5t-105.5 -64t-69 -105t-24.5 -143.5q0 -82 24.5 -145t69 -105.5t105.5 -64.5t133 -22zM351 561q74 -14 154 -16t168 11l3 -4q-14 -88 -11 -167.5t17 -153.5l-115 -115q-14 57 -17 111.5t1 105.5l-216 -215l-97 97l215 216
q-51 -4 -105.5 -1t-111.5 17z" />
    <glyph glyph-name="uni2198.alt" 
d="M469 -77q-92 0 -171.5 29t-138 83.5t-92 133t-33.5 178.5t33.5 178.5t92 133t138 83t171.5 28.5t172 -28.5t138.5 -83t92 -133t33.5 -178.5t-33.5 -178.5t-92 -133t-138.5 -83.5t-172 -29zM470 11q72 0 133 22t105 64.5t68.5 105.5t24.5 144q0 82 -24.5 144.5t-68.5 105
t-105 64t-133 21.5q-73 0 -134 -21.5t-105 -64t-68.5 -105t-24.5 -143.5q0 -82 24.5 -145t68.5 -105.5t105 -64.5t134 -22zM680 462q-14 -75 -16 -154.5t10 -167.5l-3 -3q-88 14 -167.5 11t-153.5 -17l-115 115q57 14 111.5 17t105.5 -1l-216 216l98 97l216 -216
q-4 51 -1 106t17 112z" />
    <glyph glyph-name="uni2199.alt" 
d="M469 -77q-92 0 -171.5 29t-138 83.5t-92 133t-33.5 178.5t33.5 178.5t92 133t138 83t171.5 28.5t172 -28.5t138.5 -83t92 -133t33.5 -178.5t-33.5 -178.5t-92 -133t-138 -83.5t-172.5 -29zM470 11q73 0 133.5 22t104.5 64.5t68.5 105.5t24.5 144q0 82 -24.5 144.5
t-68.5 105t-105 64t-133 21.5t-133 -21.5t-105.5 -64t-69 -105t-24.5 -143.5q0 -82 24.5 -145t69 -105.5t105.5 -64.5t133 -22zM586 133q-74 14 -154 16.5t-168 -11.5l-3 4q14 88 11 167.5t-17 153.5l115 115q14 -57 17 -111.5t-1 -105.5l216 216l97 -98l-215 -216
q51 4 105.5 1t111.5 -17z" />
    <glyph glyph-name="uni2460.alt" 
d="M468 -77q-92 0 -171 29t-137.5 83.5t-92 133.5t-33.5 179t33.5 178.5t92 132.5t137.5 82.5t171 28.5q93 0 172.5 -28.5t138 -82.5t92 -132.5t33.5 -178.5t-33.5 -179t-92 -133.5t-138 -83.5t-172.5 -29zM556 113v474h-79l-195 -91v-128l135 67v-322h139z" />
    <glyph glyph-name="uni2461.alt" 
d="M468 -77q-92 0 -171 29t-137.5 83.5t-92 133.5t-33.5 179t33.5 178.5t92 132.5t137.5 82.5t171 28.5q93 0 172.5 -28.5t138 -82.5t92 -132.5t33.5 -178.5t-33.5 -179t-92 -133.5t-138 -83.5t-172.5 -29zM297 113h367v115h-170l39 37q20 17 40 36t36 41t26 48t10 56
q0 72 -46 112t-146 40q-66 0 -105.5 -16t-58.5 -31v-119q22 21 57.5 37.5t77.5 16.5q45 0 64 -16.5t19 -47.5t-20 -58t-43 -52l-147 -152v-47z" />
    <glyph glyph-name="uni2462.alt" 
d="M468 -77q-92 0 -171 29t-137.5 83.5t-92 133.5t-33.5 179t33.5 178.5t92 132.5t137.5 82.5t171 28.5q93 0 172.5 -28.5t138 -82.5t92 -132.5t33.5 -178.5t-33.5 -179t-92 -133.5t-138 -83.5t-172.5 -29zM434 102q61 0 105.5 14t73 37.5t42 54.5t13.5 66q0 34 -10.5 57
t-28 38.5t-39.5 23.5t-45 12l110 147v35h-374l35 -113h171l-96 -127v-33h44q48 0 65.5 -12t17.5 -36q0 -25 -21 -39.5t-79 -14.5q-42 0 -70.5 10.5t-44.5 24.5v-119q15 -9 47.5 -17.5t83.5 -8.5z" />
    <glyph glyph-name="uni2463.alt" 
d="M468 -77q-92 0 -171 29t-137.5 83.5t-92 133.5t-33.5 179t33.5 178.5t92 132.5t137.5 82.5t171 28.5q93 0 172.5 -28.5t138 -82.5t92 -132.5t33.5 -178.5t-33.5 -179t-92 -133.5t-138 -83.5t-172.5 -29zM489 113h134v87h36l35 109h-71v155h-109l-19 -155h-86l101 278
h-132l-137 -352v-35h248v-87z" />
    <glyph glyph-name="uni2464.alt" 
d="M468 -77q-92 0 -171 29t-137.5 83.5t-92 133.5t-33.5 179t33.5 178.5t92 132.5t137.5 82.5t171 28.5q93 0 172.5 -28.5t138 -82.5t92 -132.5t33.5 -178.5t-33.5 -179t-92 -133.5t-138 -83.5t-172.5 -29zM420 102q112 0 174.5 44.5t62.5 120.5q0 75 -45.5 108.5
t-145.5 33.5q-8 0 -17.5 -1t-12.5 -1l3 67h181l36 113h-340l-13 -301q20 6 46.5 9.5t61.5 3.5q58 0 77 -11t19 -31t-21 -32.5t-75 -12.5q-46 0 -77.5 10t-48.5 19v-116q16 -8 50 -15.5t85 -7.5z" />
    <glyph glyph-name="uni2465.alt" 
d="M468 -77q-92 0 -171 29t-137.5 83.5t-92 133.5t-33.5 179t33.5 178.5t92 132.5t137.5 82.5t171 28.5q93 0 172.5 -28.5t138 -82.5t92 -132.5t33.5 -178.5t-33.5 -179t-92 -133.5t-138 -83.5t-172.5 -29zM456 102q94 0 148.5 48.5t54.5 133.5q0 83 -45 123t-115 40
q-31 0 -56 -10q31 54 78.5 88t98.5 54v8h-181q-32 -15 -64.5 -41.5t-59 -63.5t-43 -84t-16.5 -104q0 -94 53 -143t147 -49zM461 341q28 0 41.5 -16.5t13.5 -46.5t-13.5 -46.5t-41.5 -16.5q-56 0 -56 67v21.5t2 18.5q8 8 21 13.5t33 5.5z" />
    <glyph glyph-name="uni2466.alt" 
d="M468 -77q-92 0 -171 29t-137.5 83.5t-92 133.5t-33.5 179t33.5 178.5t92 132.5t137.5 82.5t171 28.5q93 0 172.5 -28.5t138 -82.5t92 -132.5t33.5 -178.5t-33.5 -179t-92 -133.5t-138 -83.5t-172.5 -29zM351 113h148l169 439v35h-402l36 -113h198z" />
    <glyph glyph-name="uni2467.alt" 
d="M468 -77q-92 0 -171 29t-137.5 83.5t-92 133.5t-33.5 179t33.5 178.5t92 132.5t137.5 82.5t171 28.5q93 0 172.5 -28.5t138 -82.5t92 -132.5t33.5 -178.5t-33.5 -179t-92 -133.5t-138 -83.5t-172.5 -29zM464 102q103 0 153.5 40t50.5 102q0 42 -21.5 70t-53.5 39
q25 14 45 38t20 66q0 68 -47.5 104.5t-137.5 36.5t-141 -36.5t-51 -104.5q0 -42 19 -67t45 -39q-32 -13 -54 -39.5t-22 -67.5q0 -31 11 -57t34.5 -45t60.5 -29.5t89 -10.5zM469 210q-29 0 -43 12.5t-14 32.5t14 32.5t43 12.5t43.5 -12.5t14.5 -32.5t-14.5 -32.5t-43.5 -12.5
zM468 403q-23 0 -36.5 11.5t-13.5 32.5q0 20 13.5 31.5t36.5 11.5q24 0 38.5 -11.5t14.5 -31.5q0 -21 -14 -32.5t-39 -11.5z" />
    <glyph glyph-name="uni2468.alt" 
d="M468 -77q-92 0 -171 29t-137.5 83.5t-92 133.5t-33.5 179t33.5 178.5t92 132.5t137.5 82.5t171 28.5q93 0 172.5 -28.5t138 -82.5t92 -132.5t33.5 -178.5t-33.5 -179t-92 -133.5t-138 -83.5t-172.5 -29zM314 113h181q32 15 64.5 42t58.5 64t42.5 84t16.5 103
q0 95 -52.5 143.5t-146.5 48.5q-47 0 -84.5 -12.5t-64 -36t-41 -57t-14.5 -75.5t12 -72.5t33.5 -51t51 -30t64.5 -9.5q33 0 56 9q-30 -54 -78.5 -88t-98.5 -54v-8zM473 360q-56 0 -56 62q0 64 56 64t56 -68v-20t-2 -19q-8 -8 -21 -13.5t-33 -5.5z" />
    <glyph glyph-name="zerolefthalf" horiz-adv-x="469" 
d="M469 -77q-92 0 -171.5 29t-138 83.5t-92 133.5t-33.5 179t33.5 178.5t92 132.5t138 82.5t171.5 28.5v-88q-72 0 -133 -21.5t-105 -64t-69 -105t-25 -143.5t24.5 -144t69 -106t105.5 -65t133 -22v-88zM318 188q-40 0 -67 10.5t-43.5 31t-23.5 51.5t-7 72q0 83 36 123.5
t105 40.5q80 0 110 -41t30 -123q0 -165 -140 -165zM318 262q27 0 35 19.5t8 71.5t-8 71.5t-35 19.5t-35 -19.5t-8 -71.5t8 -71.5t35 -19.5z" />
    <glyph glyph-name="onelefthalf" horiz-adv-x="469" 
d="M469 -77q-92 0 -171.5 29t-138 83.5t-92 133.5t-33.5 179t33.5 178.5t92 132.5t138 82.5t171.5 28.5v-88q-72 0 -133 -21.5t-105 -64t-69 -105t-25 -143.5t24.5 -144t69 -106t105.5 -65t133 -22v-88zM308 196v212l-96 -44v81l136 64h50v-313h-90z" />
    <glyph glyph-name="twolefthalf" horiz-adv-x="469" 
d="M469 -77q-92 0 -171.5 29t-138 83.5t-92 133.5t-33.5 179t33.5 178.5t92 132.5t138 82.5t171.5 28.5v-88q-72 0 -133 -21.5t-105 -64t-69 -105t-25 -143.5t24.5 -144t69 -106t105.5 -65t133 -22v-88zM205 226l107 101q17 17 29 35t12 38q0 21 -13.5 32t-45.5 11
q-29 0 -54.5 -10.5t-40.5 -24.5v77q14 11 41 21.5t72 10.5q69 0 100.5 -26.5t31.5 -74.5q0 -20 -7 -37.5t-17.5 -32t-24.5 -27t-27 -23.5l-29 -25h120v-75h-254v30z" />
    <glyph glyph-name="threelefthalf" horiz-adv-x="469" 
d="M469 -77q-92 0 -171.5 29t-138 83.5t-92 133.5t-33.5 179t33.5 178.5t92 132.5t138 82.5t171.5 28.5v-88q-72 0 -133 -21.5t-105 -64t-69 -105t-25 -143.5t24.5 -144t69 -106t105.5 -65t133 -22v-88zM297 188q-35 0 -57 5.5t-33 11.5v78q12 -8 31.5 -15t48.5 -7
q43 0 58.5 9.5t15.5 26.5q0 16 -13.5 24t-50.5 8h-29v21l69 86h-116l-22 73h251v-22l-79 -98q17 -3 33 -8.5t28 -15.5t19.5 -25.5t7.5 -38.5t-9.5 -43t-29 -36t-50.5 -25t-73 -9z" />
    <glyph glyph-name="fourlefthalf" horiz-adv-x="469" 
d="M469 -77q-92 0 -171.5 29t-138 83.5t-92 133.5t-33.5 179t33.5 178.5t92 132.5t138 82.5t171.5 28.5v-88q-72 0 -133 -21.5t-105 -64t-69 -105t-25 -143.5t24.5 -144t69 -106t105.5 -65t133 -22v-88zM342 254h-174v22l96 233h87l-72 -184h67l11 103h73v-103h35l-14 -71
h-21v-58h-88v58z" />
    <glyph glyph-name="fivelefthalf" horiz-adv-x="469" 
d="M469 -77q-92 0 -171.5 29t-138 83.5t-92 133.5t-33.5 179t33.5 178.5t92 132.5t138 82.5t171.5 28.5v-88q-72 0 -133 -21.5t-105 -64t-69 -105t-25 -143.5t24.5 -144t69 -106t105.5 -65t133 -22v-88zM297 188q-37 0 -59.5 5t-33.5 10v76q11 -6 32.5 -12t53.5 -6
q38 0 54.5 8t16.5 22t-14 21t-56 7q-25 0 -43 -2t-32 -6l9 198h230l-23 -73h-127l-1 -46q2 0 9 0.5t14 0.5q67 0 99.5 -22t32.5 -72t-43.5 -79.5t-118.5 -29.5z" />
    <glyph glyph-name="sixlefthalf" horiz-adv-x="469" 
d="M469 -77q-92 0 -171.5 29t-138 83.5t-92 133.5t-33.5 179t33.5 178.5t92 132.5t138 82.5t171.5 28.5v-88q-72 0 -133 -21.5t-105 -64t-69 -105t-25 -143.5t24.5 -144t69 -106t105.5 -65t133 -22v-88zM319 188q-66 0 -101.5 33t-35.5 94q0 37 12 68.5t30.5 56t41.5 42
t46 27.5h120v-4q-14 -6 -31.5 -15t-35 -20.5t-33.5 -26t-27 -32.5q18 6 40 6q51 0 82.5 -26.5t31.5 -82.5q0 -55 -38 -87.5t-102 -32.5zM279 334q-1 -6 -1 -12.5v-14.5q0 -45 44 -45t44 43q0 42 -44 42q-16 0 -26 -3.5t-17 -9.5z" />
    <glyph glyph-name="sevenlefthalf" horiz-adv-x="469" 
d="M469 -77q-92 0 -171.5 29t-138 83.5t-92 133.5t-33.5 179t33.5 178.5t92 132.5t138 82.5t171.5 28.5v-88q-72 0 -133 -21.5t-105 -64t-69 -105t-25 -143.5t24.5 -144t69 -106t105.5 -65t133 -22v-88zM354 436h-141l-22 73h273v-22l-119 -291h-96z" />
    <glyph glyph-name="eightlefthalf" horiz-adv-x="469" 
d="M469 -77q-92 0 -171.5 29t-138 83.5t-92 133.5t-33.5 179t33.5 178.5t92 132.5t138 82.5t171.5 28.5v-88q-72 0 -133 -21.5t-105 -64t-69 -105t-25 -143.5t24.5 -144t69 -106t105.5 -65t133 -22v-88zM319 188q-70 0 -102 26.5t-32 67.5q0 28 16 45.5t39 25.5
q-19 9 -32.5 26.5t-13.5 44.5q0 45 34 69t96 24q61 0 94 -24t33 -69q0 -27 -14 -44t-33 -25q23 -8 39 -26.5t16 -46.5q0 -41 -34.5 -67.5t-105.5 -26.5zM322 259q45 0 45 31q0 13 -11 22t-34 9t-33.5 -9t-10.5 -22q0 -31 44 -31zM321 388q41 0 41 29q0 14 -11 22t-30 8
q-17 0 -27.5 -8t-10.5 -22t10.5 -21.5t27.5 -7.5z" />
    <glyph glyph-name="ninelefthalf" horiz-adv-x="469" 
d="M469 -77q-92 0 -171.5 29t-138 83.5t-92 133.5t-33.5 179t33.5 178.5t92 132.5t138 82.5t171.5 28.5v-88q-72 0 -133 -21.5t-105 -64t-69 -105t-25 -143.5t24.5 -144t69 -106t105.5 -65t133 -22v-88zM208 200q14 7 31.5 16t35 20.5t33.5 25.5t27 32q-8 -2 -18 -4t-22 -2
q-51 0 -82 27t-31 82q0 56 38 88t102 32q65 0 101 -32.5t36 -94.5q0 -38 -12 -69t-31 -55.5t-42 -42t-45 -27.5h-121v4zM319 358q28 0 41 13q3 12 3 28q0 45 -44 45t-44 -43t44 -43z" />
    <glyph glyph-name="zerorighthalf" horiz-adv-x="468" 
d="M-1 11q72 0 132.5 21.5t104.5 64t69 105t25 144.5q0 81 -24.5 144t-69 105.5t-105 64.5t-132.5 22v88q92 0 171.5 -28.5t138 -83t92 -133.5t33.5 -179t-33.5 -178.5t-92 -133t-138 -83t-171.5 -28.5v88zM150 188q-80 0 -110.5 41t-30.5 124t36 123.5t105 40.5
q80 0 110 -41t30 -123q0 -165 -140 -165zM150 262q27 0 35 19.5t8 71.5t-8 71.5t-35 19.5t-35.5 -19t-8.5 -72q0 -52 8.5 -71.5t35.5 -19.5z" />
    <glyph glyph-name="onerighthalf" horiz-adv-x="468" 
d="M-1 11q72 0 132.5 21.5t104.5 64t69 105t25 144.5q0 81 -24.5 144t-69 105.5t-105 64.5t-132.5 22v88q92 0 171.5 -28.5t138 -83t92 -133.5t33.5 -179t-33.5 -178.5t-92 -133t-138 -83t-171.5 -28.5v88zM105 196v212l-96 -44v81l136 64h50v-313h-90z" />
    <glyph glyph-name="tworighthalf" horiz-adv-x="468" 
d="M-1 11q72 0 132.5 21.5t104.5 64t69 105t25 144.5q0 81 -24.5 144t-69 105.5t-105 64.5t-132.5 22v88q92 0 171.5 -28.5t138 -83t92 -133.5t33.5 -179t-33.5 -178.5t-92 -133t-138 -83t-171.5 -28.5v88zM15 226l106 101q17 17 29.5 35t12.5 38q0 21 -14 32t-46 11
q-29 0 -54 -10.5t-40 -24.5v77q13 11 40.5 21.5t72.5 10.5q69 0 100.5 -26.5t31.5 -74.5q0 -20 -7 -37.5t-18 -32t-25 -27t-27 -23.5l-29 -25h120v-75h-253v30z" />
    <glyph glyph-name="threerighthalf" horiz-adv-x="468" 
d="M-1 11q72 0 132.5 21.5t104.5 64t69 105t25 144.5q0 81 -24.5 144t-69 105.5t-105 64.5t-132.5 22v88q92 0 171.5 -28.5t138 -83t92 -133.5t33.5 -179t-33.5 -178.5t-92 -133t-138 -83t-171.5 -28.5v88zM102 188q-35 0 -57 5.5t-33 11.5v78q12 -8 31.5 -15t48.5 -7
q43 0 58.5 9.5t15.5 26.5q0 16 -13.5 24t-50.5 8h-29v21l69 86h-113l-22 73h247v-22l-78 -98q17 -3 33 -8.5t28 -15.5t19.5 -25.5t7.5 -38.5t-9.5 -43t-29 -36t-50.5 -25t-73 -9z" />
    </font>
</defs>
</svg>
